  0
SECTION
  2
HEADER
  9
$ANGBASE
  50
0.0
  9
$ANGDIR
  70
1
  9
$MEASUREMENT
  70
1
  0
ENDSEC
  0
SECTION
  2
TABLES
  0
TABLE
  2
LTYPE
  70
4
  0
LTYPE
  5
40F
  2
CONTINUOUS
  70
0
  3
Solid line
  72
65
  73
0
  40
0.0
  0
LTYPE
  5
410
  2
DASHDOT
 70
0
  3
Dash Dot ____ _ ____ _
 72
65
 73
4
 40
2.0
 49
1.25
 49
-0.25
 49
0.25
 49
-0.25
  0
LTYPE
  5
411
  2
DASHED
 70
0
  3
Dashed __ __ __ __ __
 72
65
 73
2
 40
0.75
 49
0.5
 49
-0.25
  0
LTYPE
  5
43B
  2
DOTTED
 70
0
  3
Dotted .  .  .  .
 72
65
 73
2
 40
0.2
 49
0.0
 49
-0.2
  0
ENDTAB
  0
TABLE
  2
STYLE
  70
4
  0
STYLE
  2
KICAD
  70
0
  40
0
  41
1
  42
1
  50
0
  71
0
  3
isocp.shx
  0
STYLE
  2
KICADB
  70
0
  40
0
  41
1
  42
1
  50
0
  71
0
  3
isocp.shx
  0
STYLE
  2
KICADI
  70
0
  40
0
  41
1
  42
1
  50
15
  71
0
  3
isocp.shx
  0
STYLE
  2
KICADBI
  70
0
  40
0
  41
1
  42
1
  50
15
  71
0
  3
isocp.shx
  0
ENDTAB
  0
TABLE
  2
LAYER
  70
1
  0
LAYER
  2
BLACK
  70
0
  62
7
  6
CONTINUOUS
  0
ENDTAB
  0
ENDSEC
  0
SECTION
  2
ENTITIES
0
LINE
8
BLACK
6
CONTINUOUS
10
143.4339999999999975
20
-63.9319999999999951
11
146.6339999999999861
21
-67.1319999999999908
0
LINE
8
BLACK
6
CONTINUOUS
10
146.6339999999999861
20
-63.9319999999999951
11
143.4339999999999975
21
-67.1319999999999908
0
LINE
8
BLACK
6
CONTINUOUS
10
2.6077680000000001
20
-3.1148379999999998
11
2.6077680000000001
21
-1.114838
0
LINE
8
BLACK
6
CONTINUOUS
10
2.6077680000000001
20
-1.114838
11
3.083958
21
-1.114838
0
LINE
8
BLACK
6
CONTINUOUS
10
3.083958
20
-1.114838
11
3.3696729999999997
21
-1.2100759999999999
0
LINE
8
BLACK
6
CONTINUOUS
10
3.3696729999999997
20
-1.2100759999999999
11
3.560149
21
-1.400552
0
LINE
8
BLACK
6
CONTINUOUS
10
3.560149
20
-1.400552
11
3.6553869999999997
21
-1.5910279999999999
0
LINE
8
BLACK
6
CONTINUOUS
10
3.6553869999999997
20
-1.5910279999999999
11
3.7506249999999999
21
-1.9719799999999998
0
LINE
8
BLACK
6
CONTINUOUS
10
3.7506249999999999
20
-1.9719799999999998
11
3.7506249999999999
21
-2.257695
0
LINE
8
BLACK
6
CONTINUOUS
10
3.7506249999999999
20
-2.257695
11
3.6553869999999997
21
-2.6386469999999997
0
LINE
8
BLACK
6
CONTINUOUS
10
3.6553869999999997
20
-2.6386469999999997
11
3.560149
21
-2.8291230000000001
0
LINE
8
BLACK
6
CONTINUOUS
10
3.560149
20
-2.8291230000000001
11
3.3696729999999997
21
-3.0196000000000001
0
LINE
8
BLACK
6
CONTINUOUS
10
3.3696729999999997
20
-3.0196000000000001
11
3.083958
21
-3.1148379999999998
0
LINE
8
BLACK
6
CONTINUOUS
10
3.083958
20
-3.1148379999999998
11
2.6077680000000001
21
-3.1148379999999998
0
LINE
8
BLACK
6
CONTINUOUS
10
4.6077680000000001
20
-3.1148379999999998
11
4.6077680000000001
21
-1.781504
0
LINE
8
BLACK
6
CONTINUOUS
10
4.6077680000000001
20
-2.1624569999999999
11
4.7030059999999994
21
-1.9719799999999998
0
LINE
8
BLACK
6
CONTINUOUS
10
4.7030059999999994
20
-1.9719799999999998
11
4.7982439999999995
21
-1.8767419999999999
0
LINE
8
BLACK
6
CONTINUOUS
10
4.7982439999999995
20
-1.8767419999999999
11
4.9887199999999998
21
-1.781504
0
LINE
8
BLACK
6
CONTINUOUS
10
4.9887199999999998
20
-1.781504
11
5.1791969999999994
21
-1.781504
0
LINE
8
BLACK
6
CONTINUOUS
10
5.8458629999999996
20
-3.1148379999999998
11
5.8458629999999996
21
-1.781504
0
LINE
8
BLACK
6
CONTINUOUS
10
5.8458629999999996
20
-1.114838
11
5.7506249999999994
21
-1.2100759999999999
0
LINE
8
BLACK
6
CONTINUOUS
10
5.7506249999999994
20
-1.2100759999999999
11
5.8458629999999996
21
-1.3053139999999999
0
LINE
8
BLACK
6
CONTINUOUS
10
5.8458629999999996
20
-1.3053139999999999
11
5.9411009999999997
21
-1.2100759999999999
0
LINE
8
BLACK
6
CONTINUOUS
10
5.9411009999999997
20
-1.2100759999999999
11
5.8458629999999996
21
-1.114838
0
LINE
8
BLACK
6
CONTINUOUS
10
5.8458629999999996
20
-1.114838
11
5.8458629999999996
21
-1.3053139999999999
0
LINE
8
BLACK
6
CONTINUOUS
10
7.083958
20
-3.1148379999999998
11
6.8934819999999997
21
-3.0196000000000001
0
LINE
8
BLACK
6
CONTINUOUS
10
6.8934819999999997
20
-3.0196000000000001
11
6.7982439999999995
21
-2.8291230000000001
0
LINE
8
BLACK
6
CONTINUOUS
10
6.7982439999999995
20
-2.8291230000000001
11
6.7982439999999995
21
-1.114838
0
LINE
8
BLACK
6
CONTINUOUS
10
8.1315770000000001
20
-3.1148379999999998
11
7.9411009999999997
21
-3.0196000000000001
0
LINE
8
BLACK
6
CONTINUOUS
10
7.9411009999999997
20
-3.0196000000000001
11
7.8458629999999996
21
-2.8291230000000001
0
LINE
8
BLACK
6
CONTINUOUS
10
7.8458629999999996
20
-2.8291230000000001
11
7.8458629999999996
21
-1.114838
0
LINE
8
BLACK
6
CONTINUOUS
10
10.4172919999999998
20
-3.1148379999999998
11
10.4172919999999998
21
-1.114838
0
LINE
8
BLACK
6
CONTINUOUS
10
10.4172919999999998
20
-1.114838
11
11.0839590000000001
21
-2.543409
0
LINE
8
BLACK
6
CONTINUOUS
10
11.0839590000000001
20
-2.543409
11
11.7506249999999994
21
-1.114838
0
LINE
8
BLACK
6
CONTINUOUS
10
11.7506249999999994
20
-1.114838
11
11.7506249999999994
21
-3.1148379999999998
0
LINE
8
BLACK
6
CONTINUOUS
10
13.5601489999999991
20
-3.1148379999999998
11
13.5601489999999991
21
-2.0672189999999997
0
LINE
8
BLACK
6
CONTINUOUS
10
13.5601489999999991
20
-2.0672189999999997
11
13.464910999999999
21
-1.8767419999999999
0
LINE
8
BLACK
6
CONTINUOUS
10
13.464910999999999
20
-1.8767419999999999
11
13.2744349999999987
21
-1.781504
0
LINE
8
BLACK
6
CONTINUOUS
10
13.2744349999999987
20
-1.781504
11
12.8934819999999988
21
-1.781504
0
LINE
8
BLACK
6
CONTINUOUS
10
12.8934819999999988
20
-1.781504
11
12.7030060000000002
21
-1.8767419999999999
0
LINE
8
BLACK
6
CONTINUOUS
10
13.5601489999999991
20
-3.0196000000000001
11
13.3696729999999988
21
-3.1148379999999998
0
LINE
8
BLACK
6
CONTINUOUS
10
13.3696729999999988
20
-3.1148379999999998
11
12.8934819999999988
21
-3.1148379999999998
0
LINE
8
BLACK
6
CONTINUOUS
10
12.8934819999999988
20
-3.1148379999999998
11
12.7030060000000002
21
-3.0196000000000001
0
LINE
8
BLACK
6
CONTINUOUS
10
12.7030060000000002
20
-3.0196000000000001
11
12.6077680000000001
21
-2.8291230000000001
0
LINE
8
BLACK
6
CONTINUOUS
10
12.6077680000000001
20
-2.8291230000000001
11
12.6077680000000001
21
-2.6386469999999997
0
LINE
8
BLACK
6
CONTINUOUS
10
12.6077680000000001
20
-2.6386469999999997
11
12.7030060000000002
21
-2.4481709999999999
0
LINE
8
BLACK
6
CONTINUOUS
10
12.7030060000000002
20
-2.4481709999999999
11
12.8934819999999988
21
-2.3529329999999997
0
LINE
8
BLACK
6
CONTINUOUS
10
12.8934819999999988
20
-2.3529329999999997
11
13.3696729999999988
21
-2.3529329999999997
0
LINE
8
BLACK
6
CONTINUOUS
10
13.3696729999999988
20
-2.3529329999999997
11
13.5601489999999991
21
-2.257695
0
LINE
8
BLACK
6
CONTINUOUS
10
14.5125299999999999
20
-1.781504
11
14.5125299999999999
21
-3.781504
0
LINE
8
BLACK
6
CONTINUOUS
10
14.5125299999999999
20
-1.8767419999999999
11
14.7030059999999985
21
-1.781504
0
LINE
8
BLACK
6
CONTINUOUS
10
14.7030059999999985
20
-1.781504
11
15.0839590000000001
21
-1.781504
0
LINE
8
BLACK
6
CONTINUOUS
10
15.0839590000000001
20
-1.781504
11
15.2744349999999987
21
-1.8767419999999999
0
LINE
8
BLACK
6
CONTINUOUS
10
15.2744349999999987
20
-1.8767419999999999
11
15.3696729999999988
21
-1.9719799999999998
0
LINE
8
BLACK
6
CONTINUOUS
10
15.3696729999999988
20
-1.9719799999999998
11
15.464910999999999
21
-2.1624569999999999
0
LINE
8
BLACK
6
CONTINUOUS
10
15.464910999999999
20
-2.1624569999999999
11
15.464910999999999
21
-2.7338849999999999
0
LINE
8
BLACK
6
CONTINUOUS
10
15.464910999999999
20
-2.7338849999999999
11
15.3696729999999988
21
-2.9243609999999998
0
LINE
8
BLACK
6
CONTINUOUS
10
15.3696729999999988
20
-2.9243609999999998
11
15.2744349999999987
21
-3.0196000000000001
0
LINE
8
BLACK
6
CONTINUOUS
10
15.2744349999999987
20
-3.0196000000000001
11
15.0839590000000001
21
-3.1148379999999998
0
LINE
8
BLACK
6
CONTINUOUS
10
15.0839590000000001
20
-3.1148379999999998
11
14.7030059999999985
21
-3.1148379999999998
0
LINE
8
BLACK
6
CONTINUOUS
10
14.7030059999999985
20
-3.1148379999999998
11
14.5125299999999999
21
-3.0196000000000001
0
LINE
8
BLACK
6
CONTINUOUS
10
16.3220539999999978
20
-2.9243609999999998
11
16.4172919999999998
21
-3.0196000000000001
0
LINE
8
BLACK
6
CONTINUOUS
10
16.4172919999999998
20
-3.0196000000000001
11
16.3220539999999978
21
-3.1148379999999998
0
LINE
8
BLACK
6
CONTINUOUS
10
16.3220539999999978
20
-3.1148379999999998
11
16.2268159999999995
21
-3.0196000000000001
0
LINE
8
BLACK
6
CONTINUOUS
10
16.2268159999999995
20
-3.0196000000000001
11
16.3220539999999978
21
-2.9243609999999998
0
LINE
8
BLACK
6
CONTINUOUS
10
16.3220539999999978
20
-2.9243609999999998
11
16.3220539999999978
21
-3.1148379999999998
0
LINE
8
BLACK
6
CONTINUOUS
10
16.3220539999999978
20
-1.8767419999999999
11
16.4172919999999998
21
-1.9719799999999998
0
LINE
8
BLACK
6
CONTINUOUS
10
16.4172919999999998
20
-1.9719799999999998
11
16.3220539999999978
21
-2.0672189999999997
0
LINE
8
BLACK
6
CONTINUOUS
10
16.3220539999999978
20
-2.0672189999999997
11
16.2268159999999995
21
-1.9719799999999998
0
LINE
8
BLACK
6
CONTINUOUS
10
16.2268159999999995
20
-1.9719799999999998
11
16.3220539999999978
21
-1.8767419999999999
0
LINE
8
BLACK
6
CONTINUOUS
10
16.3220539999999978
20
-1.8767419999999999
11
16.3220539999999978
21
-2.0672189999999997
0
LINE
8
BLACK
6
CONTINUOUS
10
-2.
20
-5.3999999999999995
11
0.
21
-7.3999999999999995
0
LINE
8
BLACK
6
CONTINUOUS
10
0.
20
-5.3999999999999995
11
-2.
21
-7.3999999999999995
0
LINE
8
BLACK
6
CONTINUOUS
10
2.4172919999999998
20
-5.314838
11
3.6553869999999997
21
-5.314838
0
LINE
8
BLACK
6
CONTINUOUS
10
3.6553869999999997
20
-5.314838
11
2.9887199999999998
21
-6.0767419999999994
0
LINE
8
BLACK
6
CONTINUOUS
10
2.9887199999999998
20
-6.0767419999999994
11
3.274435
21
-6.0767419999999994
0
LINE
8
BLACK
6
CONTINUOUS
10
3.274435
20
-6.0767419999999994
11
3.4649109999999999
21
-6.1719799999999996
0
LINE
8
BLACK
6
CONTINUOUS
10
3.4649109999999999
20
-6.1719799999999996
11
3.560149
21
-6.2672189999999999
0
LINE
8
BLACK
6
CONTINUOUS
10
3.560149
20
-6.2672189999999999
11
3.6553869999999997
21
-6.4576949999999993
0
LINE
8
BLACK
6
CONTINUOUS
10
3.6553869999999997
20
-6.4576949999999993
11
3.6553869999999997
21
-6.9338850000000001
0
LINE
8
BLACK
6
CONTINUOUS
10
3.6553869999999997
20
-6.9338850000000001
11
3.560149
21
-7.1243609999999995
0
LINE
8
BLACK
6
CONTINUOUS
10
3.560149
20
-7.1243609999999995
11
3.4649109999999999
21
-7.2195999999999998
0
LINE
8
BLACK
6
CONTINUOUS
10
3.4649109999999999
20
-7.2195999999999998
11
3.274435
21
-7.314838
0
LINE
8
BLACK
6
CONTINUOUS
10
3.274435
20
-7.314838
11
2.7030059999999998
21
-7.314838
0
LINE
8
BLACK
6
CONTINUOUS
10
2.7030059999999998
20
-7.314838
11
2.5125299999999999
21
-7.2195999999999998
0
LINE
8
BLACK
6
CONTINUOUS
10
2.5125299999999999
20
-7.2195999999999998
11
2.4172919999999998
21
-7.1243609999999995
0
LINE
8
BLACK
6
CONTINUOUS
10
4.5125299999999999
20
-7.1243609999999995
11
4.6077680000000001
21
-7.2195999999999998
0
LINE
8
BLACK
6
CONTINUOUS
10
4.6077680000000001
20
-7.2195999999999998
11
4.5125299999999999
21
-7.314838
0
LINE
8
BLACK
6
CONTINUOUS
10
4.5125299999999999
20
-7.314838
11
4.4172919999999998
21
-7.2195999999999998
0
LINE
8
BLACK
6
CONTINUOUS
10
4.4172919999999998
20
-7.2195999999999998
11
4.5125299999999999
21
-7.1243609999999995
0
LINE
8
BLACK
6
CONTINUOUS
10
4.5125299999999999
20
-7.1243609999999995
11
4.5125299999999999
21
-7.314838
0
LINE
8
BLACK
6
CONTINUOUS
10
5.3696729999999997
20
-5.5053139999999994
11
5.4649109999999999
21
-5.4100760000000001
0
LINE
8
BLACK
6
CONTINUOUS
10
5.4649109999999999
20
-5.4100760000000001
11
5.6553870000000002
21
-5.314838
0
LINE
8
BLACK
6
CONTINUOUS
10
5.6553870000000002
20
-5.314838
11
6.1315779999999993
21
-5.314838
0
LINE
8
BLACK
6
CONTINUOUS
10
6.1315779999999993
20
-5.314838
11
6.3220539999999996
21
-5.4100760000000001
0
LINE
8
BLACK
6
CONTINUOUS
10
6.3220539999999996
20
-5.4100760000000001
11
6.4172919999999998
21
-5.5053139999999994
0
LINE
8
BLACK
6
CONTINUOUS
10
6.4172919999999998
20
-5.5053139999999994
11
6.5125299999999999
21
-5.6957899999999997
0
LINE
8
BLACK
6
CONTINUOUS
10
6.5125299999999999
20
-5.6957899999999997
11
6.5125299999999999
21
-5.886266
0
LINE
8
BLACK
6
CONTINUOUS
10
6.5125299999999999
20
-5.886266
11
6.4172919999999998
21
-6.1719799999999996
0
LINE
8
BLACK
6
CONTINUOUS
10
6.4172919999999998
20
-6.1719799999999996
11
5.2744349999999995
21
-7.314838
0
LINE
8
BLACK
6
CONTINUOUS
10
5.2744349999999995
20
-7.314838
11
6.5125299999999999
21
-7.314838
0
LINE
8
BLACK
6
CONTINUOUS
10
7.7506249999999994
20
-5.314838
11
7.9411019999999999
21
-5.314838
0
LINE
8
BLACK
6
CONTINUOUS
10
7.9411019999999999
20
-5.314838
11
8.1315779999999993
21
-5.4100760000000001
0
LINE
8
BLACK
6
CONTINUOUS
10
8.1315779999999993
20
-5.4100760000000001
11
8.2268159999999995
21
-5.5053139999999994
0
LINE
8
BLACK
6
CONTINUOUS
10
8.2268159999999995
20
-5.5053139999999994
11
8.3220539999999996
21
-5.6957899999999997
0
LINE
8
BLACK
6
CONTINUOUS
10
8.3220539999999996
20
-5.6957899999999997
11
8.4172919999999998
21
-6.0767419999999994
0
LINE
8
BLACK
6
CONTINUOUS
10
8.4172919999999998
20
-6.0767419999999994
11
8.4172919999999998
21
-6.5529329999999995
0
LINE
8
BLACK
6
CONTINUOUS
10
8.4172919999999998
20
-6.5529329999999995
11
8.3220539999999996
21
-6.9338850000000001
0
LINE
8
BLACK
6
CONTINUOUS
10
8.3220539999999996
20
-6.9338850000000001
11
8.2268159999999995
21
-7.1243609999999995
0
LINE
8
BLACK
6
CONTINUOUS
10
8.2268159999999995
20
-7.1243609999999995
11
8.1315779999999993
21
-7.2195999999999998
0
LINE
8
BLACK
6
CONTINUOUS
10
8.1315779999999993
20
-7.2195999999999998
11
7.9411019999999999
21
-7.314838
0
LINE
8
BLACK
6
CONTINUOUS
10
7.9411019999999999
20
-7.314838
11
7.7506249999999994
21
-7.314838
0
LINE
8
BLACK
6
CONTINUOUS
10
7.7506249999999994
20
-7.314838
11
7.560149
21
-7.2195999999999998
0
LINE
8
BLACK
6
CONTINUOUS
10
7.560149
20
-7.2195999999999998
11
7.4649109999999999
21
-7.1243609999999995
0
LINE
8
BLACK
6
CONTINUOUS
10
7.4649109999999999
20
-7.1243609999999995
11
7.3696729999999997
21
-6.9338850000000001
0
LINE
8
BLACK
6
CONTINUOUS
10
7.3696729999999997
20
-6.9338850000000001
11
7.2744349999999995
21
-6.5529329999999995
0
LINE
8
BLACK
6
CONTINUOUS
10
7.2744349999999995
20
-6.5529329999999995
11
7.2744349999999995
21
-6.0767419999999994
0
LINE
8
BLACK
6
CONTINUOUS
10
7.2744349999999995
20
-6.0767419999999994
11
7.3696729999999997
21
-5.6957899999999997
0
LINE
8
BLACK
6
CONTINUOUS
10
7.3696729999999997
20
-5.6957899999999997
11
7.4649109999999999
21
-5.5053139999999994
0
LINE
8
BLACK
6
CONTINUOUS
10
7.4649109999999999
20
-5.5053139999999994
11
7.560149
21
-5.4100760000000001
0
LINE
8
BLACK
6
CONTINUOUS
10
7.560149
20
-5.4100760000000001
11
7.7506249999999994
21
-5.314838
0
LINE
8
BLACK
6
CONTINUOUS
10
9.6553869999999993
20
-5.314838
11
9.8458639999999988
21
-5.314838
0
LINE
8
BLACK
6
CONTINUOUS
10
9.8458639999999988
20
-5.314838
11
10.0363399999999992
21
-5.4100760000000001
0
LINE
8
BLACK
6
CONTINUOUS
10
10.0363399999999992
20
-5.4100760000000001
11
10.1315779999999993
21
-5.5053139999999994
0
LINE
8
BLACK
6
CONTINUOUS
10
10.1315779999999993
20
-5.5053139999999994
11
10.2268159999999995
21
-5.6957899999999997
0
LINE
8
BLACK
6
CONTINUOUS
10
10.2268159999999995
20
-5.6957899999999997
11
10.3220539999999996
21
-6.0767419999999994
0
LINE
8
BLACK
6
CONTINUOUS
10
10.3220539999999996
20
-6.0767419999999994
11
10.3220539999999996
21
-6.5529329999999995
0
LINE
8
BLACK
6
CONTINUOUS
10
10.3220539999999996
20
-6.5529329999999995
11
10.2268159999999995
21
-6.9338850000000001
0
LINE
8
BLACK
6
CONTINUOUS
10
10.2268159999999995
20
-6.9338850000000001
11
10.1315779999999993
21
-7.1243609999999995
0
LINE
8
BLACK
6
CONTINUOUS
10
10.1315779999999993
20
-7.1243609999999995
11
10.0363399999999992
21
-7.2195999999999998
0
LINE
8
BLACK
6
CONTINUOUS
10
10.0363399999999992
20
-7.2195999999999998
11
9.8458639999999988
21
-7.314838
0
LINE
8
BLACK
6
CONTINUOUS
10
9.8458639999999988
20
-7.314838
11
9.6553869999999993
21
-7.314838
0
LINE
8
BLACK
6
CONTINUOUS
10
9.6553869999999993
20
-7.314838
11
9.464910999999999
21
-7.2195999999999998
0
LINE
8
BLACK
6
CONTINUOUS
10
9.464910999999999
20
-7.2195999999999998
11
9.3696729999999988
21
-7.1243609999999995
0
LINE
8
BLACK
6
CONTINUOUS
10
9.3696729999999988
20
-7.1243609999999995
11
9.2744350000000004
21
-6.9338850000000001
0
LINE
8
BLACK
6
CONTINUOUS
10
9.2744350000000004
20
-6.9338850000000001
11
9.1791970000000003
21
-6.5529329999999995
0
LINE
8
BLACK
6
CONTINUOUS
10
9.1791970000000003
20
-6.5529329999999995
11
9.1791970000000003
21
-6.0767419999999994
0
LINE
8
BLACK
6
CONTINUOUS
10
9.1791970000000003
20
-6.0767419999999994
11
9.2744350000000004
21
-5.6957899999999997
0
LINE
8
BLACK
6
CONTINUOUS
10
9.2744350000000004
20
-5.6957899999999997
11
9.3696729999999988
21
-5.5053139999999994
0
LINE
8
BLACK
6
CONTINUOUS
10
9.3696729999999988
20
-5.5053139999999994
11
9.464910999999999
21
-5.4100760000000001
0
LINE
8
BLACK
6
CONTINUOUS
10
9.464910999999999
20
-5.4100760000000001
11
9.6553869999999993
21
-5.314838
0
LINE
8
BLACK
6
CONTINUOUS
10
11.1791970000000003
20
-7.314838
11
11.1791970000000003
21
-5.9815040000000002
0
LINE
8
BLACK
6
CONTINUOUS
10
11.1791970000000003
20
-6.1719799999999996
11
11.2744349999999987
21
-6.0767419999999994
0
LINE
8
BLACK
6
CONTINUOUS
10
11.2744349999999987
20
-6.0767419999999994
11
11.464910999999999
21
-5.9815040000000002
0
LINE
8
BLACK
6
CONTINUOUS
10
11.464910999999999
20
-5.9815040000000002
11
11.7506259999999987
21
-5.9815040000000002
0
LINE
8
BLACK
6
CONTINUOUS
10
11.7506259999999987
20
-5.9815040000000002
11
11.941101999999999
21
-6.0767419999999994
0
LINE
8
BLACK
6
CONTINUOUS
10
11.941101999999999
20
-6.0767419999999994
11
12.0363399999999992
21
-6.2672189999999999
0
LINE
8
BLACK
6
CONTINUOUS
10
12.0363399999999992
20
-6.2672189999999999
11
12.0363399999999992
21
-7.314838
0
LINE
8
BLACK
6
CONTINUOUS
10
12.0363399999999992
20
-6.2672189999999999
11
12.1315779999999993
21
-6.0767419999999994
0
LINE
8
BLACK
6
CONTINUOUS
10
12.1315779999999993
20
-6.0767419999999994
11
12.3220539999999996
21
-5.9815040000000002
0
LINE
8
BLACK
6
CONTINUOUS
10
12.3220539999999996
20
-5.9815040000000002
11
12.6077680000000001
21
-5.9815040000000002
0
LINE
8
BLACK
6
CONTINUOUS
10
12.6077680000000001
20
-5.9815040000000002
11
12.7982449999999996
21
-6.0767419999999994
0
LINE
8
BLACK
6
CONTINUOUS
10
12.7982449999999996
20
-6.0767419999999994
11
12.8934829999999998
21
-6.2672189999999999
0
LINE
8
BLACK
6
CONTINUOUS
10
12.8934829999999998
20
-6.2672189999999999
11
12.8934829999999998
21
-7.314838
0
LINE
8
BLACK
6
CONTINUOUS
10
13.8458639999999988
20
-7.314838
11
13.8458639999999988
21
-5.9815040000000002
0
LINE
8
BLACK
6
CONTINUOUS
10
13.8458639999999988
20
-6.1719799999999996
11
13.941101999999999
21
-6.0767419999999994
0
LINE
8
BLACK
6
CONTINUOUS
10
13.941101999999999
20
-6.0767419999999994
11
14.1315779999999993
21
-5.9815040000000002
0
LINE
8
BLACK
6
CONTINUOUS
10
14.1315779999999993
20
-5.9815040000000002
11
14.417292999999999
21
-5.9815040000000002
0
LINE
8
BLACK
6
CONTINUOUS
10
14.417292999999999
20
-5.9815040000000002
11
14.6077689999999993
21
-6.0767419999999994
0
LINE
8
BLACK
6
CONTINUOUS
10
14.6077689999999993
20
-6.0767419999999994
11
14.7030069999999995
21
-6.2672189999999999
0
LINE
8
BLACK
6
CONTINUOUS
10
14.7030069999999995
20
-6.2672189999999999
11
14.7030069999999995
21
-7.314838
0
LINE
8
BLACK
6
CONTINUOUS
10
14.7030069999999995
20
-6.2672189999999999
11
14.7982449999999996
21
-6.0767419999999994
0
LINE
8
BLACK
6
CONTINUOUS
10
14.7982449999999996
20
-6.0767419999999994
11
14.988721
21
-5.9815040000000002
0
LINE
8
BLACK
6
CONTINUOUS
10
14.988721
20
-5.9815040000000002
11
15.2744349999999987
21
-5.9815040000000002
0
LINE
8
BLACK
6
CONTINUOUS
10
15.2744349999999987
20
-5.9815040000000002
11
15.464912
21
-6.0767419999999994
0
LINE
8
BLACK
6
CONTINUOUS
10
15.464912
20
-6.0767419999999994
11
15.5601500000000001
21
-6.2672189999999999
0
LINE
8
BLACK
6
CONTINUOUS
10
15.5601500000000001
20
-6.2672189999999999
11
15.5601500000000001
21
-7.314838
0
LINE
8
BLACK
6
CONTINUOUS
10
19.4649119999999982
20
-5.2195999999999998
11
17.7506269999999979
21
-7.7910279999999998
0
LINE
8
BLACK
6
CONTINUOUS
10
22.0363410000000002
20
-5.314838
11
22.226817999999998
21
-5.314838
0
LINE
8
BLACK
6
CONTINUOUS
10
22.226817999999998
20
-5.314838
11
22.4172939999999983
21
-5.4100760000000001
0
LINE
8
BLACK
6
CONTINUOUS
10
22.4172939999999983
20
-5.4100760000000001
11
22.5125320000000002
21
-5.5053139999999994
0
LINE
8
BLACK
6
CONTINUOUS
10
22.5125320000000002
20
-5.5053139999999994
11
22.6077699999999986
21
-5.6957899999999997
0
LINE
8
BLACK
6
CONTINUOUS
10
22.6077699999999986
20
-5.6957899999999997
11
22.7030080000000005
21
-6.0767419999999994
0
LINE
8
BLACK
6
CONTINUOUS
10
22.7030080000000005
20
-6.0767419999999994
11
22.7030080000000005
21
-6.5529329999999995
0
LINE
8
BLACK
6
CONTINUOUS
10
22.7030080000000005
20
-6.5529329999999995
11
22.6077699999999986
21
-6.9338850000000001
0
LINE
8
BLACK
6
CONTINUOUS
10
22.6077699999999986
20
-6.9338850000000001
11
22.5125320000000002
21
-7.1243609999999995
0
LINE
8
BLACK
6
CONTINUOUS
10
22.5125320000000002
20
-7.1243609999999995
11
22.4172939999999983
21
-7.2195999999999998
0
LINE
8
BLACK
6
CONTINUOUS
10
22.4172939999999983
20
-7.2195999999999998
11
22.226817999999998
21
-7.314838
0
LINE
8
BLACK
6
CONTINUOUS
10
22.226817999999998
20
-7.314838
11
22.0363410000000002
21
-7.314838
0
LINE
8
BLACK
6
CONTINUOUS
10
22.0363410000000002
20
-7.314838
11
21.8458649999999999
21
-7.2195999999999998
0
LINE
8
BLACK
6
CONTINUOUS
10
21.8458649999999999
20
-7.2195999999999998
11
21.7506269999999979
21
-7.1243609999999995
0
LINE
8
BLACK
6
CONTINUOUS
10
21.7506269999999979
20
-7.1243609999999995
11
21.6553889999999996
21
-6.9338850000000001
0
LINE
8
BLACK
6
CONTINUOUS
10
21.6553889999999996
20
-6.9338850000000001
11
21.5601509999999976
21
-6.5529329999999995
0
LINE
8
BLACK
6
CONTINUOUS
10
21.5601509999999976
20
-6.5529329999999995
11
21.5601509999999976
21
-6.0767419999999994
0
LINE
8
BLACK
6
CONTINUOUS
10
21.5601509999999976
20
-6.0767419999999994
11
21.6553889999999996
21
-5.6957899999999997
0
LINE
8
BLACK
6
CONTINUOUS
10
21.6553889999999996
20
-5.6957899999999997
11
21.7506269999999979
21
-5.5053139999999994
0
LINE
8
BLACK
6
CONTINUOUS
10
21.7506269999999979
20
-5.5053139999999994
11
21.8458649999999999
21
-5.4100760000000001
0
LINE
8
BLACK
6
CONTINUOUS
10
21.8458649999999999
20
-5.4100760000000001
11
22.0363410000000002
21
-5.314838
0
LINE
8
BLACK
6
CONTINUOUS
10
23.5601509999999976
20
-7.1243609999999995
11
23.6553889999999996
21
-7.2195999999999998
0
LINE
8
BLACK
6
CONTINUOUS
10
23.6553889999999996
20
-7.2195999999999998
11
23.5601509999999976
21
-7.314838
0
LINE
8
BLACK
6
CONTINUOUS
10
23.5601509999999976
20
-7.314838
11
23.4649129999999992
21
-7.2195999999999998
0
LINE
8
BLACK
6
CONTINUOUS
10
23.4649129999999992
20
-7.2195999999999998
11
23.5601509999999976
21
-7.1243609999999995
0
LINE
8
BLACK
6
CONTINUOUS
10
23.5601509999999976
20
-7.1243609999999995
11
23.5601509999999976
21
-7.314838
0
LINE
8
BLACK
6
CONTINUOUS
10
25.5601509999999976
20
-7.314838
11
24.4172939999999983
21
-7.314838
0
LINE
8
BLACK
6
CONTINUOUS
10
24.9887219999999992
20
-7.314838
11
24.9887219999999992
21
-5.314838
0
LINE
8
BLACK
6
CONTINUOUS
10
24.9887219999999992
20
-5.314838
11
24.7982459999999989
21
-5.6005519999999995
0
LINE
8
BLACK
6
CONTINUOUS
10
24.7982459999999989
20
-5.6005519999999995
11
24.6077699999999986
21
-5.7910279999999998
0
LINE
8
BLACK
6
CONTINUOUS
10
24.6077699999999986
20
-5.7910279999999998
11
24.4172939999999983
21
-5.886266
0
LINE
8
BLACK
6
CONTINUOUS
10
26.3220559999999999
20
-5.5053139999999994
11
26.4172939999999983
21
-5.4100760000000001
0
LINE
8
BLACK
6
CONTINUOUS
10
26.4172939999999983
20
-5.4100760000000001
11
26.6077699999999986
21
-5.314838
0
LINE
8
BLACK
6
CONTINUOUS
10
26.6077699999999986
20
-5.314838
11
27.0839609999999986
21
-5.314838
0
LINE
8
BLACK
6
CONTINUOUS
10
27.0839609999999986
20
-5.314838
11
27.2744369999999989
21
-5.4100760000000001
0
LINE
8
BLACK
6
CONTINUOUS
10
27.2744369999999989
20
-5.4100760000000001
11
27.3696749999999973
21
-5.5053139999999994
0
LINE
8
BLACK
6
CONTINUOUS
10
27.3696749999999973
20
-5.5053139999999994
11
27.4649129999999992
21
-5.6957899999999997
0
LINE
8
BLACK
6
CONTINUOUS
10
27.4649129999999992
20
-5.6957899999999997
11
27.4649129999999992
21
-5.886266
0
LINE
8
BLACK
6
CONTINUOUS
10
27.4649129999999992
20
-5.886266
11
27.3696749999999973
21
-6.1719799999999996
0
LINE
8
BLACK
6
CONTINUOUS
10
27.3696749999999973
20
-6.1719799999999996
11
26.226817999999998
21
-7.314838
0
LINE
8
BLACK
6
CONTINUOUS
10
26.226817999999998
20
-7.314838
11
27.4649129999999992
21
-7.314838
0
LINE
8
BLACK
6
CONTINUOUS
10
29.179198999999997
20
-5.314838
11
28.7982459999999989
21
-5.314838
0
LINE
8
BLACK
6
CONTINUOUS
10
28.7982459999999989
20
-5.314838
11
28.6077699999999986
21
-5.4100760000000001
0
LINE
8
BLACK
6
CONTINUOUS
10
28.6077699999999986
20
-5.4100760000000001
11
28.5125320000000002
21
-5.5053139999999994
0
LINE
8
BLACK
6
CONTINUOUS
10
28.5125320000000002
20
-5.5053139999999994
11
28.3220559999999999
21
-5.7910279999999998
0
LINE
8
BLACK
6
CONTINUOUS
10
28.3220559999999999
20
-5.7910279999999998
11
28.226817999999998
21
-6.1719799999999996
0
LINE
8
BLACK
6
CONTINUOUS
10
28.226817999999998
20
-6.1719799999999996
11
28.226817999999998
21
-6.9338850000000001
0
LINE
8
BLACK
6
CONTINUOUS
10
28.226817999999998
20
-6.9338850000000001
11
28.3220559999999999
21
-7.1243609999999995
0
LINE
8
BLACK
6
CONTINUOUS
10
28.3220559999999999
20
-7.1243609999999995
11
28.4172939999999983
21
-7.2195999999999998
0
LINE
8
BLACK
6
CONTINUOUS
10
28.4172939999999983
20
-7.2195999999999998
11
28.6077699999999986
21
-7.314838
0
LINE
8
BLACK
6
CONTINUOUS
10
28.6077699999999986
20
-7.314838
11
28.9887230000000002
21
-7.314838
0
LINE
8
BLACK
6
CONTINUOUS
10
28.9887230000000002
20
-7.314838
11
29.179198999999997
21
-7.2195999999999998
0
LINE
8
BLACK
6
CONTINUOUS
10
29.179198999999997
20
-7.2195999999999998
11
29.2744369999999989
21
-7.1243609999999995
0
LINE
8
BLACK
6
CONTINUOUS
10
29.2744369999999989
20
-7.1243609999999995
11
29.3696749999999973
21
-6.9338850000000001
0
LINE
8
BLACK
6
CONTINUOUS
10
29.3696749999999973
20
-6.9338850000000001
11
29.3696749999999973
21
-6.4576949999999993
0
LINE
8
BLACK
6
CONTINUOUS
10
29.3696749999999973
20
-6.4576949999999993
11
29.2744369999999989
21
-6.2672189999999999
0
LINE
8
BLACK
6
CONTINUOUS
10
29.2744369999999989
20
-6.2672189999999999
11
29.179198999999997
21
-6.1719799999999996
0
LINE
8
BLACK
6
CONTINUOUS
10
29.179198999999997
20
-6.1719799999999996
11
28.9887230000000002
21
-6.0767419999999994
0
LINE
8
BLACK
6
CONTINUOUS
10
28.9887230000000002
20
-6.0767419999999994
11
28.6077699999999986
21
-6.0767419999999994
0
LINE
8
BLACK
6
CONTINUOUS
10
28.6077699999999986
20
-6.0767419999999994
11
28.4172939999999983
21
-6.1719799999999996
0
LINE
8
BLACK
6
CONTINUOUS
10
28.4172939999999983
20
-6.1719799999999996
11
28.3220559999999999
21
-6.2672189999999999
0
LINE
8
BLACK
6
CONTINUOUS
10
28.3220559999999999
20
-6.2672189999999999
11
28.226817999999998
21
-6.4576949999999993
0
LINE
8
BLACK
6
CONTINUOUS
10
30.6077699999999986
20
-5.314838
11
30.7982469999999999
21
-5.314838
0
LINE
8
BLACK
6
CONTINUOUS
10
30.7982469999999999
20
-5.314838
11
30.9887230000000002
21
-5.4100760000000001
0
LINE
8
BLACK
6
CONTINUOUS
10
30.9887230000000002
20
-5.4100760000000001
11
31.0839609999999986
21
-5.5053139999999994
0
LINE
8
BLACK
6
CONTINUOUS
10
31.0839609999999986
20
-5.5053139999999994
11
31.179198999999997
21
-5.6957899999999997
0
LINE
8
BLACK
6
CONTINUOUS
10
31.179198999999997
20
-5.6957899999999997
11
31.2744369999999989
21
-6.0767419999999994
0
LINE
8
BLACK
6
CONTINUOUS
10
31.2744369999999989
20
-6.0767419999999994
11
31.2744369999999989
21
-6.5529329999999995
0
LINE
8
BLACK
6
CONTINUOUS
10
31.2744369999999989
20
-6.5529329999999995
11
31.179198999999997
21
-6.9338850000000001
0
LINE
8
BLACK
6
CONTINUOUS
10
31.179198999999997
20
-6.9338850000000001
11
31.0839609999999986
21
-7.1243609999999995
0
LINE
8
BLACK
6
CONTINUOUS
10
31.0839609999999986
20
-7.1243609999999995
11
30.9887230000000002
21
-7.2195999999999998
0
LINE
8
BLACK
6
CONTINUOUS
10
30.9887230000000002
20
-7.2195999999999998
11
30.7982469999999999
21
-7.314838
0
LINE
8
BLACK
6
CONTINUOUS
10
30.7982469999999999
20
-7.314838
11
30.6077699999999986
21
-7.314838
0
LINE
8
BLACK
6
CONTINUOUS
10
30.6077699999999986
20
-7.314838
11
30.4172939999999983
21
-7.2195999999999998
0
LINE
8
BLACK
6
CONTINUOUS
10
30.4172939999999983
20
-7.2195999999999998
11
30.3220559999999999
21
-7.1243609999999995
0
LINE
8
BLACK
6
CONTINUOUS
10
30.3220559999999999
20
-7.1243609999999995
11
30.226817999999998
21
-6.9338850000000001
0
LINE
8
BLACK
6
CONTINUOUS
10
30.226817999999998
20
-6.9338850000000001
11
30.1315799999999996
21
-6.5529329999999995
0
LINE
8
BLACK
6
CONTINUOUS
10
30.1315799999999996
20
-6.5529329999999995
11
30.1315799999999996
21
-6.0767419999999994
0
LINE
8
BLACK
6
CONTINUOUS
10
30.1315799999999996
20
-6.0767419999999994
11
30.226817999999998
21
-5.6957899999999997
0
LINE
8
BLACK
6
CONTINUOUS
10
30.226817999999998
20
-5.6957899999999997
11
30.3220559999999999
21
-5.5053139999999994
0
LINE
8
BLACK
6
CONTINUOUS
10
30.3220559999999999
20
-5.5053139999999994
11
30.4172939999999983
21
-5.4100760000000001
0
LINE
8
BLACK
6
CONTINUOUS
10
30.4172939999999983
20
-5.4100760000000001
11
30.6077699999999986
21
-5.314838
0
LINE
8
BLACK
6
CONTINUOUS
10
32.0363419999999977
20
-5.314838
11
32.0363419999999977
21
-5.6957899999999997
0
LINE
8
BLACK
6
CONTINUOUS
10
32.7982469999999964
20
-5.314838
11
32.7982469999999964
21
-5.6957899999999997
0
LINE
8
BLACK
6
CONTINUOUS
10
35.7506289999999964
20
-8.0767419999999994
11
35.655389999999997
21
-7.9815039999999993
0
LINE
8
BLACK
6
CONTINUOUS
10
35.655389999999997
20
-7.9815039999999993
11
35.4649140000000003
21
-7.6957899999999997
0
LINE
8
BLACK
6
CONTINUOUS
10
35.4649140000000003
20
-7.6957899999999997
11
35.3696759999999983
21
-7.5053139999999994
0
LINE
8
BLACK
6
CONTINUOUS
10
35.3696759999999983
20
-7.5053139999999994
11
35.2744379999999964
21
-7.2195999999999998
0
LINE
8
BLACK
6
CONTINUOUS
10
35.2744379999999964
20
-7.2195999999999998
11
35.1792000000000016
21
-6.7434089999999998
0
LINE
8
BLACK
6
CONTINUOUS
10
35.1792000000000016
20
-6.7434089999999998
11
35.1792000000000016
21
-6.362457
0
LINE
8
BLACK
6
CONTINUOUS
10
35.1792000000000016
20
-6.362457
11
35.2744379999999964
21
-5.886266
0
LINE
8
BLACK
6
CONTINUOUS
10
35.2744379999999964
20
-5.886266
11
35.3696759999999983
21
-5.6005519999999995
0
LINE
8
BLACK
6
CONTINUOUS
10
35.3696759999999983
20
-5.6005519999999995
11
35.4649140000000003
21
-5.4100760000000001
0
LINE
8
BLACK
6
CONTINUOUS
10
35.4649140000000003
20
-5.4100760000000001
11
35.655389999999997
21
-5.1243609999999995
0
LINE
8
BLACK
6
CONTINUOUS
10
35.655389999999997
20
-5.1243609999999995
11
35.7506289999999964
21
-5.0291229999999993
0
LINE
8
BLACK
6
CONTINUOUS
10
37.5601519999999951
20
-7.314838
11
36.4172949999999958
21
-7.314838
0
LINE
8
BLACK
6
CONTINUOUS
10
36.9887230000000002
20
-7.314838
11
36.9887230000000002
21
-5.314838
0
LINE
8
BLACK
6
CONTINUOUS
10
36.9887230000000002
20
-5.314838
11
36.7982469999999964
21
-5.6005519999999995
0
LINE
8
BLACK
6
CONTINUOUS
10
36.7982469999999964
20
-5.6005519999999995
11
36.6077709999999996
21
-5.7910279999999998
0
LINE
8
BLACK
6
CONTINUOUS
10
36.6077709999999996
20
-5.7910279999999998
11
36.4172949999999958
21
-5.886266
0
LINE
8
BLACK
6
CONTINUOUS
10
39.9411050000000003
20
-7.314838
11
39.9411050000000003
21
-5.314838
0
LINE
8
BLACK
6
CONTINUOUS
10
40.798248000000001
20
-7.314838
11
40.798248000000001
21
-6.2672189999999999
0
LINE
8
BLACK
6
CONTINUOUS
10
40.798248000000001
20
-6.2672189999999999
11
40.703009999999999
21
-6.0767419999999994
0
LINE
8
BLACK
6
CONTINUOUS
10
40.703009999999999
20
-6.0767419999999994
11
40.5125339999999952
21
-5.9815040000000002
0
LINE
8
BLACK
6
CONTINUOUS
10
40.5125339999999952
20
-5.9815040000000002
11
40.226818999999999
21
-5.9815040000000002
0
LINE
8
BLACK
6
CONTINUOUS
10
40.226818999999999
20
-5.9815040000000002
11
40.0363429999999951
21
-6.0767419999999994
0
LINE
8
BLACK
6
CONTINUOUS
10
40.0363429999999951
20
-6.0767419999999994
11
39.9411050000000003
21
-6.1719799999999996
0
LINE
8
BLACK
6
CONTINUOUS
10
42.0363429999999951
20
-7.314838
11
41.8458669999999984
21
-7.2195999999999998
0
LINE
8
BLACK
6
CONTINUOUS
10
41.8458669999999984
20
-7.2195999999999998
11
41.7506289999999964
21
-7.1243609999999995
0
LINE
8
BLACK
6
CONTINUOUS
10
41.7506289999999964
20
-7.1243609999999995
11
41.6553910000000016
21
-6.9338850000000001
0
LINE
8
BLACK
6
CONTINUOUS
10
41.6553910000000016
20
-6.9338850000000001
11
41.6553910000000016
21
-6.362457
0
LINE
8
BLACK
6
CONTINUOUS
10
41.6553910000000016
20
-6.362457
11
41.7506289999999964
21
-6.1719799999999996
0
LINE
8
BLACK
6
CONTINUOUS
10
41.7506289999999964
20
-6.1719799999999996
11
41.8458669999999984
21
-6.0767419999999994
0
LINE
8
BLACK
6
CONTINUOUS
10
41.8458669999999984
20
-6.0767419999999994
11
42.0363429999999951
21
-5.9815040000000002
0
LINE
8
BLACK
6
CONTINUOUS
10
42.0363429999999951
20
-5.9815040000000002
11
42.3220579999999984
21
-5.9815040000000002
0
LINE
8
BLACK
6
CONTINUOUS
10
42.3220579999999984
20
-5.9815040000000002
11
42.5125339999999952
21
-6.0767419999999994
0
LINE
8
BLACK
6
CONTINUOUS
10
42.5125339999999952
20
-6.0767419999999994
11
42.6077719999999971
21
-6.1719799999999996
0
LINE
8
BLACK
6
CONTINUOUS
10
42.6077719999999971
20
-6.1719799999999996
11
42.703009999999999
21
-6.362457
0
LINE
8
BLACK
6
CONTINUOUS
10
42.703009999999999
20
-6.362457
11
42.703009999999999
21
-6.9338850000000001
0
LINE
8
BLACK
6
CONTINUOUS
10
42.703009999999999
20
-6.9338850000000001
11
42.6077719999999971
21
-7.1243609999999995
0
LINE
8
BLACK
6
CONTINUOUS
10
42.6077719999999971
20
-7.1243609999999995
11
42.5125339999999952
21
-7.2195999999999998
0
LINE
8
BLACK
6
CONTINUOUS
10
42.5125339999999952
20
-7.2195999999999998
11
42.3220579999999984
21
-7.314838
0
LINE
8
BLACK
6
CONTINUOUS
10
42.3220579999999984
20
-7.314838
11
42.0363429999999951
21
-7.314838
0
LINE
8
BLACK
6
CONTINUOUS
10
43.8458669999999984
20
-7.314838
11
43.6553909999999945
21
-7.2195999999999998
0
LINE
8
BLACK
6
CONTINUOUS
10
43.6553909999999945
20
-7.2195999999999998
11
43.5601529999999997
21
-7.0291229999999993
0
LINE
8
BLACK
6
CONTINUOUS
10
43.5601529999999997
20
-7.0291229999999993
11
43.5601529999999997
21
-5.314838
0
LINE
8
BLACK
6
CONTINUOUS
10
45.3696769999999958
20
-7.2195999999999998
11
45.1792009999999991
21
-7.314838
0
LINE
8
BLACK
6
CONTINUOUS
10
45.1792009999999991
20
-7.314838
11
44.798248000000001
21
-7.314838
0
LINE
8
BLACK
6
CONTINUOUS
10
44.798248000000001
20
-7.314838
11
44.6077719999999971
21
-7.2195999999999998
0
LINE
8
BLACK
6
CONTINUOUS
10
44.6077719999999971
20
-7.2195999999999998
11
44.5125339999999952
21
-7.0291229999999993
0
LINE
8
BLACK
6
CONTINUOUS
10
44.5125339999999952
20
-7.0291229999999993
11
44.5125339999999952
21
-6.2672189999999999
0
LINE
8
BLACK
6
CONTINUOUS
10
44.5125339999999952
20
-6.2672189999999999
11
44.6077719999999971
21
-6.0767419999999994
0
LINE
8
BLACK
6
CONTINUOUS
10
44.6077719999999971
20
-6.0767419999999994
11
44.798248000000001
21
-5.9815040000000002
0
LINE
8
BLACK
6
CONTINUOUS
10
44.798248000000001
20
-5.9815040000000002
11
45.1792009999999991
21
-5.9815040000000002
0
LINE
8
BLACK
6
CONTINUOUS
10
45.1792009999999991
20
-5.9815040000000002
11
45.3696769999999958
21
-6.0767419999999994
0
LINE
8
BLACK
6
CONTINUOUS
10
45.3696769999999958
20
-6.0767419999999994
11
45.4649149999999977
21
-6.2672189999999999
0
LINE
8
BLACK
6
CONTINUOUS
10
45.4649149999999977
20
-6.2672189999999999
11
45.4649149999999977
21
-6.4576949999999993
0
LINE
8
BLACK
6
CONTINUOUS
10
45.4649149999999977
20
-6.4576949999999993
11
44.5125339999999952
21
-6.6481709999999996
0
LINE
8
BLACK
6
CONTINUOUS
10
46.1315819999999945
20
-8.0767419999999994
11
46.2268199999999965
21
-7.9815039999999993
0
LINE
8
BLACK
6
CONTINUOUS
10
46.2268199999999965
20
-7.9815039999999993
11
46.4172960000000003
21
-7.6957899999999997
0
LINE
8
BLACK
6
CONTINUOUS
10
46.4172960000000003
20
-7.6957899999999997
11
46.5125339999999952
21
-7.5053139999999994
0
LINE
8
BLACK
6
CONTINUOUS
10
46.5125339999999952
20
-7.5053139999999994
11
46.6077719999999971
21
-7.2195999999999998
0
LINE
8
BLACK
6
CONTINUOUS
10
46.6077719999999971
20
-7.2195999999999998
11
46.703009999999999
21
-6.7434089999999998
0
LINE
8
BLACK
6
CONTINUOUS
10
46.703009999999999
20
-6.7434089999999998
11
46.703009999999999
21
-6.362457
0
LINE
8
BLACK
6
CONTINUOUS
10
46.703009999999999
20
-6.362457
11
46.6077719999999971
21
-5.886266
0
LINE
8
BLACK
6
CONTINUOUS
10
46.6077719999999971
20
-5.886266
11
46.5125339999999952
21
-5.6005519999999995
0
LINE
8
BLACK
6
CONTINUOUS
10
46.5125339999999952
20
-5.6005519999999995
11
46.4172960000000003
21
-5.4100760000000001
0
LINE
8
BLACK
6
CONTINUOUS
10
46.4172960000000003
20
-5.4100760000000001
11
46.2268199999999965
21
-5.1243609999999995
0
LINE
8
BLACK
6
CONTINUOUS
10
46.2268199999999965
20
-5.1243609999999995
11
46.1315819999999945
21
-5.0291229999999993
0
LINE
8
BLACK
6
CONTINUOUS
10
49.750630000000001
20
-8.0767419999999994
11
49.6553909999999945
21
-7.9815039999999993
0
LINE
8
BLACK
6
CONTINUOUS
10
49.6553909999999945
20
-7.9815039999999993
11
49.4649149999999977
21
-7.6957899999999997
0
LINE
8
BLACK
6
CONTINUOUS
10
49.4649149999999977
20
-7.6957899999999997
11
49.3696769999999958
21
-7.5053139999999994
0
LINE
8
BLACK
6
CONTINUOUS
10
49.3696769999999958
20
-7.5053139999999994
11
49.274439000000001
21
-7.2195999999999998
0
LINE
8
BLACK
6
CONTINUOUS
10
49.274439000000001
20
-7.2195999999999998
11
49.1792009999999991
21
-6.7434089999999998
0
LINE
8
BLACK
6
CONTINUOUS
10
49.1792009999999991
20
-6.7434089999999998
11
49.1792009999999991
21
-6.362457
0
LINE
8
BLACK
6
CONTINUOUS
10
49.1792009999999991
20
-6.362457
11
49.274439000000001
21
-5.886266
0
LINE
8
BLACK
6
CONTINUOUS
10
49.274439000000001
20
-5.886266
11
49.3696769999999958
21
-5.6005519999999995
0
LINE
8
BLACK
6
CONTINUOUS
10
49.3696769999999958
20
-5.6005519999999995
11
49.4649149999999977
21
-5.4100760000000001
0
LINE
8
BLACK
6
CONTINUOUS
10
49.4649149999999977
20
-5.4100760000000001
11
49.6553909999999945
21
-5.1243609999999995
0
LINE
8
BLACK
6
CONTINUOUS
10
49.6553909999999945
20
-5.1243609999999995
11
49.750630000000001
21
-5.0291229999999993
0
LINE
8
BLACK
6
CONTINUOUS
10
50.5125339999999952
20
-5.9815040000000002
11
50.5125339999999952
21
-7.314838
0
LINE
8
BLACK
6
CONTINUOUS
10
50.5125339999999952
20
-6.1719799999999996
11
50.6077719999999971
21
-6.0767419999999994
0
LINE
8
BLACK
6
CONTINUOUS
10
50.6077719999999971
20
-6.0767419999999994
11
50.798248000000001
21
-5.9815040000000002
0
LINE
8
BLACK
6
CONTINUOUS
10
50.798248000000001
20
-5.9815040000000002
11
51.0839629999999971
21
-5.9815040000000002
0
LINE
8
BLACK
6
CONTINUOUS
10
51.0839629999999971
20
-5.9815040000000002
11
51.274439000000001
21
-6.0767419999999994
0
LINE
8
BLACK
6
CONTINUOUS
10
51.274439000000001
20
-6.0767419999999994
11
51.3696769999999958
21
-6.2672189999999999
0
LINE
8
BLACK
6
CONTINUOUS
10
51.3696769999999958
20
-6.2672189999999999
11
51.3696769999999958
21
-7.314838
0
LINE
8
BLACK
6
CONTINUOUS
10
52.6077719999999971
20
-7.314838
11
52.4172960000000003
21
-7.2195999999999998
0
LINE
8
BLACK
6
CONTINUOUS
10
52.4172960000000003
20
-7.2195999999999998
11
52.3220579999999984
21
-7.1243609999999995
0
LINE
8
BLACK
6
CONTINUOUS
10
52.3220579999999984
20
-7.1243609999999995
11
52.2268199999999965
21
-6.9338850000000001
0
LINE
8
BLACK
6
CONTINUOUS
10
52.2268199999999965
20
-6.9338850000000001
11
52.2268199999999965
21
-6.362457
0
LINE
8
BLACK
6
CONTINUOUS
10
52.2268199999999965
20
-6.362457
11
52.3220579999999984
21
-6.1719799999999996
0
LINE
8
BLACK
6
CONTINUOUS
10
52.3220579999999984
20
-6.1719799999999996
11
52.4172960000000003
21
-6.0767419999999994
0
LINE
8
BLACK
6
CONTINUOUS
10
52.4172960000000003
20
-6.0767419999999994
11
52.6077719999999971
21
-5.9815040000000002
0
LINE
8
BLACK
6
CONTINUOUS
10
52.6077719999999971
20
-5.9815040000000002
11
52.8934870000000004
21
-5.9815040000000002
0
LINE
8
BLACK
6
CONTINUOUS
10
52.8934870000000004
20
-5.9815040000000002
11
53.0839629999999971
21
-6.0767419999999994
0
LINE
8
BLACK
6
CONTINUOUS
10
53.0839629999999971
20
-6.0767419999999994
11
53.1792009999999991
21
-6.1719799999999996
0
LINE
8
BLACK
6
CONTINUOUS
10
53.1792009999999991
20
-6.1719799999999996
11
53.274439000000001
21
-6.362457
0
LINE
8
BLACK
6
CONTINUOUS
10
53.274439000000001
20
-6.362457
11
53.274439000000001
21
-6.9338850000000001
0
LINE
8
BLACK
6
CONTINUOUS
10
53.274439000000001
20
-6.9338850000000001
11
53.1792009999999991
21
-7.1243609999999995
0
LINE
8
BLACK
6
CONTINUOUS
10
53.1792009999999991
20
-7.1243609999999995
11
53.0839629999999971
21
-7.2195999999999998
0
LINE
8
BLACK
6
CONTINUOUS
10
53.0839629999999971
20
-7.2195999999999998
11
52.8934870000000004
21
-7.314838
0
LINE
8
BLACK
6
CONTINUOUS
10
52.8934870000000004
20
-7.314838
11
52.6077719999999971
21
-7.314838
0
LINE
8
BLACK
6
CONTINUOUS
10
53.8458679999999958
20
-5.9815040000000002
11
54.6077719999999971
21
-5.9815040000000002
0
LINE
8
BLACK
6
CONTINUOUS
10
54.1315819999999945
20
-5.314838
11
54.1315819999999945
21
-7.0291229999999993
0
LINE
8
BLACK
6
CONTINUOUS
10
54.1315819999999945
20
-7.0291229999999993
11
54.2268199999999965
21
-7.2195999999999998
0
LINE
8
BLACK
6
CONTINUOUS
10
54.2268199999999965
20
-7.2195999999999998
11
54.4172960000000003
21
-7.314838
0
LINE
8
BLACK
6
CONTINUOUS
10
54.4172960000000003
20
-7.314838
11
54.6077719999999971
21
-7.314838
0
LINE
8
BLACK
6
CONTINUOUS
10
56.7982489999999984
20
-5.9815040000000002
11
56.7982489999999984
21
-7.9815039999999993
0
LINE
8
BLACK
6
CONTINUOUS
10
56.7982489999999984
20
-6.0767419999999994
11
56.9887249999999952
21
-5.9815040000000002
0
LINE
8
BLACK
6
CONTINUOUS
10
56.9887249999999952
20
-5.9815040000000002
11
57.3696780000000004
21
-5.9815040000000002
0
LINE
8
BLACK
6
CONTINUOUS
10
57.3696780000000004
20
-5.9815040000000002
11
57.5601539999999972
21
-6.0767419999999994
0
LINE
8
BLACK
6
CONTINUOUS
10
57.5601539999999972
20
-6.0767419999999994
11
57.6553919999999991
21
-6.1719799999999996
0
LINE
8
BLACK
6
CONTINUOUS
10
57.6553919999999991
20
-6.1719799999999996
11
57.7506299999999939
21
-6.362457
0
LINE
8
BLACK
6
CONTINUOUS
10
57.7506299999999939
20
-6.362457
11
57.7506299999999939
21
-6.9338850000000001
0
LINE
8
BLACK
6
CONTINUOUS
10
57.7506299999999939
20
-6.9338850000000001
11
57.6553919999999991
21
-7.1243609999999995
0
LINE
8
BLACK
6
CONTINUOUS
10
57.6553919999999991
20
-7.1243609999999995
11
57.5601539999999972
21
-7.2195999999999998
0
LINE
8
BLACK
6
CONTINUOUS
10
57.5601539999999972
20
-7.2195999999999998
11
57.3696780000000004
21
-7.314838
0
LINE
8
BLACK
6
CONTINUOUS
10
57.3696780000000004
20
-7.314838
11
56.9887249999999952
21
-7.314838
0
LINE
8
BLACK
6
CONTINUOUS
10
56.9887249999999952
20
-7.314838
11
56.7982489999999984
21
-7.2195999999999998
0
LINE
8
BLACK
6
CONTINUOUS
10
58.8934870000000004
20
-7.314838
11
58.7030109999999965
21
-7.2195999999999998
0
LINE
8
BLACK
6
CONTINUOUS
10
58.7030109999999965
20
-7.2195999999999998
11
58.6077729999999946
21
-7.0291229999999993
0
LINE
8
BLACK
6
CONTINUOUS
10
58.6077729999999946
20
-7.0291229999999993
11
58.6077729999999946
21
-5.314838
0
LINE
8
BLACK
6
CONTINUOUS
10
60.5125349999999997
20
-7.314838
11
60.5125349999999997
21
-6.2672189999999999
0
LINE
8
BLACK
6
CONTINUOUS
10
60.5125349999999997
20
-6.2672189999999999
11
60.4172969999999978
21
-6.0767419999999994
0
LINE
8
BLACK
6
CONTINUOUS
10
60.4172969999999978
20
-6.0767419999999994
11
60.2268209999999939
21
-5.9815040000000002
0
LINE
8
BLACK
6
CONTINUOUS
10
60.2268209999999939
20
-5.9815040000000002
11
59.8458679999999958
21
-5.9815040000000002
0
LINE
8
BLACK
6
CONTINUOUS
10
59.8458679999999958
20
-5.9815040000000002
11
59.6553919999999991
21
-6.0767419999999994
0
LINE
8
BLACK
6
CONTINUOUS
10
60.5125349999999997
20
-7.2195999999999998
11
60.3220589999999959
21
-7.314838
0
LINE
8
BLACK
6
CONTINUOUS
10
60.3220589999999959
20
-7.314838
11
59.8458679999999958
21
-7.314838
0
LINE
8
BLACK
6
CONTINUOUS
10
59.8458679999999958
20
-7.314838
11
59.6553919999999991
21
-7.2195999999999998
0
LINE
8
BLACK
6
CONTINUOUS
10
59.6553919999999991
20
-7.2195999999999998
11
59.5601539999999972
21
-7.0291229999999993
0
LINE
8
BLACK
6
CONTINUOUS
10
59.5601539999999972
20
-7.0291229999999993
11
59.5601539999999972
21
-6.8386469999999999
0
LINE
8
BLACK
6
CONTINUOUS
10
59.5601539999999972
20
-6.8386469999999999
11
59.6553919999999991
21
-6.6481709999999996
0
LINE
8
BLACK
6
CONTINUOUS
10
59.6553919999999991
20
-6.6481709999999996
11
59.8458679999999958
21
-6.5529329999999995
0
LINE
8
BLACK
6
CONTINUOUS
10
59.8458679999999958
20
-6.5529329999999995
11
60.3220589999999959
21
-6.5529329999999995
0
LINE
8
BLACK
6
CONTINUOUS
10
60.3220589999999959
20
-6.5529329999999995
11
60.5125349999999997
21
-6.4576949999999993
0
LINE
8
BLACK
6
CONTINUOUS
10
61.1792019999999965
20
-5.9815040000000002
11
61.9411059999999978
21
-5.9815040000000002
0
LINE
8
BLACK
6
CONTINUOUS
10
61.4649159999999952
20
-5.314838
11
61.4649159999999952
21
-7.0291229999999993
0
LINE
8
BLACK
6
CONTINUOUS
10
61.4649159999999952
20
-7.0291229999999993
11
61.5601539999999972
21
-7.2195999999999998
0
LINE
8
BLACK
6
CONTINUOUS
10
61.5601539999999972
20
-7.2195999999999998
11
61.7506299999999939
21
-7.314838
0
LINE
8
BLACK
6
CONTINUOUS
10
61.7506299999999939
20
-7.314838
11
61.9411059999999978
21
-7.314838
0
LINE
8
BLACK
6
CONTINUOUS
10
63.3696780000000004
20
-7.2195999999999998
11
63.1792019999999965
21
-7.314838
0
LINE
8
BLACK
6
CONTINUOUS
10
63.1792019999999965
20
-7.314838
11
62.7982489999999984
21
-7.314838
0
LINE
8
BLACK
6
CONTINUOUS
10
62.7982489999999984
20
-7.314838
11
62.6077729999999946
21
-7.2195999999999998
0
LINE
8
BLACK
6
CONTINUOUS
10
62.6077729999999946
20
-7.2195999999999998
11
62.5125349999999997
21
-7.0291229999999993
0
LINE
8
BLACK
6
CONTINUOUS
10
62.5125349999999997
20
-7.0291229999999993
11
62.5125349999999997
21
-6.2672189999999999
0
LINE
8
BLACK
6
CONTINUOUS
10
62.5125349999999997
20
-6.2672189999999999
11
62.6077729999999946
21
-6.0767419999999994
0
LINE
8
BLACK
6
CONTINUOUS
10
62.6077729999999946
20
-6.0767419999999994
11
62.7982489999999984
21
-5.9815040000000002
0
LINE
8
BLACK
6
CONTINUOUS
10
62.7982489999999984
20
-5.9815040000000002
11
63.1792019999999965
21
-5.9815040000000002
0
LINE
8
BLACK
6
CONTINUOUS
10
63.1792019999999965
20
-5.9815040000000002
11
63.3696780000000004
21
-6.0767419999999994
0
LINE
8
BLACK
6
CONTINUOUS
10
63.3696780000000004
20
-6.0767419999999994
11
63.4649159999999952
21
-6.2672189999999999
0
LINE
8
BLACK
6
CONTINUOUS
10
63.4649159999999952
20
-6.2672189999999999
11
63.4649159999999952
21
-6.4576949999999993
0
LINE
8
BLACK
6
CONTINUOUS
10
63.4649159999999952
20
-6.4576949999999993
11
62.5125349999999997
21
-6.6481709999999996
0
LINE
8
BLACK
6
CONTINUOUS
10
65.1792020000000036
20
-7.314838
11
65.1792020000000036
21
-5.314838
0
LINE
8
BLACK
6
CONTINUOUS
10
65.1792020000000036
20
-7.2195999999999998
11
64.9887259999999998
21
-7.314838
0
LINE
8
BLACK
6
CONTINUOUS
10
64.9887259999999998
20
-7.314838
11
64.6077729999999946
21
-7.314838
0
LINE
8
BLACK
6
CONTINUOUS
10
64.6077729999999946
20
-7.314838
11
64.4172969999999907
21
-7.2195999999999998
0
LINE
8
BLACK
6
CONTINUOUS
10
64.4172969999999907
20
-7.2195999999999998
11
64.3220589999999959
21
-7.1243609999999995
0
LINE
8
BLACK
6
CONTINUOUS
10
64.3220589999999959
20
-7.1243609999999995
11
64.226821000000001
21
-6.9338850000000001
0
LINE
8
BLACK
6
CONTINUOUS
10
64.226821000000001
20
-6.9338850000000001
11
64.226821000000001
21
-6.362457
0
LINE
8
BLACK
6
CONTINUOUS
10
64.226821000000001
20
-6.362457
11
64.3220589999999959
21
-6.1719799999999996
0
LINE
8
BLACK
6
CONTINUOUS
10
64.3220589999999959
20
-6.1719799999999996
11
64.4172969999999907
21
-6.0767419999999994
0
LINE
8
BLACK
6
CONTINUOUS
10
64.4172969999999907
20
-6.0767419999999994
11
64.6077729999999946
21
-5.9815040000000002
0
LINE
8
BLACK
6
CONTINUOUS
10
64.6077729999999946
20
-5.9815040000000002
11
64.9887259999999998
21
-5.9815040000000002
0
LINE
8
BLACK
6
CONTINUOUS
10
64.9887259999999998
20
-5.9815040000000002
11
65.1792020000000036
21
-6.0767419999999994
0
LINE
8
BLACK
6
CONTINUOUS
10
65.9411070000000024
20
-8.0767419999999994
11
66.0363449999999972
21
-7.9815039999999993
0
LINE
8
BLACK
6
CONTINUOUS
10
66.0363449999999972
20
-7.9815039999999993
11
66.226821000000001
21
-7.6957899999999997
0
LINE
8
BLACK
6
CONTINUOUS
10
66.226821000000001
20
-7.6957899999999997
11
66.3220589999999959
21
-7.5053139999999994
0
LINE
8
BLACK
6
CONTINUOUS
10
66.3220589999999959
20
-7.5053139999999994
11
66.4172969999999907
21
-7.2195999999999998
0
LINE
8
BLACK
6
CONTINUOUS
10
66.4172969999999907
20
-7.2195999999999998
11
66.5125349999999997
21
-6.7434089999999998
0
LINE
8
BLACK
6
CONTINUOUS
10
66.5125349999999997
20
-6.7434089999999998
11
66.5125349999999997
21
-6.362457
0
LINE
8
BLACK
6
CONTINUOUS
10
66.5125349999999997
20
-6.362457
11
66.4172969999999907
21
-5.886266
0
LINE
8
BLACK
6
CONTINUOUS
10
66.4172969999999907
20
-5.886266
11
66.3220589999999959
21
-5.6005519999999995
0
LINE
8
BLACK
6
CONTINUOUS
10
66.3220589999999959
20
-5.6005519999999995
11
66.226821000000001
21
-5.4100760000000001
0
LINE
8
BLACK
6
CONTINUOUS
10
66.226821000000001
20
-5.4100760000000001
11
66.0363449999999972
21
-5.1243609999999995
0
LINE
8
BLACK
6
CONTINUOUS
10
66.0363449999999972
20
-5.1243609999999995
11
65.9411070000000024
21
-5.0291229999999993
  0
ENDSEC
  0
EOF
