%TF.GenerationSoftware,KiCad,Pcbnew,9.0.2-9.0.2-0~ubuntu24.04.1*%
%TF.CreationDate,2025-05-23T13:54:27-07:00*%
%TF.ProjectId,PMT_FPGA_PCB,504d545f-4650-4474-915f-5043422e6b69,rev?*%
%TF.SameCoordinates,Original*%
%TF.FileFunction,Plated,1,2,PTH,Drill*%
%TF.FilePolarity,Positive*%
%FSLAX46Y46*%
G04 Gerber Fmt 4.6, Leading zero omitted, Abs format (unit mm)*
G04 Created by KiCad (PCBNEW 9.0.2-9.0.2-0~ubuntu24.04.1) date 2025-05-23 13:54:27*
%MOMM*%
%LPD*%
G01*
G04 APERTURE LIST*
%TA.AperFunction,ViaDrill*%
%ADD10C,0.600000*%
%TD*%
%TA.AperFunction,ComponentDrill*%
%ADD11C,0.750000*%
%TD*%
%TA.AperFunction,ComponentDrill*%
%ADD12C,0.800000*%
%TD*%
%TA.AperFunction,ComponentDrill*%
%ADD13C,1.000000*%
%TD*%
G04 APERTURE END LIST*
D10*
X154921500Y-88108000D03*
X155937500Y-94204000D03*
X166624000Y-83566000D03*
X167457259Y-71699259D03*
X167640000Y-89662000D03*
X167826555Y-77283445D03*
D11*
%TO.C,Q1*%
X173349500Y-86533500D03*
X173349500Y-87803500D03*
X173349500Y-89073500D03*
D12*
%TO.C,RV1*%
X154686000Y-78740000D03*
X157226000Y-81280000D03*
X159766000Y-78740000D03*
D13*
%TO.C,J4*%
X159946000Y-69596000D03*
X159946000Y-72136000D03*
X159946000Y-74676000D03*
%TO.C,J11*%
X162306000Y-63313000D03*
X164846000Y-63313000D03*
X167386000Y-63313000D03*
%TO.C,J13*%
X181356000Y-109987000D03*
X181356000Y-112527000D03*
%TO.C,J1*%
X187692000Y-64262000D03*
X187692000Y-66802000D03*
X187692000Y-69342000D03*
X187692000Y-71882000D03*
X187692000Y-74422000D03*
X187692000Y-76962000D03*
X187692000Y-79502000D03*
X187692000Y-82042000D03*
X187692000Y-84582000D03*
X187692000Y-87122000D03*
X187692000Y-89662000D03*
X187692000Y-92202000D03*
X187692000Y-94742000D03*
X187692000Y-97282000D03*
X187692000Y-99822000D03*
X187692000Y-102362000D03*
X187692000Y-104902000D03*
X187692000Y-107442000D03*
X187692000Y-109982000D03*
X187692000Y-112522000D03*
X190232000Y-64262000D03*
X190232000Y-66802000D03*
X190232000Y-69342000D03*
X190232000Y-71882000D03*
X190232000Y-74422000D03*
X190232000Y-76962000D03*
X190232000Y-79502000D03*
X190232000Y-82042000D03*
X190232000Y-84582000D03*
X190232000Y-87122000D03*
X190232000Y-89662000D03*
X190232000Y-92202000D03*
X190232000Y-94742000D03*
X190232000Y-97282000D03*
X190232000Y-99822000D03*
X190232000Y-102362000D03*
X190232000Y-104902000D03*
X190232000Y-107442000D03*
X190232000Y-109982000D03*
X190232000Y-112522000D03*
M02*
