  0
SECTION
  2
HEADER
  9
$ANGBASE
  50
0.0
  9
$ANGDIR
  70
1
  9
$MEASUREMENT
  70
1
  0
ENDSEC
  0
SECTION
  2
TABLES
  0
TABLE
  2
LTYPE
  70
4
  0
LTYPE
  5
40F
  2
CONTINUOUS
  70
0
  3
Solid line
  72
65
  73
0
  40
0.0
  0
LTYPE
  5
410
  2
DASHDOT
 70
0
  3
Dash Dot ____ _ ____ _
 72
65
 73
4
 40
2.0
 49
1.25
 49
-0.25
 49
0.25
 49
-0.25
  0
LTYPE
  5
411
  2
DASHED
 70
0
  3
Dashed __ __ __ __ __
 72
65
 73
2
 40
0.75
 49
0.5
 49
-0.25
  0
LTYPE
  5
43B
  2
DOTTED
 70
0
  3
Dotted .  .  .  .
 72
65
 73
2
 40
0.2
 49
0.0
 49
-0.2
  0
ENDTAB
  0
TABLE
  2
STYLE
  70
4
  0
STYLE
  2
KICAD
  70
0
  40
0
  41
1
  42
1
  50
0
  71
0
  3
isocp.shx
  0
STYLE
  2
KICADB
  70
0
  40
0
  41
1
  42
1
  50
0
  71
0
  3
isocp.shx
  0
STYLE
  2
KICADI
  70
0
  40
0
  41
1
  42
1
  50
15
  71
0
  3
isocp.shx
  0
STYLE
  2
KICADBI
  70
0
  40
0
  41
1
  42
1
  50
15
  71
0
  3
isocp.shx
  0
ENDTAB
  0
TABLE
  2
LAYER
  70
1
  0
LAYER
  2
BLACK
  70
0
  62
7
  6
CONTINUOUS
  0
ENDTAB
  0
ENDSEC
  0
SECTION
  2
ENTITIES
0
LINE
8
BLACK
6
CONTINUOUS
10
154.6214999999999975
20
-87.8079999999999927
11
155.2214999999999918
21
-88.4080000000000013
0
LINE
8
BLACK
6
CONTINUOUS
10
155.2214999999999918
20
-87.8079999999999927
11
154.6214999999999975
21
-88.4080000000000013
0
LINE
8
BLACK
6
CONTINUOUS
10
155.6374999999999886
20
-93.9039999999999964
11
156.2374999999999829
21
-94.5039999999999907
0
LINE
8
BLACK
6
CONTINUOUS
10
156.2374999999999829
20
-93.9039999999999964
11
155.6374999999999886
21
-94.5039999999999907
0
LINE
8
BLACK
6
CONTINUOUS
10
166.3239999999999839
20
-83.2659999999999911
11
166.9240000000000066
21
-83.8659999999999997
0
LINE
8
BLACK
6
CONTINUOUS
10
166.9240000000000066
20
-83.2659999999999911
11
166.3239999999999839
21
-83.8659999999999997
0
LINE
8
BLACK
6
CONTINUOUS
10
167.1572589999999821
20
-71.3992590000000007
11
167.7572590000000048
21
-71.999258999999995
0
LINE
8
BLACK
6
CONTINUOUS
10
167.7572590000000048
20
-71.3992590000000007
11
167.1572589999999821
21
-71.999258999999995
0
LINE
8
BLACK
6
CONTINUOUS
10
167.3400000000000034
20
-89.3619999999999948
11
167.9399999999999977
21
-89.9619999999999891
0
LINE
8
BLACK
6
CONTINUOUS
10
167.9399999999999977
20
-89.3619999999999948
11
167.3400000000000034
21
-89.9619999999999891
0
LINE
8
BLACK
6
CONTINUOUS
10
167.5265550000000019
20
-76.9834450000000032
11
168.1265549999999962
21
-77.5834449999999975
0
LINE
8
BLACK
6
CONTINUOUS
10
168.1265549999999962
20
-76.9834450000000032
11
167.5265550000000019
21
-77.5834449999999975
0
CIRCLE
8
BLACK
10
173.3495000000000061
20
-86.5334999999999894
40
0.375
0
CIRCLE
8
BLACK
10
173.3495000000000061
20
-87.8034999999999997
40
0.375
0
CIRCLE
8
BLACK
10
173.3495000000000061
20
-89.0734999999999957
40
0.375
0
LINE
8
BLACK
6
CONTINUOUS
10
154.686000000000007
20
-78.3400000000000034
11
154.686000000000007
21
-79.1400000000000006
0
LINE
8
BLACK
6
CONTINUOUS
10
154.2860000000000014
20
-78.7399999999999949
11
155.0859999999999843
21
-78.7399999999999949
0
LINE
8
BLACK
6
CONTINUOUS
10
157.2259999999999991
20
-80.8799999999999955
11
157.2259999999999991
21
-81.6799999999999926
0
LINE
8
BLACK
6
CONTINUOUS
10
156.8259999999999934
20
-81.2800000000000011
11
157.6260000000000048
21
-81.2800000000000011
0
LINE
8
BLACK
6
CONTINUOUS
10
159.7659999999999911
20
-78.3400000000000034
11
159.7659999999999911
21
-79.1400000000000006
0
LINE
8
BLACK
6
CONTINUOUS
10
159.3659999999999854
20
-78.7399999999999949
11
160.1659999999999968
21
-78.7399999999999949
0
LINE
8
BLACK
6
CONTINUOUS
10
160.299556999999993
20
-69.9495569999999987
11
160.299556999999993
21
-69.2424429999999944
0
LINE
8
BLACK
6
CONTINUOUS
10
160.299556999999993
20
-69.2424429999999944
11
159.5924430000000029
21
-69.2424429999999944
0
LINE
8
BLACK
6
CONTINUOUS
10
159.5924430000000029
20
-69.2424429999999944
11
159.5924430000000029
21
-69.9495569999999987
0
LINE
8
BLACK
6
CONTINUOUS
10
159.5924430000000029
20
-69.9495569999999987
11
160.299556999999993
21
-69.9495569999999987
0
LINE
8
BLACK
6
CONTINUOUS
10
160.299556999999993
20
-72.4895569999999907
11
160.299556999999993
21
-71.7824430000000007
0
LINE
8
BLACK
6
CONTINUOUS
10
160.299556999999993
20
-71.7824430000000007
11
159.5924430000000029
21
-71.7824430000000007
0
LINE
8
BLACK
6
CONTINUOUS
10
159.5924430000000029
20
-71.7824430000000007
11
159.5924430000000029
21
-72.4895569999999907
0
LINE
8
BLACK
6
CONTINUOUS
10
159.5924430000000029
20
-72.4895569999999907
11
160.299556999999993
21
-72.4895569999999907
0
LINE
8
BLACK
6
CONTINUOUS
10
160.299556999999993
20
-75.0295569999999969
11
160.299556999999993
21
-74.3224429999999927
0
LINE
8
BLACK
6
CONTINUOUS
10
160.299556999999993
20
-74.3224429999999927
11
159.5924430000000029
21
-74.3224429999999927
0
LINE
8
BLACK
6
CONTINUOUS
10
159.5924430000000029
20
-74.3224429999999927
11
159.5924430000000029
21
-75.0295569999999969
0
LINE
8
BLACK
6
CONTINUOUS
10
159.5924430000000029
20
-75.0295569999999969
11
160.299556999999993
21
-75.0295569999999969
0
LINE
8
BLACK
6
CONTINUOUS
10
162.6595570000000066
20
-63.6665569999999974
11
162.6595570000000066
21
-62.9594430000000003
0
LINE
8
BLACK
6
CONTINUOUS
10
162.6595570000000066
20
-62.9594430000000003
11
161.9524429999999882
21
-62.9594430000000003
0
LINE
8
BLACK
6
CONTINUOUS
10
161.9524429999999882
20
-62.9594430000000003
11
161.9524429999999882
21
-63.6665569999999974
0
LINE
8
BLACK
6
CONTINUOUS
10
161.9524429999999882
20
-63.6665569999999974
11
162.6595570000000066
21
-63.6665569999999974
0
LINE
8
BLACK
6
CONTINUOUS
10
165.1995569999999987
20
-63.6665569999999974
11
165.1995569999999987
21
-62.9594430000000003
0
LINE
8
BLACK
6
CONTINUOUS
10
165.1995569999999987
20
-62.9594430000000003
11
164.4924429999999802
21
-62.9594430000000003
0
LINE
8
BLACK
6
CONTINUOUS
10
164.4924429999999802
20
-62.9594430000000003
11
164.4924429999999802
21
-63.6665569999999974
0
LINE
8
BLACK
6
CONTINUOUS
10
164.4924429999999802
20
-63.6665569999999974
11
165.1995569999999987
21
-63.6665569999999974
0
LINE
8
BLACK
6
CONTINUOUS
10
167.7395569999999907
20
-63.6665569999999974
11
167.7395569999999907
21
-62.9594430000000003
0
LINE
8
BLACK
6
CONTINUOUS
10
167.7395569999999907
20
-62.9594430000000003
11
167.0324430000000007
21
-62.9594430000000003
0
LINE
8
BLACK
6
CONTINUOUS
10
167.0324430000000007
20
-62.9594430000000003
11
167.0324430000000007
21
-63.6665569999999974
0
LINE
8
BLACK
6
CONTINUOUS
10
167.0324430000000007
20
-63.6665569999999974
11
167.7395569999999907
21
-63.6665569999999974
0
LINE
8
BLACK
6
CONTINUOUS
10
181.7095569999999896
20
-110.3405569999999898
11
181.7095569999999896
21
-109.6334429999999998
0
LINE
8
BLACK
6
CONTINUOUS
10
181.7095569999999896
20
-109.6334429999999998
11
181.0024429999999995
21
-109.6334429999999998
0
LINE
8
BLACK
6
CONTINUOUS
10
181.0024429999999995
20
-109.6334429999999998
11
181.0024429999999995
21
-110.3405569999999898
0
LINE
8
BLACK
6
CONTINUOUS
10
181.0024429999999995
20
-110.3405569999999898
11
181.7095569999999896
21
-110.3405569999999898
0
LINE
8
BLACK
6
CONTINUOUS
10
181.7095569999999896
20
-112.880556999999996
11
181.7095569999999896
21
-112.1734429999999918
0
LINE
8
BLACK
6
CONTINUOUS
10
181.7095569999999896
20
-112.1734429999999918
11
181.0024429999999995
21
-112.1734429999999918
0
LINE
8
BLACK
6
CONTINUOUS
10
181.0024429999999995
20
-112.1734429999999918
11
181.0024429999999995
21
-112.880556999999996
0
LINE
8
BLACK
6
CONTINUOUS
10
181.0024429999999995
20
-112.880556999999996
11
181.7095569999999896
21
-112.880556999999996
0
LINE
8
BLACK
6
CONTINUOUS
10
188.0455570000000023
20
-64.6155569999999955
11
188.0455570000000023
21
-63.9084429999999983
0
LINE
8
BLACK
6
CONTINUOUS
10
188.0455570000000023
20
-63.9084429999999983
11
187.3384429999999838
21
-63.9084429999999983
0
LINE
8
BLACK
6
CONTINUOUS
10
187.3384429999999838
20
-63.9084429999999983
11
187.3384429999999838
21
-64.6155569999999955
0
LINE
8
BLACK
6
CONTINUOUS
10
187.3384429999999838
20
-64.6155569999999955
11
188.0455570000000023
21
-64.6155569999999955
0
LINE
8
BLACK
6
CONTINUOUS
10
188.0455570000000023
20
-67.1555570000000017
11
188.0455570000000023
21
-66.4484429999999975
0
LINE
8
BLACK
6
CONTINUOUS
10
188.0455570000000023
20
-66.4484429999999975
11
187.3384429999999838
21
-66.4484429999999975
0
LINE
8
BLACK
6
CONTINUOUS
10
187.3384429999999838
20
-66.4484429999999975
11
187.3384429999999838
21
-67.1555570000000017
0
LINE
8
BLACK
6
CONTINUOUS
10
187.3384429999999838
20
-67.1555570000000017
11
188.0455570000000023
21
-67.1555570000000017
0
LINE
8
BLACK
6
CONTINUOUS
10
188.0455570000000023
20
-69.6955569999999938
11
188.0455570000000023
21
-68.9884430000000037
0
LINE
8
BLACK
6
CONTINUOUS
10
188.0455570000000023
20
-68.9884430000000037
11
187.3384429999999838
21
-68.9884430000000037
0
LINE
8
BLACK
6
CONTINUOUS
10
187.3384429999999838
20
-68.9884430000000037
11
187.3384429999999838
21
-69.6955569999999938
0
LINE
8
BLACK
6
CONTINUOUS
10
187.3384429999999838
20
-69.6955569999999938
11
188.0455570000000023
21
-69.6955569999999938
0
LINE
8
BLACK
6
CONTINUOUS
10
188.0455570000000023
20
-72.235557
11
188.0455570000000023
21
-71.5284429999999958
0
LINE
8
BLACK
6
CONTINUOUS
10
188.0455570000000023
20
-71.5284429999999958
11
187.3384429999999838
21
-71.5284429999999958
0
LINE
8
BLACK
6
CONTINUOUS
10
187.3384429999999838
20
-71.5284429999999958
11
187.3384429999999838
21
-72.235557
0
LINE
8
BLACK
6
CONTINUOUS
10
187.3384429999999838
20
-72.235557
11
188.0455570000000023
21
-72.235557
0
LINE
8
BLACK
6
CONTINUOUS
10
188.0455570000000023
20
-74.7755569999999921
11
188.0455570000000023
21
-74.068443000000002
0
LINE
8
BLACK
6
CONTINUOUS
10
188.0455570000000023
20
-74.068443000000002
11
187.3384429999999838
21
-74.068443000000002
0
LINE
8
BLACK
6
CONTINUOUS
10
187.3384429999999838
20
-74.068443000000002
11
187.3384429999999838
21
-74.7755569999999921
0
LINE
8
BLACK
6
CONTINUOUS
10
187.3384429999999838
20
-74.7755569999999921
11
188.0455570000000023
21
-74.7755569999999921
0
LINE
8
BLACK
6
CONTINUOUS
10
188.0455570000000023
20
-77.3155569999999983
11
188.0455570000000023
21
-76.6084429999999941
0
LINE
8
BLACK
6
CONTINUOUS
10
188.0455570000000023
20
-76.6084429999999941
11
187.3384429999999838
21
-76.6084429999999941
0
LINE
8
BLACK
6
CONTINUOUS
10
187.3384429999999838
20
-76.6084429999999941
11
187.3384429999999838
21
-77.3155569999999983
0
LINE
8
BLACK
6
CONTINUOUS
10
187.3384429999999838
20
-77.3155569999999983
11
188.0455570000000023
21
-77.3155569999999983
0
LINE
8
BLACK
6
CONTINUOUS
10
188.0455570000000023
20
-79.8555569999999904
11
188.0455570000000023
21
-79.1484430000000003
0
LINE
8
BLACK
6
CONTINUOUS
10
188.0455570000000023
20
-79.1484430000000003
11
187.3384429999999838
21
-79.1484430000000003
0
LINE
8
BLACK
6
CONTINUOUS
10
187.3384429999999838
20
-79.1484430000000003
11
187.3384429999999838
21
-79.8555569999999904
0
LINE
8
BLACK
6
CONTINUOUS
10
187.3384429999999838
20
-79.8555569999999904
11
188.0455570000000023
21
-79.8555569999999904
0
LINE
8
BLACK
6
CONTINUOUS
10
188.0455570000000023
20
-82.3955569999999966
11
188.0455570000000023
21
-81.6884429999999924
0
LINE
8
BLACK
6
CONTINUOUS
10
188.0455570000000023
20
-81.6884429999999924
11
187.3384429999999838
21
-81.6884429999999924
0
LINE
8
BLACK
6
CONTINUOUS
10
187.3384429999999838
20
-81.6884429999999924
11
187.3384429999999838
21
-82.3955569999999966
0
LINE
8
BLACK
6
CONTINUOUS
10
187.3384429999999838
20
-82.3955569999999966
11
188.0455570000000023
21
-82.3955569999999966
0
LINE
8
BLACK
6
CONTINUOUS
10
188.0455570000000023
20
-84.9355570000000029
11
188.0455570000000023
21
-84.2284429999999986
0
LINE
8
BLACK
6
CONTINUOUS
10
188.0455570000000023
20
-84.2284429999999986
11
187.3384429999999838
21
-84.2284429999999986
0
LINE
8
BLACK
6
CONTINUOUS
10
187.3384429999999838
20
-84.2284429999999986
11
187.3384429999999838
21
-84.9355570000000029
0
LINE
8
BLACK
6
CONTINUOUS
10
187.3384429999999838
20
-84.9355570000000029
11
188.0455570000000023
21
-84.9355570000000029
0
LINE
8
BLACK
6
CONTINUOUS
10
188.0455570000000023
20
-87.4755569999999949
11
188.0455570000000023
21
-86.7684429999999907
0
LINE
8
BLACK
6
CONTINUOUS
10
188.0455570000000023
20
-86.7684429999999907
11
187.3384429999999838
21
-86.7684429999999907
0
LINE
8
BLACK
6
CONTINUOUS
10
187.3384429999999838
20
-86.7684429999999907
11
187.3384429999999838
21
-87.4755569999999949
0
LINE
8
BLACK
6
CONTINUOUS
10
187.3384429999999838
20
-87.4755569999999949
11
188.0455570000000023
21
-87.4755569999999949
0
LINE
8
BLACK
6
CONTINUOUS
10
188.0455570000000023
20
-90.0155570000000012
11
188.0455570000000023
21
-89.3084429999999969
0
LINE
8
BLACK
6
CONTINUOUS
10
188.0455570000000023
20
-89.3084429999999969
11
187.3384429999999838
21
-89.3084429999999969
0
LINE
8
BLACK
6
CONTINUOUS
10
187.3384429999999838
20
-89.3084429999999969
11
187.3384429999999838
21
-90.0155570000000012
0
LINE
8
BLACK
6
CONTINUOUS
10
187.3384429999999838
20
-90.0155570000000012
11
188.0455570000000023
21
-90.0155570000000012
0
LINE
8
BLACK
6
CONTINUOUS
10
188.0455570000000023
20
-92.5555569999999932
11
188.0455570000000023
21
-91.848442999999989
0
LINE
8
BLACK
6
CONTINUOUS
10
188.0455570000000023
20
-91.848442999999989
11
187.3384429999999838
21
-91.848442999999989
0
LINE
8
BLACK
6
CONTINUOUS
10
187.3384429999999838
20
-91.848442999999989
11
187.3384429999999838
21
-92.5555569999999932
0
LINE
8
BLACK
6
CONTINUOUS
10
187.3384429999999838
20
-92.5555569999999932
11
188.0455570000000023
21
-92.5555569999999932
0
LINE
8
BLACK
6
CONTINUOUS
10
188.0455570000000023
20
-95.0955569999999994
11
188.0455570000000023
21
-94.3884429999999952
0
LINE
8
BLACK
6
CONTINUOUS
10
188.0455570000000023
20
-94.3884429999999952
11
187.3384429999999838
21
-94.3884429999999952
0
LINE
8
BLACK
6
CONTINUOUS
10
187.3384429999999838
20
-94.3884429999999952
11
187.3384429999999838
21
-95.0955569999999994
0
LINE
8
BLACK
6
CONTINUOUS
10
187.3384429999999838
20
-95.0955569999999994
11
188.0455570000000023
21
-95.0955569999999994
0
LINE
8
BLACK
6
CONTINUOUS
10
188.0455570000000023
20
-97.6355569999999915
11
188.0455570000000023
21
-96.9284430000000015
0
LINE
8
BLACK
6
CONTINUOUS
10
188.0455570000000023
20
-96.9284430000000015
11
187.3384429999999838
21
-96.9284430000000015
0
LINE
8
BLACK
6
CONTINUOUS
10
187.3384429999999838
20
-96.9284430000000015
11
187.3384429999999838
21
-97.6355569999999915
0
LINE
8
BLACK
6
CONTINUOUS
10
187.3384429999999838
20
-97.6355569999999915
11
188.0455570000000023
21
-97.6355569999999915
0
LINE
8
BLACK
6
CONTINUOUS
10
188.0455570000000023
20
-100.1755569999999977
11
188.0455570000000023
21
-99.4684429999999935
0
LINE
8
BLACK
6
CONTINUOUS
10
188.0455570000000023
20
-99.4684429999999935
11
187.3384429999999838
21
-99.4684429999999935
0
LINE
8
BLACK
6
CONTINUOUS
10
187.3384429999999838
20
-99.4684429999999935
11
187.3384429999999838
21
-100.1755569999999977
0
LINE
8
BLACK
6
CONTINUOUS
10
187.3384429999999838
20
-100.1755569999999977
11
188.0455570000000023
21
-100.1755569999999977
0
LINE
8
BLACK
6
CONTINUOUS
10
188.0455570000000023
20
-102.7155569999999898
11
188.0455570000000023
21
-102.0084429999999998
0
LINE
8
BLACK
6
CONTINUOUS
10
188.0455570000000023
20
-102.0084429999999998
11
187.3384429999999838
21
-102.0084429999999998
0
LINE
8
BLACK
6
CONTINUOUS
10
187.3384429999999838
20
-102.0084429999999998
11
187.3384429999999838
21
-102.7155569999999898
0
LINE
8
BLACK
6
CONTINUOUS
10
187.3384429999999838
20
-102.7155569999999898
11
188.0455570000000023
21
-102.7155569999999898
0
LINE
8
BLACK
6
CONTINUOUS
10
188.0455570000000023
20
-105.255556999999996
11
188.0455570000000023
21
-104.5484429999999918
0
LINE
8
BLACK
6
CONTINUOUS
10
188.0455570000000023
20
-104.5484429999999918
11
187.3384429999999838
21
-104.5484429999999918
0
LINE
8
BLACK
6
CONTINUOUS
10
187.3384429999999838
20
-104.5484429999999918
11
187.3384429999999838
21
-105.255556999999996
0
LINE
8
BLACK
6
CONTINUOUS
10
187.3384429999999838
20
-105.255556999999996
11
188.0455570000000023
21
-105.255556999999996
0
LINE
8
BLACK
6
CONTINUOUS
10
188.0455570000000023
20
-107.7955569999999881
11
188.0455570000000023
21
-107.0884429999999981
0
LINE
8
BLACK
6
CONTINUOUS
10
188.0455570000000023
20
-107.0884429999999981
11
187.3384429999999838
21
-107.0884429999999981
0
LINE
8
BLACK
6
CONTINUOUS
10
187.3384429999999838
20
-107.0884429999999981
11
187.3384429999999838
21
-107.7955569999999881
0
LINE
8
BLACK
6
CONTINUOUS
10
187.3384429999999838
20
-107.7955569999999881
11
188.0455570000000023
21
-107.7955569999999881
0
LINE
8
BLACK
6
CONTINUOUS
10
188.0455570000000023
20
-110.3355569999999943
11
188.0455570000000023
21
-109.6284429999999901
0
LINE
8
BLACK
6
CONTINUOUS
10
188.0455570000000023
20
-109.6284429999999901
11
187.3384429999999838
21
-109.6284429999999901
0
LINE
8
BLACK
6
CONTINUOUS
10
187.3384429999999838
20
-109.6284429999999901
11
187.3384429999999838
21
-110.3355569999999943
0
LINE
8
BLACK
6
CONTINUOUS
10
187.3384429999999838
20
-110.3355569999999943
11
188.0455570000000023
21
-110.3355569999999943
0
LINE
8
BLACK
6
CONTINUOUS
10
188.0455570000000023
20
-112.8755570000000006
11
188.0455570000000023
21
-112.1684429999999963
0
LINE
8
BLACK
6
CONTINUOUS
10
188.0455570000000023
20
-112.1684429999999963
11
187.3384429999999838
21
-112.1684429999999963
0
LINE
8
BLACK
6
CONTINUOUS
10
187.3384429999999838
20
-112.1684429999999963
11
187.3384429999999838
21
-112.8755570000000006
0
LINE
8
BLACK
6
CONTINUOUS
10
187.3384429999999838
20
-112.8755570000000006
11
188.0455570000000023
21
-112.8755570000000006
0
LINE
8
BLACK
6
CONTINUOUS
10
190.5855569999999943
20
-64.6155569999999955
11
190.5855569999999943
21
-63.9084429999999983
0
LINE
8
BLACK
6
CONTINUOUS
10
190.5855569999999943
20
-63.9084429999999983
11
189.8784430000000043
21
-63.9084429999999983
0
LINE
8
BLACK
6
CONTINUOUS
10
189.8784430000000043
20
-63.9084429999999983
11
189.8784430000000043
21
-64.6155569999999955
0
LINE
8
BLACK
6
CONTINUOUS
10
189.8784430000000043
20
-64.6155569999999955
11
190.5855569999999943
21
-64.6155569999999955
0
LINE
8
BLACK
6
CONTINUOUS
10
190.5855569999999943
20
-67.1555570000000017
11
190.5855569999999943
21
-66.4484429999999975
0
LINE
8
BLACK
6
CONTINUOUS
10
190.5855569999999943
20
-66.4484429999999975
11
189.8784430000000043
21
-66.4484429999999975
0
LINE
8
BLACK
6
CONTINUOUS
10
189.8784430000000043
20
-66.4484429999999975
11
189.8784430000000043
21
-67.1555570000000017
0
LINE
8
BLACK
6
CONTINUOUS
10
189.8784430000000043
20
-67.1555570000000017
11
190.5855569999999943
21
-67.1555570000000017
0
LINE
8
BLACK
6
CONTINUOUS
10
190.5855569999999943
20
-69.6955569999999938
11
190.5855569999999943
21
-68.9884430000000037
0
LINE
8
BLACK
6
CONTINUOUS
10
190.5855569999999943
20
-68.9884430000000037
11
189.8784430000000043
21
-68.9884430000000037
0
LINE
8
BLACK
6
CONTINUOUS
10
189.8784430000000043
20
-68.9884430000000037
11
189.8784430000000043
21
-69.6955569999999938
0
LINE
8
BLACK
6
CONTINUOUS
10
189.8784430000000043
20
-69.6955569999999938
11
190.5855569999999943
21
-69.6955569999999938
0
LINE
8
BLACK
6
CONTINUOUS
10
190.5855569999999943
20
-72.235557
11
190.5855569999999943
21
-71.5284429999999958
0
LINE
8
BLACK
6
CONTINUOUS
10
190.5855569999999943
20
-71.5284429999999958
11
189.8784430000000043
21
-71.5284429999999958
0
LINE
8
BLACK
6
CONTINUOUS
10
189.8784430000000043
20
-71.5284429999999958
11
189.8784430000000043
21
-72.235557
0
LINE
8
BLACK
6
CONTINUOUS
10
189.8784430000000043
20
-72.235557
11
190.5855569999999943
21
-72.235557
0
LINE
8
BLACK
6
CONTINUOUS
10
190.5855569999999943
20
-74.7755569999999921
11
190.5855569999999943
21
-74.068443000000002
0
LINE
8
BLACK
6
CONTINUOUS
10
190.5855569999999943
20
-74.068443000000002
11
189.8784430000000043
21
-74.068443000000002
0
LINE
8
BLACK
6
CONTINUOUS
10
189.8784430000000043
20
-74.068443000000002
11
189.8784430000000043
21
-74.7755569999999921
0
LINE
8
BLACK
6
CONTINUOUS
10
189.8784430000000043
20
-74.7755569999999921
11
190.5855569999999943
21
-74.7755569999999921
0
LINE
8
BLACK
6
CONTINUOUS
10
190.5855569999999943
20
-77.3155569999999983
11
190.5855569999999943
21
-76.6084429999999941
0
LINE
8
BLACK
6
CONTINUOUS
10
190.5855569999999943
20
-76.6084429999999941
11
189.8784430000000043
21
-76.6084429999999941
0
LINE
8
BLACK
6
CONTINUOUS
10
189.8784430000000043
20
-76.6084429999999941
11
189.8784430000000043
21
-77.3155569999999983
0
LINE
8
BLACK
6
CONTINUOUS
10
189.8784430000000043
20
-77.3155569999999983
11
190.5855569999999943
21
-77.3155569999999983
0
LINE
8
BLACK
6
CONTINUOUS
10
190.5855569999999943
20
-79.8555569999999904
11
190.5855569999999943
21
-79.1484430000000003
0
LINE
8
BLACK
6
CONTINUOUS
10
190.5855569999999943
20
-79.1484430000000003
11
189.8784430000000043
21
-79.1484430000000003
0
LINE
8
BLACK
6
CONTINUOUS
10
189.8784430000000043
20
-79.1484430000000003
11
189.8784430000000043
21
-79.8555569999999904
0
LINE
8
BLACK
6
CONTINUOUS
10
189.8784430000000043
20
-79.8555569999999904
11
190.5855569999999943
21
-79.8555569999999904
0
LINE
8
BLACK
6
CONTINUOUS
10
190.5855569999999943
20
-82.3955569999999966
11
190.5855569999999943
21
-81.6884429999999924
0
LINE
8
BLACK
6
CONTINUOUS
10
190.5855569999999943
20
-81.6884429999999924
11
189.8784430000000043
21
-81.6884429999999924
0
LINE
8
BLACK
6
CONTINUOUS
10
189.8784430000000043
20
-81.6884429999999924
11
189.8784430000000043
21
-82.3955569999999966
0
LINE
8
BLACK
6
CONTINUOUS
10
189.8784430000000043
20
-82.3955569999999966
11
190.5855569999999943
21
-82.3955569999999966
0
LINE
8
BLACK
6
CONTINUOUS
10
190.5855569999999943
20
-84.9355570000000029
11
190.5855569999999943
21
-84.2284429999999986
0
LINE
8
BLACK
6
CONTINUOUS
10
190.5855569999999943
20
-84.2284429999999986
11
189.8784430000000043
21
-84.2284429999999986
0
LINE
8
BLACK
6
CONTINUOUS
10
189.8784430000000043
20
-84.2284429999999986
11
189.8784430000000043
21
-84.9355570000000029
0
LINE
8
BLACK
6
CONTINUOUS
10
189.8784430000000043
20
-84.9355570000000029
11
190.5855569999999943
21
-84.9355570000000029
0
LINE
8
BLACK
6
CONTINUOUS
10
190.5855569999999943
20
-87.4755569999999949
11
190.5855569999999943
21
-86.7684429999999907
0
LINE
8
BLACK
6
CONTINUOUS
10
190.5855569999999943
20
-86.7684429999999907
11
189.8784430000000043
21
-86.7684429999999907
0
LINE
8
BLACK
6
CONTINUOUS
10
189.8784430000000043
20
-86.7684429999999907
11
189.8784430000000043
21
-87.4755569999999949
0
LINE
8
BLACK
6
CONTINUOUS
10
189.8784430000000043
20
-87.4755569999999949
11
190.5855569999999943
21
-87.4755569999999949
0
LINE
8
BLACK
6
CONTINUOUS
10
190.5855569999999943
20
-90.0155570000000012
11
190.5855569999999943
21
-89.3084429999999969
0
LINE
8
BLACK
6
CONTINUOUS
10
190.5855569999999943
20
-89.3084429999999969
11
189.8784430000000043
21
-89.3084429999999969
0
LINE
8
BLACK
6
CONTINUOUS
10
189.8784430000000043
20
-89.3084429999999969
11
189.8784430000000043
21
-90.0155570000000012
0
LINE
8
BLACK
6
CONTINUOUS
10
189.8784430000000043
20
-90.0155570000000012
11
190.5855569999999943
21
-90.0155570000000012
0
LINE
8
BLACK
6
CONTINUOUS
10
190.5855569999999943
20
-92.5555569999999932
11
190.5855569999999943
21
-91.848442999999989
0
LINE
8
BLACK
6
CONTINUOUS
10
190.5855569999999943
20
-91.848442999999989
11
189.8784430000000043
21
-91.848442999999989
0
LINE
8
BLACK
6
CONTINUOUS
10
189.8784430000000043
20
-91.848442999999989
11
189.8784430000000043
21
-92.5555569999999932
0
LINE
8
BLACK
6
CONTINUOUS
10
189.8784430000000043
20
-92.5555569999999932
11
190.5855569999999943
21
-92.5555569999999932
0
LINE
8
BLACK
6
CONTINUOUS
10
190.5855569999999943
20
-95.0955569999999994
11
190.5855569999999943
21
-94.3884429999999952
0
LINE
8
BLACK
6
CONTINUOUS
10
190.5855569999999943
20
-94.3884429999999952
11
189.8784430000000043
21
-94.3884429999999952
0
LINE
8
BLACK
6
CONTINUOUS
10
189.8784430000000043
20
-94.3884429999999952
11
189.8784430000000043
21
-95.0955569999999994
0
LINE
8
BLACK
6
CONTINUOUS
10
189.8784430000000043
20
-95.0955569999999994
11
190.5855569999999943
21
-95.0955569999999994
0
LINE
8
BLACK
6
CONTINUOUS
10
190.5855569999999943
20
-97.6355569999999915
11
190.5855569999999943
21
-96.9284430000000015
0
LINE
8
BLACK
6
CONTINUOUS
10
190.5855569999999943
20
-96.9284430000000015
11
189.8784430000000043
21
-96.9284430000000015
0
LINE
8
BLACK
6
CONTINUOUS
10
189.8784430000000043
20
-96.9284430000000015
11
189.8784430000000043
21
-97.6355569999999915
0
LINE
8
BLACK
6
CONTINUOUS
10
189.8784430000000043
20
-97.6355569999999915
11
190.5855569999999943
21
-97.6355569999999915
0
LINE
8
BLACK
6
CONTINUOUS
10
190.5855569999999943
20
-100.1755569999999977
11
190.5855569999999943
21
-99.4684429999999935
0
LINE
8
BLACK
6
CONTINUOUS
10
190.5855569999999943
20
-99.4684429999999935
11
189.8784430000000043
21
-99.4684429999999935
0
LINE
8
BLACK
6
CONTINUOUS
10
189.8784430000000043
20
-99.4684429999999935
11
189.8784430000000043
21
-100.1755569999999977
0
LINE
8
BLACK
6
CONTINUOUS
10
189.8784430000000043
20
-100.1755569999999977
11
190.5855569999999943
21
-100.1755569999999977
0
LINE
8
BLACK
6
CONTINUOUS
10
190.5855569999999943
20
-102.7155569999999898
11
190.5855569999999943
21
-102.0084429999999998
0
LINE
8
BLACK
6
CONTINUOUS
10
190.5855569999999943
20
-102.0084429999999998
11
189.8784430000000043
21
-102.0084429999999998
0
LINE
8
BLACK
6
CONTINUOUS
10
189.8784430000000043
20
-102.0084429999999998
11
189.8784430000000043
21
-102.7155569999999898
0
LINE
8
BLACK
6
CONTINUOUS
10
189.8784430000000043
20
-102.7155569999999898
11
190.5855569999999943
21
-102.7155569999999898
0
LINE
8
BLACK
6
CONTINUOUS
10
190.5855569999999943
20
-105.255556999999996
11
190.5855569999999943
21
-104.5484429999999918
0
LINE
8
BLACK
6
CONTINUOUS
10
190.5855569999999943
20
-104.5484429999999918
11
189.8784430000000043
21
-104.5484429999999918
0
LINE
8
BLACK
6
CONTINUOUS
10
189.8784430000000043
20
-104.5484429999999918
11
189.8784430000000043
21
-105.255556999999996
0
LINE
8
BLACK
6
CONTINUOUS
10
189.8784430000000043
20
-105.255556999999996
11
190.5855569999999943
21
-105.255556999999996
0
LINE
8
BLACK
6
CONTINUOUS
10
190.5855569999999943
20
-107.7955569999999881
11
190.5855569999999943
21
-107.0884429999999981
0
LINE
8
BLACK
6
CONTINUOUS
10
190.5855569999999943
20
-107.0884429999999981
11
189.8784430000000043
21
-107.0884429999999981
0
LINE
8
BLACK
6
CONTINUOUS
10
189.8784430000000043
20
-107.0884429999999981
11
189.8784430000000043
21
-107.7955569999999881
0
LINE
8
BLACK
6
CONTINUOUS
10
189.8784430000000043
20
-107.7955569999999881
11
190.5855569999999943
21
-107.7955569999999881
0
LINE
8
BLACK
6
CONTINUOUS
10
190.5855569999999943
20
-110.3355569999999943
11
190.5855569999999943
21
-109.6284429999999901
0
LINE
8
BLACK
6
CONTINUOUS
10
190.5855569999999943
20
-109.6284429999999901
11
189.8784430000000043
21
-109.6284429999999901
0
LINE
8
BLACK
6
CONTINUOUS
10
189.8784430000000043
20
-109.6284429999999901
11
189.8784430000000043
21
-110.3355569999999943
0
LINE
8
BLACK
6
CONTINUOUS
10
189.8784430000000043
20
-110.3355569999999943
11
190.5855569999999943
21
-110.3355569999999943
0
LINE
8
BLACK
6
CONTINUOUS
10
190.5855569999999943
20
-112.8755570000000006
11
190.5855569999999943
21
-112.1684429999999963
0
LINE
8
BLACK
6
CONTINUOUS
10
190.5855569999999943
20
-112.1684429999999963
11
189.8784430000000043
21
-112.1684429999999963
0
LINE
8
BLACK
6
CONTINUOUS
10
189.8784430000000043
20
-112.1684429999999963
11
189.8784430000000043
21
-112.8755570000000006
0
LINE
8
BLACK
6
CONTINUOUS
10
189.8784430000000043
20
-112.8755570000000006
11
190.5855569999999943
21
-112.8755570000000006
0
LINE
8
BLACK
6
CONTINUOUS
10
2.6077680000000001
20
-3.1148379999999998
11
2.6077680000000001
21
-1.114838
0
LINE
8
BLACK
6
CONTINUOUS
10
2.6077680000000001
20
-1.114838
11
3.083958
21
-1.114838
0
LINE
8
BLACK
6
CONTINUOUS
10
3.083958
20
-1.114838
11
3.3696729999999997
21
-1.2100759999999999
0
LINE
8
BLACK
6
CONTINUOUS
10
3.3696729999999997
20
-1.2100759999999999
11
3.560149
21
-1.400552
0
LINE
8
BLACK
6
CONTINUOUS
10
3.560149
20
-1.400552
11
3.6553869999999997
21
-1.5910279999999999
0
LINE
8
BLACK
6
CONTINUOUS
10
3.6553869999999997
20
-1.5910279999999999
11
3.7506249999999999
21
-1.9719799999999998
0
LINE
8
BLACK
6
CONTINUOUS
10
3.7506249999999999
20
-1.9719799999999998
11
3.7506249999999999
21
-2.257695
0
LINE
8
BLACK
6
CONTINUOUS
10
3.7506249999999999
20
-2.257695
11
3.6553869999999997
21
-2.6386469999999997
0
LINE
8
BLACK
6
CONTINUOUS
10
3.6553869999999997
20
-2.6386469999999997
11
3.560149
21
-2.8291230000000001
0
LINE
8
BLACK
6
CONTINUOUS
10
3.560149
20
-2.8291230000000001
11
3.3696729999999997
21
-3.0196000000000001
0
LINE
8
BLACK
6
CONTINUOUS
10
3.3696729999999997
20
-3.0196000000000001
11
3.083958
21
-3.1148379999999998
0
LINE
8
BLACK
6
CONTINUOUS
10
3.083958
20
-3.1148379999999998
11
2.6077680000000001
21
-3.1148379999999998
0
LINE
8
BLACK
6
CONTINUOUS
10
4.6077680000000001
20
-3.1148379999999998
11
4.6077680000000001
21
-1.781504
0
LINE
8
BLACK
6
CONTINUOUS
10
4.6077680000000001
20
-2.1624569999999999
11
4.7030059999999994
21
-1.9719799999999998
0
LINE
8
BLACK
6
CONTINUOUS
10
4.7030059999999994
20
-1.9719799999999998
11
4.7982439999999995
21
-1.8767419999999999
0
LINE
8
BLACK
6
CONTINUOUS
10
4.7982439999999995
20
-1.8767419999999999
11
4.9887199999999998
21
-1.781504
0
LINE
8
BLACK
6
CONTINUOUS
10
4.9887199999999998
20
-1.781504
11
5.1791969999999994
21
-1.781504
0
LINE
8
BLACK
6
CONTINUOUS
10
5.8458629999999996
20
-3.1148379999999998
11
5.8458629999999996
21
-1.781504
0
LINE
8
BLACK
6
CONTINUOUS
10
5.8458629999999996
20
-1.114838
11
5.7506249999999994
21
-1.2100759999999999
0
LINE
8
BLACK
6
CONTINUOUS
10
5.7506249999999994
20
-1.2100759999999999
11
5.8458629999999996
21
-1.3053139999999999
0
LINE
8
BLACK
6
CONTINUOUS
10
5.8458629999999996
20
-1.3053139999999999
11
5.9411009999999997
21
-1.2100759999999999
0
LINE
8
BLACK
6
CONTINUOUS
10
5.9411009999999997
20
-1.2100759999999999
11
5.8458629999999996
21
-1.114838
0
LINE
8
BLACK
6
CONTINUOUS
10
5.8458629999999996
20
-1.114838
11
5.8458629999999996
21
-1.3053139999999999
0
LINE
8
BLACK
6
CONTINUOUS
10
7.083958
20
-3.1148379999999998
11
6.8934819999999997
21
-3.0196000000000001
0
LINE
8
BLACK
6
CONTINUOUS
10
6.8934819999999997
20
-3.0196000000000001
11
6.7982439999999995
21
-2.8291230000000001
0
LINE
8
BLACK
6
CONTINUOUS
10
6.7982439999999995
20
-2.8291230000000001
11
6.7982439999999995
21
-1.114838
0
LINE
8
BLACK
6
CONTINUOUS
10
8.1315770000000001
20
-3.1148379999999998
11
7.9411009999999997
21
-3.0196000000000001
0
LINE
8
BLACK
6
CONTINUOUS
10
7.9411009999999997
20
-3.0196000000000001
11
7.8458629999999996
21
-2.8291230000000001
0
LINE
8
BLACK
6
CONTINUOUS
10
7.8458629999999996
20
-2.8291230000000001
11
7.8458629999999996
21
-1.114838
0
LINE
8
BLACK
6
CONTINUOUS
10
10.4172919999999998
20
-3.1148379999999998
11
10.4172919999999998
21
-1.114838
0
LINE
8
BLACK
6
CONTINUOUS
10
10.4172919999999998
20
-1.114838
11
11.0839590000000001
21
-2.543409
0
LINE
8
BLACK
6
CONTINUOUS
10
11.0839590000000001
20
-2.543409
11
11.7506249999999994
21
-1.114838
0
LINE
8
BLACK
6
CONTINUOUS
10
11.7506249999999994
20
-1.114838
11
11.7506249999999994
21
-3.1148379999999998
0
LINE
8
BLACK
6
CONTINUOUS
10
13.5601489999999991
20
-3.1148379999999998
11
13.5601489999999991
21
-2.0672189999999997
0
LINE
8
BLACK
6
CONTINUOUS
10
13.5601489999999991
20
-2.0672189999999997
11
13.464910999999999
21
-1.8767419999999999
0
LINE
8
BLACK
6
CONTINUOUS
10
13.464910999999999
20
-1.8767419999999999
11
13.2744349999999987
21
-1.781504
0
LINE
8
BLACK
6
CONTINUOUS
10
13.2744349999999987
20
-1.781504
11
12.8934819999999988
21
-1.781504
0
LINE
8
BLACK
6
CONTINUOUS
10
12.8934819999999988
20
-1.781504
11
12.7030060000000002
21
-1.8767419999999999
0
LINE
8
BLACK
6
CONTINUOUS
10
13.5601489999999991
20
-3.0196000000000001
11
13.3696729999999988
21
-3.1148379999999998
0
LINE
8
BLACK
6
CONTINUOUS
10
13.3696729999999988
20
-3.1148379999999998
11
12.8934819999999988
21
-3.1148379999999998
0
LINE
8
BLACK
6
CONTINUOUS
10
12.8934819999999988
20
-3.1148379999999998
11
12.7030060000000002
21
-3.0196000000000001
0
LINE
8
BLACK
6
CONTINUOUS
10
12.7030060000000002
20
-3.0196000000000001
11
12.6077680000000001
21
-2.8291230000000001
0
LINE
8
BLACK
6
CONTINUOUS
10
12.6077680000000001
20
-2.8291230000000001
11
12.6077680000000001
21
-2.6386469999999997
0
LINE
8
BLACK
6
CONTINUOUS
10
12.6077680000000001
20
-2.6386469999999997
11
12.7030060000000002
21
-2.4481709999999999
0
LINE
8
BLACK
6
CONTINUOUS
10
12.7030060000000002
20
-2.4481709999999999
11
12.8934819999999988
21
-2.3529329999999997
0
LINE
8
BLACK
6
CONTINUOUS
10
12.8934819999999988
20
-2.3529329999999997
11
13.3696729999999988
21
-2.3529329999999997
0
LINE
8
BLACK
6
CONTINUOUS
10
13.3696729999999988
20
-2.3529329999999997
11
13.5601489999999991
21
-2.257695
0
LINE
8
BLACK
6
CONTINUOUS
10
14.5125299999999999
20
-1.781504
11
14.5125299999999999
21
-3.781504
0
LINE
8
BLACK
6
CONTINUOUS
10
14.5125299999999999
20
-1.8767419999999999
11
14.7030059999999985
21
-1.781504
0
LINE
8
BLACK
6
CONTINUOUS
10
14.7030059999999985
20
-1.781504
11
15.0839590000000001
21
-1.781504
0
LINE
8
BLACK
6
CONTINUOUS
10
15.0839590000000001
20
-1.781504
11
15.2744349999999987
21
-1.8767419999999999
0
LINE
8
BLACK
6
CONTINUOUS
10
15.2744349999999987
20
-1.8767419999999999
11
15.3696729999999988
21
-1.9719799999999998
0
LINE
8
BLACK
6
CONTINUOUS
10
15.3696729999999988
20
-1.9719799999999998
11
15.464910999999999
21
-2.1624569999999999
0
LINE
8
BLACK
6
CONTINUOUS
10
15.464910999999999
20
-2.1624569999999999
11
15.464910999999999
21
-2.7338849999999999
0
LINE
8
BLACK
6
CONTINUOUS
10
15.464910999999999
20
-2.7338849999999999
11
15.3696729999999988
21
-2.9243609999999998
0
LINE
8
BLACK
6
CONTINUOUS
10
15.3696729999999988
20
-2.9243609999999998
11
15.2744349999999987
21
-3.0196000000000001
0
LINE
8
BLACK
6
CONTINUOUS
10
15.2744349999999987
20
-3.0196000000000001
11
15.0839590000000001
21
-3.1148379999999998
0
LINE
8
BLACK
6
CONTINUOUS
10
15.0839590000000001
20
-3.1148379999999998
11
14.7030059999999985
21
-3.1148379999999998
0
LINE
8
BLACK
6
CONTINUOUS
10
14.7030059999999985
20
-3.1148379999999998
11
14.5125299999999999
21
-3.0196000000000001
0
LINE
8
BLACK
6
CONTINUOUS
10
16.3220539999999978
20
-2.9243609999999998
11
16.4172919999999998
21
-3.0196000000000001
0
LINE
8
BLACK
6
CONTINUOUS
10
16.4172919999999998
20
-3.0196000000000001
11
16.3220539999999978
21
-3.1148379999999998
0
LINE
8
BLACK
6
CONTINUOUS
10
16.3220539999999978
20
-3.1148379999999998
11
16.2268159999999995
21
-3.0196000000000001
0
LINE
8
BLACK
6
CONTINUOUS
10
16.2268159999999995
20
-3.0196000000000001
11
16.3220539999999978
21
-2.9243609999999998
0
LINE
8
BLACK
6
CONTINUOUS
10
16.3220539999999978
20
-2.9243609999999998
11
16.3220539999999978
21
-3.1148379999999998
0
LINE
8
BLACK
6
CONTINUOUS
10
16.3220539999999978
20
-1.8767419999999999
11
16.4172919999999998
21
-1.9719799999999998
0
LINE
8
BLACK
6
CONTINUOUS
10
16.4172919999999998
20
-1.9719799999999998
11
16.3220539999999978
21
-2.0672189999999997
0
LINE
8
BLACK
6
CONTINUOUS
10
16.3220539999999978
20
-2.0672189999999997
11
16.2268159999999995
21
-1.9719799999999998
0
LINE
8
BLACK
6
CONTINUOUS
10
16.2268159999999995
20
-1.9719799999999998
11
16.3220539999999978
21
-1.8767419999999999
0
LINE
8
BLACK
6
CONTINUOUS
10
16.3220539999999978
20
-1.8767419999999999
11
16.3220539999999978
21
-2.0672189999999997
0
LINE
8
BLACK
6
CONTINUOUS
10
-0.6
20
-6.0999999999999996
11
0.
21
-6.6999999999999993
0
LINE
8
BLACK
6
CONTINUOUS
10
0.
20
-6.0999999999999996
11
-0.6
21
-6.6999999999999993
0
LINE
8
BLACK
6
CONTINUOUS
10
2.9887199999999998
20
-5.314838
11
3.1791969999999998
21
-5.314838
0
LINE
8
BLACK
6
CONTINUOUS
10
3.1791969999999998
20
-5.314838
11
3.3696729999999997
21
-5.4100760000000001
0
LINE
8
BLACK
6
CONTINUOUS
10
3.3696729999999997
20
-5.4100760000000001
11
3.4649109999999999
21
-5.5053139999999994
0
LINE
8
BLACK
6
CONTINUOUS
10
3.4649109999999999
20
-5.5053139999999994
11
3.560149
21
-5.6957899999999997
0
LINE
8
BLACK
6
CONTINUOUS
10
3.560149
20
-5.6957899999999997
11
3.6553869999999997
21
-6.0767419999999994
0
LINE
8
BLACK
6
CONTINUOUS
10
3.6553869999999997
20
-6.0767419999999994
11
3.6553869999999997
21
-6.5529329999999995
0
LINE
8
BLACK
6
CONTINUOUS
10
3.6553869999999997
20
-6.5529329999999995
11
3.560149
21
-6.9338850000000001
0
LINE
8
BLACK
6
CONTINUOUS
10
3.560149
20
-6.9338850000000001
11
3.4649109999999999
21
-7.1243609999999995
0
LINE
8
BLACK
6
CONTINUOUS
10
3.4649109999999999
20
-7.1243609999999995
11
3.3696729999999997
21
-7.2195999999999998
0
LINE
8
BLACK
6
CONTINUOUS
10
3.3696729999999997
20
-7.2195999999999998
11
3.1791969999999998
21
-7.314838
0
LINE
8
BLACK
6
CONTINUOUS
10
3.1791969999999998
20
-7.314838
11
2.9887199999999998
21
-7.314838
0
LINE
8
BLACK
6
CONTINUOUS
10
2.9887199999999998
20
-7.314838
11
2.798244
21
-7.2195999999999998
0
LINE
8
BLACK
6
CONTINUOUS
10
2.798244
20
-7.2195999999999998
11
2.7030059999999998
21
-7.1243609999999995
0
LINE
8
BLACK
6
CONTINUOUS
10
2.7030059999999998
20
-7.1243609999999995
11
2.6077680000000001
21
-6.9338850000000001
0
LINE
8
BLACK
6
CONTINUOUS
10
2.6077680000000001
20
-6.9338850000000001
11
2.5125299999999999
21
-6.5529329999999995
0
LINE
8
BLACK
6
CONTINUOUS
10
2.5125299999999999
20
-6.5529329999999995
11
2.5125299999999999
21
-6.0767419999999994
0
LINE
8
BLACK
6
CONTINUOUS
10
2.5125299999999999
20
-6.0767419999999994
11
2.6077680000000001
21
-5.6957899999999997
0
LINE
8
BLACK
6
CONTINUOUS
10
2.6077680000000001
20
-5.6957899999999997
11
2.7030059999999998
21
-5.5053139999999994
0
LINE
8
BLACK
6
CONTINUOUS
10
2.7030059999999998
20
-5.5053139999999994
11
2.798244
21
-5.4100760000000001
0
LINE
8
BLACK
6
CONTINUOUS
10
2.798244
20
-5.4100760000000001
11
2.9887199999999998
21
-5.314838
0
LINE
8
BLACK
6
CONTINUOUS
10
4.5125299999999999
20
-7.1243609999999995
11
4.6077680000000001
21
-7.2195999999999998
0
LINE
8
BLACK
6
CONTINUOUS
10
4.6077680000000001
20
-7.2195999999999998
11
4.5125299999999999
21
-7.314838
0
LINE
8
BLACK
6
CONTINUOUS
10
4.5125299999999999
20
-7.314838
11
4.4172919999999998
21
-7.2195999999999998
0
LINE
8
BLACK
6
CONTINUOUS
10
4.4172919999999998
20
-7.2195999999999998
11
4.5125299999999999
21
-7.1243609999999995
0
LINE
8
BLACK
6
CONTINUOUS
10
4.5125299999999999
20
-7.1243609999999995
11
4.5125299999999999
21
-7.314838
0
LINE
8
BLACK
6
CONTINUOUS
10
6.3220539999999996
20
-5.314838
11
5.9411009999999997
21
-5.314838
0
LINE
8
BLACK
6
CONTINUOUS
10
5.9411009999999997
20
-5.314838
11
5.7506249999999994
21
-5.4100760000000001
0
LINE
8
BLACK
6
CONTINUOUS
10
5.7506249999999994
20
-5.4100760000000001
11
5.6553870000000002
21
-5.5053139999999994
0
LINE
8
BLACK
6
CONTINUOUS
10
5.6553870000000002
20
-5.5053139999999994
11
5.4649109999999999
21
-5.7910279999999998
0
LINE
8
BLACK
6
CONTINUOUS
10
5.4649109999999999
20
-5.7910279999999998
11
5.3696729999999997
21
-6.1719799999999996
0
LINE
8
BLACK
6
CONTINUOUS
10
5.3696729999999997
20
-6.1719799999999996
11
5.3696729999999997
21
-6.9338850000000001
0
LINE
8
BLACK
6
CONTINUOUS
10
5.3696729999999997
20
-6.9338850000000001
11
5.4649109999999999
21
-7.1243609999999995
0
LINE
8
BLACK
6
CONTINUOUS
10
5.4649109999999999
20
-7.1243609999999995
11
5.560149
21
-7.2195999999999998
0
LINE
8
BLACK
6
CONTINUOUS
10
5.560149
20
-7.2195999999999998
11
5.7506249999999994
21
-7.314838
0
LINE
8
BLACK
6
CONTINUOUS
10
5.7506249999999994
20
-7.314838
11
6.1315779999999993
21
-7.314838
0
LINE
8
BLACK
6
CONTINUOUS
10
6.1315779999999993
20
-7.314838
11
6.3220539999999996
21
-7.2195999999999998
0
LINE
8
BLACK
6
CONTINUOUS
10
6.3220539999999996
20
-7.2195999999999998
11
6.4172919999999998
21
-7.1243609999999995
0
LINE
8
BLACK
6
CONTINUOUS
10
6.4172919999999998
20
-7.1243609999999995
11
6.5125299999999999
21
-6.9338850000000001
0
LINE
8
BLACK
6
CONTINUOUS
10
6.5125299999999999
20
-6.9338850000000001
11
6.5125299999999999
21
-6.4576949999999993
0
LINE
8
BLACK
6
CONTINUOUS
10
6.5125299999999999
20
-6.4576949999999993
11
6.4172919999999998
21
-6.2672189999999999
0
LINE
8
BLACK
6
CONTINUOUS
10
6.4172919999999998
20
-6.2672189999999999
11
6.3220539999999996
21
-6.1719799999999996
0
LINE
8
BLACK
6
CONTINUOUS
10
6.3220539999999996
20
-6.1719799999999996
11
6.1315779999999993
21
-6.0767419999999994
0
LINE
8
BLACK
6
CONTINUOUS
10
6.1315779999999993
20
-6.0767419999999994
11
5.7506249999999994
21
-6.0767419999999994
0
LINE
8
BLACK
6
CONTINUOUS
10
5.7506249999999994
20
-6.0767419999999994
11
5.560149
21
-6.1719799999999996
0
LINE
8
BLACK
6
CONTINUOUS
10
5.560149
20
-6.1719799999999996
11
5.4649109999999999
21
-6.2672189999999999
0
LINE
8
BLACK
6
CONTINUOUS
10
5.4649109999999999
20
-6.2672189999999999
11
5.3696729999999997
21
-6.4576949999999993
0
LINE
8
BLACK
6
CONTINUOUS
10
7.7506249999999994
20
-5.314838
11
7.9411019999999999
21
-5.314838
0
LINE
8
BLACK
6
CONTINUOUS
10
7.9411019999999999
20
-5.314838
11
8.1315779999999993
21
-5.4100760000000001
0
LINE
8
BLACK
6
CONTINUOUS
10
8.1315779999999993
20
-5.4100760000000001
11
8.2268159999999995
21
-5.5053139999999994
0
LINE
8
BLACK
6
CONTINUOUS
10
8.2268159999999995
20
-5.5053139999999994
11
8.3220539999999996
21
-5.6957899999999997
0
LINE
8
BLACK
6
CONTINUOUS
10
8.3220539999999996
20
-5.6957899999999997
11
8.4172919999999998
21
-6.0767419999999994
0
LINE
8
BLACK
6
CONTINUOUS
10
8.4172919999999998
20
-6.0767419999999994
11
8.4172919999999998
21
-6.5529329999999995
0
LINE
8
BLACK
6
CONTINUOUS
10
8.4172919999999998
20
-6.5529329999999995
11
8.3220539999999996
21
-6.9338850000000001
0
LINE
8
BLACK
6
CONTINUOUS
10
8.3220539999999996
20
-6.9338850000000001
11
8.2268159999999995
21
-7.1243609999999995
0
LINE
8
BLACK
6
CONTINUOUS
10
8.2268159999999995
20
-7.1243609999999995
11
8.1315779999999993
21
-7.2195999999999998
0
LINE
8
BLACK
6
CONTINUOUS
10
8.1315779999999993
20
-7.2195999999999998
11
7.9411019999999999
21
-7.314838
0
LINE
8
BLACK
6
CONTINUOUS
10
7.9411019999999999
20
-7.314838
11
7.7506249999999994
21
-7.314838
0
LINE
8
BLACK
6
CONTINUOUS
10
7.7506249999999994
20
-7.314838
11
7.560149
21
-7.2195999999999998
0
LINE
8
BLACK
6
CONTINUOUS
10
7.560149
20
-7.2195999999999998
11
7.4649109999999999
21
-7.1243609999999995
0
LINE
8
BLACK
6
CONTINUOUS
10
7.4649109999999999
20
-7.1243609999999995
11
7.3696729999999997
21
-6.9338850000000001
0
LINE
8
BLACK
6
CONTINUOUS
10
7.3696729999999997
20
-6.9338850000000001
11
7.2744349999999995
21
-6.5529329999999995
0
LINE
8
BLACK
6
CONTINUOUS
10
7.2744349999999995
20
-6.5529329999999995
11
7.2744349999999995
21
-6.0767419999999994
0
LINE
8
BLACK
6
CONTINUOUS
10
7.2744349999999995
20
-6.0767419999999994
11
7.3696729999999997
21
-5.6957899999999997
0
LINE
8
BLACK
6
CONTINUOUS
10
7.3696729999999997
20
-5.6957899999999997
11
7.4649109999999999
21
-5.5053139999999994
0
LINE
8
BLACK
6
CONTINUOUS
10
7.4649109999999999
20
-5.5053139999999994
11
7.560149
21
-5.4100760000000001
0
LINE
8
BLACK
6
CONTINUOUS
10
7.560149
20
-5.4100760000000001
11
7.7506249999999994
21
-5.314838
0
LINE
8
BLACK
6
CONTINUOUS
10
9.6553869999999993
20
-5.314838
11
9.8458639999999988
21
-5.314838
0
LINE
8
BLACK
6
CONTINUOUS
10
9.8458639999999988
20
-5.314838
11
10.0363399999999992
21
-5.4100760000000001
0
LINE
8
BLACK
6
CONTINUOUS
10
10.0363399999999992
20
-5.4100760000000001
11
10.1315779999999993
21
-5.5053139999999994
0
LINE
8
BLACK
6
CONTINUOUS
10
10.1315779999999993
20
-5.5053139999999994
11
10.2268159999999995
21
-5.6957899999999997
0
LINE
8
BLACK
6
CONTINUOUS
10
10.2268159999999995
20
-5.6957899999999997
11
10.3220539999999996
21
-6.0767419999999994
0
LINE
8
BLACK
6
CONTINUOUS
10
10.3220539999999996
20
-6.0767419999999994
11
10.3220539999999996
21
-6.5529329999999995
0
LINE
8
BLACK
6
CONTINUOUS
10
10.3220539999999996
20
-6.5529329999999995
11
10.2268159999999995
21
-6.9338850000000001
0
LINE
8
BLACK
6
CONTINUOUS
10
10.2268159999999995
20
-6.9338850000000001
11
10.1315779999999993
21
-7.1243609999999995
0
LINE
8
BLACK
6
CONTINUOUS
10
10.1315779999999993
20
-7.1243609999999995
11
10.0363399999999992
21
-7.2195999999999998
0
LINE
8
BLACK
6
CONTINUOUS
10
10.0363399999999992
20
-7.2195999999999998
11
9.8458639999999988
21
-7.314838
0
LINE
8
BLACK
6
CONTINUOUS
10
9.8458639999999988
20
-7.314838
11
9.6553869999999993
21
-7.314838
0
LINE
8
BLACK
6
CONTINUOUS
10
9.6553869999999993
20
-7.314838
11
9.464910999999999
21
-7.2195999999999998
0
LINE
8
BLACK
6
CONTINUOUS
10
9.464910999999999
20
-7.2195999999999998
11
9.3696729999999988
21
-7.1243609999999995
0
LINE
8
BLACK
6
CONTINUOUS
10
9.3696729999999988
20
-7.1243609999999995
11
9.2744350000000004
21
-6.9338850000000001
0
LINE
8
BLACK
6
CONTINUOUS
10
9.2744350000000004
20
-6.9338850000000001
11
9.1791970000000003
21
-6.5529329999999995
0
LINE
8
BLACK
6
CONTINUOUS
10
9.1791970000000003
20
-6.5529329999999995
11
9.1791970000000003
21
-6.0767419999999994
0
LINE
8
BLACK
6
CONTINUOUS
10
9.1791970000000003
20
-6.0767419999999994
11
9.2744350000000004
21
-5.6957899999999997
0
LINE
8
BLACK
6
CONTINUOUS
10
9.2744350000000004
20
-5.6957899999999997
11
9.3696729999999988
21
-5.5053139999999994
0
LINE
8
BLACK
6
CONTINUOUS
10
9.3696729999999988
20
-5.5053139999999994
11
9.464910999999999
21
-5.4100760000000001
0
LINE
8
BLACK
6
CONTINUOUS
10
9.464910999999999
20
-5.4100760000000001
11
9.6553869999999993
21
-5.314838
0
LINE
8
BLACK
6
CONTINUOUS
10
11.1791970000000003
20
-7.314838
11
11.1791970000000003
21
-5.9815040000000002
0
LINE
8
BLACK
6
CONTINUOUS
10
11.1791970000000003
20
-6.1719799999999996
11
11.2744349999999987
21
-6.0767419999999994
0
LINE
8
BLACK
6
CONTINUOUS
10
11.2744349999999987
20
-6.0767419999999994
11
11.464910999999999
21
-5.9815040000000002
0
LINE
8
BLACK
6
CONTINUOUS
10
11.464910999999999
20
-5.9815040000000002
11
11.7506259999999987
21
-5.9815040000000002
0
LINE
8
BLACK
6
CONTINUOUS
10
11.7506259999999987
20
-5.9815040000000002
11
11.941101999999999
21
-6.0767419999999994
0
LINE
8
BLACK
6
CONTINUOUS
10
11.941101999999999
20
-6.0767419999999994
11
12.0363399999999992
21
-6.2672189999999999
0
LINE
8
BLACK
6
CONTINUOUS
10
12.0363399999999992
20
-6.2672189999999999
11
12.0363399999999992
21
-7.314838
0
LINE
8
BLACK
6
CONTINUOUS
10
12.0363399999999992
20
-6.2672189999999999
11
12.1315779999999993
21
-6.0767419999999994
0
LINE
8
BLACK
6
CONTINUOUS
10
12.1315779999999993
20
-6.0767419999999994
11
12.3220539999999996
21
-5.9815040000000002
0
LINE
8
BLACK
6
CONTINUOUS
10
12.3220539999999996
20
-5.9815040000000002
11
12.6077680000000001
21
-5.9815040000000002
0
LINE
8
BLACK
6
CONTINUOUS
10
12.6077680000000001
20
-5.9815040000000002
11
12.7982449999999996
21
-6.0767419999999994
0
LINE
8
BLACK
6
CONTINUOUS
10
12.7982449999999996
20
-6.0767419999999994
11
12.8934829999999998
21
-6.2672189999999999
0
LINE
8
BLACK
6
CONTINUOUS
10
12.8934829999999998
20
-6.2672189999999999
11
12.8934829999999998
21
-7.314838
0
LINE
8
BLACK
6
CONTINUOUS
10
13.8458639999999988
20
-7.314838
11
13.8458639999999988
21
-5.9815040000000002
0
LINE
8
BLACK
6
CONTINUOUS
10
13.8458639999999988
20
-6.1719799999999996
11
13.941101999999999
21
-6.0767419999999994
0
LINE
8
BLACK
6
CONTINUOUS
10
13.941101999999999
20
-6.0767419999999994
11
14.1315779999999993
21
-5.9815040000000002
0
LINE
8
BLACK
6
CONTINUOUS
10
14.1315779999999993
20
-5.9815040000000002
11
14.417292999999999
21
-5.9815040000000002
0
LINE
8
BLACK
6
CONTINUOUS
10
14.417292999999999
20
-5.9815040000000002
11
14.6077689999999993
21
-6.0767419999999994
0
LINE
8
BLACK
6
CONTINUOUS
10
14.6077689999999993
20
-6.0767419999999994
11
14.7030069999999995
21
-6.2672189999999999
0
LINE
8
BLACK
6
CONTINUOUS
10
14.7030069999999995
20
-6.2672189999999999
11
14.7030069999999995
21
-7.314838
0
LINE
8
BLACK
6
CONTINUOUS
10
14.7030069999999995
20
-6.2672189999999999
11
14.7982449999999996
21
-6.0767419999999994
0
LINE
8
BLACK
6
CONTINUOUS
10
14.7982449999999996
20
-6.0767419999999994
11
14.988721
21
-5.9815040000000002
0
LINE
8
BLACK
6
CONTINUOUS
10
14.988721
20
-5.9815040000000002
11
15.2744349999999987
21
-5.9815040000000002
0
LINE
8
BLACK
6
CONTINUOUS
10
15.2744349999999987
20
-5.9815040000000002
11
15.464912
21
-6.0767419999999994
0
LINE
8
BLACK
6
CONTINUOUS
10
15.464912
20
-6.0767419999999994
11
15.5601500000000001
21
-6.2672189999999999
0
LINE
8
BLACK
6
CONTINUOUS
10
15.5601500000000001
20
-6.2672189999999999
11
15.5601500000000001
21
-7.314838
0
LINE
8
BLACK
6
CONTINUOUS
10
19.4649119999999982
20
-5.2195999999999998
11
17.7506269999999979
21
-7.7910279999999998
0
LINE
8
BLACK
6
CONTINUOUS
10
22.0363410000000002
20
-5.314838
11
22.226817999999998
21
-5.314838
0
LINE
8
BLACK
6
CONTINUOUS
10
22.226817999999998
20
-5.314838
11
22.4172939999999983
21
-5.4100760000000001
0
LINE
8
BLACK
6
CONTINUOUS
10
22.4172939999999983
20
-5.4100760000000001
11
22.5125320000000002
21
-5.5053139999999994
0
LINE
8
BLACK
6
CONTINUOUS
10
22.5125320000000002
20
-5.5053139999999994
11
22.6077699999999986
21
-5.6957899999999997
0
LINE
8
BLACK
6
CONTINUOUS
10
22.6077699999999986
20
-5.6957899999999997
11
22.7030080000000005
21
-6.0767419999999994
0
LINE
8
BLACK
6
CONTINUOUS
10
22.7030080000000005
20
-6.0767419999999994
11
22.7030080000000005
21
-6.5529329999999995
0
LINE
8
BLACK
6
CONTINUOUS
10
22.7030080000000005
20
-6.5529329999999995
11
22.6077699999999986
21
-6.9338850000000001
0
LINE
8
BLACK
6
CONTINUOUS
10
22.6077699999999986
20
-6.9338850000000001
11
22.5125320000000002
21
-7.1243609999999995
0
LINE
8
BLACK
6
CONTINUOUS
10
22.5125320000000002
20
-7.1243609999999995
11
22.4172939999999983
21
-7.2195999999999998
0
LINE
8
BLACK
6
CONTINUOUS
10
22.4172939999999983
20
-7.2195999999999998
11
22.226817999999998
21
-7.314838
0
LINE
8
BLACK
6
CONTINUOUS
10
22.226817999999998
20
-7.314838
11
22.0363410000000002
21
-7.314838
0
LINE
8
BLACK
6
CONTINUOUS
10
22.0363410000000002
20
-7.314838
11
21.8458649999999999
21
-7.2195999999999998
0
LINE
8
BLACK
6
CONTINUOUS
10
21.8458649999999999
20
-7.2195999999999998
11
21.7506269999999979
21
-7.1243609999999995
0
LINE
8
BLACK
6
CONTINUOUS
10
21.7506269999999979
20
-7.1243609999999995
11
21.6553889999999996
21
-6.9338850000000001
0
LINE
8
BLACK
6
CONTINUOUS
10
21.6553889999999996
20
-6.9338850000000001
11
21.5601509999999976
21
-6.5529329999999995
0
LINE
8
BLACK
6
CONTINUOUS
10
21.5601509999999976
20
-6.5529329999999995
11
21.5601509999999976
21
-6.0767419999999994
0
LINE
8
BLACK
6
CONTINUOUS
10
21.5601509999999976
20
-6.0767419999999994
11
21.6553889999999996
21
-5.6957899999999997
0
LINE
8
BLACK
6
CONTINUOUS
10
21.6553889999999996
20
-5.6957899999999997
11
21.7506269999999979
21
-5.5053139999999994
0
LINE
8
BLACK
6
CONTINUOUS
10
21.7506269999999979
20
-5.5053139999999994
11
21.8458649999999999
21
-5.4100760000000001
0
LINE
8
BLACK
6
CONTINUOUS
10
21.8458649999999999
20
-5.4100760000000001
11
22.0363410000000002
21
-5.314838
0
LINE
8
BLACK
6
CONTINUOUS
10
23.5601509999999976
20
-7.1243609999999995
11
23.6553889999999996
21
-7.2195999999999998
0
LINE
8
BLACK
6
CONTINUOUS
10
23.6553889999999996
20
-7.2195999999999998
11
23.5601509999999976
21
-7.314838
0
LINE
8
BLACK
6
CONTINUOUS
10
23.5601509999999976
20
-7.314838
11
23.4649129999999992
21
-7.2195999999999998
0
LINE
8
BLACK
6
CONTINUOUS
10
23.4649129999999992
20
-7.2195999999999998
11
23.5601509999999976
21
-7.1243609999999995
0
LINE
8
BLACK
6
CONTINUOUS
10
23.5601509999999976
20
-7.1243609999999995
11
23.5601509999999976
21
-7.314838
0
LINE
8
BLACK
6
CONTINUOUS
10
24.8934839999999973
20
-5.314838
11
25.0839609999999986
21
-5.314838
0
LINE
8
BLACK
6
CONTINUOUS
10
25.0839609999999986
20
-5.314838
11
25.2744369999999989
21
-5.4100760000000001
0
LINE
8
BLACK
6
CONTINUOUS
10
25.2744369999999989
20
-5.4100760000000001
11
25.3696749999999973
21
-5.5053139999999994
0
LINE
8
BLACK
6
CONTINUOUS
10
25.3696749999999973
20
-5.5053139999999994
11
25.4649129999999992
21
-5.6957899999999997
0
LINE
8
BLACK
6
CONTINUOUS
10
25.4649129999999992
20
-5.6957899999999997
11
25.5601509999999976
21
-6.0767419999999994
0
LINE
8
BLACK
6
CONTINUOUS
10
25.5601509999999976
20
-6.0767419999999994
11
25.5601509999999976
21
-6.5529329999999995
0
LINE
8
BLACK
6
CONTINUOUS
10
25.5601509999999976
20
-6.5529329999999995
11
25.4649129999999992
21
-6.9338850000000001
0
LINE
8
BLACK
6
CONTINUOUS
10
25.4649129999999992
20
-6.9338850000000001
11
25.3696749999999973
21
-7.1243609999999995
0
LINE
8
BLACK
6
CONTINUOUS
10
25.3696749999999973
20
-7.1243609999999995
11
25.2744369999999989
21
-7.2195999999999998
0
LINE
8
BLACK
6
CONTINUOUS
10
25.2744369999999989
20
-7.2195999999999998
11
25.0839609999999986
21
-7.314838
0
LINE
8
BLACK
6
CONTINUOUS
10
25.0839609999999986
20
-7.314838
11
24.8934839999999973
21
-7.314838
0
LINE
8
BLACK
6
CONTINUOUS
10
24.8934839999999973
20
-7.314838
11
24.7030080000000005
21
-7.2195999999999998
0
LINE
8
BLACK
6
CONTINUOUS
10
24.7030080000000005
20
-7.2195999999999998
11
24.6077699999999986
21
-7.1243609999999995
0
LINE
8
BLACK
6
CONTINUOUS
10
24.6077699999999986
20
-7.1243609999999995
11
24.5125320000000002
21
-6.9338850000000001
0
LINE
8
BLACK
6
CONTINUOUS
10
24.5125320000000002
20
-6.9338850000000001
11
24.4172939999999983
21
-6.5529329999999995
0
LINE
8
BLACK
6
CONTINUOUS
10
24.4172939999999983
20
-6.5529329999999995
11
24.4172939999999983
21
-6.0767419999999994
0
LINE
8
BLACK
6
CONTINUOUS
10
24.4172939999999983
20
-6.0767419999999994
11
24.5125320000000002
21
-5.6957899999999997
0
LINE
8
BLACK
6
CONTINUOUS
10
24.5125320000000002
20
-5.6957899999999997
11
24.6077699999999986
21
-5.5053139999999994
0
LINE
8
BLACK
6
CONTINUOUS
10
24.6077699999999986
20
-5.5053139999999994
11
24.7030080000000005
21
-5.4100760000000001
0
LINE
8
BLACK
6
CONTINUOUS
10
24.7030080000000005
20
-5.4100760000000001
11
24.8934839999999973
21
-5.314838
0
LINE
8
BLACK
6
CONTINUOUS
10
26.3220559999999999
20
-5.5053139999999994
11
26.4172939999999983
21
-5.4100760000000001
0
LINE
8
BLACK
6
CONTINUOUS
10
26.4172939999999983
20
-5.4100760000000001
11
26.6077699999999986
21
-5.314838
0
LINE
8
BLACK
6
CONTINUOUS
10
26.6077699999999986
20
-5.314838
11
27.0839609999999986
21
-5.314838
0
LINE
8
BLACK
6
CONTINUOUS
10
27.0839609999999986
20
-5.314838
11
27.2744369999999989
21
-5.4100760000000001
0
LINE
8
BLACK
6
CONTINUOUS
10
27.2744369999999989
20
-5.4100760000000001
11
27.3696749999999973
21
-5.5053139999999994
0
LINE
8
BLACK
6
CONTINUOUS
10
27.3696749999999973
20
-5.5053139999999994
11
27.4649129999999992
21
-5.6957899999999997
0
LINE
8
BLACK
6
CONTINUOUS
10
27.4649129999999992
20
-5.6957899999999997
11
27.4649129999999992
21
-5.886266
0
LINE
8
BLACK
6
CONTINUOUS
10
27.4649129999999992
20
-5.886266
11
27.3696749999999973
21
-6.1719799999999996
0
LINE
8
BLACK
6
CONTINUOUS
10
27.3696749999999973
20
-6.1719799999999996
11
26.226817999999998
21
-7.314838
0
LINE
8
BLACK
6
CONTINUOUS
10
26.226817999999998
20
-7.314838
11
27.4649129999999992
21
-7.314838
0
LINE
8
BLACK
6
CONTINUOUS
10
28.1315799999999996
20
-5.314838
11
29.3696749999999973
21
-5.314838
0
LINE
8
BLACK
6
CONTINUOUS
10
29.3696749999999973
20
-5.314838
11
28.703007999999997
21
-6.0767419999999994
0
LINE
8
BLACK
6
CONTINUOUS
10
28.703007999999997
20
-6.0767419999999994
11
28.9887230000000002
21
-6.0767419999999994
0
LINE
8
BLACK
6
CONTINUOUS
10
28.9887230000000002
20
-6.0767419999999994
11
29.179198999999997
21
-6.1719799999999996
0
LINE
8
BLACK
6
CONTINUOUS
10
29.179198999999997
20
-6.1719799999999996
11
29.2744369999999989
21
-6.2672189999999999
0
LINE
8
BLACK
6
CONTINUOUS
10
29.2744369999999989
20
-6.2672189999999999
11
29.3696749999999973
21
-6.4576949999999993
0
LINE
8
BLACK
6
CONTINUOUS
10
29.3696749999999973
20
-6.4576949999999993
11
29.3696749999999973
21
-6.9338850000000001
0
LINE
8
BLACK
6
CONTINUOUS
10
29.3696749999999973
20
-6.9338850000000001
11
29.2744369999999989
21
-7.1243609999999995
0
LINE
8
BLACK
6
CONTINUOUS
10
29.2744369999999989
20
-7.1243609999999995
11
29.179198999999997
21
-7.2195999999999998
0
LINE
8
BLACK
6
CONTINUOUS
10
29.179198999999997
20
-7.2195999999999998
11
28.9887230000000002
21
-7.314838
0
LINE
8
BLACK
6
CONTINUOUS
10
28.9887230000000002
20
-7.314838
11
28.4172939999999983
21
-7.314838
0
LINE
8
BLACK
6
CONTINUOUS
10
28.4172939999999983
20
-7.314838
11
28.226817999999998
21
-7.2195999999999998
0
LINE
8
BLACK
6
CONTINUOUS
10
28.226817999999998
20
-7.2195999999999998
11
28.1315799999999996
21
-7.1243609999999995
0
LINE
8
BLACK
6
CONTINUOUS
10
31.0839609999999986
20
-5.314838
11
30.703007999999997
21
-5.314838
0
LINE
8
BLACK
6
CONTINUOUS
10
30.703007999999997
20
-5.314838
11
30.5125320000000002
21
-5.4100760000000001
0
LINE
8
BLACK
6
CONTINUOUS
10
30.5125320000000002
20
-5.4100760000000001
11
30.4172939999999983
21
-5.5053139999999994
0
LINE
8
BLACK
6
CONTINUOUS
10
30.4172939999999983
20
-5.5053139999999994
11
30.226817999999998
21
-5.7910279999999998
0
LINE
8
BLACK
6
CONTINUOUS
10
30.226817999999998
20
-5.7910279999999998
11
30.1315799999999996
21
-6.1719799999999996
0
LINE
8
BLACK
6
CONTINUOUS
10
30.1315799999999996
20
-6.1719799999999996
11
30.1315799999999996
21
-6.9338850000000001
0
LINE
8
BLACK
6
CONTINUOUS
10
30.1315799999999996
20
-6.9338850000000001
11
30.226817999999998
21
-7.1243609999999995
0
LINE
8
BLACK
6
CONTINUOUS
10
30.226817999999998
20
-7.1243609999999995
11
30.3220559999999999
21
-7.2195999999999998
0
LINE
8
BLACK
6
CONTINUOUS
10
30.3220559999999999
20
-7.2195999999999998
11
30.5125320000000002
21
-7.314838
0
LINE
8
BLACK
6
CONTINUOUS
10
30.5125320000000002
20
-7.314838
11
30.8934849999999983
21
-7.314838
0
LINE
8
BLACK
6
CONTINUOUS
10
30.8934849999999983
20
-7.314838
11
31.0839609999999986
21
-7.2195999999999998
0
LINE
8
BLACK
6
CONTINUOUS
10
31.0839609999999986
20
-7.2195999999999998
11
31.179198999999997
21
-7.1243609999999995
0
LINE
8
BLACK
6
CONTINUOUS
10
31.179198999999997
20
-7.1243609999999995
11
31.2744369999999989
21
-6.9338850000000001
0
LINE
8
BLACK
6
CONTINUOUS
10
31.2744369999999989
20
-6.9338850000000001
11
31.2744369999999989
21
-6.4576949999999993
0
LINE
8
BLACK
6
CONTINUOUS
10
31.2744369999999989
20
-6.4576949999999993
11
31.179198999999997
21
-6.2672189999999999
0
LINE
8
BLACK
6
CONTINUOUS
10
31.179198999999997
20
-6.2672189999999999
11
31.0839609999999986
21
-6.1719799999999996
0
LINE
8
BLACK
6
CONTINUOUS
10
31.0839609999999986
20
-6.1719799999999996
11
30.8934849999999983
21
-6.0767419999999994
0
LINE
8
BLACK
6
CONTINUOUS
10
30.8934849999999983
20
-6.0767419999999994
11
30.5125320000000002
21
-6.0767419999999994
0
LINE
8
BLACK
6
CONTINUOUS
10
30.5125320000000002
20
-6.0767419999999994
11
30.3220559999999999
21
-6.1719799999999996
0
LINE
8
BLACK
6
CONTINUOUS
10
30.3220559999999999
20
-6.1719799999999996
11
30.226817999999998
21
-6.2672189999999999
0
LINE
8
BLACK
6
CONTINUOUS
10
30.226817999999998
20
-6.2672189999999999
11
30.1315799999999996
21
-6.4576949999999993
0
LINE
8
BLACK
6
CONTINUOUS
10
32.0363419999999977
20
-5.314838
11
32.0363419999999977
21
-5.6957899999999997
0
LINE
8
BLACK
6
CONTINUOUS
10
32.7982469999999964
20
-5.314838
11
32.7982469999999964
21
-5.6957899999999997
0
LINE
8
BLACK
6
CONTINUOUS
10
35.7506289999999964
20
-8.0767419999999994
11
35.655389999999997
21
-7.9815039999999993
0
LINE
8
BLACK
6
CONTINUOUS
10
35.655389999999997
20
-7.9815039999999993
11
35.4649140000000003
21
-7.6957899999999997
0
LINE
8
BLACK
6
CONTINUOUS
10
35.4649140000000003
20
-7.6957899999999997
11
35.3696759999999983
21
-7.5053139999999994
0
LINE
8
BLACK
6
CONTINUOUS
10
35.3696759999999983
20
-7.5053139999999994
11
35.2744379999999964
21
-7.2195999999999998
0
LINE
8
BLACK
6
CONTINUOUS
10
35.2744379999999964
20
-7.2195999999999998
11
35.1792000000000016
21
-6.7434089999999998
0
LINE
8
BLACK
6
CONTINUOUS
10
35.1792000000000016
20
-6.7434089999999998
11
35.1792000000000016
21
-6.362457
0
LINE
8
BLACK
6
CONTINUOUS
10
35.1792000000000016
20
-6.362457
11
35.2744379999999964
21
-5.886266
0
LINE
8
BLACK
6
CONTINUOUS
10
35.2744379999999964
20
-5.886266
11
35.3696759999999983
21
-5.6005519999999995
0
LINE
8
BLACK
6
CONTINUOUS
10
35.3696759999999983
20
-5.6005519999999995
11
35.4649140000000003
21
-5.4100760000000001
0
LINE
8
BLACK
6
CONTINUOUS
10
35.4649140000000003
20
-5.4100760000000001
11
35.655389999999997
21
-5.1243609999999995
0
LINE
8
BLACK
6
CONTINUOUS
10
35.655389999999997
20
-5.1243609999999995
11
35.7506289999999964
21
-5.0291229999999993
0
LINE
8
BLACK
6
CONTINUOUS
10
37.3696759999999983
20
-5.314838
11
36.9887230000000002
21
-5.314838
0
LINE
8
BLACK
6
CONTINUOUS
10
36.9887230000000002
20
-5.314838
11
36.7982469999999964
21
-5.4100760000000001
0
LINE
8
BLACK
6
CONTINUOUS
10
36.7982469999999964
20
-5.4100760000000001
11
36.7030090000000015
21
-5.5053139999999994
0
LINE
8
BLACK
6
CONTINUOUS
10
36.7030090000000015
20
-5.5053139999999994
11
36.5125329999999977
21
-5.7910279999999998
0
LINE
8
BLACK
6
CONTINUOUS
10
36.5125329999999977
20
-5.7910279999999998
11
36.4172949999999958
21
-6.1719799999999996
0
LINE
8
BLACK
6
CONTINUOUS
10
36.4172949999999958
20
-6.1719799999999996
11
36.4172949999999958
21
-6.9338850000000001
0
LINE
8
BLACK
6
CONTINUOUS
10
36.4172949999999958
20
-6.9338850000000001
11
36.5125329999999977
21
-7.1243609999999995
0
LINE
8
BLACK
6
CONTINUOUS
10
36.5125329999999977
20
-7.1243609999999995
11
36.6077709999999996
21
-7.2195999999999998
0
LINE
8
BLACK
6
CONTINUOUS
10
36.6077709999999996
20
-7.2195999999999998
11
36.7982469999999964
21
-7.314838
0
LINE
8
BLACK
6
CONTINUOUS
10
36.7982469999999964
20
-7.314838
11
37.1792000000000016
21
-7.314838
0
LINE
8
BLACK
6
CONTINUOUS
10
37.1792000000000016
20
-7.314838
11
37.3696759999999983
21
-7.2195999999999998
0
LINE
8
BLACK
6
CONTINUOUS
10
37.3696759999999983
20
-7.2195999999999998
11
37.4649140000000003
21
-7.1243609999999995
0
LINE
8
BLACK
6
CONTINUOUS
10
37.4649140000000003
20
-7.1243609999999995
11
37.5601519999999951
21
-6.9338850000000001
0
LINE
8
BLACK
6
CONTINUOUS
10
37.5601519999999951
20
-6.9338850000000001
11
37.5601519999999951
21
-6.4576949999999993
0
LINE
8
BLACK
6
CONTINUOUS
10
37.5601519999999951
20
-6.4576949999999993
11
37.4649140000000003
21
-6.2672189999999999
0
LINE
8
BLACK
6
CONTINUOUS
10
37.4649140000000003
20
-6.2672189999999999
11
37.3696759999999983
21
-6.1719799999999996
0
LINE
8
BLACK
6
CONTINUOUS
10
37.3696759999999983
20
-6.1719799999999996
11
37.1792000000000016
21
-6.0767419999999994
0
LINE
8
BLACK
6
CONTINUOUS
10
37.1792000000000016
20
-6.0767419999999994
11
36.7982469999999964
21
-6.0767419999999994
0
LINE
8
BLACK
6
CONTINUOUS
10
36.7982469999999964
20
-6.0767419999999994
11
36.6077709999999996
21
-6.1719799999999996
0
LINE
8
BLACK
6
CONTINUOUS
10
36.6077709999999996
20
-6.1719799999999996
11
36.5125329999999977
21
-6.2672189999999999
0
LINE
8
BLACK
6
CONTINUOUS
10
36.5125329999999977
20
-6.2672189999999999
11
36.4172949999999958
21
-6.4576949999999993
0
LINE
8
BLACK
6
CONTINUOUS
10
39.9411050000000003
20
-7.314838
11
39.9411050000000003
21
-5.314838
0
LINE
8
BLACK
6
CONTINUOUS
10
40.798248000000001
20
-7.314838
11
40.798248000000001
21
-6.2672189999999999
0
LINE
8
BLACK
6
CONTINUOUS
10
40.798248000000001
20
-6.2672189999999999
11
40.703009999999999
21
-6.0767419999999994
0
LINE
8
BLACK
6
CONTINUOUS
10
40.703009999999999
20
-6.0767419999999994
11
40.5125339999999952
21
-5.9815040000000002
0
LINE
8
BLACK
6
CONTINUOUS
10
40.5125339999999952
20
-5.9815040000000002
11
40.226818999999999
21
-5.9815040000000002
0
LINE
8
BLACK
6
CONTINUOUS
10
40.226818999999999
20
-5.9815040000000002
11
40.0363429999999951
21
-6.0767419999999994
0
LINE
8
BLACK
6
CONTINUOUS
10
40.0363429999999951
20
-6.0767419999999994
11
39.9411050000000003
21
-6.1719799999999996
0
LINE
8
BLACK
6
CONTINUOUS
10
42.0363429999999951
20
-7.314838
11
41.8458669999999984
21
-7.2195999999999998
0
LINE
8
BLACK
6
CONTINUOUS
10
41.8458669999999984
20
-7.2195999999999998
11
41.7506289999999964
21
-7.1243609999999995
0
LINE
8
BLACK
6
CONTINUOUS
10
41.7506289999999964
20
-7.1243609999999995
11
41.6553910000000016
21
-6.9338850000000001
0
LINE
8
BLACK
6
CONTINUOUS
10
41.6553910000000016
20
-6.9338850000000001
11
41.6553910000000016
21
-6.362457
0
LINE
8
BLACK
6
CONTINUOUS
10
41.6553910000000016
20
-6.362457
11
41.7506289999999964
21
-6.1719799999999996
0
LINE
8
BLACK
6
CONTINUOUS
10
41.7506289999999964
20
-6.1719799999999996
11
41.8458669999999984
21
-6.0767419999999994
0
LINE
8
BLACK
6
CONTINUOUS
10
41.8458669999999984
20
-6.0767419999999994
11
42.0363429999999951
21
-5.9815040000000002
0
LINE
8
BLACK
6
CONTINUOUS
10
42.0363429999999951
20
-5.9815040000000002
11
42.3220579999999984
21
-5.9815040000000002
0
LINE
8
BLACK
6
CONTINUOUS
10
42.3220579999999984
20
-5.9815040000000002
11
42.5125339999999952
21
-6.0767419999999994
0
LINE
8
BLACK
6
CONTINUOUS
10
42.5125339999999952
20
-6.0767419999999994
11
42.6077719999999971
21
-6.1719799999999996
0
LINE
8
BLACK
6
CONTINUOUS
10
42.6077719999999971
20
-6.1719799999999996
11
42.703009999999999
21
-6.362457
0
LINE
8
BLACK
6
CONTINUOUS
10
42.703009999999999
20
-6.362457
11
42.703009999999999
21
-6.9338850000000001
0
LINE
8
BLACK
6
CONTINUOUS
10
42.703009999999999
20
-6.9338850000000001
11
42.6077719999999971
21
-7.1243609999999995
0
LINE
8
BLACK
6
CONTINUOUS
10
42.6077719999999971
20
-7.1243609999999995
11
42.5125339999999952
21
-7.2195999999999998
0
LINE
8
BLACK
6
CONTINUOUS
10
42.5125339999999952
20
-7.2195999999999998
11
42.3220579999999984
21
-7.314838
0
LINE
8
BLACK
6
CONTINUOUS
10
42.3220579999999984
20
-7.314838
11
42.0363429999999951
21
-7.314838
0
LINE
8
BLACK
6
CONTINUOUS
10
43.8458669999999984
20
-7.314838
11
43.6553909999999945
21
-7.2195999999999998
0
LINE
8
BLACK
6
CONTINUOUS
10
43.6553909999999945
20
-7.2195999999999998
11
43.5601529999999997
21
-7.0291229999999993
0
LINE
8
BLACK
6
CONTINUOUS
10
43.5601529999999997
20
-7.0291229999999993
11
43.5601529999999997
21
-5.314838
0
LINE
8
BLACK
6
CONTINUOUS
10
45.3696769999999958
20
-7.2195999999999998
11
45.1792009999999991
21
-7.314838
0
LINE
8
BLACK
6
CONTINUOUS
10
45.1792009999999991
20
-7.314838
11
44.798248000000001
21
-7.314838
0
LINE
8
BLACK
6
CONTINUOUS
10
44.798248000000001
20
-7.314838
11
44.6077719999999971
21
-7.2195999999999998
0
LINE
8
BLACK
6
CONTINUOUS
10
44.6077719999999971
20
-7.2195999999999998
11
44.5125339999999952
21
-7.0291229999999993
0
LINE
8
BLACK
6
CONTINUOUS
10
44.5125339999999952
20
-7.0291229999999993
11
44.5125339999999952
21
-6.2672189999999999
0
LINE
8
BLACK
6
CONTINUOUS
10
44.5125339999999952
20
-6.2672189999999999
11
44.6077719999999971
21
-6.0767419999999994
0
LINE
8
BLACK
6
CONTINUOUS
10
44.6077719999999971
20
-6.0767419999999994
11
44.798248000000001
21
-5.9815040000000002
0
LINE
8
BLACK
6
CONTINUOUS
10
44.798248000000001
20
-5.9815040000000002
11
45.1792009999999991
21
-5.9815040000000002
0
LINE
8
BLACK
6
CONTINUOUS
10
45.1792009999999991
20
-5.9815040000000002
11
45.3696769999999958
21
-6.0767419999999994
0
LINE
8
BLACK
6
CONTINUOUS
10
45.3696769999999958
20
-6.0767419999999994
11
45.4649149999999977
21
-6.2672189999999999
0
LINE
8
BLACK
6
CONTINUOUS
10
45.4649149999999977
20
-6.2672189999999999
11
45.4649149999999977
21
-6.4576949999999993
0
LINE
8
BLACK
6
CONTINUOUS
10
45.4649149999999977
20
-6.4576949999999993
11
44.5125339999999952
21
-6.6481709999999996
0
LINE
8
BLACK
6
CONTINUOUS
10
46.2268199999999965
20
-7.2195999999999998
11
46.4172960000000003
21
-7.314838
0
LINE
8
BLACK
6
CONTINUOUS
10
46.4172960000000003
20
-7.314838
11
46.798248000000001
21
-7.314838
0
LINE
8
BLACK
6
CONTINUOUS
10
46.798248000000001
20
-7.314838
11
46.9887249999999952
21
-7.2195999999999998
0
LINE
8
BLACK
6
CONTINUOUS
10
46.9887249999999952
20
-7.2195999999999998
11
47.0839629999999971
21
-7.0291229999999993
0
LINE
8
BLACK
6
CONTINUOUS
10
47.0839629999999971
20
-7.0291229999999993
11
47.0839629999999971
21
-6.9338850000000001
0
LINE
8
BLACK
6
CONTINUOUS
10
47.0839629999999971
20
-6.9338850000000001
11
46.9887249999999952
21
-6.7434089999999998
0
LINE
8
BLACK
6
CONTINUOUS
10
46.9887249999999952
20
-6.7434089999999998
11
46.798248000000001
21
-6.6481709999999996
0
LINE
8
BLACK
6
CONTINUOUS
10
46.798248000000001
20
-6.6481709999999996
11
46.5125339999999952
21
-6.6481709999999996
0
LINE
8
BLACK
6
CONTINUOUS
10
46.5125339999999952
20
-6.6481709999999996
11
46.3220579999999984
21
-6.5529329999999995
0
LINE
8
BLACK
6
CONTINUOUS
10
46.3220579999999984
20
-6.5529329999999995
11
46.2268199999999965
21
-6.362457
0
LINE
8
BLACK
6
CONTINUOUS
10
46.2268199999999965
20
-6.362457
11
46.2268199999999965
21
-6.2672189999999999
0
LINE
8
BLACK
6
CONTINUOUS
10
46.2268199999999965
20
-6.2672189999999999
11
46.3220579999999984
21
-6.0767419999999994
0
LINE
8
BLACK
6
CONTINUOUS
10
46.3220579999999984
20
-6.0767419999999994
11
46.5125339999999952
21
-5.9815040000000002
0
LINE
8
BLACK
6
CONTINUOUS
10
46.5125339999999952
20
-5.9815040000000002
11
46.798248000000001
21
-5.9815040000000002
0
LINE
8
BLACK
6
CONTINUOUS
10
46.798248000000001
20
-5.9815040000000002
11
46.9887249999999952
21
-6.0767419999999994
0
LINE
8
BLACK
6
CONTINUOUS
10
47.750630000000001
20
-8.0767419999999994
11
47.8458679999999958
21
-7.9815039999999993
0
LINE
8
BLACK
6
CONTINUOUS
10
47.8458679999999958
20
-7.9815039999999993
11
48.0363439999999997
21
-7.6957899999999997
0
LINE
8
BLACK
6
CONTINUOUS
10
48.0363439999999997
20
-7.6957899999999997
11
48.1315819999999945
21
-7.5053139999999994
0
LINE
8
BLACK
6
CONTINUOUS
10
48.1315819999999945
20
-7.5053139999999994
11
48.2268199999999965
21
-7.2195999999999998
0
LINE
8
BLACK
6
CONTINUOUS
10
48.2268199999999965
20
-7.2195999999999998
11
48.3220579999999984
21
-6.7434089999999998
0
LINE
8
BLACK
6
CONTINUOUS
10
48.3220579999999984
20
-6.7434089999999998
11
48.3220579999999984
21
-6.362457
0
LINE
8
BLACK
6
CONTINUOUS
10
48.3220579999999984
20
-6.362457
11
48.2268199999999965
21
-5.886266
0
LINE
8
BLACK
6
CONTINUOUS
10
48.2268199999999965
20
-5.886266
11
48.1315819999999945
21
-5.6005519999999995
0
LINE
8
BLACK
6
CONTINUOUS
10
48.1315819999999945
20
-5.6005519999999995
11
48.0363439999999997
21
-5.4100760000000001
0
LINE
8
BLACK
6
CONTINUOUS
10
48.0363439999999997
20
-5.4100760000000001
11
47.8458679999999958
21
-5.1243609999999995
0
LINE
8
BLACK
6
CONTINUOUS
10
47.8458679999999958
20
-5.1243609999999995
11
47.750630000000001
21
-5.0291229999999993
0
CIRCLE
8
BLACK
10
-0.375
20
-9.0399999999999991
40
0.375
0
LINE
8
BLACK
6
CONTINUOUS
10
2.9887199999999998
20
-7.9548379999999996
11
3.1791969999999998
21
-7.9548379999999996
0
LINE
8
BLACK
6
CONTINUOUS
10
3.1791969999999998
20
-7.9548379999999996
11
3.3696729999999997
21
-8.0500759999999989
0
LINE
8
BLACK
6
CONTINUOUS
10
3.3696729999999997
20
-8.0500759999999989
11
3.4649109999999999
21
-8.1453139999999991
0
LINE
8
BLACK
6
CONTINUOUS
10
3.4649109999999999
20
-8.1453139999999991
11
3.560149
21
-8.3357899999999994
0
LINE
8
BLACK
6
CONTINUOUS
10
3.560149
20
-8.3357899999999994
11
3.6553869999999997
21
-8.716742
0
LINE
8
BLACK
6
CONTINUOUS
10
3.6553869999999997
20
-8.716742
11
3.6553869999999997
21
-9.192933
0
LINE
8
BLACK
6
CONTINUOUS
10
3.6553869999999997
20
-9.192933
11
3.560149
21
-9.5738849999999989
0
LINE
8
BLACK
6
CONTINUOUS
10
3.560149
20
-9.5738849999999989
11
3.4649109999999999
21
-9.7643609999999992
0
LINE
8
BLACK
6
CONTINUOUS
10
3.4649109999999999
20
-9.7643609999999992
11
3.3696729999999997
21
-9.8596000000000004
0
LINE
8
BLACK
6
CONTINUOUS
10
3.3696729999999997
20
-9.8596000000000004
11
3.1791969999999998
21
-9.9548379999999987
0
LINE
8
BLACK
6
CONTINUOUS
10
3.1791969999999998
20
-9.9548379999999987
11
2.9887199999999998
21
-9.9548379999999987
0
LINE
8
BLACK
6
CONTINUOUS
10
2.9887199999999998
20
-9.9548379999999987
11
2.798244
21
-9.8596000000000004
0
LINE
8
BLACK
6
CONTINUOUS
10
2.798244
20
-9.8596000000000004
11
2.7030059999999998
21
-9.7643609999999992
0
LINE
8
BLACK
6
CONTINUOUS
10
2.7030059999999998
20
-9.7643609999999992
11
2.6077680000000001
21
-9.5738849999999989
0
LINE
8
BLACK
6
CONTINUOUS
10
2.6077680000000001
20
-9.5738849999999989
11
2.5125299999999999
21
-9.192933
0
LINE
8
BLACK
6
CONTINUOUS
10
2.5125299999999999
20
-9.192933
11
2.5125299999999999
21
-8.716742
0
LINE
8
BLACK
6
CONTINUOUS
10
2.5125299999999999
20
-8.716742
11
2.6077680000000001
21
-8.3357899999999994
0
LINE
8
BLACK
6
CONTINUOUS
10
2.6077680000000001
20
-8.3357899999999994
11
2.7030059999999998
21
-8.1453139999999991
0
LINE
8
BLACK
6
CONTINUOUS
10
2.7030059999999998
20
-8.1453139999999991
11
2.798244
21
-8.0500759999999989
0
LINE
8
BLACK
6
CONTINUOUS
10
2.798244
20
-8.0500759999999989
11
2.9887199999999998
21
-7.9548379999999996
0
LINE
8
BLACK
6
CONTINUOUS
10
4.5125299999999999
20
-9.7643609999999992
11
4.6077680000000001
21
-9.8596000000000004
0
LINE
8
BLACK
6
CONTINUOUS
10
4.6077680000000001
20
-9.8596000000000004
11
4.5125299999999999
21
-9.9548379999999987
0
LINE
8
BLACK
6
CONTINUOUS
10
4.5125299999999999
20
-9.9548379999999987
11
4.4172919999999998
21
-9.8596000000000004
0
LINE
8
BLACK
6
CONTINUOUS
10
4.4172919999999998
20
-9.8596000000000004
11
4.5125299999999999
21
-9.7643609999999992
0
LINE
8
BLACK
6
CONTINUOUS
10
4.5125299999999999
20
-9.7643609999999992
11
4.5125299999999999
21
-9.9548379999999987
0
LINE
8
BLACK
6
CONTINUOUS
10
5.2744349999999995
20
-7.9548379999999996
11
6.6077680000000001
21
-7.9548379999999996
0
LINE
8
BLACK
6
CONTINUOUS
10
6.6077680000000001
20
-7.9548379999999996
11
5.7506249999999994
21
-9.9548379999999987
0
LINE
8
BLACK
6
CONTINUOUS
10
8.3220539999999996
20
-7.9548379999999996
11
7.3696729999999997
21
-7.9548379999999996
0
LINE
8
BLACK
6
CONTINUOUS
10
7.3696729999999997
20
-7.9548379999999996
11
7.2744349999999995
21
-8.9072189999999996
0
LINE
8
BLACK
6
CONTINUOUS
10
7.2744349999999995
20
-8.9072189999999996
11
7.3696729999999997
21
-8.8119800000000001
0
LINE
8
BLACK
6
CONTINUOUS
10
7.3696729999999997
20
-8.8119800000000001
11
7.560149
21
-8.716742
0
LINE
8
BLACK
6
CONTINUOUS
10
7.560149
20
-8.716742
11
8.0363399999999992
21
-8.716742
0
LINE
8
BLACK
6
CONTINUOUS
10
8.0363399999999992
20
-8.716742
11
8.2268159999999995
21
-8.8119800000000001
0
LINE
8
BLACK
6
CONTINUOUS
10
8.2268159999999995
20
-8.8119800000000001
11
8.3220539999999996
21
-8.9072189999999996
0
LINE
8
BLACK
6
CONTINUOUS
10
8.3220539999999996
20
-8.9072189999999996
11
8.4172919999999998
21
-9.0976949999999999
0
LINE
8
BLACK
6
CONTINUOUS
10
8.4172919999999998
20
-9.0976949999999999
11
8.4172919999999998
21
-9.5738849999999989
0
LINE
8
BLACK
6
CONTINUOUS
10
8.4172919999999998
20
-9.5738849999999989
11
8.3220539999999996
21
-9.7643609999999992
0
LINE
8
BLACK
6
CONTINUOUS
10
8.3220539999999996
20
-9.7643609999999992
11
8.2268159999999995
21
-9.8596000000000004
0
LINE
8
BLACK
6
CONTINUOUS
10
8.2268159999999995
20
-9.8596000000000004
11
8.0363399999999992
21
-9.9548379999999987
0
LINE
8
BLACK
6
CONTINUOUS
10
8.0363399999999992
20
-9.9548379999999987
11
7.560149
21
-9.9548379999999987
0
LINE
8
BLACK
6
CONTINUOUS
10
7.560149
20
-9.9548379999999987
11
7.3696729999999997
21
-9.8596000000000004
0
LINE
8
BLACK
6
CONTINUOUS
10
7.3696729999999997
20
-9.8596000000000004
11
7.2744349999999995
21
-9.7643609999999992
0
LINE
8
BLACK
6
CONTINUOUS
10
9.6553869999999993
20
-7.9548379999999996
11
9.8458639999999988
21
-7.9548379999999996
0
LINE
8
BLACK
6
CONTINUOUS
10
9.8458639999999988
20
-7.9548379999999996
11
10.0363399999999992
21
-8.0500759999999989
0
LINE
8
BLACK
6
CONTINUOUS
10
10.0363399999999992
20
-8.0500759999999989
11
10.1315779999999993
21
-8.1453139999999991
0
LINE
8
BLACK
6
CONTINUOUS
10
10.1315779999999993
20
-8.1453139999999991
11
10.2268159999999995
21
-8.3357899999999994
0
LINE
8
BLACK
6
CONTINUOUS
10
10.2268159999999995
20
-8.3357899999999994
11
10.3220539999999996
21
-8.716742
0
LINE
8
BLACK
6
CONTINUOUS
10
10.3220539999999996
20
-8.716742
11
10.3220539999999996
21
-9.192933
0
LINE
8
BLACK
6
CONTINUOUS
10
10.3220539999999996
20
-9.192933
11
10.2268159999999995
21
-9.5738849999999989
0
LINE
8
BLACK
6
CONTINUOUS
10
10.2268159999999995
20
-9.5738849999999989
11
10.1315779999999993
21
-9.7643609999999992
0
LINE
8
BLACK
6
CONTINUOUS
10
10.1315779999999993
20
-9.7643609999999992
11
10.0363399999999992
21
-9.8596000000000004
0
LINE
8
BLACK
6
CONTINUOUS
10
10.0363399999999992
20
-9.8596000000000004
11
9.8458639999999988
21
-9.9548379999999987
0
LINE
8
BLACK
6
CONTINUOUS
10
9.8458639999999988
20
-9.9548379999999987
11
9.6553869999999993
21
-9.9548379999999987
0
LINE
8
BLACK
6
CONTINUOUS
10
9.6553869999999993
20
-9.9548379999999987
11
9.464910999999999
21
-9.8596000000000004
0
LINE
8
BLACK
6
CONTINUOUS
10
9.464910999999999
20
-9.8596000000000004
11
9.3696729999999988
21
-9.7643609999999992
0
LINE
8
BLACK
6
CONTINUOUS
10
9.3696729999999988
20
-9.7643609999999992
11
9.2744350000000004
21
-9.5738849999999989
0
LINE
8
BLACK
6
CONTINUOUS
10
9.2744350000000004
20
-9.5738849999999989
11
9.1791970000000003
21
-9.192933
0
LINE
8
BLACK
6
CONTINUOUS
10
9.1791970000000003
20
-9.192933
11
9.1791970000000003
21
-8.716742
0
LINE
8
BLACK
6
CONTINUOUS
10
9.1791970000000003
20
-8.716742
11
9.2744350000000004
21
-8.3357899999999994
0
LINE
8
BLACK
6
CONTINUOUS
10
9.2744350000000004
20
-8.3357899999999994
11
9.3696729999999988
21
-8.1453139999999991
0
LINE
8
BLACK
6
CONTINUOUS
10
9.3696729999999988
20
-8.1453139999999991
11
9.464910999999999
21
-8.0500759999999989
0
LINE
8
BLACK
6
CONTINUOUS
10
9.464910999999999
20
-8.0500759999999989
11
9.6553869999999993
21
-7.9548379999999996
0
LINE
8
BLACK
6
CONTINUOUS
10
11.1791970000000003
20
-9.9548379999999987
11
11.1791970000000003
21
-8.6215039999999998
0
LINE
8
BLACK
6
CONTINUOUS
10
11.1791970000000003
20
-8.8119800000000001
11
11.2744349999999987
21
-8.716742
0
LINE
8
BLACK
6
CONTINUOUS
10
11.2744349999999987
20
-8.716742
11
11.464910999999999
21
-8.6215039999999998
0
LINE
8
BLACK
6
CONTINUOUS
10
11.464910999999999
20
-8.6215039999999998
11
11.7506259999999987
21
-8.6215039999999998
0
LINE
8
BLACK
6
CONTINUOUS
10
11.7506259999999987
20
-8.6215039999999998
11
11.941101999999999
21
-8.716742
0
LINE
8
BLACK
6
CONTINUOUS
10
11.941101999999999
20
-8.716742
11
12.0363399999999992
21
-8.9072189999999996
0
LINE
8
BLACK
6
CONTINUOUS
10
12.0363399999999992
20
-8.9072189999999996
11
12.0363399999999992
21
-9.9548379999999987
0
LINE
8
BLACK
6
CONTINUOUS
10
12.0363399999999992
20
-8.9072189999999996
11
12.1315779999999993
21
-8.716742
0
LINE
8
BLACK
6
CONTINUOUS
10
12.1315779999999993
20
-8.716742
11
12.3220539999999996
21
-8.6215039999999998
0
LINE
8
BLACK
6
CONTINUOUS
10
12.3220539999999996
20
-8.6215039999999998
11
12.6077680000000001
21
-8.6215039999999998
0
LINE
8
BLACK
6
CONTINUOUS
10
12.6077680000000001
20
-8.6215039999999998
11
12.7982449999999996
21
-8.716742
0
LINE
8
BLACK
6
CONTINUOUS
10
12.7982449999999996
20
-8.716742
11
12.8934829999999998
21
-8.9072189999999996
0
LINE
8
BLACK
6
CONTINUOUS
10
12.8934829999999998
20
-8.9072189999999996
11
12.8934829999999998
21
-9.9548379999999987
0
LINE
8
BLACK
6
CONTINUOUS
10
13.8458639999999988
20
-9.9548379999999987
11
13.8458639999999988
21
-8.6215039999999998
0
LINE
8
BLACK
6
CONTINUOUS
10
13.8458639999999988
20
-8.8119800000000001
11
13.941101999999999
21
-8.716742
0
LINE
8
BLACK
6
CONTINUOUS
10
13.941101999999999
20
-8.716742
11
14.1315779999999993
21
-8.6215039999999998
0
LINE
8
BLACK
6
CONTINUOUS
10
14.1315779999999993
20
-8.6215039999999998
11
14.417292999999999
21
-8.6215039999999998
0
LINE
8
BLACK
6
CONTINUOUS
10
14.417292999999999
20
-8.6215039999999998
11
14.6077689999999993
21
-8.716742
0
LINE
8
BLACK
6
CONTINUOUS
10
14.6077689999999993
20
-8.716742
11
14.7030069999999995
21
-8.9072189999999996
0
LINE
8
BLACK
6
CONTINUOUS
10
14.7030069999999995
20
-8.9072189999999996
11
14.7030069999999995
21
-9.9548379999999987
0
LINE
8
BLACK
6
CONTINUOUS
10
14.7030069999999995
20
-8.9072189999999996
11
14.7982449999999996
21
-8.716742
0
LINE
8
BLACK
6
CONTINUOUS
10
14.7982449999999996
20
-8.716742
11
14.988721
21
-8.6215039999999998
0
LINE
8
BLACK
6
CONTINUOUS
10
14.988721
20
-8.6215039999999998
11
15.2744349999999987
21
-8.6215039999999998
0
LINE
8
BLACK
6
CONTINUOUS
10
15.2744349999999987
20
-8.6215039999999998
11
15.464912
21
-8.716742
0
LINE
8
BLACK
6
CONTINUOUS
10
15.464912
20
-8.716742
11
15.5601500000000001
21
-8.9072189999999996
0
LINE
8
BLACK
6
CONTINUOUS
10
15.5601500000000001
20
-8.9072189999999996
11
15.5601500000000001
21
-9.9548379999999987
0
LINE
8
BLACK
6
CONTINUOUS
10
19.4649119999999982
20
-7.8595999999999995
11
17.7506269999999979
21
-10.4310279999999995
0
LINE
8
BLACK
6
CONTINUOUS
10
22.0363410000000002
20
-7.9548379999999996
11
22.226817999999998
21
-7.9548379999999996
0
LINE
8
BLACK
6
CONTINUOUS
10
22.226817999999998
20
-7.9548379999999996
11
22.4172939999999983
21
-8.0500759999999989
0
LINE
8
BLACK
6
CONTINUOUS
10
22.4172939999999983
20
-8.0500759999999989
11
22.5125320000000002
21
-8.1453139999999991
0
LINE
8
BLACK
6
CONTINUOUS
10
22.5125320000000002
20
-8.1453139999999991
11
22.6077699999999986
21
-8.3357899999999994
0
LINE
8
BLACK
6
CONTINUOUS
10
22.6077699999999986
20
-8.3357899999999994
11
22.7030080000000005
21
-8.716742
0
LINE
8
BLACK
6
CONTINUOUS
10
22.7030080000000005
20
-8.716742
11
22.7030080000000005
21
-9.192933
0
LINE
8
BLACK
6
CONTINUOUS
10
22.7030080000000005
20
-9.192933
11
22.6077699999999986
21
-9.5738849999999989
0
LINE
8
BLACK
6
CONTINUOUS
10
22.6077699999999986
20
-9.5738849999999989
11
22.5125320000000002
21
-9.7643609999999992
0
LINE
8
BLACK
6
CONTINUOUS
10
22.5125320000000002
20
-9.7643609999999992
11
22.4172939999999983
21
-9.8596000000000004
0
LINE
8
BLACK
6
CONTINUOUS
10
22.4172939999999983
20
-9.8596000000000004
11
22.226817999999998
21
-9.9548379999999987
0
LINE
8
BLACK
6
CONTINUOUS
10
22.226817999999998
20
-9.9548379999999987
11
22.0363410000000002
21
-9.9548379999999987
0
LINE
8
BLACK
6
CONTINUOUS
10
22.0363410000000002
20
-9.9548379999999987
11
21.8458649999999999
21
-9.8596000000000004
0
LINE
8
BLACK
6
CONTINUOUS
10
21.8458649999999999
20
-9.8596000000000004
11
21.7506269999999979
21
-9.7643609999999992
0
LINE
8
BLACK
6
CONTINUOUS
10
21.7506269999999979
20
-9.7643609999999992
11
21.6553889999999996
21
-9.5738849999999989
0
LINE
8
BLACK
6
CONTINUOUS
10
21.6553889999999996
20
-9.5738849999999989
11
21.5601509999999976
21
-9.192933
0
LINE
8
BLACK
6
CONTINUOUS
10
21.5601509999999976
20
-9.192933
11
21.5601509999999976
21
-8.716742
0
LINE
8
BLACK
6
CONTINUOUS
10
21.5601509999999976
20
-8.716742
11
21.6553889999999996
21
-8.3357899999999994
0
LINE
8
BLACK
6
CONTINUOUS
10
21.6553889999999996
20
-8.3357899999999994
11
21.7506269999999979
21
-8.1453139999999991
0
LINE
8
BLACK
6
CONTINUOUS
10
21.7506269999999979
20
-8.1453139999999991
11
21.8458649999999999
21
-8.0500759999999989
0
LINE
8
BLACK
6
CONTINUOUS
10
21.8458649999999999
20
-8.0500759999999989
11
22.0363410000000002
21
-7.9548379999999996
0
LINE
8
BLACK
6
CONTINUOUS
10
23.5601509999999976
20
-9.7643609999999992
11
23.6553889999999996
21
-9.8596000000000004
0
LINE
8
BLACK
6
CONTINUOUS
10
23.6553889999999996
20
-9.8596000000000004
11
23.5601509999999976
21
-9.9548379999999987
0
LINE
8
BLACK
6
CONTINUOUS
10
23.5601509999999976
20
-9.9548379999999987
11
23.4649129999999992
21
-9.8596000000000004
0
LINE
8
BLACK
6
CONTINUOUS
10
23.4649129999999992
20
-9.8596000000000004
11
23.5601509999999976
21
-9.7643609999999992
0
LINE
8
BLACK
6
CONTINUOUS
10
23.5601509999999976
20
-9.7643609999999992
11
23.5601509999999976
21
-9.9548379999999987
0
LINE
8
BLACK
6
CONTINUOUS
10
24.8934839999999973
20
-7.9548379999999996
11
25.0839609999999986
21
-7.9548379999999996
0
LINE
8
BLACK
6
CONTINUOUS
10
25.0839609999999986
20
-7.9548379999999996
11
25.2744369999999989
21
-8.0500759999999989
0
LINE
8
BLACK
6
CONTINUOUS
10
25.2744369999999989
20
-8.0500759999999989
11
25.3696749999999973
21
-8.1453139999999991
0
LINE
8
BLACK
6
CONTINUOUS
10
25.3696749999999973
20
-8.1453139999999991
11
25.4649129999999992
21
-8.3357899999999994
0
LINE
8
BLACK
6
CONTINUOUS
10
25.4649129999999992
20
-8.3357899999999994
11
25.5601509999999976
21
-8.716742
0
LINE
8
BLACK
6
CONTINUOUS
10
25.5601509999999976
20
-8.716742
11
25.5601509999999976
21
-9.192933
0
LINE
8
BLACK
6
CONTINUOUS
10
25.5601509999999976
20
-9.192933
11
25.4649129999999992
21
-9.5738849999999989
0
LINE
8
BLACK
6
CONTINUOUS
10
25.4649129999999992
20
-9.5738849999999989
11
25.3696749999999973
21
-9.7643609999999992
0
LINE
8
BLACK
6
CONTINUOUS
10
25.3696749999999973
20
-9.7643609999999992
11
25.2744369999999989
21
-9.8596000000000004
0
LINE
8
BLACK
6
CONTINUOUS
10
25.2744369999999989
20
-9.8596000000000004
11
25.0839609999999986
21
-9.9548379999999987
0
LINE
8
BLACK
6
CONTINUOUS
10
25.0839609999999986
20
-9.9548379999999987
11
24.8934839999999973
21
-9.9548379999999987
0
LINE
8
BLACK
6
CONTINUOUS
10
24.8934839999999973
20
-9.9548379999999987
11
24.7030080000000005
21
-9.8596000000000004
0
LINE
8
BLACK
6
CONTINUOUS
10
24.7030080000000005
20
-9.8596000000000004
11
24.6077699999999986
21
-9.7643609999999992
0
LINE
8
BLACK
6
CONTINUOUS
10
24.6077699999999986
20
-9.7643609999999992
11
24.5125320000000002
21
-9.5738849999999989
0
LINE
8
BLACK
6
CONTINUOUS
10
24.5125320000000002
20
-9.5738849999999989
11
24.4172939999999983
21
-9.192933
0
LINE
8
BLACK
6
CONTINUOUS
10
24.4172939999999983
20
-9.192933
11
24.4172939999999983
21
-8.716742
0
LINE
8
BLACK
6
CONTINUOUS
10
24.4172939999999983
20
-8.716742
11
24.5125320000000002
21
-8.3357899999999994
0
LINE
8
BLACK
6
CONTINUOUS
10
24.5125320000000002
20
-8.3357899999999994
11
24.6077699999999986
21
-8.1453139999999991
0
LINE
8
BLACK
6
CONTINUOUS
10
24.6077699999999986
20
-8.1453139999999991
11
24.7030080000000005
21
-8.0500759999999989
0
LINE
8
BLACK
6
CONTINUOUS
10
24.7030080000000005
20
-8.0500759999999989
11
24.8934839999999973
21
-7.9548379999999996
0
LINE
8
BLACK
6
CONTINUOUS
10
26.3220559999999999
20
-8.1453139999999991
11
26.4172939999999983
21
-8.0500759999999989
0
LINE
8
BLACK
6
CONTINUOUS
10
26.4172939999999983
20
-8.0500759999999989
11
26.6077699999999986
21
-7.9548379999999996
0
LINE
8
BLACK
6
CONTINUOUS
10
26.6077699999999986
20
-7.9548379999999996
11
27.0839609999999986
21
-7.9548379999999996
0
LINE
8
BLACK
6
CONTINUOUS
10
27.0839609999999986
20
-7.9548379999999996
11
27.2744369999999989
21
-8.0500759999999989
0
LINE
8
BLACK
6
CONTINUOUS
10
27.2744369999999989
20
-8.0500759999999989
11
27.3696749999999973
21
-8.1453139999999991
0
LINE
8
BLACK
6
CONTINUOUS
10
27.3696749999999973
20
-8.1453139999999991
11
27.4649129999999992
21
-8.3357899999999994
0
LINE
8
BLACK
6
CONTINUOUS
10
27.4649129999999992
20
-8.3357899999999994
11
27.4649129999999992
21
-8.5262659999999997
0
LINE
8
BLACK
6
CONTINUOUS
10
27.4649129999999992
20
-8.5262659999999997
11
27.3696749999999973
21
-8.8119800000000001
0
LINE
8
BLACK
6
CONTINUOUS
10
27.3696749999999973
20
-8.8119800000000001
11
26.226817999999998
21
-9.9548379999999987
0
LINE
8
BLACK
6
CONTINUOUS
10
26.226817999999998
20
-9.9548379999999987
11
27.4649129999999992
21
-9.9548379999999987
0
LINE
8
BLACK
6
CONTINUOUS
10
28.4172939999999983
20
-9.9548379999999987
11
28.7982459999999989
21
-9.9548379999999987
0
LINE
8
BLACK
6
CONTINUOUS
10
28.7982459999999989
20
-9.9548379999999987
11
28.9887230000000002
21
-9.8596000000000004
0
LINE
8
BLACK
6
CONTINUOUS
10
28.9887230000000002
20
-9.8596000000000004
11
29.0839609999999986
21
-9.7643609999999992
0
LINE
8
BLACK
6
CONTINUOUS
10
29.0839609999999986
20
-9.7643609999999992
11
29.2744369999999989
21
-9.4786469999999987
0
LINE
8
BLACK
6
CONTINUOUS
10
29.2744369999999989
20
-9.4786469999999987
11
29.3696749999999973
21
-9.0976949999999999
0
LINE
8
BLACK
6
CONTINUOUS
10
29.3696749999999973
20
-9.0976949999999999
11
29.3696749999999973
21
-8.3357899999999994
0
LINE
8
BLACK
6
CONTINUOUS
10
29.3696749999999973
20
-8.3357899999999994
11
29.2744369999999989
21
-8.1453139999999991
0
LINE
8
BLACK
6
CONTINUOUS
10
29.2744369999999989
20
-8.1453139999999991
11
29.179198999999997
21
-8.0500759999999989
0
LINE
8
BLACK
6
CONTINUOUS
10
29.179198999999997
20
-8.0500759999999989
11
28.9887230000000002
21
-7.9548379999999996
0
LINE
8
BLACK
6
CONTINUOUS
10
28.9887230000000002
20
-7.9548379999999996
11
28.6077699999999986
21
-7.9548379999999996
0
LINE
8
BLACK
6
CONTINUOUS
10
28.6077699999999986
20
-7.9548379999999996
11
28.4172939999999983
21
-8.0500759999999989
0
LINE
8
BLACK
6
CONTINUOUS
10
28.4172939999999983
20
-8.0500759999999989
11
28.3220559999999999
21
-8.1453139999999991
0
LINE
8
BLACK
6
CONTINUOUS
10
28.3220559999999999
20
-8.1453139999999991
11
28.226817999999998
21
-8.3357899999999994
0
LINE
8
BLACK
6
CONTINUOUS
10
28.226817999999998
20
-8.3357899999999994
11
28.226817999999998
21
-8.8119800000000001
0
LINE
8
BLACK
6
CONTINUOUS
10
28.226817999999998
20
-8.8119800000000001
11
28.3220559999999999
21
-9.0024569999999997
0
LINE
8
BLACK
6
CONTINUOUS
10
28.3220559999999999
20
-9.0024569999999997
11
28.4172939999999983
21
-9.0976949999999999
0
LINE
8
BLACK
6
CONTINUOUS
10
28.4172939999999983
20
-9.0976949999999999
11
28.6077699999999986
21
-9.192933
0
LINE
8
BLACK
6
CONTINUOUS
10
28.6077699999999986
20
-9.192933
11
28.9887230000000002
21
-9.192933
0
LINE
8
BLACK
6
CONTINUOUS
10
28.9887230000000002
20
-9.192933
11
29.179198999999997
21
-9.0976949999999999
0
LINE
8
BLACK
6
CONTINUOUS
10
29.179198999999997
20
-9.0976949999999999
11
29.2744369999999989
21
-9.0024569999999997
0
LINE
8
BLACK
6
CONTINUOUS
10
29.2744369999999989
20
-9.0024569999999997
11
29.3696749999999973
21
-8.8119800000000001
0
LINE
8
BLACK
6
CONTINUOUS
10
31.179198999999997
20
-7.9548379999999996
11
30.226817999999998
21
-7.9548379999999996
0
LINE
8
BLACK
6
CONTINUOUS
10
30.226817999999998
20
-7.9548379999999996
11
30.1315799999999996
21
-8.9072189999999996
0
LINE
8
BLACK
6
CONTINUOUS
10
30.1315799999999996
20
-8.9072189999999996
11
30.226817999999998
21
-8.8119800000000001
0
LINE
8
BLACK
6
CONTINUOUS
10
30.226817999999998
20
-8.8119800000000001
11
30.4172939999999983
21
-8.716742
0
LINE
8
BLACK
6
CONTINUOUS
10
30.4172939999999983
20
-8.716742
11
30.8934849999999983
21
-8.716742
0
LINE
8
BLACK
6
CONTINUOUS
10
30.8934849999999983
20
-8.716742
11
31.0839609999999986
21
-8.8119800000000001
0
LINE
8
BLACK
6
CONTINUOUS
10
31.0839609999999986
20
-8.8119800000000001
11
31.179198999999997
21
-8.9072189999999996
0
LINE
8
BLACK
6
CONTINUOUS
10
31.179198999999997
20
-8.9072189999999996
11
31.2744369999999989
21
-9.0976949999999999
0
LINE
8
BLACK
6
CONTINUOUS
10
31.2744369999999989
20
-9.0976949999999999
11
31.2744369999999989
21
-9.5738849999999989
0
LINE
8
BLACK
6
CONTINUOUS
10
31.2744369999999989
20
-9.5738849999999989
11
31.179198999999997
21
-9.7643609999999992
0
LINE
8
BLACK
6
CONTINUOUS
10
31.179198999999997
20
-9.7643609999999992
11
31.0839609999999986
21
-9.8596000000000004
0
LINE
8
BLACK
6
CONTINUOUS
10
31.0839609999999986
20
-9.8596000000000004
11
30.8934849999999983
21
-9.9548379999999987
0
LINE
8
BLACK
6
CONTINUOUS
10
30.8934849999999983
20
-9.9548379999999987
11
30.4172939999999983
21
-9.9548379999999987
0
LINE
8
BLACK
6
CONTINUOUS
10
30.4172939999999983
20
-9.9548379999999987
11
30.226817999999998
21
-9.8596000000000004
0
LINE
8
BLACK
6
CONTINUOUS
10
30.226817999999998
20
-9.8596000000000004
11
30.1315799999999996
21
-9.7643609999999992
0
LINE
8
BLACK
6
CONTINUOUS
10
32.0363419999999977
20
-7.9548379999999996
11
32.0363419999999977
21
-8.3357899999999994
0
LINE
8
BLACK
6
CONTINUOUS
10
32.7982469999999964
20
-7.9548379999999996
11
32.7982469999999964
21
-8.3357899999999994
0
LINE
8
BLACK
6
CONTINUOUS
10
35.7506289999999964
20
-10.716742
11
35.655389999999997
21
-10.6215039999999998
0
LINE
8
BLACK
6
CONTINUOUS
10
35.655389999999997
20
-10.6215039999999998
11
35.4649140000000003
21
-10.3357899999999994
0
LINE
8
BLACK
6
CONTINUOUS
10
35.4649140000000003
20
-10.3357899999999994
11
35.3696759999999983
21
-10.1453139999999991
0
LINE
8
BLACK
6
CONTINUOUS
10
35.3696759999999983
20
-10.1453139999999991
11
35.2744379999999964
21
-9.8596000000000004
0
LINE
8
BLACK
6
CONTINUOUS
10
35.2744379999999964
20
-9.8596000000000004
11
35.1792000000000016
21
-9.3834090000000003
0
LINE
8
BLACK
6
CONTINUOUS
10
35.1792000000000016
20
-9.3834090000000003
11
35.1792000000000016
21
-9.0024569999999997
0
LINE
8
BLACK
6
CONTINUOUS
10
35.1792000000000016
20
-9.0024569999999997
11
35.2744379999999964
21
-8.5262659999999997
0
LINE
8
BLACK
6
CONTINUOUS
10
35.2744379999999964
20
-8.5262659999999997
11
35.3696759999999983
21
-8.2405519999999992
0
LINE
8
BLACK
6
CONTINUOUS
10
35.3696759999999983
20
-8.2405519999999992
11
35.4649140000000003
21
-8.0500759999999989
0
LINE
8
BLACK
6
CONTINUOUS
10
35.4649140000000003
20
-8.0500759999999989
11
35.655389999999997
21
-7.7643610000000001
0
LINE
8
BLACK
6
CONTINUOUS
10
35.655389999999997
20
-7.7643610000000001
11
35.7506289999999964
21
-7.6691229999999999
0
LINE
8
BLACK
6
CONTINUOUS
10
36.3220570000000009
20
-7.9548379999999996
11
37.5601519999999951
21
-7.9548379999999996
0
LINE
8
BLACK
6
CONTINUOUS
10
37.5601519999999951
20
-7.9548379999999996
11
36.8934849999999983
21
-8.716742
0
LINE
8
BLACK
6
CONTINUOUS
10
36.8934849999999983
20
-8.716742
11
37.1792000000000016
21
-8.716742
0
LINE
8
BLACK
6
CONTINUOUS
10
37.1792000000000016
20
-8.716742
11
37.3696759999999983
21
-8.8119800000000001
0
LINE
8
BLACK
6
CONTINUOUS
10
37.3696759999999983
20
-8.8119800000000001
11
37.4649140000000003
21
-8.9072189999999996
0
LINE
8
BLACK
6
CONTINUOUS
10
37.4649140000000003
20
-8.9072189999999996
11
37.5601519999999951
21
-9.0976949999999999
0
LINE
8
BLACK
6
CONTINUOUS
10
37.5601519999999951
20
-9.0976949999999999
11
37.5601519999999951
21
-9.5738849999999989
0
LINE
8
BLACK
6
CONTINUOUS
10
37.5601519999999951
20
-9.5738849999999989
11
37.4649140000000003
21
-9.7643609999999992
0
LINE
8
BLACK
6
CONTINUOUS
10
37.4649140000000003
20
-9.7643609999999992
11
37.3696759999999983
21
-9.8596000000000004
0
LINE
8
BLACK
6
CONTINUOUS
10
37.3696759999999983
20
-9.8596000000000004
11
37.1792000000000016
21
-9.9548379999999987
0
LINE
8
BLACK
6
CONTINUOUS
10
37.1792000000000016
20
-9.9548379999999987
11
36.6077709999999996
21
-9.9548379999999987
0
LINE
8
BLACK
6
CONTINUOUS
10
36.6077709999999996
20
-9.9548379999999987
11
36.4172949999999958
21
-9.8596000000000004
0
LINE
8
BLACK
6
CONTINUOUS
10
36.4172949999999958
20
-9.8596000000000004
11
36.3220570000000009
21
-9.7643609999999992
0
LINE
8
BLACK
6
CONTINUOUS
10
39.9411050000000003
20
-9.9548379999999987
11
39.9411050000000003
21
-7.9548379999999996
0
LINE
8
BLACK
6
CONTINUOUS
10
40.798248000000001
20
-9.9548379999999987
11
40.798248000000001
21
-8.9072189999999996
0
LINE
8
BLACK
6
CONTINUOUS
10
40.798248000000001
20
-8.9072189999999996
11
40.703009999999999
21
-8.716742
0
LINE
8
BLACK
6
CONTINUOUS
10
40.703009999999999
20
-8.716742
11
40.5125339999999952
21
-8.6215039999999998
0
LINE
8
BLACK
6
CONTINUOUS
10
40.5125339999999952
20
-8.6215039999999998
11
40.226818999999999
21
-8.6215039999999998
0
LINE
8
BLACK
6
CONTINUOUS
10
40.226818999999999
20
-8.6215039999999998
11
40.0363429999999951
21
-8.716742
0
LINE
8
BLACK
6
CONTINUOUS
10
40.0363429999999951
20
-8.716742
11
39.9411050000000003
21
-8.8119800000000001
0
LINE
8
BLACK
6
CONTINUOUS
10
42.0363429999999951
20
-9.9548379999999987
11
41.8458669999999984
21
-9.8596000000000004
0
LINE
8
BLACK
6
CONTINUOUS
10
41.8458669999999984
20
-9.8596000000000004
11
41.7506289999999964
21
-9.7643609999999992
0
LINE
8
BLACK
6
CONTINUOUS
10
41.7506289999999964
20
-9.7643609999999992
11
41.6553910000000016
21
-9.5738849999999989
0
LINE
8
BLACK
6
CONTINUOUS
10
41.6553910000000016
20
-9.5738849999999989
11
41.6553910000000016
21
-9.0024569999999997
0
LINE
8
BLACK
6
CONTINUOUS
10
41.6553910000000016
20
-9.0024569999999997
11
41.7506289999999964
21
-8.8119800000000001
0
LINE
8
BLACK
6
CONTINUOUS
10
41.7506289999999964
20
-8.8119800000000001
11
41.8458669999999984
21
-8.716742
0
LINE
8
BLACK
6
CONTINUOUS
10
41.8458669999999984
20
-8.716742
11
42.0363429999999951
21
-8.6215039999999998
0
LINE
8
BLACK
6
CONTINUOUS
10
42.0363429999999951
20
-8.6215039999999998
11
42.3220579999999984
21
-8.6215039999999998
0
LINE
8
BLACK
6
CONTINUOUS
10
42.3220579999999984
20
-8.6215039999999998
11
42.5125339999999952
21
-8.716742
0
LINE
8
BLACK
6
CONTINUOUS
10
42.5125339999999952
20
-8.716742
11
42.6077719999999971
21
-8.8119800000000001
0
LINE
8
BLACK
6
CONTINUOUS
10
42.6077719999999971
20
-8.8119800000000001
11
42.703009999999999
21
-9.0024569999999997
0
LINE
8
BLACK
6
CONTINUOUS
10
42.703009999999999
20
-9.0024569999999997
11
42.703009999999999
21
-9.5738849999999989
0
LINE
8
BLACK
6
CONTINUOUS
10
42.703009999999999
20
-9.5738849999999989
11
42.6077719999999971
21
-9.7643609999999992
0
LINE
8
BLACK
6
CONTINUOUS
10
42.6077719999999971
20
-9.7643609999999992
11
42.5125339999999952
21
-9.8596000000000004
0
LINE
8
BLACK
6
CONTINUOUS
10
42.5125339999999952
20
-9.8596000000000004
11
42.3220579999999984
21
-9.9548379999999987
0
LINE
8
BLACK
6
CONTINUOUS
10
42.3220579999999984
20
-9.9548379999999987
11
42.0363429999999951
21
-9.9548379999999987
0
LINE
8
BLACK
6
CONTINUOUS
10
43.8458669999999984
20
-9.9548379999999987
11
43.6553909999999945
21
-9.8596000000000004
0
LINE
8
BLACK
6
CONTINUOUS
10
43.6553909999999945
20
-9.8596000000000004
11
43.5601529999999997
21
-9.669122999999999
0
LINE
8
BLACK
6
CONTINUOUS
10
43.5601529999999997
20
-9.669122999999999
11
43.5601529999999997
21
-7.9548379999999996
0
LINE
8
BLACK
6
CONTINUOUS
10
45.3696769999999958
20
-9.8596000000000004
11
45.1792009999999991
21
-9.9548379999999987
0
LINE
8
BLACK
6
CONTINUOUS
10
45.1792009999999991
20
-9.9548379999999987
11
44.798248000000001
21
-9.9548379999999987
0
LINE
8
BLACK
6
CONTINUOUS
10
44.798248000000001
20
-9.9548379999999987
11
44.6077719999999971
21
-9.8596000000000004
0
LINE
8
BLACK
6
CONTINUOUS
10
44.6077719999999971
20
-9.8596000000000004
11
44.5125339999999952
21
-9.669122999999999
0
LINE
8
BLACK
6
CONTINUOUS
10
44.5125339999999952
20
-9.669122999999999
11
44.5125339999999952
21
-8.9072189999999996
0
LINE
8
BLACK
6
CONTINUOUS
10
44.5125339999999952
20
-8.9072189999999996
11
44.6077719999999971
21
-8.716742
0
LINE
8
BLACK
6
CONTINUOUS
10
44.6077719999999971
20
-8.716742
11
44.798248000000001
21
-8.6215039999999998
0
LINE
8
BLACK
6
CONTINUOUS
10
44.798248000000001
20
-8.6215039999999998
11
45.1792009999999991
21
-8.6215039999999998
0
LINE
8
BLACK
6
CONTINUOUS
10
45.1792009999999991
20
-8.6215039999999998
11
45.3696769999999958
21
-8.716742
0
LINE
8
BLACK
6
CONTINUOUS
10
45.3696769999999958
20
-8.716742
11
45.4649149999999977
21
-8.9072189999999996
0
LINE
8
BLACK
6
CONTINUOUS
10
45.4649149999999977
20
-8.9072189999999996
11
45.4649149999999977
21
-9.0976949999999999
0
LINE
8
BLACK
6
CONTINUOUS
10
45.4649149999999977
20
-9.0976949999999999
11
44.5125339999999952
21
-9.2881710000000002
0
LINE
8
BLACK
6
CONTINUOUS
10
46.2268199999999965
20
-9.8596000000000004
11
46.4172960000000003
21
-9.9548379999999987
0
LINE
8
BLACK
6
CONTINUOUS
10
46.4172960000000003
20
-9.9548379999999987
11
46.798248000000001
21
-9.9548379999999987
0
LINE
8
BLACK
6
CONTINUOUS
10
46.798248000000001
20
-9.9548379999999987
11
46.9887249999999952
21
-9.8596000000000004
0
LINE
8
BLACK
6
CONTINUOUS
10
46.9887249999999952
20
-9.8596000000000004
11
47.0839629999999971
21
-9.669122999999999
0
LINE
8
BLACK
6
CONTINUOUS
10
47.0839629999999971
20
-9.669122999999999
11
47.0839629999999971
21
-9.5738849999999989
0
LINE
8
BLACK
6
CONTINUOUS
10
47.0839629999999971
20
-9.5738849999999989
11
46.9887249999999952
21
-9.3834090000000003
0
LINE
8
BLACK
6
CONTINUOUS
10
46.9887249999999952
20
-9.3834090000000003
11
46.798248000000001
21
-9.2881710000000002
0
LINE
8
BLACK
6
CONTINUOUS
10
46.798248000000001
20
-9.2881710000000002
11
46.5125339999999952
21
-9.2881710000000002
0
LINE
8
BLACK
6
CONTINUOUS
10
46.5125339999999952
20
-9.2881710000000002
11
46.3220579999999984
21
-9.192933
0
LINE
8
BLACK
6
CONTINUOUS
10
46.3220579999999984
20
-9.192933
11
46.2268199999999965
21
-9.0024569999999997
0
LINE
8
BLACK
6
CONTINUOUS
10
46.2268199999999965
20
-9.0024569999999997
11
46.2268199999999965
21
-8.9072189999999996
0
LINE
8
BLACK
6
CONTINUOUS
10
46.2268199999999965
20
-8.9072189999999996
11
46.3220579999999984
21
-8.716742
0
LINE
8
BLACK
6
CONTINUOUS
10
46.3220579999999984
20
-8.716742
11
46.5125339999999952
21
-8.6215039999999998
0
LINE
8
BLACK
6
CONTINUOUS
10
46.5125339999999952
20
-8.6215039999999998
11
46.798248000000001
21
-8.6215039999999998
0
LINE
8
BLACK
6
CONTINUOUS
10
46.798248000000001
20
-8.6215039999999998
11
46.9887249999999952
21
-8.716742
0
LINE
8
BLACK
6
CONTINUOUS
10
47.750630000000001
20
-10.716742
11
47.8458679999999958
21
-10.6215039999999998
0
LINE
8
BLACK
6
CONTINUOUS
10
47.8458679999999958
20
-10.6215039999999998
11
48.0363439999999997
21
-10.3357899999999994
0
LINE
8
BLACK
6
CONTINUOUS
10
48.0363439999999997
20
-10.3357899999999994
11
48.1315819999999945
21
-10.1453139999999991
0
LINE
8
BLACK
6
CONTINUOUS
10
48.1315819999999945
20
-10.1453139999999991
11
48.2268199999999965
21
-9.8596000000000004
0
LINE
8
BLACK
6
CONTINUOUS
10
48.2268199999999965
20
-9.8596000000000004
11
48.3220579999999984
21
-9.3834090000000003
0
LINE
8
BLACK
6
CONTINUOUS
10
48.3220579999999984
20
-9.3834090000000003
11
48.3220579999999984
21
-9.0024569999999997
0
LINE
8
BLACK
6
CONTINUOUS
10
48.3220579999999984
20
-9.0024569999999997
11
48.2268199999999965
21
-8.5262659999999997
0
LINE
8
BLACK
6
CONTINUOUS
10
48.2268199999999965
20
-8.5262659999999997
11
48.1315819999999945
21
-8.2405519999999992
0
LINE
8
BLACK
6
CONTINUOUS
10
48.1315819999999945
20
-8.2405519999999992
11
48.0363439999999997
21
-8.0500759999999989
0
LINE
8
BLACK
6
CONTINUOUS
10
48.0363439999999997
20
-8.0500759999999989
11
47.8458679999999958
21
-7.7643610000000001
0
LINE
8
BLACK
6
CONTINUOUS
10
47.8458679999999958
20
-7.7643610000000001
11
47.750630000000001
21
-7.6691229999999999
0
LINE
8
BLACK
6
CONTINUOUS
10
-0.4
20
-11.2799999999999994
11
-0.4
21
-12.0800000000000001
0
LINE
8
BLACK
6
CONTINUOUS
10
-0.7999999999999999
20
-11.6799999999999997
11
0.
21
-11.6799999999999997
0
LINE
8
BLACK
6
CONTINUOUS
10
2.9887199999999998
20
-10.5948379999999993
11
3.1791969999999998
21
-10.5948379999999993
0
LINE
8
BLACK
6
CONTINUOUS
10
3.1791969999999998
20
-10.5948379999999993
11
3.3696729999999997
21
-10.6900759999999995
0
LINE
8
BLACK
6
CONTINUOUS
10
3.3696729999999997
20
-10.6900759999999995
11
3.4649109999999999
21
-10.7853139999999996
0
LINE
8
BLACK
6
CONTINUOUS
10
3.4649109999999999
20
-10.7853139999999996
11
3.560149
21
-10.9757899999999999
0
LINE
8
BLACK
6
CONTINUOUS
10
3.560149
20
-10.9757899999999999
11
3.6553869999999997
21
-11.3567419999999988
0
LINE
8
BLACK
6
CONTINUOUS
10
3.6553869999999997
20
-11.3567419999999988
11
3.6553869999999997
21
-11.8329329999999988
0
LINE
8
BLACK
6
CONTINUOUS
10
3.6553869999999997
20
-11.8329329999999988
11
3.560149
21
-12.2138849999999994
0
LINE
8
BLACK
6
CONTINUOUS
10
3.560149
20
-12.2138849999999994
11
3.4649109999999999
21
-12.4043609999999997
0
LINE
8
BLACK
6
CONTINUOUS
10
3.4649109999999999
20
-12.4043609999999997
11
3.3696729999999997
21
-12.4995999999999992
0
LINE
8
BLACK
6
CONTINUOUS
10
3.3696729999999997
20
-12.4995999999999992
11
3.1791969999999998
21
-12.5948379999999993
0
LINE
8
BLACK
6
CONTINUOUS
10
3.1791969999999998
20
-12.5948379999999993
11
2.9887199999999998
21
-12.5948379999999993
0
LINE
8
BLACK
6
CONTINUOUS
10
2.9887199999999998
20
-12.5948379999999993
11
2.798244
21
-12.4995999999999992
0
LINE
8
BLACK
6
CONTINUOUS
10
2.798244
20
-12.4995999999999992
11
2.7030059999999998
21
-12.4043609999999997
0
LINE
8
BLACK
6
CONTINUOUS
10
2.7030059999999998
20
-12.4043609999999997
11
2.6077680000000001
21
-12.2138849999999994
0
LINE
8
BLACK
6
CONTINUOUS
10
2.6077680000000001
20
-12.2138849999999994
11
2.5125299999999999
21
-11.8329329999999988
0
LINE
8
BLACK
6
CONTINUOUS
10
2.5125299999999999
20
-11.8329329999999988
11
2.5125299999999999
21
-11.3567419999999988
0
LINE
8
BLACK
6
CONTINUOUS
10
2.5125299999999999
20
-11.3567419999999988
11
2.6077680000000001
21
-10.9757899999999999
0
LINE
8
BLACK
6
CONTINUOUS
10
2.6077680000000001
20
-10.9757899999999999
11
2.7030059999999998
21
-10.7853139999999996
0
LINE
8
BLACK
6
CONTINUOUS
10
2.7030059999999998
20
-10.7853139999999996
11
2.798244
21
-10.6900759999999995
0
LINE
8
BLACK
6
CONTINUOUS
10
2.798244
20
-10.6900759999999995
11
2.9887199999999998
21
-10.5948379999999993
0
LINE
8
BLACK
6
CONTINUOUS
10
4.5125299999999999
20
-12.4043609999999997
11
4.6077680000000001
21
-12.4995999999999992
0
LINE
8
BLACK
6
CONTINUOUS
10
4.6077680000000001
20
-12.4995999999999992
11
4.5125299999999999
21
-12.5948379999999993
0
LINE
8
BLACK
6
CONTINUOUS
10
4.5125299999999999
20
-12.5948379999999993
11
4.4172919999999998
21
-12.4995999999999992
0
LINE
8
BLACK
6
CONTINUOUS
10
4.4172919999999998
20
-12.4995999999999992
11
4.5125299999999999
21
-12.4043609999999997
0
LINE
8
BLACK
6
CONTINUOUS
10
4.5125299999999999
20
-12.4043609999999997
11
4.5125299999999999
21
-12.5948379999999993
0
LINE
8
BLACK
6
CONTINUOUS
10
5.7506249999999994
20
-11.4519799999999989
11
5.560149
21
-11.3567419999999988
0
LINE
8
BLACK
6
CONTINUOUS
10
5.560149
20
-11.3567419999999988
11
5.4649109999999999
21
-11.2615039999999986
0
LINE
8
BLACK
6
CONTINUOUS
10
5.4649109999999999
20
-11.2615039999999986
11
5.3696729999999997
21
-11.0710280000000001
0
LINE
8
BLACK
6
CONTINUOUS
10
5.3696729999999997
20
-11.0710280000000001
11
5.3696729999999997
21
-10.9757899999999999
0
LINE
8
BLACK
6
CONTINUOUS
10
5.3696729999999997
20
-10.9757899999999999
11
5.4649109999999999
21
-10.7853139999999996
0
LINE
8
BLACK
6
CONTINUOUS
10
5.4649109999999999
20
-10.7853139999999996
11
5.560149
21
-10.6900759999999995
0
LINE
8
BLACK
6
CONTINUOUS
10
5.560149
20
-10.6900759999999995
11
5.7506249999999994
21
-10.5948379999999993
0
LINE
8
BLACK
6
CONTINUOUS
10
5.7506249999999994
20
-10.5948379999999993
11
6.1315779999999993
21
-10.5948379999999993
0
LINE
8
BLACK
6
CONTINUOUS
10
6.1315779999999993
20
-10.5948379999999993
11
6.3220539999999996
21
-10.6900759999999995
0
LINE
8
BLACK
6
CONTINUOUS
10
6.3220539999999996
20
-10.6900759999999995
11
6.4172919999999998
21
-10.7853139999999996
0
LINE
8
BLACK
6
CONTINUOUS
10
6.4172919999999998
20
-10.7853139999999996
11
6.5125299999999999
21
-10.9757899999999999
0
LINE
8
BLACK
6
CONTINUOUS
10
6.5125299999999999
20
-10.9757899999999999
11
6.5125299999999999
21
-11.0710280000000001
0
LINE
8
BLACK
6
CONTINUOUS
10
6.5125299999999999
20
-11.0710280000000001
11
6.4172919999999998
21
-11.2615039999999986
0
LINE
8
BLACK
6
CONTINUOUS
10
6.4172919999999998
20
-11.2615039999999986
11
6.3220539999999996
21
-11.3567419999999988
0
LINE
8
BLACK
6
CONTINUOUS
10
6.3220539999999996
20
-11.3567419999999988
11
6.1315779999999993
21
-11.4519799999999989
0
LINE
8
BLACK
6
CONTINUOUS
10
6.1315779999999993
20
-11.4519799999999989
11
5.7506249999999994
21
-11.4519799999999989
0
LINE
8
BLACK
6
CONTINUOUS
10
5.7506249999999994
20
-11.4519799999999989
11
5.560149
21
-11.5472190000000001
0
LINE
8
BLACK
6
CONTINUOUS
10
5.560149
20
-11.5472190000000001
11
5.4649109999999999
21
-11.6424570000000003
0
LINE
8
BLACK
6
CONTINUOUS
10
5.4649109999999999
20
-11.6424570000000003
11
5.3696729999999997
21
-11.8329329999999988
0
LINE
8
BLACK
6
CONTINUOUS
10
5.3696729999999997
20
-11.8329329999999988
11
5.3696729999999997
21
-12.2138849999999994
0
LINE
8
BLACK
6
CONTINUOUS
10
5.3696729999999997
20
-12.2138849999999994
11
5.4649109999999999
21
-12.4043609999999997
0
LINE
8
BLACK
6
CONTINUOUS
10
5.4649109999999999
20
-12.4043609999999997
11
5.560149
21
-12.4995999999999992
0
LINE
8
BLACK
6
CONTINUOUS
10
5.560149
20
-12.4995999999999992
11
5.7506249999999994
21
-12.5948379999999993
0
LINE
8
BLACK
6
CONTINUOUS
10
5.7506249999999994
20
-12.5948379999999993
11
6.1315779999999993
21
-12.5948379999999993
0
LINE
8
BLACK
6
CONTINUOUS
10
6.1315779999999993
20
-12.5948379999999993
11
6.3220539999999996
21
-12.4995999999999992
0
LINE
8
BLACK
6
CONTINUOUS
10
6.3220539999999996
20
-12.4995999999999992
11
6.4172919999999998
21
-12.4043609999999997
0
LINE
8
BLACK
6
CONTINUOUS
10
6.4172919999999998
20
-12.4043609999999997
11
6.5125299999999999
21
-12.2138849999999994
0
LINE
8
BLACK
6
CONTINUOUS
10
6.5125299999999999
20
-12.2138849999999994
11
6.5125299999999999
21
-11.8329329999999988
0
LINE
8
BLACK
6
CONTINUOUS
10
6.5125299999999999
20
-11.8329329999999988
11
6.4172919999999998
21
-11.6424570000000003
0
LINE
8
BLACK
6
CONTINUOUS
10
6.4172919999999998
20
-11.6424570000000003
11
6.3220539999999996
21
-11.5472190000000001
0
LINE
8
BLACK
6
CONTINUOUS
10
6.3220539999999996
20
-11.5472190000000001
11
6.1315779999999993
21
-11.4519799999999989
0
LINE
8
BLACK
6
CONTINUOUS
10
7.7506249999999994
20
-10.5948379999999993
11
7.9411019999999999
21
-10.5948379999999993
0
LINE
8
BLACK
6
CONTINUOUS
10
7.9411019999999999
20
-10.5948379999999993
11
8.1315779999999993
21
-10.6900759999999995
0
LINE
8
BLACK
6
CONTINUOUS
10
8.1315779999999993
20
-10.6900759999999995
11
8.2268159999999995
21
-10.7853139999999996
0
LINE
8
BLACK
6
CONTINUOUS
10
8.2268159999999995
20
-10.7853139999999996
11
8.3220539999999996
21
-10.9757899999999999
0
LINE
8
BLACK
6
CONTINUOUS
10
8.3220539999999996
20
-10.9757899999999999
11
8.4172919999999998
21
-11.3567419999999988
0
LINE
8
BLACK
6
CONTINUOUS
10
8.4172919999999998
20
-11.3567419999999988
11
8.4172919999999998
21
-11.8329329999999988
0
LINE
8
BLACK
6
CONTINUOUS
10
8.4172919999999998
20
-11.8329329999999988
11
8.3220539999999996
21
-12.2138849999999994
0
LINE
8
BLACK
6
CONTINUOUS
10
8.3220539999999996
20
-12.2138849999999994
11
8.2268159999999995
21
-12.4043609999999997
0
LINE
8
BLACK
6
CONTINUOUS
10
8.2268159999999995
20
-12.4043609999999997
11
8.1315779999999993
21
-12.4995999999999992
0
LINE
8
BLACK
6
CONTINUOUS
10
8.1315779999999993
20
-12.4995999999999992
11
7.9411019999999999
21
-12.5948379999999993
0
LINE
8
BLACK
6
CONTINUOUS
10
7.9411019999999999
20
-12.5948379999999993
11
7.7506249999999994
21
-12.5948379999999993
0
LINE
8
BLACK
6
CONTINUOUS
10
7.7506249999999994
20
-12.5948379999999993
11
7.560149
21
-12.4995999999999992
0
LINE
8
BLACK
6
CONTINUOUS
10
7.560149
20
-12.4995999999999992
11
7.4649109999999999
21
-12.4043609999999997
0
LINE
8
BLACK
6
CONTINUOUS
10
7.4649109999999999
20
-12.4043609999999997
11
7.3696729999999997
21
-12.2138849999999994
0
LINE
8
BLACK
6
CONTINUOUS
10
7.3696729999999997
20
-12.2138849999999994
11
7.2744349999999995
21
-11.8329329999999988
0
LINE
8
BLACK
6
CONTINUOUS
10
7.2744349999999995
20
-11.8329329999999988
11
7.2744349999999995
21
-11.3567419999999988
0
LINE
8
BLACK
6
CONTINUOUS
10
7.2744349999999995
20
-11.3567419999999988
11
7.3696729999999997
21
-10.9757899999999999
0
LINE
8
BLACK
6
CONTINUOUS
10
7.3696729999999997
20
-10.9757899999999999
11
7.4649109999999999
21
-10.7853139999999996
0
LINE
8
BLACK
6
CONTINUOUS
10
7.4649109999999999
20
-10.7853139999999996
11
7.560149
21
-10.6900759999999995
0
LINE
8
BLACK
6
CONTINUOUS
10
7.560149
20
-10.6900759999999995
11
7.7506249999999994
21
-10.5948379999999993
0
LINE
8
BLACK
6
CONTINUOUS
10
9.6553869999999993
20
-10.5948379999999993
11
9.8458639999999988
21
-10.5948379999999993
0
LINE
8
BLACK
6
CONTINUOUS
10
9.8458639999999988
20
-10.5948379999999993
11
10.0363399999999992
21
-10.6900759999999995
0
LINE
8
BLACK
6
CONTINUOUS
10
10.0363399999999992
20
-10.6900759999999995
11
10.1315779999999993
21
-10.7853139999999996
0
LINE
8
BLACK
6
CONTINUOUS
10
10.1315779999999993
20
-10.7853139999999996
11
10.2268159999999995
21
-10.9757899999999999
0
LINE
8
BLACK
6
CONTINUOUS
10
10.2268159999999995
20
-10.9757899999999999
11
10.3220539999999996
21
-11.3567419999999988
0
LINE
8
BLACK
6
CONTINUOUS
10
10.3220539999999996
20
-11.3567419999999988
11
10.3220539999999996
21
-11.8329329999999988
0
LINE
8
BLACK
6
CONTINUOUS
10
10.3220539999999996
20
-11.8329329999999988
11
10.2268159999999995
21
-12.2138849999999994
0
LINE
8
BLACK
6
CONTINUOUS
10
10.2268159999999995
20
-12.2138849999999994
11
10.1315779999999993
21
-12.4043609999999997
0
LINE
8
BLACK
6
CONTINUOUS
10
10.1315779999999993
20
-12.4043609999999997
11
10.0363399999999992
21
-12.4995999999999992
0
LINE
8
BLACK
6
CONTINUOUS
10
10.0363399999999992
20
-12.4995999999999992
11
9.8458639999999988
21
-12.5948379999999993
0
LINE
8
BLACK
6
CONTINUOUS
10
9.8458639999999988
20
-12.5948379999999993
11
9.6553869999999993
21
-12.5948379999999993
0
LINE
8
BLACK
6
CONTINUOUS
10
9.6553869999999993
20
-12.5948379999999993
11
9.464910999999999
21
-12.4995999999999992
0
LINE
8
BLACK
6
CONTINUOUS
10
9.464910999999999
20
-12.4995999999999992
11
9.3696729999999988
21
-12.4043609999999997
0
LINE
8
BLACK
6
CONTINUOUS
10
9.3696729999999988
20
-12.4043609999999997
11
9.2744350000000004
21
-12.2138849999999994
0
LINE
8
BLACK
6
CONTINUOUS
10
9.2744350000000004
20
-12.2138849999999994
11
9.1791970000000003
21
-11.8329329999999988
0
LINE
8
BLACK
6
CONTINUOUS
10
9.1791970000000003
20
-11.8329329999999988
11
9.1791970000000003
21
-11.3567419999999988
0
LINE
8
BLACK
6
CONTINUOUS
10
9.1791970000000003
20
-11.3567419999999988
11
9.2744350000000004
21
-10.9757899999999999
0
LINE
8
BLACK
6
CONTINUOUS
10
9.2744350000000004
20
-10.9757899999999999
11
9.3696729999999988
21
-10.7853139999999996
0
LINE
8
BLACK
6
CONTINUOUS
10
9.3696729999999988
20
-10.7853139999999996
11
9.464910999999999
21
-10.6900759999999995
0
LINE
8
BLACK
6
CONTINUOUS
10
9.464910999999999
20
-10.6900759999999995
11
9.6553869999999993
21
-10.5948379999999993
0
LINE
8
BLACK
6
CONTINUOUS
10
11.1791970000000003
20
-12.5948379999999993
11
11.1791970000000003
21
-11.2615039999999986
0
LINE
8
BLACK
6
CONTINUOUS
10
11.1791970000000003
20
-11.4519799999999989
11
11.2744349999999987
21
-11.3567419999999988
0
LINE
8
BLACK
6
CONTINUOUS
10
11.2744349999999987
20
-11.3567419999999988
11
11.464910999999999
21
-11.2615039999999986
0
LINE
8
BLACK
6
CONTINUOUS
10
11.464910999999999
20
-11.2615039999999986
11
11.7506259999999987
21
-11.2615039999999986
0
LINE
8
BLACK
6
CONTINUOUS
10
11.7506259999999987
20
-11.2615039999999986
11
11.941101999999999
21
-11.3567419999999988
0
LINE
8
BLACK
6
CONTINUOUS
10
11.941101999999999
20
-11.3567419999999988
11
12.0363399999999992
21
-11.5472190000000001
0
LINE
8
BLACK
6
CONTINUOUS
10
12.0363399999999992
20
-11.5472190000000001
11
12.0363399999999992
21
-12.5948379999999993
0
LINE
8
BLACK
6
CONTINUOUS
10
12.0363399999999992
20
-11.5472190000000001
11
12.1315779999999993
21
-11.3567419999999988
0
LINE
8
BLACK
6
CONTINUOUS
10
12.1315779999999993
20
-11.3567419999999988
11
12.3220539999999996
21
-11.2615039999999986
0
LINE
8
BLACK
6
CONTINUOUS
10
12.3220539999999996
20
-11.2615039999999986
11
12.6077680000000001
21
-11.2615039999999986
0
LINE
8
BLACK
6
CONTINUOUS
10
12.6077680000000001
20
-11.2615039999999986
11
12.7982449999999996
21
-11.3567419999999988
0
LINE
8
BLACK
6
CONTINUOUS
10
12.7982449999999996
20
-11.3567419999999988
11
12.8934829999999998
21
-11.5472190000000001
0
LINE
8
BLACK
6
CONTINUOUS
10
12.8934829999999998
20
-11.5472190000000001
11
12.8934829999999998
21
-12.5948379999999993
0
LINE
8
BLACK
6
CONTINUOUS
10
13.8458639999999988
20
-12.5948379999999993
11
13.8458639999999988
21
-11.2615039999999986
0
LINE
8
BLACK
6
CONTINUOUS
10
13.8458639999999988
20
-11.4519799999999989
11
13.941101999999999
21
-11.3567419999999988
0
LINE
8
BLACK
6
CONTINUOUS
10
13.941101999999999
20
-11.3567419999999988
11
14.1315779999999993
21
-11.2615039999999986
0
LINE
8
BLACK
6
CONTINUOUS
10
14.1315779999999993
20
-11.2615039999999986
11
14.417292999999999
21
-11.2615039999999986
0
LINE
8
BLACK
6
CONTINUOUS
10
14.417292999999999
20
-11.2615039999999986
11
14.6077689999999993
21
-11.3567419999999988
0
LINE
8
BLACK
6
CONTINUOUS
10
14.6077689999999993
20
-11.3567419999999988
11
14.7030069999999995
21
-11.5472190000000001
0
LINE
8
BLACK
6
CONTINUOUS
10
14.7030069999999995
20
-11.5472190000000001
11
14.7030069999999995
21
-12.5948379999999993
0
LINE
8
BLACK
6
CONTINUOUS
10
14.7030069999999995
20
-11.5472190000000001
11
14.7982449999999996
21
-11.3567419999999988
0
LINE
8
BLACK
6
CONTINUOUS
10
14.7982449999999996
20
-11.3567419999999988
11
14.988721
21
-11.2615039999999986
0
LINE
8
BLACK
6
CONTINUOUS
10
14.988721
20
-11.2615039999999986
11
15.2744349999999987
21
-11.2615039999999986
0
LINE
8
BLACK
6
CONTINUOUS
10
15.2744349999999987
20
-11.2615039999999986
11
15.464912
21
-11.3567419999999988
0
LINE
8
BLACK
6
CONTINUOUS
10
15.464912
20
-11.3567419999999988
11
15.5601500000000001
21
-11.5472190000000001
0
LINE
8
BLACK
6
CONTINUOUS
10
15.5601500000000001
20
-11.5472190000000001
11
15.5601500000000001
21
-12.5948379999999993
0
LINE
8
BLACK
6
CONTINUOUS
10
19.4649119999999982
20
-10.4995999999999992
11
17.7506269999999979
21
-13.0710280000000001
0
LINE
8
BLACK
6
CONTINUOUS
10
22.0363410000000002
20
-10.5948379999999993
11
22.226817999999998
21
-10.5948379999999993
0
LINE
8
BLACK
6
CONTINUOUS
10
22.226817999999998
20
-10.5948379999999993
11
22.4172939999999983
21
-10.6900759999999995
0
LINE
8
BLACK
6
CONTINUOUS
10
22.4172939999999983
20
-10.6900759999999995
11
22.5125320000000002
21
-10.7853139999999996
0
LINE
8
BLACK
6
CONTINUOUS
10
22.5125320000000002
20
-10.7853139999999996
11
22.6077699999999986
21
-10.9757899999999999
0
LINE
8
BLACK
6
CONTINUOUS
10
22.6077699999999986
20
-10.9757899999999999
11
22.7030080000000005
21
-11.3567419999999988
0
LINE
8
BLACK
6
CONTINUOUS
10
22.7030080000000005
20
-11.3567419999999988
11
22.7030080000000005
21
-11.8329329999999988
0
LINE
8
BLACK
6
CONTINUOUS
10
22.7030080000000005
20
-11.8329329999999988
11
22.6077699999999986
21
-12.2138849999999994
0
LINE
8
BLACK
6
CONTINUOUS
10
22.6077699999999986
20
-12.2138849999999994
11
22.5125320000000002
21
-12.4043609999999997
0
LINE
8
BLACK
6
CONTINUOUS
10
22.5125320000000002
20
-12.4043609999999997
11
22.4172939999999983
21
-12.4995999999999992
0
LINE
8
BLACK
6
CONTINUOUS
10
22.4172939999999983
20
-12.4995999999999992
11
22.226817999999998
21
-12.5948379999999993
0
LINE
8
BLACK
6
CONTINUOUS
10
22.226817999999998
20
-12.5948379999999993
11
22.0363410000000002
21
-12.5948379999999993
0
LINE
8
BLACK
6
CONTINUOUS
10
22.0363410000000002
20
-12.5948379999999993
11
21.8458649999999999
21
-12.4995999999999992
0
LINE
8
BLACK
6
CONTINUOUS
10
21.8458649999999999
20
-12.4995999999999992
11
21.7506269999999979
21
-12.4043609999999997
0
LINE
8
BLACK
6
CONTINUOUS
10
21.7506269999999979
20
-12.4043609999999997
11
21.6553889999999996
21
-12.2138849999999994
0
LINE
8
BLACK
6
CONTINUOUS
10
21.6553889999999996
20
-12.2138849999999994
11
21.5601509999999976
21
-11.8329329999999988
0
LINE
8
BLACK
6
CONTINUOUS
10
21.5601509999999976
20
-11.8329329999999988
11
21.5601509999999976
21
-11.3567419999999988
0
LINE
8
BLACK
6
CONTINUOUS
10
21.5601509999999976
20
-11.3567419999999988
11
21.6553889999999996
21
-10.9757899999999999
0
LINE
8
BLACK
6
CONTINUOUS
10
21.6553889999999996
20
-10.9757899999999999
11
21.7506269999999979
21
-10.7853139999999996
0
LINE
8
BLACK
6
CONTINUOUS
10
21.7506269999999979
20
-10.7853139999999996
11
21.8458649999999999
21
-10.6900759999999995
0
LINE
8
BLACK
6
CONTINUOUS
10
21.8458649999999999
20
-10.6900759999999995
11
22.0363410000000002
21
-10.5948379999999993
0
LINE
8
BLACK
6
CONTINUOUS
10
23.5601509999999976
20
-12.4043609999999997
11
23.6553889999999996
21
-12.4995999999999992
0
LINE
8
BLACK
6
CONTINUOUS
10
23.6553889999999996
20
-12.4995999999999992
11
23.5601509999999976
21
-12.5948379999999993
0
LINE
8
BLACK
6
CONTINUOUS
10
23.5601509999999976
20
-12.5948379999999993
11
23.4649129999999992
21
-12.4995999999999992
0
LINE
8
BLACK
6
CONTINUOUS
10
23.4649129999999992
20
-12.4995999999999992
11
23.5601509999999976
21
-12.4043609999999997
0
LINE
8
BLACK
6
CONTINUOUS
10
23.5601509999999976
20
-12.4043609999999997
11
23.5601509999999976
21
-12.5948379999999993
0
LINE
8
BLACK
6
CONTINUOUS
10
24.8934839999999973
20
-10.5948379999999993
11
25.0839609999999986
21
-10.5948379999999993
0
LINE
8
BLACK
6
CONTINUOUS
10
25.0839609999999986
20
-10.5948379999999993
11
25.2744369999999989
21
-10.6900759999999995
0
LINE
8
BLACK
6
CONTINUOUS
10
25.2744369999999989
20
-10.6900759999999995
11
25.3696749999999973
21
-10.7853139999999996
0
LINE
8
BLACK
6
CONTINUOUS
10
25.3696749999999973
20
-10.7853139999999996
11
25.4649129999999992
21
-10.9757899999999999
0
LINE
8
BLACK
6
CONTINUOUS
10
25.4649129999999992
20
-10.9757899999999999
11
25.5601509999999976
21
-11.3567419999999988
0
LINE
8
BLACK
6
CONTINUOUS
10
25.5601509999999976
20
-11.3567419999999988
11
25.5601509999999976
21
-11.8329329999999988
0
LINE
8
BLACK
6
CONTINUOUS
10
25.5601509999999976
20
-11.8329329999999988
11
25.4649129999999992
21
-12.2138849999999994
0
LINE
8
BLACK
6
CONTINUOUS
10
25.4649129999999992
20
-12.2138849999999994
11
25.3696749999999973
21
-12.4043609999999997
0
LINE
8
BLACK
6
CONTINUOUS
10
25.3696749999999973
20
-12.4043609999999997
11
25.2744369999999989
21
-12.4995999999999992
0
LINE
8
BLACK
6
CONTINUOUS
10
25.2744369999999989
20
-12.4995999999999992
11
25.0839609999999986
21
-12.5948379999999993
0
LINE
8
BLACK
6
CONTINUOUS
10
25.0839609999999986
20
-12.5948379999999993
11
24.8934839999999973
21
-12.5948379999999993
0
LINE
8
BLACK
6
CONTINUOUS
10
24.8934839999999973
20
-12.5948379999999993
11
24.7030080000000005
21
-12.4995999999999992
0
LINE
8
BLACK
6
CONTINUOUS
10
24.7030080000000005
20
-12.4995999999999992
11
24.6077699999999986
21
-12.4043609999999997
0
LINE
8
BLACK
6
CONTINUOUS
10
24.6077699999999986
20
-12.4043609999999997
11
24.5125320000000002
21
-12.2138849999999994
0
LINE
8
BLACK
6
CONTINUOUS
10
24.5125320000000002
20
-12.2138849999999994
11
24.4172939999999983
21
-11.8329329999999988
0
LINE
8
BLACK
6
CONTINUOUS
10
24.4172939999999983
20
-11.8329329999999988
11
24.4172939999999983
21
-11.3567419999999988
0
LINE
8
BLACK
6
CONTINUOUS
10
24.4172939999999983
20
-11.3567419999999988
11
24.5125320000000002
21
-10.9757899999999999
0
LINE
8
BLACK
6
CONTINUOUS
10
24.5125320000000002
20
-10.9757899999999999
11
24.6077699999999986
21
-10.7853139999999996
0
LINE
8
BLACK
6
CONTINUOUS
10
24.6077699999999986
20
-10.7853139999999996
11
24.7030080000000005
21
-10.6900759999999995
0
LINE
8
BLACK
6
CONTINUOUS
10
24.7030080000000005
20
-10.6900759999999995
11
24.8934839999999973
21
-10.5948379999999993
0
LINE
8
BLACK
6
CONTINUOUS
10
26.226817999999998
20
-10.5948379999999993
11
27.4649129999999992
21
-10.5948379999999993
0
LINE
8
BLACK
6
CONTINUOUS
10
27.4649129999999992
20
-10.5948379999999993
11
26.7982459999999989
21
-11.3567419999999988
0
LINE
8
BLACK
6
CONTINUOUS
10
26.7982459999999989
20
-11.3567419999999988
11
27.0839609999999986
21
-11.3567419999999988
0
LINE
8
BLACK
6
CONTINUOUS
10
27.0839609999999986
20
-11.3567419999999988
11
27.2744369999999989
21
-11.4519799999999989
0
LINE
8
BLACK
6
CONTINUOUS
10
27.2744369999999989
20
-11.4519799999999989
11
27.3696749999999973
21
-11.5472190000000001
0
LINE
8
BLACK
6
CONTINUOUS
10
27.3696749999999973
20
-11.5472190000000001
11
27.4649129999999992
21
-11.7376949999999987
0
LINE
8
BLACK
6
CONTINUOUS
10
27.4649129999999992
20
-11.7376949999999987
11
27.4649129999999992
21
-12.2138849999999994
0
LINE
8
BLACK
6
CONTINUOUS
10
27.4649129999999992
20
-12.2138849999999994
11
27.3696749999999973
21
-12.4043609999999997
0
LINE
8
BLACK
6
CONTINUOUS
10
27.3696749999999973
20
-12.4043609999999997
11
27.2744369999999989
21
-12.4995999999999992
0
LINE
8
BLACK
6
CONTINUOUS
10
27.2744369999999989
20
-12.4995999999999992
11
27.0839609999999986
21
-12.5948379999999993
0
LINE
8
BLACK
6
CONTINUOUS
10
27.0839609999999986
20
-12.5948379999999993
11
26.5125320000000002
21
-12.5948379999999993
0
LINE
8
BLACK
6
CONTINUOUS
10
26.5125320000000002
20
-12.5948379999999993
11
26.3220559999999999
21
-12.4995999999999992
0
LINE
8
BLACK
6
CONTINUOUS
10
26.3220559999999999
20
-12.4995999999999992
11
26.226817999999998
21
-12.4043609999999997
0
LINE
8
BLACK
6
CONTINUOUS
10
29.3696749999999973
20
-12.5948379999999993
11
28.226817999999998
21
-12.5948379999999993
0
LINE
8
BLACK
6
CONTINUOUS
10
28.7982459999999989
20
-12.5948379999999993
11
28.7982459999999989
21
-10.5948379999999993
0
LINE
8
BLACK
6
CONTINUOUS
10
28.7982459999999989
20
-10.5948379999999993
11
28.6077699999999986
21
-10.8805519999999998
0
LINE
8
BLACK
6
CONTINUOUS
10
28.6077699999999986
20
-10.8805519999999998
11
28.4172939999999983
21
-11.0710280000000001
0
LINE
8
BLACK
6
CONTINUOUS
10
28.4172939999999983
20
-11.0710280000000001
11
28.226817999999998
21
-11.1662660000000002
0
LINE
8
BLACK
6
CONTINUOUS
10
31.179198999999997
20
-10.5948379999999993
11
30.226817999999998
21
-10.5948379999999993
0
LINE
8
BLACK
6
CONTINUOUS
10
30.226817999999998
20
-10.5948379999999993
11
30.1315799999999996
21
-11.5472190000000001
0
LINE
8
BLACK
6
CONTINUOUS
10
30.1315799999999996
20
-11.5472190000000001
11
30.226817999999998
21
-11.4519799999999989
0
LINE
8
BLACK
6
CONTINUOUS
10
30.226817999999998
20
-11.4519799999999989
11
30.4172939999999983
21
-11.3567419999999988
0
LINE
8
BLACK
6
CONTINUOUS
10
30.4172939999999983
20
-11.3567419999999988
11
30.8934849999999983
21
-11.3567419999999988
0
LINE
8
BLACK
6
CONTINUOUS
10
30.8934849999999983
20
-11.3567419999999988
11
31.0839609999999986
21
-11.4519799999999989
0
LINE
8
BLACK
6
CONTINUOUS
10
31.0839609999999986
20
-11.4519799999999989
11
31.179198999999997
21
-11.5472190000000001
0
LINE
8
BLACK
6
CONTINUOUS
10
31.179198999999997
20
-11.5472190000000001
11
31.2744369999999989
21
-11.7376949999999987
0
LINE
8
BLACK
6
CONTINUOUS
10
31.2744369999999989
20
-11.7376949999999987
11
31.2744369999999989
21
-12.2138849999999994
0
LINE
8
BLACK
6
CONTINUOUS
10
31.2744369999999989
20
-12.2138849999999994
11
31.179198999999997
21
-12.4043609999999997
0
LINE
8
BLACK
6
CONTINUOUS
10
31.179198999999997
20
-12.4043609999999997
11
31.0839609999999986
21
-12.4995999999999992
0
LINE
8
BLACK
6
CONTINUOUS
10
31.0839609999999986
20
-12.4995999999999992
11
30.8934849999999983
21
-12.5948379999999993
0
LINE
8
BLACK
6
CONTINUOUS
10
30.8934849999999983
20
-12.5948379999999993
11
30.4172939999999983
21
-12.5948379999999993
0
LINE
8
BLACK
6
CONTINUOUS
10
30.4172939999999983
20
-12.5948379999999993
11
30.226817999999998
21
-12.4995999999999992
0
LINE
8
BLACK
6
CONTINUOUS
10
30.226817999999998
20
-12.4995999999999992
11
30.1315799999999996
21
-12.4043609999999997
0
LINE
8
BLACK
6
CONTINUOUS
10
32.0363419999999977
20
-10.5948379999999993
11
32.0363419999999977
21
-10.9757899999999999
0
LINE
8
BLACK
6
CONTINUOUS
10
32.7982469999999964
20
-10.5948379999999993
11
32.7982469999999964
21
-10.9757899999999999
0
LINE
8
BLACK
6
CONTINUOUS
10
35.7506289999999964
20
-13.3567419999999988
11
35.655389999999997
21
-13.2615039999999986
0
LINE
8
BLACK
6
CONTINUOUS
10
35.655389999999997
20
-13.2615039999999986
11
35.4649140000000003
21
-12.9757899999999999
0
LINE
8
BLACK
6
CONTINUOUS
10
35.4649140000000003
20
-12.9757899999999999
11
35.3696759999999983
21
-12.7853139999999996
0
LINE
8
BLACK
6
CONTINUOUS
10
35.3696759999999983
20
-12.7853139999999996
11
35.2744379999999964
21
-12.4995999999999992
0
LINE
8
BLACK
6
CONTINUOUS
10
35.2744379999999964
20
-12.4995999999999992
11
35.1792000000000016
21
-12.0234089999999991
0
LINE
8
BLACK
6
CONTINUOUS
10
35.1792000000000016
20
-12.0234089999999991
11
35.1792000000000016
21
-11.6424570000000003
0
LINE
8
BLACK
6
CONTINUOUS
10
35.1792000000000016
20
-11.6424570000000003
11
35.2744379999999964
21
-11.1662660000000002
0
LINE
8
BLACK
6
CONTINUOUS
10
35.2744379999999964
20
-11.1662660000000002
11
35.3696759999999983
21
-10.8805519999999998
0
LINE
8
BLACK
6
CONTINUOUS
10
35.3696759999999983
20
-10.8805519999999998
11
35.4649140000000003
21
-10.6900759999999995
0
LINE
8
BLACK
6
CONTINUOUS
10
35.4649140000000003
20
-10.6900759999999995
11
35.655389999999997
21
-10.4043609999999997
0
LINE
8
BLACK
6
CONTINUOUS
10
35.655389999999997
20
-10.4043609999999997
11
35.7506289999999964
21
-10.3091229999999996
0
LINE
8
BLACK
6
CONTINUOUS
10
36.3220570000000009
20
-10.5948379999999993
11
37.5601519999999951
21
-10.5948379999999993
0
LINE
8
BLACK
6
CONTINUOUS
10
37.5601519999999951
20
-10.5948379999999993
11
36.8934849999999983
21
-11.3567419999999988
0
LINE
8
BLACK
6
CONTINUOUS
10
36.8934849999999983
20
-11.3567419999999988
11
37.1792000000000016
21
-11.3567419999999988
0
LINE
8
BLACK
6
CONTINUOUS
10
37.1792000000000016
20
-11.3567419999999988
11
37.3696759999999983
21
-11.4519799999999989
0
LINE
8
BLACK
6
CONTINUOUS
10
37.3696759999999983
20
-11.4519799999999989
11
37.4649140000000003
21
-11.5472190000000001
0
LINE
8
BLACK
6
CONTINUOUS
10
37.4649140000000003
20
-11.5472190000000001
11
37.5601519999999951
21
-11.7376949999999987
0
LINE
8
BLACK
6
CONTINUOUS
10
37.5601519999999951
20
-11.7376949999999987
11
37.5601519999999951
21
-12.2138849999999994
0
LINE
8
BLACK
6
CONTINUOUS
10
37.5601519999999951
20
-12.2138849999999994
11
37.4649140000000003
21
-12.4043609999999997
0
LINE
8
BLACK
6
CONTINUOUS
10
37.4649140000000003
20
-12.4043609999999997
11
37.3696759999999983
21
-12.4995999999999992
0
LINE
8
BLACK
6
CONTINUOUS
10
37.3696759999999983
20
-12.4995999999999992
11
37.1792000000000016
21
-12.5948379999999993
0
LINE
8
BLACK
6
CONTINUOUS
10
37.1792000000000016
20
-12.5948379999999993
11
36.6077709999999996
21
-12.5948379999999993
0
LINE
8
BLACK
6
CONTINUOUS
10
36.6077709999999996
20
-12.5948379999999993
11
36.4172949999999958
21
-12.4995999999999992
0
LINE
8
BLACK
6
CONTINUOUS
10
36.4172949999999958
20
-12.4995999999999992
11
36.3220570000000009
21
-12.4043609999999997
0
LINE
8
BLACK
6
CONTINUOUS
10
39.9411050000000003
20
-12.5948379999999993
11
39.9411050000000003
21
-10.5948379999999993
0
LINE
8
BLACK
6
CONTINUOUS
10
40.798248000000001
20
-12.5948379999999993
11
40.798248000000001
21
-11.5472190000000001
0
LINE
8
BLACK
6
CONTINUOUS
10
40.798248000000001
20
-11.5472190000000001
11
40.703009999999999
21
-11.3567419999999988
0
LINE
8
BLACK
6
CONTINUOUS
10
40.703009999999999
20
-11.3567419999999988
11
40.5125339999999952
21
-11.2615039999999986
0
LINE
8
BLACK
6
CONTINUOUS
10
40.5125339999999952
20
-11.2615039999999986
11
40.226818999999999
21
-11.2615039999999986
0
LINE
8
BLACK
6
CONTINUOUS
10
40.226818999999999
20
-11.2615039999999986
11
40.0363429999999951
21
-11.3567419999999988
0
LINE
8
BLACK
6
CONTINUOUS
10
40.0363429999999951
20
-11.3567419999999988
11
39.9411050000000003
21
-11.4519799999999989
0
LINE
8
BLACK
6
CONTINUOUS
10
42.0363429999999951
20
-12.5948379999999993
11
41.8458669999999984
21
-12.4995999999999992
0
LINE
8
BLACK
6
CONTINUOUS
10
41.8458669999999984
20
-12.4995999999999992
11
41.7506289999999964
21
-12.4043609999999997
0
LINE
8
BLACK
6
CONTINUOUS
10
41.7506289999999964
20
-12.4043609999999997
11
41.6553910000000016
21
-12.2138849999999994
0
LINE
8
BLACK
6
CONTINUOUS
10
41.6553910000000016
20
-12.2138849999999994
11
41.6553910000000016
21
-11.6424570000000003
0
LINE
8
BLACK
6
CONTINUOUS
10
41.6553910000000016
20
-11.6424570000000003
11
41.7506289999999964
21
-11.4519799999999989
0
LINE
8
BLACK
6
CONTINUOUS
10
41.7506289999999964
20
-11.4519799999999989
11
41.8458669999999984
21
-11.3567419999999988
0
LINE
8
BLACK
6
CONTINUOUS
10
41.8458669999999984
20
-11.3567419999999988
11
42.0363429999999951
21
-11.2615039999999986
0
LINE
8
BLACK
6
CONTINUOUS
10
42.0363429999999951
20
-11.2615039999999986
11
42.3220579999999984
21
-11.2615039999999986
0
LINE
8
BLACK
6
CONTINUOUS
10
42.3220579999999984
20
-11.2615039999999986
11
42.5125339999999952
21
-11.3567419999999988
0
LINE
8
BLACK
6
CONTINUOUS
10
42.5125339999999952
20
-11.3567419999999988
11
42.6077719999999971
21
-11.4519799999999989
0
LINE
8
BLACK
6
CONTINUOUS
10
42.6077719999999971
20
-11.4519799999999989
11
42.703009999999999
21
-11.6424570000000003
0
LINE
8
BLACK
6
CONTINUOUS
10
42.703009999999999
20
-11.6424570000000003
11
42.703009999999999
21
-12.2138849999999994
0
LINE
8
BLACK
6
CONTINUOUS
10
42.703009999999999
20
-12.2138849999999994
11
42.6077719999999971
21
-12.4043609999999997
0
LINE
8
BLACK
6
CONTINUOUS
10
42.6077719999999971
20
-12.4043609999999997
11
42.5125339999999952
21
-12.4995999999999992
0
LINE
8
BLACK
6
CONTINUOUS
10
42.5125339999999952
20
-12.4995999999999992
11
42.3220579999999984
21
-12.5948379999999993
0
LINE
8
BLACK
6
CONTINUOUS
10
42.3220579999999984
20
-12.5948379999999993
11
42.0363429999999951
21
-12.5948379999999993
0
LINE
8
BLACK
6
CONTINUOUS
10
43.8458669999999984
20
-12.5948379999999993
11
43.6553909999999945
21
-12.4995999999999992
0
LINE
8
BLACK
6
CONTINUOUS
10
43.6553909999999945
20
-12.4995999999999992
11
43.5601529999999997
21
-12.3091229999999996
0
LINE
8
BLACK
6
CONTINUOUS
10
43.5601529999999997
20
-12.3091229999999996
11
43.5601529999999997
21
-10.5948379999999993
0
LINE
8
BLACK
6
CONTINUOUS
10
45.3696769999999958
20
-12.4995999999999992
11
45.1792009999999991
21
-12.5948379999999993
0
LINE
8
BLACK
6
CONTINUOUS
10
45.1792009999999991
20
-12.5948379999999993
11
44.798248000000001
21
-12.5948379999999993
0
LINE
8
BLACK
6
CONTINUOUS
10
44.798248000000001
20
-12.5948379999999993
11
44.6077719999999971
21
-12.4995999999999992
0
LINE
8
BLACK
6
CONTINUOUS
10
44.6077719999999971
20
-12.4995999999999992
11
44.5125339999999952
21
-12.3091229999999996
0
LINE
8
BLACK
6
CONTINUOUS
10
44.5125339999999952
20
-12.3091229999999996
11
44.5125339999999952
21
-11.5472190000000001
0
LINE
8
BLACK
6
CONTINUOUS
10
44.5125339999999952
20
-11.5472190000000001
11
44.6077719999999971
21
-11.3567419999999988
0
LINE
8
BLACK
6
CONTINUOUS
10
44.6077719999999971
20
-11.3567419999999988
11
44.798248000000001
21
-11.2615039999999986
0
LINE
8
BLACK
6
CONTINUOUS
10
44.798248000000001
20
-11.2615039999999986
11
45.1792009999999991
21
-11.2615039999999986
0
LINE
8
BLACK
6
CONTINUOUS
10
45.1792009999999991
20
-11.2615039999999986
11
45.3696769999999958
21
-11.3567419999999988
0
LINE
8
BLACK
6
CONTINUOUS
10
45.3696769999999958
20
-11.3567419999999988
11
45.4649149999999977
21
-11.5472190000000001
0
LINE
8
BLACK
6
CONTINUOUS
10
45.4649149999999977
20
-11.5472190000000001
11
45.4649149999999977
21
-11.7376949999999987
0
LINE
8
BLACK
6
CONTINUOUS
10
45.4649149999999977
20
-11.7376949999999987
11
44.5125339999999952
21
-11.928170999999999
0
LINE
8
BLACK
6
CONTINUOUS
10
46.2268199999999965
20
-12.4995999999999992
11
46.4172960000000003
21
-12.5948379999999993
0
LINE
8
BLACK
6
CONTINUOUS
10
46.4172960000000003
20
-12.5948379999999993
11
46.798248000000001
21
-12.5948379999999993
0
LINE
8
BLACK
6
CONTINUOUS
10
46.798248000000001
20
-12.5948379999999993
11
46.9887249999999952
21
-12.4995999999999992
0
LINE
8
BLACK
6
CONTINUOUS
10
46.9887249999999952
20
-12.4995999999999992
11
47.0839629999999971
21
-12.3091229999999996
0
LINE
8
BLACK
6
CONTINUOUS
10
47.0839629999999971
20
-12.3091229999999996
11
47.0839629999999971
21
-12.2138849999999994
0
LINE
8
BLACK
6
CONTINUOUS
10
47.0839629999999971
20
-12.2138849999999994
11
46.9887249999999952
21
-12.0234089999999991
0
LINE
8
BLACK
6
CONTINUOUS
10
46.9887249999999952
20
-12.0234089999999991
11
46.798248000000001
21
-11.928170999999999
0
LINE
8
BLACK
6
CONTINUOUS
10
46.798248000000001
20
-11.928170999999999
11
46.5125339999999952
21
-11.928170999999999
0
LINE
8
BLACK
6
CONTINUOUS
10
46.5125339999999952
20
-11.928170999999999
11
46.3220579999999984
21
-11.8329329999999988
0
LINE
8
BLACK
6
CONTINUOUS
10
46.3220579999999984
20
-11.8329329999999988
11
46.2268199999999965
21
-11.6424570000000003
0
LINE
8
BLACK
6
CONTINUOUS
10
46.2268199999999965
20
-11.6424570000000003
11
46.2268199999999965
21
-11.5472190000000001
0
LINE
8
BLACK
6
CONTINUOUS
10
46.2268199999999965
20
-11.5472190000000001
11
46.3220579999999984
21
-11.3567419999999988
0
LINE
8
BLACK
6
CONTINUOUS
10
46.3220579999999984
20
-11.3567419999999988
11
46.5125339999999952
21
-11.2615039999999986
0
LINE
8
BLACK
6
CONTINUOUS
10
46.5125339999999952
20
-11.2615039999999986
11
46.798248000000001
21
-11.2615039999999986
0
LINE
8
BLACK
6
CONTINUOUS
10
46.798248000000001
20
-11.2615039999999986
11
46.9887249999999952
21
-11.3567419999999988
0
LINE
8
BLACK
6
CONTINUOUS
10
47.750630000000001
20
-13.3567419999999988
11
47.8458679999999958
21
-13.2615039999999986
0
LINE
8
BLACK
6
CONTINUOUS
10
47.8458679999999958
20
-13.2615039999999986
11
48.0363439999999997
21
-12.9757899999999999
0
LINE
8
BLACK
6
CONTINUOUS
10
48.0363439999999997
20
-12.9757899999999999
11
48.1315819999999945
21
-12.7853139999999996
0
LINE
8
BLACK
6
CONTINUOUS
10
48.1315819999999945
20
-12.7853139999999996
11
48.2268199999999965
21
-12.4995999999999992
0
LINE
8
BLACK
6
CONTINUOUS
10
48.2268199999999965
20
-12.4995999999999992
11
48.3220579999999984
21
-12.0234089999999991
0
LINE
8
BLACK
6
CONTINUOUS
10
48.3220579999999984
20
-12.0234089999999991
11
48.3220579999999984
21
-11.6424570000000003
0
LINE
8
BLACK
6
CONTINUOUS
10
48.3220579999999984
20
-11.6424570000000003
11
48.2268199999999965
21
-11.1662660000000002
0
LINE
8
BLACK
6
CONTINUOUS
10
48.2268199999999965
20
-11.1662660000000002
11
48.1315819999999945
21
-10.8805519999999998
0
LINE
8
BLACK
6
CONTINUOUS
10
48.1315819999999945
20
-10.8805519999999998
11
48.0363439999999997
21
-10.6900759999999995
0
LINE
8
BLACK
6
CONTINUOUS
10
48.0363439999999997
20
-10.6900759999999995
11
47.8458679999999958
21
-10.4043609999999997
0
LINE
8
BLACK
6
CONTINUOUS
10
47.8458679999999958
20
-10.4043609999999997
11
47.750630000000001
21
-10.3091229999999996
0
LINE
8
BLACK
6
CONTINUOUS
10
-0.146443
20
-14.6735569999999989
11
-0.146443
21
-13.9664429999999999
0
LINE
8
BLACK
6
CONTINUOUS
10
-0.146443
20
-13.9664429999999999
11
-0.853557
21
-13.9664429999999999
0
LINE
8
BLACK
6
CONTINUOUS
10
-0.853557
20
-13.9664429999999999
11
-0.853557
21
-14.6735569999999989
0
LINE
8
BLACK
6
CONTINUOUS
10
-0.853557
20
-14.6735569999999989
11
-0.146443
21
-14.6735569999999989
0
LINE
8
BLACK
6
CONTINUOUS
10
3.6553869999999997
20
-15.2348379999999999
11
2.5125299999999999
21
-15.2348379999999999
0
LINE
8
BLACK
6
CONTINUOUS
10
3.083958
20
-15.2348379999999999
11
3.083958
21
-13.2348379999999999
0
LINE
8
BLACK
6
CONTINUOUS
10
3.083958
20
-13.2348379999999999
11
2.8934819999999997
21
-13.5205519999999986
0
LINE
8
BLACK
6
CONTINUOUS
10
2.8934819999999997
20
-13.5205519999999986
11
2.7030059999999998
21
-13.7110279999999989
0
LINE
8
BLACK
6
CONTINUOUS
10
2.7030059999999998
20
-13.7110279999999989
11
2.5125299999999999
21
-13.806265999999999
0
LINE
8
BLACK
6
CONTINUOUS
10
4.5125299999999999
20
-15.0443609999999985
11
4.6077680000000001
21
-15.1395999999999997
0
LINE
8
BLACK
6
CONTINUOUS
10
4.6077680000000001
20
-15.1395999999999997
11
4.5125299999999999
21
-15.2348379999999999
0
LINE
8
BLACK
6
CONTINUOUS
10
4.5125299999999999
20
-15.2348379999999999
11
4.4172919999999998
21
-15.1395999999999997
0
LINE
8
BLACK
6
CONTINUOUS
10
4.4172919999999998
20
-15.1395999999999997
11
4.5125299999999999
21
-15.0443609999999985
0
LINE
8
BLACK
6
CONTINUOUS
10
4.5125299999999999
20
-15.0443609999999985
11
4.5125299999999999
21
-15.2348379999999999
0
LINE
8
BLACK
6
CONTINUOUS
10
5.8458629999999996
20
-13.2348379999999999
11
6.03634
21
-13.2348379999999999
0
LINE
8
BLACK
6
CONTINUOUS
10
6.03634
20
-13.2348379999999999
11
6.2268159999999995
21
-13.330076
0
LINE
8
BLACK
6
CONTINUOUS
10
6.2268159999999995
20
-13.330076
11
6.3220539999999996
21
-13.4253140000000002
0
LINE
8
BLACK
6
CONTINUOUS
10
6.3220539999999996
20
-13.4253140000000002
11
6.4172919999999998
21
-13.6157899999999987
0
LINE
8
BLACK
6
CONTINUOUS
10
6.4172919999999998
20
-13.6157899999999987
11
6.5125299999999999
21
-13.9967419999999994
0
LINE
8
BLACK
6
CONTINUOUS
10
6.5125299999999999
20
-13.9967419999999994
11
6.5125299999999999
21
-14.4729329999999994
0
LINE
8
BLACK
6
CONTINUOUS
10
6.5125299999999999
20
-14.4729329999999994
11
6.4172919999999998
21
-14.853885
0
LINE
8
BLACK
6
CONTINUOUS
10
6.4172919999999998
20
-14.853885
11
6.3220539999999996
21
-15.0443609999999985
0
LINE
8
BLACK
6
CONTINUOUS
10
6.3220539999999996
20
-15.0443609999999985
11
6.2268159999999995
21
-15.1395999999999997
0
LINE
8
BLACK
6
CONTINUOUS
10
6.2268159999999995
20
-15.1395999999999997
11
6.03634
21
-15.2348379999999999
0
LINE
8
BLACK
6
CONTINUOUS
10
6.03634
20
-15.2348379999999999
11
5.8458629999999996
21
-15.2348379999999999
0
LINE
8
BLACK
6
CONTINUOUS
10
5.8458629999999996
20
-15.2348379999999999
11
5.6553870000000002
21
-15.1395999999999997
0
LINE
8
BLACK
6
CONTINUOUS
10
5.6553870000000002
20
-15.1395999999999997
11
5.560149
21
-15.0443609999999985
0
LINE
8
BLACK
6
CONTINUOUS
10
5.560149
20
-15.0443609999999985
11
5.4649109999999999
21
-14.853885
0
LINE
8
BLACK
6
CONTINUOUS
10
5.4649109999999999
20
-14.853885
11
5.3696729999999997
21
-14.4729329999999994
0
LINE
8
BLACK
6
CONTINUOUS
10
5.3696729999999997
20
-14.4729329999999994
11
5.3696729999999997
21
-13.9967419999999994
0
LINE
8
BLACK
6
CONTINUOUS
10
5.3696729999999997
20
-13.9967419999999994
11
5.4649109999999999
21
-13.6157899999999987
0
LINE
8
BLACK
6
CONTINUOUS
10
5.4649109999999999
20
-13.6157899999999987
11
5.560149
21
-13.4253140000000002
0
LINE
8
BLACK
6
CONTINUOUS
10
5.560149
20
-13.4253140000000002
11
5.6553870000000002
21
-13.330076
0
LINE
8
BLACK
6
CONTINUOUS
10
5.6553870000000002
20
-13.330076
11
5.8458629999999996
21
-13.2348379999999999
0
LINE
8
BLACK
6
CONTINUOUS
10
7.7506249999999994
20
-13.2348379999999999
11
7.9411019999999999
21
-13.2348379999999999
0
LINE
8
BLACK
6
CONTINUOUS
10
7.9411019999999999
20
-13.2348379999999999
11
8.1315779999999993
21
-13.330076
0
LINE
8
BLACK
6
CONTINUOUS
10
8.1315779999999993
20
-13.330076
11
8.2268159999999995
21
-13.4253140000000002
0
LINE
8
BLACK
6
CONTINUOUS
10
8.2268159999999995
20
-13.4253140000000002
11
8.3220539999999996
21
-13.6157899999999987
0
LINE
8
BLACK
6
CONTINUOUS
10
8.3220539999999996
20
-13.6157899999999987
11
8.4172919999999998
21
-13.9967419999999994
0
LINE
8
BLACK
6
CONTINUOUS
10
8.4172919999999998
20
-13.9967419999999994
11
8.4172919999999998
21
-14.4729329999999994
0
LINE
8
BLACK
6
CONTINUOUS
10
8.4172919999999998
20
-14.4729329999999994
11
8.3220539999999996
21
-14.853885
0
LINE
8
BLACK
6
CONTINUOUS
10
8.3220539999999996
20
-14.853885
11
8.2268159999999995
21
-15.0443609999999985
0
LINE
8
BLACK
6
CONTINUOUS
10
8.2268159999999995
20
-15.0443609999999985
11
8.1315779999999993
21
-15.1395999999999997
0
LINE
8
BLACK
6
CONTINUOUS
10
8.1315779999999993
20
-15.1395999999999997
11
7.9411019999999999
21
-15.2348379999999999
0
LINE
8
BLACK
6
CONTINUOUS
10
7.9411019999999999
20
-15.2348379999999999
11
7.7506249999999994
21
-15.2348379999999999
0
LINE
8
BLACK
6
CONTINUOUS
10
7.7506249999999994
20
-15.2348379999999999
11
7.560149
21
-15.1395999999999997
0
LINE
8
BLACK
6
CONTINUOUS
10
7.560149
20
-15.1395999999999997
11
7.4649109999999999
21
-15.0443609999999985
0
LINE
8
BLACK
6
CONTINUOUS
10
7.4649109999999999
20
-15.0443609999999985
11
7.3696729999999997
21
-14.853885
0
LINE
8
BLACK
6
CONTINUOUS
10
7.3696729999999997
20
-14.853885
11
7.2744349999999995
21
-14.4729329999999994
0
LINE
8
BLACK
6
CONTINUOUS
10
7.2744349999999995
20
-14.4729329999999994
11
7.2744349999999995
21
-13.9967419999999994
0
LINE
8
BLACK
6
CONTINUOUS
10
7.2744349999999995
20
-13.9967419999999994
11
7.3696729999999997
21
-13.6157899999999987
0
LINE
8
BLACK
6
CONTINUOUS
10
7.3696729999999997
20
-13.6157899999999987
11
7.4649109999999999
21
-13.4253140000000002
0
LINE
8
BLACK
6
CONTINUOUS
10
7.4649109999999999
20
-13.4253140000000002
11
7.560149
21
-13.330076
0
LINE
8
BLACK
6
CONTINUOUS
10
7.560149
20
-13.330076
11
7.7506249999999994
21
-13.2348379999999999
0
LINE
8
BLACK
6
CONTINUOUS
10
9.6553869999999993
20
-13.2348379999999999
11
9.8458639999999988
21
-13.2348379999999999
0
LINE
8
BLACK
6
CONTINUOUS
10
9.8458639999999988
20
-13.2348379999999999
11
10.0363399999999992
21
-13.330076
0
LINE
8
BLACK
6
CONTINUOUS
10
10.0363399999999992
20
-13.330076
11
10.1315779999999993
21
-13.4253140000000002
0
LINE
8
BLACK
6
CONTINUOUS
10
10.1315779999999993
20
-13.4253140000000002
11
10.2268159999999995
21
-13.6157899999999987
0
LINE
8
BLACK
6
CONTINUOUS
10
10.2268159999999995
20
-13.6157899999999987
11
10.3220539999999996
21
-13.9967419999999994
0
LINE
8
BLACK
6
CONTINUOUS
10
10.3220539999999996
20
-13.9967419999999994
11
10.3220539999999996
21
-14.4729329999999994
0
LINE
8
BLACK
6
CONTINUOUS
10
10.3220539999999996
20
-14.4729329999999994
11
10.2268159999999995
21
-14.853885
0
LINE
8
BLACK
6
CONTINUOUS
10
10.2268159999999995
20
-14.853885
11
10.1315779999999993
21
-15.0443609999999985
0
LINE
8
BLACK
6
CONTINUOUS
10
10.1315779999999993
20
-15.0443609999999985
11
10.0363399999999992
21
-15.1395999999999997
0
LINE
8
BLACK
6
CONTINUOUS
10
10.0363399999999992
20
-15.1395999999999997
11
9.8458639999999988
21
-15.2348379999999999
0
LINE
8
BLACK
6
CONTINUOUS
10
9.8458639999999988
20
-15.2348379999999999
11
9.6553869999999993
21
-15.2348379999999999
0
LINE
8
BLACK
6
CONTINUOUS
10
9.6553869999999993
20
-15.2348379999999999
11
9.464910999999999
21
-15.1395999999999997
0
LINE
8
BLACK
6
CONTINUOUS
10
9.464910999999999
20
-15.1395999999999997
11
9.3696729999999988
21
-15.0443609999999985
0
LINE
8
BLACK
6
CONTINUOUS
10
9.3696729999999988
20
-15.0443609999999985
11
9.2744350000000004
21
-14.853885
0
LINE
8
BLACK
6
CONTINUOUS
10
9.2744350000000004
20
-14.853885
11
9.1791970000000003
21
-14.4729329999999994
0
LINE
8
BLACK
6
CONTINUOUS
10
9.1791970000000003
20
-14.4729329999999994
11
9.1791970000000003
21
-13.9967419999999994
0
LINE
8
BLACK
6
CONTINUOUS
10
9.1791970000000003
20
-13.9967419999999994
11
9.2744350000000004
21
-13.6157899999999987
0
LINE
8
BLACK
6
CONTINUOUS
10
9.2744350000000004
20
-13.6157899999999987
11
9.3696729999999988
21
-13.4253140000000002
0
LINE
8
BLACK
6
CONTINUOUS
10
9.3696729999999988
20
-13.4253140000000002
11
9.464910999999999
21
-13.330076
0
LINE
8
BLACK
6
CONTINUOUS
10
9.464910999999999
20
-13.330076
11
9.6553869999999993
21
-13.2348379999999999
0
LINE
8
BLACK
6
CONTINUOUS
10
11.1791970000000003
20
-15.2348379999999999
11
11.1791970000000003
21
-13.9015039999999992
0
LINE
8
BLACK
6
CONTINUOUS
10
11.1791970000000003
20
-14.0919799999999995
11
11.2744349999999987
21
-13.9967419999999994
0
LINE
8
BLACK
6
CONTINUOUS
10
11.2744349999999987
20
-13.9967419999999994
11
11.464910999999999
21
-13.9015039999999992
0
LINE
8
BLACK
6
CONTINUOUS
10
11.464910999999999
20
-13.9015039999999992
11
11.7506259999999987
21
-13.9015039999999992
0
LINE
8
BLACK
6
CONTINUOUS
10
11.7506259999999987
20
-13.9015039999999992
11
11.941101999999999
21
-13.9967419999999994
0
LINE
8
BLACK
6
CONTINUOUS
10
11.941101999999999
20
-13.9967419999999994
11
12.0363399999999992
21
-14.1872189999999989
0
LINE
8
BLACK
6
CONTINUOUS
10
12.0363399999999992
20
-14.1872189999999989
11
12.0363399999999992
21
-15.2348379999999999
0
LINE
8
BLACK
6
CONTINUOUS
10
12.0363399999999992
20
-14.1872189999999989
11
12.1315779999999993
21
-13.9967419999999994
0
LINE
8
BLACK
6
CONTINUOUS
10
12.1315779999999993
20
-13.9967419999999994
11
12.3220539999999996
21
-13.9015039999999992
0
LINE
8
BLACK
6
CONTINUOUS
10
12.3220539999999996
20
-13.9015039999999992
11
12.6077680000000001
21
-13.9015039999999992
0
LINE
8
BLACK
6
CONTINUOUS
10
12.6077680000000001
20
-13.9015039999999992
11
12.7982449999999996
21
-13.9967419999999994
0
LINE
8
BLACK
6
CONTINUOUS
10
12.7982449999999996
20
-13.9967419999999994
11
12.8934829999999998
21
-14.1872189999999989
0
LINE
8
BLACK
6
CONTINUOUS
10
12.8934829999999998
20
-14.1872189999999989
11
12.8934829999999998
21
-15.2348379999999999
0
LINE
8
BLACK
6
CONTINUOUS
10
13.8458639999999988
20
-15.2348379999999999
11
13.8458639999999988
21
-13.9015039999999992
0
LINE
8
BLACK
6
CONTINUOUS
10
13.8458639999999988
20
-14.0919799999999995
11
13.941101999999999
21
-13.9967419999999994
0
LINE
8
BLACK
6
CONTINUOUS
10
13.941101999999999
20
-13.9967419999999994
11
14.1315779999999993
21
-13.9015039999999992
0
LINE
8
BLACK
6
CONTINUOUS
10
14.1315779999999993
20
-13.9015039999999992
11
14.417292999999999
21
-13.9015039999999992
0
LINE
8
BLACK
6
CONTINUOUS
10
14.417292999999999
20
-13.9015039999999992
11
14.6077689999999993
21
-13.9967419999999994
0
LINE
8
BLACK
6
CONTINUOUS
10
14.6077689999999993
20
-13.9967419999999994
11
14.7030069999999995
21
-14.1872189999999989
0
LINE
8
BLACK
6
CONTINUOUS
10
14.7030069999999995
20
-14.1872189999999989
11
14.7030069999999995
21
-15.2348379999999999
0
LINE
8
BLACK
6
CONTINUOUS
10
14.7030069999999995
20
-14.1872189999999989
11
14.7982449999999996
21
-13.9967419999999994
0
LINE
8
BLACK
6
CONTINUOUS
10
14.7982449999999996
20
-13.9967419999999994
11
14.988721
21
-13.9015039999999992
0
LINE
8
BLACK
6
CONTINUOUS
10
14.988721
20
-13.9015039999999992
11
15.2744349999999987
21
-13.9015039999999992
0
LINE
8
BLACK
6
CONTINUOUS
10
15.2744349999999987
20
-13.9015039999999992
11
15.464912
21
-13.9967419999999994
0
LINE
8
BLACK
6
CONTINUOUS
10
15.464912
20
-13.9967419999999994
11
15.5601500000000001
21
-14.1872189999999989
0
LINE
8
BLACK
6
CONTINUOUS
10
15.5601500000000001
20
-14.1872189999999989
11
15.5601500000000001
21
-15.2348379999999999
0
LINE
8
BLACK
6
CONTINUOUS
10
19.4649119999999982
20
-13.1395999999999997
11
17.7506269999999979
21
-15.7110279999999989
0
LINE
8
BLACK
6
CONTINUOUS
10
22.0363410000000002
20
-13.2348379999999999
11
22.226817999999998
21
-13.2348379999999999
0
LINE
8
BLACK
6
CONTINUOUS
10
22.226817999999998
20
-13.2348379999999999
11
22.4172939999999983
21
-13.330076
0
LINE
8
BLACK
6
CONTINUOUS
10
22.4172939999999983
20
-13.330076
11
22.5125320000000002
21
-13.4253140000000002
0
LINE
8
BLACK
6
CONTINUOUS
10
22.5125320000000002
20
-13.4253140000000002
11
22.6077699999999986
21
-13.6157899999999987
0
LINE
8
BLACK
6
CONTINUOUS
10
22.6077699999999986
20
-13.6157899999999987
11
22.7030080000000005
21
-13.9967419999999994
0
LINE
8
BLACK
6
CONTINUOUS
10
22.7030080000000005
20
-13.9967419999999994
11
22.7030080000000005
21
-14.4729329999999994
0
LINE
8
BLACK
6
CONTINUOUS
10
22.7030080000000005
20
-14.4729329999999994
11
22.6077699999999986
21
-14.853885
0
LINE
8
BLACK
6
CONTINUOUS
10
22.6077699999999986
20
-14.853885
11
22.5125320000000002
21
-15.0443609999999985
0
LINE
8
BLACK
6
CONTINUOUS
10
22.5125320000000002
20
-15.0443609999999985
11
22.4172939999999983
21
-15.1395999999999997
0
LINE
8
BLACK
6
CONTINUOUS
10
22.4172939999999983
20
-15.1395999999999997
11
22.226817999999998
21
-15.2348379999999999
0
LINE
8
BLACK
6
CONTINUOUS
10
22.226817999999998
20
-15.2348379999999999
11
22.0363410000000002
21
-15.2348379999999999
0
LINE
8
BLACK
6
CONTINUOUS
10
22.0363410000000002
20
-15.2348379999999999
11
21.8458649999999999
21
-15.1395999999999997
0
LINE
8
BLACK
6
CONTINUOUS
10
21.8458649999999999
20
-15.1395999999999997
11
21.7506269999999979
21
-15.0443609999999985
0
LINE
8
BLACK
6
CONTINUOUS
10
21.7506269999999979
20
-15.0443609999999985
11
21.6553889999999996
21
-14.853885
0
LINE
8
BLACK
6
CONTINUOUS
10
21.6553889999999996
20
-14.853885
11
21.5601509999999976
21
-14.4729329999999994
0
LINE
8
BLACK
6
CONTINUOUS
10
21.5601509999999976
20
-14.4729329999999994
11
21.5601509999999976
21
-13.9967419999999994
0
LINE
8
BLACK
6
CONTINUOUS
10
21.5601509999999976
20
-13.9967419999999994
11
21.6553889999999996
21
-13.6157899999999987
0
LINE
8
BLACK
6
CONTINUOUS
10
21.6553889999999996
20
-13.6157899999999987
11
21.7506269999999979
21
-13.4253140000000002
0
LINE
8
BLACK
6
CONTINUOUS
10
21.7506269999999979
20
-13.4253140000000002
11
21.8458649999999999
21
-13.330076
0
LINE
8
BLACK
6
CONTINUOUS
10
21.8458649999999999
20
-13.330076
11
22.0363410000000002
21
-13.2348379999999999
0
LINE
8
BLACK
6
CONTINUOUS
10
23.5601509999999976
20
-15.0443609999999985
11
23.6553889999999996
21
-15.1395999999999997
0
LINE
8
BLACK
6
CONTINUOUS
10
23.6553889999999996
20
-15.1395999999999997
11
23.5601509999999976
21
-15.2348379999999999
0
LINE
8
BLACK
6
CONTINUOUS
10
23.5601509999999976
20
-15.2348379999999999
11
23.4649129999999992
21
-15.1395999999999997
0
LINE
8
BLACK
6
CONTINUOUS
10
23.4649129999999992
20
-15.1395999999999997
11
23.5601509999999976
21
-15.0443609999999985
0
LINE
8
BLACK
6
CONTINUOUS
10
23.5601509999999976
20
-15.0443609999999985
11
23.5601509999999976
21
-15.2348379999999999
0
LINE
8
BLACK
6
CONTINUOUS
10
24.8934839999999973
20
-13.2348379999999999
11
25.0839609999999986
21
-13.2348379999999999
0
LINE
8
BLACK
6
CONTINUOUS
10
25.0839609999999986
20
-13.2348379999999999
11
25.2744369999999989
21
-13.330076
0
LINE
8
BLACK
6
CONTINUOUS
10
25.2744369999999989
20
-13.330076
11
25.3696749999999973
21
-13.4253140000000002
0
LINE
8
BLACK
6
CONTINUOUS
10
25.3696749999999973
20
-13.4253140000000002
11
25.4649129999999992
21
-13.6157899999999987
0
LINE
8
BLACK
6
CONTINUOUS
10
25.4649129999999992
20
-13.6157899999999987
11
25.5601509999999976
21
-13.9967419999999994
0
LINE
8
BLACK
6
CONTINUOUS
10
25.5601509999999976
20
-13.9967419999999994
11
25.5601509999999976
21
-14.4729329999999994
0
LINE
8
BLACK
6
CONTINUOUS
10
25.5601509999999976
20
-14.4729329999999994
11
25.4649129999999992
21
-14.853885
0
LINE
8
BLACK
6
CONTINUOUS
10
25.4649129999999992
20
-14.853885
11
25.3696749999999973
21
-15.0443609999999985
0
LINE
8
BLACK
6
CONTINUOUS
10
25.3696749999999973
20
-15.0443609999999985
11
25.2744369999999989
21
-15.1395999999999997
0
LINE
8
BLACK
6
CONTINUOUS
10
25.2744369999999989
20
-15.1395999999999997
11
25.0839609999999986
21
-15.2348379999999999
0
LINE
8
BLACK
6
CONTINUOUS
10
25.0839609999999986
20
-15.2348379999999999
11
24.8934839999999973
21
-15.2348379999999999
0
LINE
8
BLACK
6
CONTINUOUS
10
24.8934839999999973
20
-15.2348379999999999
11
24.7030080000000005
21
-15.1395999999999997
0
LINE
8
BLACK
6
CONTINUOUS
10
24.7030080000000005
20
-15.1395999999999997
11
24.6077699999999986
21
-15.0443609999999985
0
LINE
8
BLACK
6
CONTINUOUS
10
24.6077699999999986
20
-15.0443609999999985
11
24.5125320000000002
21
-14.853885
0
LINE
8
BLACK
6
CONTINUOUS
10
24.5125320000000002
20
-14.853885
11
24.4172939999999983
21
-14.4729329999999994
0
LINE
8
BLACK
6
CONTINUOUS
10
24.4172939999999983
20
-14.4729329999999994
11
24.4172939999999983
21
-13.9967419999999994
0
LINE
8
BLACK
6
CONTINUOUS
10
24.4172939999999983
20
-13.9967419999999994
11
24.5125320000000002
21
-13.6157899999999987
0
LINE
8
BLACK
6
CONTINUOUS
10
24.5125320000000002
20
-13.6157899999999987
11
24.6077699999999986
21
-13.4253140000000002
0
LINE
8
BLACK
6
CONTINUOUS
10
24.6077699999999986
20
-13.4253140000000002
11
24.7030080000000005
21
-13.330076
0
LINE
8
BLACK
6
CONTINUOUS
10
24.7030080000000005
20
-13.330076
11
24.8934839999999973
21
-13.2348379999999999
0
LINE
8
BLACK
6
CONTINUOUS
10
26.226817999999998
20
-13.2348379999999999
11
27.4649129999999992
21
-13.2348379999999999
0
LINE
8
BLACK
6
CONTINUOUS
10
27.4649129999999992
20
-13.2348379999999999
11
26.7982459999999989
21
-13.9967419999999994
0
LINE
8
BLACK
6
CONTINUOUS
10
26.7982459999999989
20
-13.9967419999999994
11
27.0839609999999986
21
-13.9967419999999994
0
LINE
8
BLACK
6
CONTINUOUS
10
27.0839609999999986
20
-13.9967419999999994
11
27.2744369999999989
21
-14.0919799999999995
0
LINE
8
BLACK
6
CONTINUOUS
10
27.2744369999999989
20
-14.0919799999999995
11
27.3696749999999973
21
-14.1872189999999989
0
LINE
8
BLACK
6
CONTINUOUS
10
27.3696749999999973
20
-14.1872189999999989
11
27.4649129999999992
21
-14.3776949999999992
0
LINE
8
BLACK
6
CONTINUOUS
10
27.4649129999999992
20
-14.3776949999999992
11
27.4649129999999992
21
-14.853885
0
LINE
8
BLACK
6
CONTINUOUS
10
27.4649129999999992
20
-14.853885
11
27.3696749999999973
21
-15.0443609999999985
0
LINE
8
BLACK
6
CONTINUOUS
10
27.3696749999999973
20
-15.0443609999999985
11
27.2744369999999989
21
-15.1395999999999997
0
LINE
8
BLACK
6
CONTINUOUS
10
27.2744369999999989
20
-15.1395999999999997
11
27.0839609999999986
21
-15.2348379999999999
0
LINE
8
BLACK
6
CONTINUOUS
10
27.0839609999999986
20
-15.2348379999999999
11
26.5125320000000002
21
-15.2348379999999999
0
LINE
8
BLACK
6
CONTINUOUS
10
26.5125320000000002
20
-15.2348379999999999
11
26.3220559999999999
21
-15.1395999999999997
0
LINE
8
BLACK
6
CONTINUOUS
10
26.3220559999999999
20
-15.1395999999999997
11
26.226817999999998
21
-15.0443609999999985
0
LINE
8
BLACK
6
CONTINUOUS
10
28.4172939999999983
20
-15.2348379999999999
11
28.7982459999999989
21
-15.2348379999999999
0
LINE
8
BLACK
6
CONTINUOUS
10
28.7982459999999989
20
-15.2348379999999999
11
28.9887230000000002
21
-15.1395999999999997
0
LINE
8
BLACK
6
CONTINUOUS
10
28.9887230000000002
20
-15.1395999999999997
11
29.0839609999999986
21
-15.0443609999999985
0
LINE
8
BLACK
6
CONTINUOUS
10
29.0839609999999986
20
-15.0443609999999985
11
29.2744369999999989
21
-14.7586469999999998
0
LINE
8
BLACK
6
CONTINUOUS
10
29.2744369999999989
20
-14.7586469999999998
11
29.3696749999999973
21
-14.3776949999999992
0
LINE
8
BLACK
6
CONTINUOUS
10
29.3696749999999973
20
-14.3776949999999992
11
29.3696749999999973
21
-13.6157899999999987
0
LINE
8
BLACK
6
CONTINUOUS
10
29.3696749999999973
20
-13.6157899999999987
11
29.2744369999999989
21
-13.4253140000000002
0
LINE
8
BLACK
6
CONTINUOUS
10
29.2744369999999989
20
-13.4253140000000002
11
29.179198999999997
21
-13.330076
0
LINE
8
BLACK
6
CONTINUOUS
10
29.179198999999997
20
-13.330076
11
28.9887230000000002
21
-13.2348379999999999
0
LINE
8
BLACK
6
CONTINUOUS
10
28.9887230000000002
20
-13.2348379999999999
11
28.6077699999999986
21
-13.2348379999999999
0
LINE
8
BLACK
6
CONTINUOUS
10
28.6077699999999986
20
-13.2348379999999999
11
28.4172939999999983
21
-13.330076
0
LINE
8
BLACK
6
CONTINUOUS
10
28.4172939999999983
20
-13.330076
11
28.3220559999999999
21
-13.4253140000000002
0
LINE
8
BLACK
6
CONTINUOUS
10
28.3220559999999999
20
-13.4253140000000002
11
28.226817999999998
21
-13.6157899999999987
0
LINE
8
BLACK
6
CONTINUOUS
10
28.226817999999998
20
-13.6157899999999987
11
28.226817999999998
21
-14.0919799999999995
0
LINE
8
BLACK
6
CONTINUOUS
10
28.226817999999998
20
-14.0919799999999995
11
28.3220559999999999
21
-14.2824569999999991
0
LINE
8
BLACK
6
CONTINUOUS
10
28.3220559999999999
20
-14.2824569999999991
11
28.4172939999999983
21
-14.3776949999999992
0
LINE
8
BLACK
6
CONTINUOUS
10
28.4172939999999983
20
-14.3776949999999992
11
28.6077699999999986
21
-14.4729329999999994
0
LINE
8
BLACK
6
CONTINUOUS
10
28.6077699999999986
20
-14.4729329999999994
11
28.9887230000000002
21
-14.4729329999999994
0
LINE
8
BLACK
6
CONTINUOUS
10
28.9887230000000002
20
-14.4729329999999994
11
29.179198999999997
21
-14.3776949999999992
0
LINE
8
BLACK
6
CONTINUOUS
10
29.179198999999997
20
-14.3776949999999992
11
29.2744369999999989
21
-14.2824569999999991
0
LINE
8
BLACK
6
CONTINUOUS
10
29.2744369999999989
20
-14.2824569999999991
11
29.3696749999999973
21
-14.0919799999999995
0
LINE
8
BLACK
6
CONTINUOUS
10
31.0839609999999986
20
-13.9015039999999992
11
31.0839609999999986
21
-15.2348379999999999
0
LINE
8
BLACK
6
CONTINUOUS
10
30.6077699999999986
20
-13.1395999999999997
11
30.1315799999999996
21
-14.5681709999999995
0
LINE
8
BLACK
6
CONTINUOUS
10
30.1315799999999996
20
-14.5681709999999995
11
31.3696749999999973
21
-14.5681709999999995
0
LINE
8
BLACK
6
CONTINUOUS
10
32.0363419999999977
20
-13.2348379999999999
11
32.0363419999999977
21
-13.6157899999999987
0
LINE
8
BLACK
6
CONTINUOUS
10
32.7982469999999964
20
-13.2348379999999999
11
32.7982469999999964
21
-13.6157899999999987
0
LINE
8
BLACK
6
CONTINUOUS
10
35.7506289999999964
20
-15.9967419999999994
11
35.655389999999997
21
-15.9015039999999992
0
LINE
8
BLACK
6
CONTINUOUS
10
35.655389999999997
20
-15.9015039999999992
11
35.4649140000000003
21
-15.6157899999999987
0
LINE
8
BLACK
6
CONTINUOUS
10
35.4649140000000003
20
-15.6157899999999987
11
35.3696759999999983
21
-15.4253139999999984
0
LINE
8
BLACK
6
CONTINUOUS
10
35.3696759999999983
20
-15.4253139999999984
11
35.2744379999999964
21
-15.1395999999999997
0
LINE
8
BLACK
6
CONTINUOUS
10
35.2744379999999964
20
-15.1395999999999997
11
35.1792000000000016
21
-14.6634089999999997
0
LINE
8
BLACK
6
CONTINUOUS
10
35.1792000000000016
20
-14.6634089999999997
11
35.1792000000000016
21
-14.2824569999999991
0
LINE
8
BLACK
6
CONTINUOUS
10
35.1792000000000016
20
-14.2824569999999991
11
35.2744379999999964
21
-13.806265999999999
0
LINE
8
BLACK
6
CONTINUOUS
10
35.2744379999999964
20
-13.806265999999999
11
35.3696759999999983
21
-13.5205519999999986
0
LINE
8
BLACK
6
CONTINUOUS
10
35.3696759999999983
20
-13.5205519999999986
11
35.4649140000000003
21
-13.330076
0
LINE
8
BLACK
6
CONTINUOUS
10
35.4649140000000003
20
-13.330076
11
35.655389999999997
21
-13.0443609999999985
0
LINE
8
BLACK
6
CONTINUOUS
10
35.655389999999997
20
-13.0443609999999985
11
35.7506289999999964
21
-12.9491230000000002
0
LINE
8
BLACK
6
CONTINUOUS
10
37.3696759999999983
20
-13.9015039999999992
11
37.3696759999999983
21
-15.2348379999999999
0
LINE
8
BLACK
6
CONTINUOUS
10
36.8934849999999983
20
-13.1395999999999997
11
36.4172949999999958
21
-14.5681709999999995
0
LINE
8
BLACK
6
CONTINUOUS
10
36.4172949999999958
20
-14.5681709999999995
11
37.655389999999997
21
-14.5681709999999995
0
LINE
8
BLACK
6
CONTINUOUS
10
38.7030090000000015
20
-14.0919799999999995
11
38.5125329999999977
21
-13.9967419999999994
0
LINE
8
BLACK
6
CONTINUOUS
10
38.5125329999999977
20
-13.9967419999999994
11
38.4172949999999958
21
-13.9015039999999992
0
LINE
8
BLACK
6
CONTINUOUS
10
38.4172949999999958
20
-13.9015039999999992
11
38.3220570000000009
21
-13.7110279999999989
0
LINE
8
BLACK
6
CONTINUOUS
10
38.3220570000000009
20
-13.7110279999999989
11
38.3220570000000009
21
-13.6157899999999987
0
LINE
8
BLACK
6
CONTINUOUS
10
38.3220570000000009
20
-13.6157899999999987
11
38.4172949999999958
21
-13.4253140000000002
0
LINE
8
BLACK
6
CONTINUOUS
10
38.4172949999999958
20
-13.4253140000000002
11
38.5125329999999977
21
-13.330076
0
LINE
8
BLACK
6
CONTINUOUS
10
38.5125329999999977
20
-13.330076
11
38.7030090000000015
21
-13.2348379999999999
0
LINE
8
BLACK
6
CONTINUOUS
10
38.7030090000000015
20
-13.2348379999999999
11
39.0839619999999996
21
-13.2348379999999999
0
LINE
8
BLACK
6
CONTINUOUS
10
39.0839619999999996
20
-13.2348379999999999
11
39.2744379999999964
21
-13.330076
0
LINE
8
BLACK
6
CONTINUOUS
10
39.2744379999999964
20
-13.330076
11
39.3696759999999983
21
-13.4253140000000002
0
LINE
8
BLACK
6
CONTINUOUS
10
39.3696759999999983
20
-13.4253140000000002
11
39.4649140000000003
21
-13.6157899999999987
0
LINE
8
BLACK
6
CONTINUOUS
10
39.4649140000000003
20
-13.6157899999999987
11
39.4649140000000003
21
-13.7110279999999989
0
LINE
8
BLACK
6
CONTINUOUS
10
39.4649140000000003
20
-13.7110279999999989
11
39.3696759999999983
21
-13.9015039999999992
0
LINE
8
BLACK
6
CONTINUOUS
10
39.3696759999999983
20
-13.9015039999999992
11
39.2744379999999964
21
-13.9967419999999994
0
LINE
8
BLACK
6
CONTINUOUS
10
39.2744379999999964
20
-13.9967419999999994
11
39.0839619999999996
21
-14.0919799999999995
0
LINE
8
BLACK
6
CONTINUOUS
10
39.0839619999999996
20
-14.0919799999999995
11
38.7030090000000015
21
-14.0919799999999995
0
LINE
8
BLACK
6
CONTINUOUS
10
38.7030090000000015
20
-14.0919799999999995
11
38.5125329999999977
21
-14.1872189999999989
0
LINE
8
BLACK
6
CONTINUOUS
10
38.5125329999999977
20
-14.1872189999999989
11
38.4172949999999958
21
-14.2824569999999991
0
LINE
8
BLACK
6
CONTINUOUS
10
38.4172949999999958
20
-14.2824569999999991
11
38.3220570000000009
21
-14.4729329999999994
0
LINE
8
BLACK
6
CONTINUOUS
10
38.3220570000000009
20
-14.4729329999999994
11
38.3220570000000009
21
-14.853885
0
LINE
8
BLACK
6
CONTINUOUS
10
38.3220570000000009
20
-14.853885
11
38.4172949999999958
21
-15.0443609999999985
0
LINE
8
BLACK
6
CONTINUOUS
10
38.4172949999999958
20
-15.0443609999999985
11
38.5125329999999977
21
-15.1395999999999997
0
LINE
8
BLACK
6
CONTINUOUS
10
38.5125329999999977
20
-15.1395999999999997
11
38.7030090000000015
21
-15.2348379999999999
0
LINE
8
BLACK
6
CONTINUOUS
10
38.7030090000000015
20
-15.2348379999999999
11
39.0839619999999996
21
-15.2348379999999999
0
LINE
8
BLACK
6
CONTINUOUS
10
39.0839619999999996
20
-15.2348379999999999
11
39.2744379999999964
21
-15.1395999999999997
0
LINE
8
BLACK
6
CONTINUOUS
10
39.2744379999999964
20
-15.1395999999999997
11
39.3696759999999983
21
-15.0443609999999985
0
LINE
8
BLACK
6
CONTINUOUS
10
39.3696759999999983
20
-15.0443609999999985
11
39.4649140000000003
21
-14.853885
0
LINE
8
BLACK
6
CONTINUOUS
10
39.4649140000000003
20
-14.853885
11
39.4649140000000003
21
-14.4729329999999994
0
LINE
8
BLACK
6
CONTINUOUS
10
39.4649140000000003
20
-14.4729329999999994
11
39.3696759999999983
21
-14.2824569999999991
0
LINE
8
BLACK
6
CONTINUOUS
10
39.3696759999999983
20
-14.2824569999999991
11
39.2744379999999964
21
-14.1872189999999989
0
LINE
8
BLACK
6
CONTINUOUS
10
39.2744379999999964
20
-14.1872189999999989
11
39.0839619999999996
21
-14.0919799999999995
0
LINE
8
BLACK
6
CONTINUOUS
10
41.8458669999999984
20
-15.2348379999999999
11
41.8458669999999984
21
-13.2348379999999999
0
LINE
8
BLACK
6
CONTINUOUS
10
42.703009999999999
20
-15.2348379999999999
11
42.703009999999999
21
-14.1872189999999989
0
LINE
8
BLACK
6
CONTINUOUS
10
42.703009999999999
20
-14.1872189999999989
11
42.6077719999999971
21
-13.9967419999999994
0
LINE
8
BLACK
6
CONTINUOUS
10
42.6077719999999971
20
-13.9967419999999994
11
42.4172960000000003
21
-13.9015039999999992
0
LINE
8
BLACK
6
CONTINUOUS
10
42.4172960000000003
20
-13.9015039999999992
11
42.1315809999999971
21
-13.9015039999999992
0
LINE
8
BLACK
6
CONTINUOUS
10
42.1315809999999971
20
-13.9015039999999992
11
41.9411050000000003
21
-13.9967419999999994
0
LINE
8
BLACK
6
CONTINUOUS
10
41.9411050000000003
20
-13.9967419999999994
11
41.8458669999999984
21
-14.0919799999999995
0
LINE
8
BLACK
6
CONTINUOUS
10
43.9411050000000003
20
-15.2348379999999999
11
43.7506289999999964
21
-15.1395999999999997
0
LINE
8
BLACK
6
CONTINUOUS
10
43.7506289999999964
20
-15.1395999999999997
11
43.6553909999999945
21
-15.0443609999999985
0
LINE
8
BLACK
6
CONTINUOUS
10
43.6553909999999945
20
-15.0443609999999985
11
43.5601529999999997
21
-14.853885
0
LINE
8
BLACK
6
CONTINUOUS
10
43.5601529999999997
20
-14.853885
11
43.5601529999999997
21
-14.2824569999999991
0
LINE
8
BLACK
6
CONTINUOUS
10
43.5601529999999997
20
-14.2824569999999991
11
43.6553909999999945
21
-14.0919799999999995
0
LINE
8
BLACK
6
CONTINUOUS
10
43.6553909999999945
20
-14.0919799999999995
11
43.7506289999999964
21
-13.9967419999999994
0
LINE
8
BLACK
6
CONTINUOUS
10
43.7506289999999964
20
-13.9967419999999994
11
43.9411050000000003
21
-13.9015039999999992
0
LINE
8
BLACK
6
CONTINUOUS
10
43.9411050000000003
20
-13.9015039999999992
11
44.2268199999999965
21
-13.9015039999999992
0
LINE
8
BLACK
6
CONTINUOUS
10
44.2268199999999965
20
-13.9015039999999992
11
44.4172960000000003
21
-13.9967419999999994
0
LINE
8
BLACK
6
CONTINUOUS
10
44.4172960000000003
20
-13.9967419999999994
11
44.5125339999999952
21
-14.0919799999999995
0
LINE
8
BLACK
6
CONTINUOUS
10
44.5125339999999952
20
-14.0919799999999995
11
44.6077719999999971
21
-14.2824569999999991
0
LINE
8
BLACK
6
CONTINUOUS
10
44.6077719999999971
20
-14.2824569999999991
11
44.6077719999999971
21
-14.853885
0
LINE
8
BLACK
6
CONTINUOUS
10
44.6077719999999971
20
-14.853885
11
44.5125339999999952
21
-15.0443609999999985
0
LINE
8
BLACK
6
CONTINUOUS
10
44.5125339999999952
20
-15.0443609999999985
11
44.4172960000000003
21
-15.1395999999999997
0
LINE
8
BLACK
6
CONTINUOUS
10
44.4172960000000003
20
-15.1395999999999997
11
44.2268199999999965
21
-15.2348379999999999
0
LINE
8
BLACK
6
CONTINUOUS
10
44.2268199999999965
20
-15.2348379999999999
11
43.9411050000000003
21
-15.2348379999999999
0
LINE
8
BLACK
6
CONTINUOUS
10
45.7506289999999964
20
-15.2348379999999999
11
45.5601529999999997
21
-15.1395999999999997
0
LINE
8
BLACK
6
CONTINUOUS
10
45.5601529999999997
20
-15.1395999999999997
11
45.4649149999999977
21
-14.9491230000000002
0
LINE
8
BLACK
6
CONTINUOUS
10
45.4649149999999977
20
-14.9491230000000002
11
45.4649149999999977
21
-13.2348379999999999
0
LINE
8
BLACK
6
CONTINUOUS
10
47.274439000000001
20
-15.1395999999999997
11
47.0839629999999971
21
-15.2348379999999999
0
LINE
8
BLACK
6
CONTINUOUS
10
47.0839629999999971
20
-15.2348379999999999
11
46.703009999999999
21
-15.2348379999999999
0
LINE
8
BLACK
6
CONTINUOUS
10
46.703009999999999
20
-15.2348379999999999
11
46.5125339999999952
21
-15.1395999999999997
0
LINE
8
BLACK
6
CONTINUOUS
10
46.5125339999999952
20
-15.1395999999999997
11
46.4172960000000003
21
-14.9491230000000002
0
LINE
8
BLACK
6
CONTINUOUS
10
46.4172960000000003
20
-14.9491230000000002
11
46.4172960000000003
21
-14.1872189999999989
0
LINE
8
BLACK
6
CONTINUOUS
10
46.4172960000000003
20
-14.1872189999999989
11
46.5125339999999952
21
-13.9967419999999994
0
LINE
8
BLACK
6
CONTINUOUS
10
46.5125339999999952
20
-13.9967419999999994
11
46.703009999999999
21
-13.9015039999999992
0
LINE
8
BLACK
6
CONTINUOUS
10
46.703009999999999
20
-13.9015039999999992
11
47.0839629999999971
21
-13.9015039999999992
0
LINE
8
BLACK
6
CONTINUOUS
10
47.0839629999999971
20
-13.9015039999999992
11
47.274439000000001
21
-13.9967419999999994
0
LINE
8
BLACK
6
CONTINUOUS
10
47.274439000000001
20
-13.9967419999999994
11
47.3696769999999958
21
-14.1872189999999989
0
LINE
8
BLACK
6
CONTINUOUS
10
47.3696769999999958
20
-14.1872189999999989
11
47.3696769999999958
21
-14.3776949999999992
0
LINE
8
BLACK
6
CONTINUOUS
10
47.3696769999999958
20
-14.3776949999999992
11
46.4172960000000003
21
-14.5681709999999995
0
LINE
8
BLACK
6
CONTINUOUS
10
48.1315819999999945
20
-15.1395999999999997
11
48.3220579999999984
21
-15.2348379999999999
0
LINE
8
BLACK
6
CONTINUOUS
10
48.3220579999999984
20
-15.2348379999999999
11
48.703009999999999
21
-15.2348379999999999
0
LINE
8
BLACK
6
CONTINUOUS
10
48.703009999999999
20
-15.2348379999999999
11
48.8934870000000004
21
-15.1395999999999997
0
LINE
8
BLACK
6
CONTINUOUS
10
48.8934870000000004
20
-15.1395999999999997
11
48.9887249999999952
21
-14.9491230000000002
0
LINE
8
BLACK
6
CONTINUOUS
10
48.9887249999999952
20
-14.9491230000000002
11
48.9887249999999952
21
-14.853885
0
LINE
8
BLACK
6
CONTINUOUS
10
48.9887249999999952
20
-14.853885
11
48.8934870000000004
21
-14.6634089999999997
0
LINE
8
BLACK
6
CONTINUOUS
10
48.8934870000000004
20
-14.6634089999999997
11
48.703009999999999
21
-14.5681709999999995
0
LINE
8
BLACK
6
CONTINUOUS
10
48.703009999999999
20
-14.5681709999999995
11
48.4172960000000003
21
-14.5681709999999995
0
LINE
8
BLACK
6
CONTINUOUS
10
48.4172960000000003
20
-14.5681709999999995
11
48.2268199999999965
21
-14.4729329999999994
0
LINE
8
BLACK
6
CONTINUOUS
10
48.2268199999999965
20
-14.4729329999999994
11
48.1315819999999945
21
-14.2824569999999991
0
LINE
8
BLACK
6
CONTINUOUS
10
48.1315819999999945
20
-14.2824569999999991
11
48.1315819999999945
21
-14.1872189999999989
0
LINE
8
BLACK
6
CONTINUOUS
10
48.1315819999999945
20
-14.1872189999999989
11
48.2268199999999965
21
-13.9967419999999994
0
LINE
8
BLACK
6
CONTINUOUS
10
48.2268199999999965
20
-13.9967419999999994
11
48.4172960000000003
21
-13.9015039999999992
0
LINE
8
BLACK
6
CONTINUOUS
10
48.4172960000000003
20
-13.9015039999999992
11
48.703009999999999
21
-13.9015039999999992
0
LINE
8
BLACK
6
CONTINUOUS
10
48.703009999999999
20
-13.9015039999999992
11
48.8934870000000004
21
-13.9967419999999994
0
LINE
8
BLACK
6
CONTINUOUS
10
49.6553919999999991
20
-15.9967419999999994
11
49.750630000000001
21
-15.9015039999999992
0
LINE
8
BLACK
6
CONTINUOUS
10
49.750630000000001
20
-15.9015039999999992
11
49.9411059999999978
21
-15.6157899999999987
0
LINE
8
BLACK
6
CONTINUOUS
10
49.9411059999999978
20
-15.6157899999999987
11
50.0363439999999997
21
-15.4253139999999984
0
LINE
8
BLACK
6
CONTINUOUS
10
50.0363439999999997
20
-15.4253139999999984
11
50.1315819999999945
21
-15.1395999999999997
0
LINE
8
BLACK
6
CONTINUOUS
10
50.1315819999999945
20
-15.1395999999999997
11
50.2268199999999965
21
-14.6634089999999997
0
LINE
8
BLACK
6
CONTINUOUS
10
50.2268199999999965
20
-14.6634089999999997
11
50.2268199999999965
21
-14.2824569999999991
0
LINE
8
BLACK
6
CONTINUOUS
10
50.2268199999999965
20
-14.2824569999999991
11
50.1315819999999945
21
-13.806265999999999
0
LINE
8
BLACK
6
CONTINUOUS
10
50.1315819999999945
20
-13.806265999999999
11
50.0363439999999997
21
-13.5205519999999986
0
LINE
8
BLACK
6
CONTINUOUS
10
50.0363439999999997
20
-13.5205519999999986
11
49.9411059999999978
21
-13.330076
0
LINE
8
BLACK
6
CONTINUOUS
10
49.9411059999999978
20
-13.330076
11
49.750630000000001
21
-13.0443609999999985
0
LINE
8
BLACK
6
CONTINUOUS
10
49.750630000000001
20
-13.0443609999999985
11
49.6553919999999991
21
-12.9491230000000002
  0
ENDSEC
  0
EOF
