<?xml version="1.0" standalone="no"?>
 <!DOCTYPE svg PUBLIC "-//W3C//DTD SVG 1.1//EN" 
 "http://www.w3.org/Graphics/SVG/1.1/DTD/svg11.dtd"> 
<svg
  xmlns:svg="http://www.w3.org/2000/svg"
  xmlns="http://www.w3.org/2000/svg"
  xmlns:xlink="http://www.w3.org/1999/xlink"
  version="1.1"
  width="297.0022mm" height="210.0072mm" viewBox="0.0000 0.0000 297.0022 210.0072">
<title>SVG Image created as PMT_FPGA_PCB-B_Cu.svg date 2025/05/23 10:34:49 </title>
  <desc>Image generated by PCBNEW </desc>
<g style="fill:#000000; fill-opacity:1.0000;stroke:#000000; stroke-opacity:1.0000;
stroke-linecap:round; stroke-linejoin:round;"
 transform="translate(0 0) scale(1 1)">
<path style="fill:none; 
stroke:#000000; stroke-width:0.2000; stroke-opacity:1; 
stroke-linecap:round; stroke-linejoin:round;fill:none"
d="M 141.2240,61.7220
191.5500,61.7220
191.5500,114.9949
141.2240,114.9949
Z" /> 
<path style="fill:#000000; fill-opacity:1.0000; stroke:none;fill-rule:evenodd;"
d="M 163.1560,64.1630
161.4560,64.1630
161.4560,62.4630
163.1560,62.4630
Z" /> 
</g>
<g style="fill:#000000; fill-opacity:1.0000; stroke:none;">
<circle cx="164.8460" cy="63.3130" r="0.8500" /> 
</g>
<g style="fill:#000000; fill-opacity:1.0000; stroke:none;">
<circle cx="167.3860" cy="63.3130" r="0.8500" /> 
<path style="fill:#000000; fill-opacity:1.0000; stroke:none;fill-rule:evenodd;"
d="M 180.5060,113.3770
180.5060,111.6770
182.2060,111.6770
182.2060,113.3770
Z" /> 
</g>
<g style="fill:#000000; fill-opacity:1.0000; stroke:none;">
<circle cx="181.3560" cy="109.9870" r="0.8500" /> 
<path style="fill:#000000; fill-opacity:1.0000; stroke:none;fill-rule:evenodd;"
d="M 168.0240,88.1215
168.0059,88.2124
167.9544,88.2894
167.8774,88.3409
167.7865,88.3590
167.1865,88.3590
167.0956,88.3409
167.0186,88.2894
166.9671,88.2124
166.9490,88.1215
166.9490,87.6465
166.9671,87.5556
167.0186,87.4786
167.0956,87.4271
167.1865,87.4090
167.7865,87.4090
167.8774,87.4271
167.9544,87.4786
168.0059,87.5556
168.0240,87.6465
Z" /> 
<path style="fill:#000000; fill-opacity:1.0000; stroke:none;fill-rule:evenodd;"
d="M 166.2990,88.1215
166.2809,88.2124
166.2294,88.2894
166.1524,88.3409
166.0615,88.3590
165.4615,88.3590
165.3706,88.3409
165.2936,88.2894
165.2421,88.2124
165.2240,88.1215
165.2240,87.6465
165.2421,87.5556
165.2936,87.4786
165.3706,87.4271
165.4615,87.4090
166.0615,87.4090
166.1524,87.4271
166.2294,87.4786
166.2809,87.5556
166.2990,87.6465
Z" /> 
<path style="fill:#000000; fill-opacity:1.0000; stroke:none;fill-rule:evenodd;"
d="M 168.5315,81.0095
168.5134,81.1004
168.4619,81.1774
168.3849,81.2289
168.2940,81.2470
167.6940,81.2470
167.6031,81.2289
167.5261,81.1774
167.4746,81.1004
167.4565,81.0095
167.4565,80.5345
167.4746,80.4436
167.5261,80.3666
167.6031,80.3151
167.6940,80.2970
168.2940,80.2970
168.3849,80.3151
168.4619,80.3666
168.5134,80.4436
168.5315,80.5345
Z" /> 
<path style="fill:#000000; fill-opacity:1.0000; stroke:none;fill-rule:evenodd;"
d="M 166.8065,81.0095
166.7884,81.1004
166.7369,81.1774
166.6599,81.2289
166.5690,81.2470
165.9690,81.2470
165.8781,81.2289
165.8011,81.1774
165.7496,81.1004
165.7315,81.0095
165.7315,80.5345
165.7496,80.4436
165.8011,80.3666
165.8781,80.3151
165.9690,80.2970
166.5690,80.2970
166.6599,80.3151
166.7369,80.3666
166.7884,80.4436
166.8065,80.5345
Z" /> 
<path style="fill:#000000; fill-opacity:1.0000; stroke:none;fill-rule:evenodd;"
d="M 188.5420,63.4120
188.5420,65.1120
186.8420,65.1120
186.8420,63.4120
Z" /> 
</g>
<g style="fill:#000000; fill-opacity:1.0000; stroke:none;">
<circle cx="190.2320" cy="64.2620" r="0.8500" /> 
</g>
<g style="fill:#000000; fill-opacity:1.0000; stroke:none;">
<circle cx="187.6920" cy="66.8020" r="0.8500" /> 
</g>
<g style="fill:#000000; fill-opacity:1.0000; stroke:none;">
<circle cx="190.2320" cy="66.8020" r="0.8500" /> 
</g>
<g style="fill:#000000; fill-opacity:1.0000; stroke:none;">
<circle cx="187.6920" cy="69.3420" r="0.8500" /> 
</g>
<g style="fill:#000000; fill-opacity:1.0000; stroke:none;">
<circle cx="190.2320" cy="69.3420" r="0.8500" /> 
</g>
<g style="fill:#000000; fill-opacity:1.0000; stroke:none;">
<circle cx="187.6920" cy="71.8820" r="0.8500" /> 
</g>
<g style="fill:#000000; fill-opacity:1.0000; stroke:none;">
<circle cx="190.2320" cy="71.8820" r="0.8500" /> 
</g>
<g style="fill:#000000; fill-opacity:1.0000; stroke:none;">
<circle cx="187.6920" cy="74.4220" r="0.8500" /> 
</g>
<g style="fill:#000000; fill-opacity:1.0000; stroke:none;">
<circle cx="190.2320" cy="74.4220" r="0.8500" /> 
</g>
<g style="fill:#000000; fill-opacity:1.0000; stroke:none;">
<circle cx="187.6920" cy="76.9620" r="0.8500" /> 
</g>
<g style="fill:#000000; fill-opacity:1.0000; stroke:none;">
<circle cx="190.2320" cy="76.9620" r="0.8500" /> 
</g>
<g style="fill:#000000; fill-opacity:1.0000; stroke:none;">
<circle cx="187.6920" cy="79.5020" r="0.8500" /> 
</g>
<g style="fill:#000000; fill-opacity:1.0000; stroke:none;">
<circle cx="190.2320" cy="79.5020" r="0.8500" /> 
</g>
<g style="fill:#000000; fill-opacity:1.0000; stroke:none;">
<circle cx="187.6920" cy="82.0420" r="0.8500" /> 
</g>
<g style="fill:#000000; fill-opacity:1.0000; stroke:none;">
<circle cx="190.2320" cy="82.0420" r="0.8500" /> 
</g>
<g style="fill:#000000; fill-opacity:1.0000; stroke:none;">
<circle cx="187.6920" cy="84.5820" r="0.8500" /> 
</g>
<g style="fill:#000000; fill-opacity:1.0000; stroke:none;">
<circle cx="190.2320" cy="84.5820" r="0.8500" /> 
</g>
<g style="fill:#000000; fill-opacity:1.0000; stroke:none;">
<circle cx="187.6920" cy="87.1220" r="0.8500" /> 
</g>
<g style="fill:#000000; fill-opacity:1.0000; stroke:none;">
<circle cx="190.2320" cy="87.1220" r="0.8500" /> 
</g>
<g style="fill:#000000; fill-opacity:1.0000; stroke:none;">
<circle cx="187.6920" cy="89.6620" r="0.8500" /> 
</g>
<g style="fill:#000000; fill-opacity:1.0000; stroke:none;">
<circle cx="190.2320" cy="89.6620" r="0.8500" /> 
</g>
<g style="fill:#000000; fill-opacity:1.0000; stroke:none;">
<circle cx="187.6920" cy="92.2020" r="0.8500" /> 
</g>
<g style="fill:#000000; fill-opacity:1.0000; stroke:none;">
<circle cx="190.2320" cy="92.2020" r="0.8500" /> 
</g>
<g style="fill:#000000; fill-opacity:1.0000; stroke:none;">
<circle cx="187.6920" cy="94.7420" r="0.8500" /> 
</g>
<g style="fill:#000000; fill-opacity:1.0000; stroke:none;">
<circle cx="190.2320" cy="94.7420" r="0.8500" /> 
</g>
<g style="fill:#000000; fill-opacity:1.0000; stroke:none;">
<circle cx="187.6920" cy="97.2820" r="0.8500" /> 
</g>
<g style="fill:#000000; fill-opacity:1.0000; stroke:none;">
<circle cx="190.2320" cy="97.2820" r="0.8500" /> 
</g>
<g style="fill:#000000; fill-opacity:1.0000; stroke:none;">
<circle cx="187.6920" cy="99.8220" r="0.8500" /> 
</g>
<g style="fill:#000000; fill-opacity:1.0000; stroke:none;">
<circle cx="190.2320" cy="99.8220" r="0.8500" /> 
</g>
<g style="fill:#000000; fill-opacity:1.0000; stroke:none;">
<circle cx="187.6920" cy="102.3620" r="0.8500" /> 
</g>
<g style="fill:#000000; fill-opacity:1.0000; stroke:none;">
<circle cx="190.2320" cy="102.3620" r="0.8500" /> 
</g>
<g style="fill:#000000; fill-opacity:1.0000; stroke:none;">
<circle cx="187.6920" cy="104.9020" r="0.8500" /> 
</g>
<g style="fill:#000000; fill-opacity:1.0000; stroke:none;">
<circle cx="190.2320" cy="104.9020" r="0.8500" /> 
</g>
<g style="fill:#000000; fill-opacity:1.0000; stroke:none;">
<circle cx="187.6920" cy="107.4420" r="0.8500" /> 
</g>
<g style="fill:#000000; fill-opacity:1.0000; stroke:none;">
<circle cx="190.2320" cy="107.4420" r="0.8500" /> 
</g>
<g style="fill:#000000; fill-opacity:1.0000; stroke:none;">
<circle cx="187.6920" cy="109.9820" r="0.8500" /> 
</g>
<g style="fill:#000000; fill-opacity:1.0000; stroke:none;">
<circle cx="190.2320" cy="109.9820" r="0.8500" /> 
</g>
<g style="fill:#000000; fill-opacity:1.0000; stroke:none;">
<circle cx="187.6920" cy="112.5220" r="0.8500" /> 
</g>
<g style="fill:#000000; fill-opacity:1.0000; stroke:none;">
<circle cx="190.2320" cy="112.5220" r="0.8500" /> 
<path style="fill:#000000; fill-opacity:1.0000; stroke:none;fill-rule:evenodd;"
d="M 174.0995,89.5985
172.5995,89.5985
172.5995,88.5485
174.0995,88.5485
Z" /> 
</g>
<g style="fill:none; 
stroke:#000000; stroke-width:1.0500; stroke-opacity:1; 
stroke-linecap:round; stroke-linejoin:round;">
<path d="M173.1245 87.8035
L173.5745 87.8035
" />
<path d="M173.1245 86.5335
L173.5745 86.5335
" />
<path style="fill:#000000; fill-opacity:1.0000; stroke:none;fill-rule:evenodd;"
d="M 156.2210,90.1235
156.2029,90.2144
156.1514,90.2914
156.0744,90.3429
155.9835,90.3610
155.3835,90.3610
155.2926,90.3429
155.2156,90.2914
155.1641,90.2144
155.1460,90.1235
155.1460,89.6485
155.1641,89.5576
155.2156,89.4806
155.2926,89.4291
155.3835,89.4110
155.9835,89.4110
156.0744,89.4291
156.1514,89.4806
156.2029,89.5576
156.2210,89.6485
Z" /> 
<path style="fill:#000000; fill-opacity:1.0000; stroke:none;fill-rule:evenodd;"
d="M 154.4960,90.1235
154.4779,90.2144
154.4264,90.2914
154.3494,90.3429
154.2585,90.3610
153.6585,90.3610
153.5676,90.3429
153.4906,90.2914
153.4391,90.2144
153.4210,90.1235
153.4210,89.6485
153.4391,89.5576
153.4906,89.4806
153.5676,89.4291
153.6585,89.4110
154.2585,89.4110
154.3494,89.4291
154.4264,89.4806
154.4779,89.5576
154.4960,89.6485
Z" /> 
</g>
<g style="fill:#000000; fill-opacity:1.0000; stroke:none;">
<circle cx="154.6860" cy="78.7400" r="0.7200" /> 
</g>
<g style="fill:#000000; fill-opacity:1.0000; stroke:none;">
<circle cx="157.2260" cy="81.2800" r="0.7200" /> 
</g>
<g style="fill:#000000; fill-opacity:1.0000; stroke:none;">
<circle cx="159.7660" cy="78.7400" r="0.7200" /> 
<path style="fill:#000000; fill-opacity:1.0000; stroke:none;fill-rule:evenodd;"
d="M 156.2210,92.6635
156.2029,92.7544
156.1514,92.8314
156.0744,92.8829
155.9835,92.9010
155.3835,92.9010
155.2926,92.8829
155.2156,92.8314
155.1641,92.7544
155.1460,92.6635
155.1460,92.1885
155.1641,92.0976
155.2156,92.0206
155.2926,91.9691
155.3835,91.9510
155.9835,91.9510
156.0744,91.9691
156.1514,92.0206
156.2029,92.0976
156.2210,92.1885
Z" /> 
<path style="fill:#000000; fill-opacity:1.0000; stroke:none;fill-rule:evenodd;"
d="M 154.4960,92.6635
154.4779,92.7544
154.4264,92.8314
154.3494,92.8829
154.2585,92.9010
153.6585,92.9010
153.5676,92.8829
153.4906,92.8314
153.4391,92.7544
153.4210,92.6635
153.4210,92.1885
153.4391,92.0976
153.4906,92.0206
153.5676,91.9691
153.6585,91.9510
154.2585,91.9510
154.3494,91.9691
154.4264,92.0206
154.4779,92.0976
154.4960,92.1885
Z" /> 
<path style="fill:#000000; fill-opacity:1.0000; stroke:none;fill-rule:evenodd;"
d="M 168.0240,85.5815
168.0059,85.6724
167.9544,85.7494
167.8774,85.8009
167.7865,85.8190
167.1865,85.8190
167.0956,85.8009
167.0186,85.7494
166.9671,85.6724
166.9490,85.5815
166.9490,85.1065
166.9671,85.0156
167.0186,84.9386
167.0956,84.8871
167.1865,84.8690
167.7865,84.8690
167.8774,84.8871
167.9544,84.9386
168.0059,85.0156
168.0240,85.1065
Z" /> 
<path style="fill:#000000; fill-opacity:1.0000; stroke:none;fill-rule:evenodd;"
d="M 166.2990,85.5815
166.2809,85.6724
166.2294,85.7494
166.1524,85.8009
166.0615,85.8190
165.4615,85.8190
165.3706,85.8009
165.2936,85.7494
165.2421,85.6724
165.2240,85.5815
165.2240,85.1065
165.2421,85.0156
165.2936,84.9386
165.3706,84.8871
165.4615,84.8690
166.0615,84.8690
166.1524,84.8871
166.2294,84.9386
166.2809,85.0156
166.2990,85.1065
Z" /> 
<path style="fill:#000000; fill-opacity:1.0000; stroke:none;fill-rule:evenodd;"
d="M 159.0960,75.5260
159.0960,73.8260
160.7960,73.8260
160.7960,75.5260
Z" /> 
</g>
<g style="fill:#000000; fill-opacity:1.0000; stroke:none;">
<circle cx="159.9460" cy="72.1360" r="0.8500" /> 
</g>
<g style="fill:#000000; fill-opacity:1.0000; stroke:none;">
<circle cx="159.9460" cy="69.5960" r="0.8500" /> 
<path style="fill:#000000; fill-opacity:1.0000; stroke:none;fill-rule:evenodd;"
d="M 168.6330,79.3900
168.6140,79.4857
168.5598,79.5668
168.4787,79.6210
168.3830,79.6400
167.5580,79.6400
167.4623,79.6210
167.3812,79.5668
167.3270,79.4857
167.3080,79.3900
167.3080,78.0900
167.3270,77.9943
167.3812,77.9132
167.4623,77.8590
167.5580,77.8400
168.3830,77.8400
168.4787,77.8590
168.5598,77.9132
168.6140,77.9943
168.6330,78.0900
Z" /> 
<path style="fill:#000000; fill-opacity:1.0000; stroke:none;fill-rule:evenodd;"
d="M 165.5080,79.3900
165.4890,79.4857
165.4348,79.5668
165.3537,79.6210
165.2580,79.6400
164.4330,79.6400
164.3373,79.6210
164.2562,79.5668
164.2020,79.4857
164.1830,79.3900
164.1830,78.0900
164.2020,77.9943
164.2562,77.9132
164.3373,77.8590
164.4330,77.8400
165.2580,77.8400
165.3537,77.8590
165.4348,77.9132
165.4890,77.9943
165.5080,78.0900
Z" /> 
</g>
<g style="fill:#000000; fill-opacity:1.0000; stroke:none;">
<circle cx="167.4573" cy="71.6993" r="0.7500" /> 
</g>
<g style="fill:#000000; fill-opacity:1.0000; stroke:none;">
<circle cx="167.8266" cy="77.2834" r="0.7500" /> 
</g>
<g style="fill:#000000; fill-opacity:1.0000; stroke:none;">
<circle cx="155.9375" cy="94.2040" r="0.7500" /> 
</g>
<g style="fill:#000000; fill-opacity:1.0000; stroke:none;">
<circle cx="167.6400" cy="89.6620" r="0.7500" /> 
</g>
<g style="fill:#000000; fill-opacity:1.0000; stroke:none;">
<circle cx="154.9215" cy="88.1080" r="0.7500" /> 
</g>
<g style="fill:#000000; fill-opacity:1.0000; stroke:none;">
<circle cx="166.6240" cy="83.5660" r="0.7500" /> 
</g>
<g style="fill:none; 
stroke:#000000; stroke-width:0.4500; stroke-opacity:1; 
stroke-linecap:round; stroke-linejoin:round;">
<path d="M167.9705 78.7400
L168.4710 78.7400
" />
<path d="M168.4710 78.7400
L168.7250 78.9940
" />
</g>
<g style="fill:none; 
stroke:#000000; stroke-width:1.0000; stroke-opacity:1; 
stroke-linecap:round; stroke-linejoin:round;">
<path d="M164.8460 69.0880
L164.8460 63.3130
" />
<path d="M167.4573 71.6993
L164.8460 69.0880
" />
<path d="M163.0980 94.2040
L167.6400 89.6620
" />
<path d="M167.8266 75.4972
L168.9083 74.4155
" />
<path d="M168.7250 88.5770
L167.6400 89.6620
" />
<path d="M167.8266 77.2834
L167.8266 75.4972
" />
<path d="M168.9083 74.4155
L168.9083 64.8353
" />
<path d="M168.7250 78.9940
L168.7250 80.7720
" />
<path d="M168.7250 78.1819
L168.7250 78.9940
" />
<path d="M155.9375 94.2040
L163.0980 94.2040
" />
<path d="M167.8266 77.2834
L168.7250 78.1819
" />
<path d="M167.9940 80.7720
L168.7250 80.7720
" />
<path d="M168.7250 80.7720
L168.7250 88.5770
" />
<path d="M168.9083 64.8353
L167.3860 63.3130
" />
<path d="M162.3060 77.4700
L162.3060 80.7235
" />
<path d="M162.3060 77.4700
L162.3060 63.3130
" />
<path d="M162.3060 80.7235
L154.9215 88.1080
" />
<path d="M162.3060 76.7080
L162.3060 79.2480
" />
<path d="M162.3060 76.7080
L162.3060 77.4700
" />
<path d="M162.3060 79.2480
L166.6240 83.5660
" />
<path style="fill:#000000; fill-opacity:1.0000; stroke:none;fill-rule:evenodd;"
d="M 171.1600,62.0259
171.1634,62.0340
171.1634,96.6954
171.1600,96.7035
171.1519,96.7069
151.0755,96.7069
151.0674,96.7035
151.0640,96.6954
151.0640,94.1104
154.9870,94.1104
154.9870,94.2976
155.0235,94.4812
155.0235,94.4812
155.0952,94.6542
155.1579,94.7481
155.1992,94.8099
155.3316,94.9423
155.4873,95.0463
155.6602,95.1180
155.8439,95.1545
155.8439,95.1545
156.0311,95.1545
156.0311,95.1545
156.2148,95.1180
156.3877,95.0463
156.5434,94.9423
156.5778,94.9079
156.5860,94.9045
163.1670,94.9045
163.1670,94.9045
163.3023,94.8776
163.4298,94.8248
163.5445,94.7481
167.6768,90.6159
167.6849,90.6125
167.7336,90.6125
167.7336,90.6125
167.9173,90.5760
168.0902,90.5043
168.2459,90.4003
168.3783,90.2679
168.4823,90.1122
168.5540,89.9393
168.5905,89.7556
168.5905,89.7069
168.5939,89.6988
169.2691,89.0235
169.3458,88.9088
169.3986,88.7813
169.4255,88.6460
169.4255,88.5080
169.4255,80.7030
169.4255,78.9250
169.4255,78.1129
169.3986,77.9776
169.3458,77.8501
169.3253,77.8195
169.2691,77.7353
168.7804,77.2467
168.7771,77.2385
168.7771,77.1898
168.7405,77.0062
168.7405,77.0062
168.6689,76.8332
168.5649,76.6775
168.5304,76.6431
168.5271,76.6350
168.5271,75.7921
168.5304,75.7840
169.4524,74.8621
169.4960,74.7967
169.5290,74.7473
169.5818,74.6198
169.6088,74.4845
169.6088,64.7663
169.5818,64.6309
169.5290,64.5034
169.4524,64.3887
169.3548,64.2911
168.4399,63.3762
168.4365,63.3681
168.4365,63.2095
168.3961,63.0066
168.3961,63.0066
168.3825,62.9737
168.3169,62.8154
168.2020,62.6433
168.0557,62.4970
167.9752,62.4433
167.8836,62.3821
167.6924,62.3029
167.6924,62.3029
167.5296,62.2705
167.4895,62.2625
167.2825,62.2625
167.2618,62.2666
167.0796,62.3029
167.0796,62.3029
166.8884,62.3821
166.7163,62.4970
166.5700,62.6433
166.4551,62.8154
166.3759,63.0066
166.3759,63.0066
166.3355,63.2095
166.3355,63.4165
166.3759,63.6194
166.3759,63.6194
166.3761,63.6200
166.4551,63.8106
166.5700,63.9827
166.7163,64.1290
166.8884,64.2439
167.0796,64.3231
167.2825,64.3635
167.4411,64.3635
167.4492,64.3669
168.2044,65.1220
168.2078,65.1302
168.2078,74.1206
168.2044,74.1287
167.2824,75.0507
167.2388,75.1160
167.2058,75.1654
167.1530,75.2929
167.1530,75.2929
167.1261,75.4282
167.1261,76.6350
167.1227,76.6431
167.0882,76.6775
166.9842,76.8332
166.9126,77.0062
166.9126,77.0062
166.8761,77.1898
166.8761,77.3771
166.9126,77.5607
166.9126,77.5607
166.9842,77.7337
167.0652,77.8549
167.0883,77.8894
167.1232,77.9243
167.1296,77.9307
167.1329,77.9388
167.1323,77.9426
167.1104,78.0053
167.1104,78.0053
167.1089,78.0213
167.1075,78.0357
167.1075,79.4443
167.1104,79.4747
167.1552,79.6029
167.1552,79.6029
167.1716,79.6251
167.2358,79.7121
167.2833,79.7472
167.3451,79.7928
167.3451,79.7928
167.3451,79.7928
167.3451,79.7928
167.4001,79.8120
167.4733,79.8376
167.4733,79.8376
167.4733,79.8376
167.5037,79.8405
168.0130,79.8405
168.0211,79.8439
168.0245,79.8520
168.0245,80.0600
168.0211,80.0681
168.0130,80.0715
167.9250,80.0715
167.8027,80.0958
167.8004,80.0963
167.7982,80.0965
167.6412,80.0965
167.6272,80.0978
167.6117,80.0993
167.6116,80.0993
167.6116,80.0993
167.4870,80.1429
167.3808,80.2213
167.3808,80.2213
167.3024,80.3275
167.2642,80.4367
167.2588,80.4522
167.2576,80.4643
167.2560,80.4817
167.2560,80.4817
167.2560,81.0623
167.2588,81.0918
167.3024,81.2165
167.3808,81.3227
167.4870,81.4011
167.6117,81.4447
167.6412,81.4475
167.7982,81.4475
167.8004,81.4477
167.9250,81.4725
168.0130,81.4725
168.0211,81.4759
168.0245,81.4840
168.0245,84.7150
168.0211,84.7231
168.0130,84.7265
168.0062,84.7243
167.9935,84.7149
167.9935,84.7149
167.8689,84.6713
167.8689,84.6713
167.8688,84.6713
167.8509,84.6696
167.8393,84.6685
167.8393,84.6685
167.1337,84.6685
167.1337,84.6685
167.1197,84.6698
167.1042,84.6713
167.1041,84.6713
167.1041,84.6713
166.9795,84.7149
166.9208,84.7582
166.8733,84.7933
166.7949,84.8995
166.7513,85.0242
166.7498,85.0397
166.7485,85.0537
166.7485,85.0537
166.7485,85.6343
166.7513,85.6638
166.7949,85.7885
166.8733,85.8947
166.9795,85.9731
167.1042,86.0167
167.1337,86.0195
167.1338,86.0195
167.8392,86.0195
167.8393,86.0195
167.8688,86.0167
167.9935,85.9731
168.0062,85.9637
168.0147,85.9616
168.0223,85.9662
168.0245,85.9730
168.0245,87.2550
168.0211,87.2631
168.0130,87.2665
168.0062,87.2643
167.9935,87.2549
167.9935,87.2549
167.8689,87.2113
167.8689,87.2113
167.8688,87.2113
167.8509,87.2096
167.8393,87.2085
167.8393,87.2085
167.1337,87.2085
167.1337,87.2085
167.1197,87.2098
167.1042,87.2113
167.1041,87.2113
167.1041,87.2113
166.9795,87.2549
166.8733,87.3333
166.8733,87.3333
166.7949,87.4395
166.7730,87.5021
166.7513,87.5642
166.7498,87.5797
166.7485,87.5937
166.7485,87.5937
166.7485,88.1743
166.7513,88.2038
166.7949,88.3285
166.8733,88.4347
166.9795,88.5131
167.1042,88.5567
167.1337,88.5595
167.7241,88.5595
167.7322,88.5629
167.7356,88.5710
167.7322,88.5791
167.6032,88.7081
167.5951,88.7115
167.5464,88.7115
167.5161,88.7175
167.3628,88.7480
167.3627,88.7480
167.1898,88.8197
167.0341,88.9237
166.9017,89.0561
166.7977,89.2118
166.7260,89.3847
166.7260,89.3848
166.6895,89.5684
166.6895,89.6171
166.6861,89.6252
162.8112,93.5001
162.8031,93.5035
156.5860,93.5035
156.5778,93.5001
156.5434,93.4657
156.5434,93.4657
156.3877,93.3617
156.2147,93.2900
156.2147,93.2900
156.0674,93.2607
156.0311,93.2535
155.8439,93.2535
155.8136,93.2595
155.6603,93.2900
155.6602,93.2900
155.4873,93.3617
155.3316,93.4657
155.1992,93.5981
155.0952,93.7538
155.0235,93.9267
155.0235,93.9268
154.9870,94.1104
151.0640,94.1104
151.0640,92.9010
153.2273,92.9010
153.3102,93.0118
153.3102,93.0118
153.4225,93.0958
153.4835,93.1185
153.4835,93.1185
153.4835,92.9010
154.4335,92.9010
154.4335,93.1185
154.4945,93.0958
154.4945,93.0958
154.6068,93.0118
154.6068,93.0118
154.6897,92.9010
154.4335,92.9010
154.4335,92.9010
153.4835,92.9010
153.4835,92.9010
153.2273,92.9010
151.0640,92.9010
151.0640,92.1357
154.9455,92.1357
154.9455,92.1357
154.9455,92.7163
154.9483,92.7458
154.9919,92.8705
155.0703,92.9767
155.1765,93.0551
155.3012,93.0987
155.3307,93.1015
155.3308,93.1015
156.0362,93.1015
156.0363,93.1015
156.0658,93.0987
156.1905,93.0551
156.2967,92.9767
156.3751,92.8705
156.4187,92.7458
156.4215,92.7163
156.4215,92.1357
156.4187,92.1062
156.3751,91.9815
156.2967,91.8753
156.1905,91.7969
156.0658,91.7533
156.0479,91.7516
156.0363,91.7505
156.0363,91.7505
155.3307,91.7505
155.3307,91.7505
155.3167,91.7518
155.3012,91.7533
155.3011,91.7533
155.3011,91.7533
155.1765,91.7969
155.1178,91.8402
155.0703,91.8753
154.9919,91.9815
154.9483,92.1062
154.9468,92.1217
154.9455,92.1357
151.0640,92.1357
151.0640,91.9510
153.2273,91.9510
153.2273,91.9510
153.4835,91.9510
153.4835,91.9510
154.4335,91.9510
154.4335,91.9510
154.6897,91.9510
154.6897,91.9510
154.6068,91.8402
154.6068,91.8402
154.4945,91.7562
154.4945,91.7562
154.4335,91.7335
154.4335,91.9510
153.4835,91.9510
153.4835,91.7335
153.4225,91.7562
153.3102,91.8402
153.3102,91.8402
153.2273,91.9510
151.0640,91.9510
151.0640,90.3610
153.2273,90.3610
153.3102,90.4718
153.3102,90.4718
153.4225,90.5558
153.4835,90.5785
153.4835,90.5785
153.4835,90.3610
154.4335,90.3610
154.4335,90.5785
154.4945,90.5558
154.4945,90.5558
154.6068,90.4718
154.6068,90.4718
154.6897,90.3610
154.4335,90.3610
154.4335,90.3610
153.4835,90.3610
153.4835,90.3610
153.2273,90.3610
151.0640,90.3610
151.0640,89.5957
154.9455,89.5957
154.9455,89.5957
154.9455,90.1763
154.9483,90.2058
154.9919,90.3305
155.0703,90.4367
155.1765,90.5151
155.3012,90.5587
155.3307,90.5615
155.3308,90.5615
156.0362,90.5615
156.0363,90.5615
156.0658,90.5587
156.1905,90.5151
156.2967,90.4367
156.3751,90.3305
156.4187,90.2058
156.4215,90.1763
156.4215,89.5957
156.4187,89.5662
156.3751,89.4415
156.2967,89.3353
156.1905,89.2569
156.0658,89.2133
156.0479,89.2116
156.0363,89.2105
156.0363,89.2105
155.3307,89.2105
155.3307,89.2105
155.3172,89.2118
155.3012,89.2133
155.3011,89.2133
155.3011,89.2133
155.1765,89.2569
155.0703,89.3353
155.0703,89.3353
155.0144,89.4110
154.9919,89.4415
154.9483,89.5662
154.9481,89.5684
154.9455,89.5957
151.0640,89.5957
151.0640,89.4110
153.2273,89.4110
153.2273,89.4110
153.4835,89.4110
153.4835,89.4110
154.4335,89.4110
154.4335,89.4110
154.6897,89.4110
154.6897,89.4110
154.6068,89.3002
154.6068,89.3002
154.4945,89.2162
154.4945,89.2162
154.4335,89.1935
154.4335,89.4110
153.4835,89.4110
153.4835,89.1935
153.4225,89.2162
153.3102,89.3002
153.3102,89.3002
153.2273,89.4110
151.0640,89.4110
151.0640,88.0144
153.9710,88.0144
153.9710,88.2016
154.0075,88.3852
154.0075,88.3852
154.0280,88.4347
154.0786,88.5567
154.0792,88.5582
154.1816,88.7115
154.1832,88.7139
154.3156,88.8463
154.4713,88.9503
154.6442,89.0220
154.8279,89.0585
154.8279,89.0585
155.0151,89.0585
155.0151,89.0585
155.1988,89.0220
155.3717,88.9503
155.5274,88.8463
155.6598,88.7139
155.7638,88.5582
155.8355,88.3853
155.8407,88.3590
165.0303,88.3590
165.1132,88.4698
165.1132,88.4698
165.2255,88.5538
165.2865,88.5765
165.2865,88.5765
165.2865,88.3590
166.2365,88.3590
166.2365,88.5765
166.2975,88.5538
166.2975,88.5538
166.4098,88.4698
166.4098,88.4698
166.4927,88.3590
166.2365,88.3590
166.2365,88.3590
165.2865,88.3590
165.2865,88.3590
165.0303,88.3590
155.8407,88.3590
155.8720,88.2016
155.8720,88.1529
155.8754,88.1448
156.6112,87.4090
165.0303,87.4090
165.0303,87.4090
165.2865,87.4090
165.2865,87.4090
166.2365,87.4090
166.2365,87.4090
166.4927,87.4090
166.4927,87.4090
166.4098,87.2982
166.4098,87.2982
166.2975,87.2142
166.2975,87.2142
166.2365,87.1915
166.2365,87.4090
165.2865,87.4090
165.2865,87.1915
165.2255,87.2142
165.1132,87.2982
165.1132,87.2982
165.0303,87.4090
156.6112,87.4090
158.2012,85.8190
165.0303,85.8190
165.1132,85.9298
165.1132,85.9298
165.2255,86.0138
165.2865,86.0365
165.2865,86.0365
165.2865,85.8190
166.2365,85.8190
166.2365,86.0365
166.2975,86.0138
166.2975,86.0138
166.4098,85.9298
166.4098,85.9298
166.4927,85.8190
166.2365,85.8190
166.2365,85.8190
165.2865,85.8190
165.2865,85.8190
165.0303,85.8190
158.2012,85.8190
159.1512,84.8690
165.0303,84.8690
165.0303,84.8690
165.2865,84.8690
165.2865,84.8690
166.2365,84.8690
166.2365,84.8690
166.4927,84.8690
166.4927,84.8690
166.4098,84.7582
166.4098,84.7582
166.2975,84.6742
166.2975,84.6742
166.2365,84.6515
166.2365,84.8690
165.2865,84.8690
165.2865,84.6515
165.2255,84.6742
165.1132,84.7582
165.1132,84.7582
165.0303,84.8690
159.1512,84.8690
162.8501,81.1700
162.9268,81.0553
162.9776,80.9327
162.9838,80.9265
162.9926,80.9265
162.9963,80.9290
165.6701,83.6028
165.6735,83.6109
165.6735,83.6596
165.7100,83.8432
165.7100,83.8432
165.7654,83.9770
165.7817,84.0162
165.8857,84.1719
166.0181,84.3043
166.1738,84.4083
166.3467,84.4800
166.5304,84.5165
166.5304,84.5165
166.7176,84.5165
166.7176,84.5165
166.9013,84.4800
167.0742,84.4083
167.2299,84.3043
167.3623,84.1719
167.4663,84.0162
167.5380,83.8433
167.5745,83.6596
167.5745,83.4724
167.5380,83.2887
167.4663,83.1158
167.3623,82.9601
167.2299,82.8277
167.2299,82.8277
167.0742,82.7237
166.9013,82.6520
166.9012,82.6520
166.7539,82.6227
166.7176,82.6155
166.7176,82.6155
166.6689,82.6155
166.6608,82.6121
165.2957,81.2470
165.5378,81.2470
165.6207,81.3578
165.6207,81.3578
165.7330,81.4418
165.7940,81.4645
165.7940,81.4645
165.7940,81.2470
166.7440,81.2470
166.7440,81.4645
166.8050,81.4418
166.8050,81.4418
166.9173,81.3578
166.9173,81.3578
167.0002,81.2470
166.7440,81.2470
166.7440,81.2470
165.7940,81.2470
165.7940,81.2470
165.5378,81.2470
165.2957,81.2470
164.3457,80.2970
165.5378,80.2970
165.5378,80.2970
165.7940,80.2970
165.7940,80.2970
166.7440,80.2970
166.7440,80.2970
167.0002,80.2970
167.0002,80.2970
166.9173,80.1862
166.9173,80.1862
166.8050,80.1022
166.8050,80.1022
166.7440,80.0795
166.7440,80.2970
165.7940,80.2970
165.7940,80.0795
165.7330,80.1022
165.6207,80.1862
165.6207,80.1862
165.5378,80.2970
164.3457,80.2970
163.2887,79.2400
163.9330,79.2400
163.9330,79.4378
163.9394,79.4974
163.9896,79.6321
163.9896,79.6321
164.0758,79.7472
164.0758,79.7472
164.1909,79.8333
164.1909,79.8334
164.3256,79.8836
164.3256,79.8836
164.3455,79.8857
164.3455,79.2400
165.3455,79.2400
165.3455,79.8857
165.3654,79.8836
165.3654,79.8836
165.5001,79.8334
165.5001,79.8333
165.6152,79.7472
165.6152,79.7472
165.7013,79.6321
165.7014,79.6321
165.7516,79.4974
165.7580,79.4378
165.7580,79.2400
165.7580,79.2400
165.3455,79.2400
165.3455,79.2400
164.3455,79.2400
164.3455,79.2400
163.9330,79.2400
163.9330,79.2400
163.2887,79.2400
163.0099,78.9612
163.0065,78.9531
163.0065,78.0422
163.9330,78.0422
163.9330,78.2400
163.9330,78.2400
164.3455,78.2400
164.3455,78.2400
165.3455,78.2400
165.3455,78.2400
165.7580,78.2400
165.7580,78.2400
165.7580,78.0422
165.7516,77.9826
165.7014,77.8479
165.7013,77.8479
165.6152,77.7328
165.6152,77.7328
165.5001,77.6466
165.5001,77.6466
165.3654,77.5964
165.3455,77.5943
165.3455,78.2400
164.3455,78.2400
164.3455,77.5943
164.3256,77.5964
164.1909,77.6466
164.1909,77.6466
164.0758,77.7328
164.0758,77.7328
163.9896,77.8479
163.9896,77.8479
163.9394,77.9826
163.9330,78.0422
163.0065,78.0422
163.0065,64.3750
163.0099,64.3669
163.0180,64.3635
163.1757,64.3635
163.1757,64.3635
163.1965,64.3594
164.5067,64.3594
164.5884,64.3859
164.7594,64.4130
164.9326,64.4130
165.1036,64.3859
165.1853,64.3594
164.8460,64.0201
164.5067,64.3594
163.1965,64.3594
163.2342,64.3519
163.3006,64.3076
163.3449,64.2412
163.3565,64.1827
163.3565,63.2264
163.7460,63.2264
163.7460,63.3996
163.7731,63.5706
163.7996,63.6523
164.1389,63.3130
164.0731,63.2472
164.3460,63.2472
164.3460,63.3788
164.3801,63.5060
164.4459,63.6200
164.5390,63.7131
164.6530,63.7789
164.7802,63.8130
164.9118,63.8130
165.0390,63.7789
165.1530,63.7131
165.2461,63.6200
165.3119,63.5060
165.3460,63.3788
165.3460,63.3130
165.5531,63.3130
165.8924,63.6523
165.9189,63.5706
165.9460,63.3996
165.9460,63.2264
165.9189,63.0554
165.8924,62.9737
165.5531,63.3130
165.3460,63.3130
165.3460,63.2472
165.3119,63.1200
165.2461,63.0060
165.1530,62.9129
165.0390,62.8471
164.9118,62.8130
164.7802,62.8130
164.6530,62.8471
164.5390,62.9129
164.4459,63.0060
164.3801,63.1200
164.3460,63.2472
164.0731,63.2472
163.7996,62.9737
163.7731,63.0554
163.7460,63.2264
163.3565,63.2264
163.3565,62.4433
163.3449,62.3848
163.3006,62.3184
163.3005,62.3184
163.2427,62.2798
163.2342,62.2741
163.2342,62.2741
163.2342,62.2741
163.2342,62.2741
163.2342,62.2741
163.2048,62.2683
163.1965,62.2666
164.5067,62.2666
164.8460,62.6059
165.1853,62.2666
165.1036,62.2401
164.9326,62.2130
164.7594,62.2130
164.5884,62.2401
164.5067,62.2666
163.1965,62.2666
163.1757,62.2625
161.4363,62.2625
161.4155,62.2666
161.3778,62.2741
161.3778,62.2741
161.3114,62.3184
161.3114,62.3184
161.2671,62.3848
161.2671,62.3848
161.2584,62.4287
161.2555,62.4433
161.2555,64.1827
161.2671,64.2412
161.2689,64.2439
161.3114,64.3075
161.3114,64.3076
161.3778,64.3519
161.4363,64.3635
161.5940,64.3635
161.6021,64.3669
161.6055,64.3750
161.6055,80.4286
161.6021,80.4367
154.8847,87.1541
154.8766,87.1575
154.8279,87.1575
154.7976,87.1635
154.6443,87.1940
154.6442,87.1940
154.4713,87.2657
154.3156,87.3697
154.1832,87.5021
154.0792,87.6578
154.0075,87.8307
154.0075,87.8308
153.9710,88.0144
151.0640,88.0144
151.0640,81.1893
156.3055,81.1893
156.3055,81.3707
156.3409,81.5485
156.3409,81.5485
156.3945,81.6781
156.4103,81.7160
156.5110,81.8668
156.6392,81.9950
156.7900,82.0957
156.9575,82.1651
157.1353,82.2005
157.1353,82.2005
157.3167,82.2005
157.3167,82.2005
157.4945,82.1651
157.6620,82.0957
157.8128,81.9950
157.9410,81.8668
158.0417,81.7160
158.1111,81.5485
158.1465,81.3707
158.1465,81.1893
158.1111,81.0115
158.0417,80.8440
157.9410,80.6932
157.8128,80.5650
157.8128,80.5650
157.6620,80.4643
157.4945,80.3949
157.4945,80.3949
157.3518,80.3665
157.3167,80.3595
157.1353,80.3595
157.1060,80.3653
156.9575,80.3949
156.9575,80.3949
156.7900,80.4643
156.6392,80.5650
156.5110,80.6932
156.4103,80.8440
156.3409,81.0115
156.3409,81.0115
156.3055,81.1893
151.0640,81.1893
151.0640,79.6822
159.5309,79.6822
159.6705,79.7100
159.8615,79.7100
160.0011,79.6822
159.7660,79.4471
159.5309,79.6822
151.0640,79.6822
151.0640,78.6493
153.7655,78.6493
153.7655,78.8307
153.7725,78.8658
153.8009,79.0085
153.8009,79.0085
153.8703,79.1760
153.9710,79.3268
153.9710,79.3268
154.0992,79.4550
154.2500,79.5557
154.4175,79.6251
154.5953,79.6605
154.5953,79.6605
154.7767,79.6605
154.7767,79.6605
154.9545,79.6251
155.1220,79.5557
155.2728,79.4550
155.4010,79.3268
155.5017,79.1760
155.5711,79.0085
155.6065,78.8307
155.6065,78.6493
155.6055,78.6445
158.7960,78.6445
158.7960,78.8355
158.8238,78.9751
159.0589,78.7400
159.0062,78.6873
159.3660,78.6873
159.3660,78.7927
159.3933,78.8944
159.4459,78.9856
159.5204,79.0601
159.6116,79.1127
159.7133,79.1400
159.8187,79.1400
159.9204,79.1127
160.0116,79.0601
160.0861,78.9856
160.1387,78.8944
160.1660,78.7927
160.1660,78.7400
160.4731,78.7400
160.7082,78.9751
160.7360,78.8355
160.7360,78.6445
160.7082,78.5049
160.4731,78.7400
160.1660,78.7400
160.1660,78.6873
160.1387,78.5856
160.0861,78.4944
160.0116,78.4199
159.9204,78.3673
159.8187,78.3400
159.7133,78.3400
159.6116,78.3673
159.5204,78.4199
159.4459,78.4944
159.3933,78.5856
159.3660,78.6873
159.0062,78.6873
158.8238,78.5049
158.7960,78.6445
155.6055,78.6445
155.5711,78.4715
155.5017,78.3040
155.4010,78.1532
155.2728,78.0250
155.2094,77.9826
155.1220,77.9243
154.9545,77.8549
154.9545,77.8549
154.8118,77.8265
154.7767,77.8195
154.5953,77.8195
154.5660,77.8253
154.4175,77.8549
154.4175,77.8549
154.2500,77.9243
154.0992,78.0250
153.9710,78.1532
153.8703,78.3040
153.8009,78.4715
153.8009,78.4715
153.7782,78.5856
153.7655,78.6493
151.0640,78.6493
151.0640,77.7978
159.5309,77.7978
159.7660,78.0329
160.0011,77.7978
159.8615,77.7700
159.6705,77.7700
159.5309,77.7978
151.0640,77.7978
151.0640,73.8063
158.8955,73.8063
158.8955,75.5457
158.9071,75.6042
158.9071,75.6042
158.9514,75.6705
158.9514,75.6706
159.0178,75.7149
159.0763,75.7265
159.0763,75.7265
160.8157,75.7265
160.8157,75.7265
160.8742,75.7149
160.9406,75.6706
160.9849,75.6042
160.9965,75.5457
160.9965,73.8063
160.9849,73.7478
160.9406,73.6814
160.9406,73.6814
160.8742,73.6371
160.8742,73.6371
160.8742,73.6371
160.8742,73.6371
160.8742,73.6371
160.8448,73.6313
160.8157,73.6255
159.0763,73.6255
159.0530,73.6301
159.0178,73.6371
159.0178,73.6371
158.9514,73.6814
158.9514,73.6814
158.9071,73.7478
158.9071,73.7478
158.8984,73.7917
158.8955,73.8063
151.0640,73.8063
151.0640,72.0325
158.8955,72.0325
158.8955,72.2395
158.9359,72.4424
158.9359,72.4424
158.9971,72.5903
159.0151,72.6336
159.1300,72.8057
159.2763,72.9520
159.4484,73.0669
159.6396,73.1461
159.8425,73.1865
159.8425,73.1865
160.0495,73.1865
160.0495,73.1865
160.2524,73.1461
160.4436,73.0669
160.6157,72.9520
160.7620,72.8057
160.8769,72.6336
160.9561,72.4424
160.9965,72.2395
160.9965,72.0325
160.9561,71.8296
160.8769,71.6384
160.7620,71.4663
160.6157,71.3200
160.6157,71.3200
160.4436,71.2051
160.2524,71.1259
160.2524,71.1259
160.0896,71.0935
160.0495,71.0855
159.8425,71.0855
159.8090,71.0922
159.6396,71.1259
159.6396,71.1259
159.4484,71.2051
159.2763,71.3200
159.1300,71.4663
159.0151,71.6384
158.9359,71.8296
158.9359,71.8296
158.8955,72.0325
151.0640,72.0325
151.0640,70.6424
159.6067,70.6424
159.6884,70.6689
159.8594,70.6960
160.0326,70.6960
160.2036,70.6689
160.2853,70.6424
159.9460,70.3031
159.6067,70.6424
151.0640,70.6424
151.0640,69.5094
158.8460,69.5094
158.8460,69.6826
158.8731,69.8536
158.8996,69.9353
159.2389,69.5960
159.1731,69.5302
159.4460,69.5302
159.4460,69.6618
159.4801,69.7890
159.5459,69.9030
159.6390,69.9961
159.7530,70.0619
159.8802,70.0960
160.0118,70.0960
160.1390,70.0619
160.2530,69.9961
160.3461,69.9030
160.4119,69.7890
160.4460,69.6618
160.4460,69.5960
160.6531,69.5960
160.9924,69.9353
161.0189,69.8536
161.0460,69.6826
161.0460,69.5094
161.0189,69.3384
160.9924,69.2567
160.6531,69.5960
160.4460,69.5960
160.4460,69.5302
160.4119,69.4030
160.3461,69.2890
160.2530,69.1959
160.1390,69.1301
160.0118,69.0960
159.8802,69.0960
159.7530,69.1301
159.6390,69.1959
159.5459,69.2890
159.4801,69.4030
159.4460,69.5302
159.1731,69.5302
158.8996,69.2567
158.8731,69.3384
158.8460,69.5094
151.0640,69.5094
151.0640,68.5496
159.6067,68.5496
159.9460,68.8889
160.2853,68.5496
160.2036,68.5231
160.0326,68.4960
159.8594,68.4960
159.6884,68.5231
159.6067,68.5496
151.0640,68.5496
151.0640,62.0340
151.0674,62.0259
151.0755,62.0225
171.1519,62.0225
Z" /> 
<path style="fill:#000000; fill-opacity:1.0000; stroke:none;fill-rule:evenodd;"
d="M 147.5046,62.0259
147.5080,62.0340
147.5080,82.7725
147.5046,82.7807
147.4965,82.7840
141.5360,82.8030
141.5279,82.7997
141.5245,82.7915
141.5245,65.4107
143.1835,65.4107
143.1835,65.6533
143.2152,65.8938
143.2152,65.8938
143.2152,65.8938
143.2152,65.8938
143.2779,66.1281
143.2779,66.1281
143.3708,66.3522
143.4921,66.5623
143.4921,66.5623
143.4921,66.5623
143.6397,66.7547
143.8113,66.9263
144.0037,67.0739
144.0037,67.0739
144.2138,67.1952
144.2138,67.1952
144.2138,67.1952
144.4379,67.2881
144.4379,67.2881
144.6722,67.3508
144.6722,67.3508
144.6722,67.3508
144.9127,67.3825
144.9127,67.3825
145.1553,67.3825
145.1553,67.3825
145.3958,67.3508
145.3958,67.3508
145.3958,67.3508
145.4571,67.3344
145.6301,67.2881
145.8542,67.1952
146.0643,67.0739
146.2567,66.9263
146.4283,66.7547
146.5759,66.5623
146.6972,66.3522
146.7901,66.1281
146.8528,65.8938
146.8845,65.6533
146.8845,65.4107
146.8528,65.1702
146.8425,65.1317
146.7901,64.9359
146.7901,64.9359
146.7901,64.9359
146.6972,64.7118
146.6314,64.5978
146.5759,64.5017
146.5759,64.5017
146.4283,64.3093
146.2567,64.1377
146.0643,63.9901
146.0643,63.9901
146.0643,63.9901
145.8542,63.8688
145.6301,63.7759
145.3958,63.7132
145.3958,63.7132
145.3958,63.7132
145.2016,63.6876
145.1553,63.6815
145.1553,63.6815
144.9127,63.6815
144.9127,63.6815
144.8201,63.6937
144.6722,63.7132
144.6722,63.7132
144.6722,63.7132
144.6722,63.7132
144.4379,63.7759
144.4379,63.7759
144.2138,63.8688
144.0037,63.9901
143.9315,64.0454
143.8113,64.1377
143.8113,64.1377
143.8113,64.1377
143.6397,64.3093
143.6397,64.3093
143.6397,64.3093
143.5474,64.4295
143.4921,64.5017
143.3708,64.7118
143.2779,64.9359
143.2779,64.9359
143.2152,65.1702
143.2152,65.1702
143.2152,65.1702
143.2152,65.1702
143.1835,65.4107
141.5245,65.4107
141.5245,62.0340
141.5279,62.0259
141.5360,62.0225
147.4965,62.0225
Z" /> 
<path style="fill:#000000; fill-opacity:1.0000; stroke:none;fill-rule:evenodd;"
d="M 191.2461,62.0259
191.2495,62.0340
191.2495,63.9156
191.2461,63.9237
191.2380,63.9271
191.2299,63.9237
191.2274,63.9200
191.2256,63.9156
191.1629,63.7644
191.0480,63.5923
190.9017,63.4460
190.9017,63.4460
190.7296,63.3311
190.5384,63.2519
190.5384,63.2519
190.3756,63.2195
190.3355,63.2115
190.1285,63.2115
190.0950,63.2182
189.9256,63.2519
189.9256,63.2519
189.7344,63.3311
189.5623,63.4460
189.4160,63.5923
189.3011,63.7644
189.2219,63.9556
189.2219,63.9556
189.1815,64.1585
189.1815,64.3655
189.2219,64.5684
189.2219,64.5684
189.2340,64.5978
189.3011,64.7596
189.4160,64.9317
189.5623,65.0780
189.7344,65.1929
189.9256,65.2721
190.1285,65.3125
190.1285,65.3125
190.3355,65.3125
190.3355,65.3125
190.5384,65.2721
190.7296,65.1929
190.9017,65.0780
191.0480,64.9317
191.1629,64.7596
191.2274,64.6040
191.2336,64.5978
191.2424,64.5978
191.2486,64.6040
191.2495,64.6084
191.2495,66.4556
191.2461,66.4637
191.2380,66.4671
191.2299,66.4637
191.2274,66.4600
191.2256,66.4556
191.1629,66.3044
191.0480,66.1323
190.9017,65.9860
190.9017,65.9860
190.7296,65.8711
190.5384,65.7919
190.5384,65.7919
190.3756,65.7595
190.3355,65.7515
190.1285,65.7515
190.0950,65.7582
189.9256,65.7919
189.9256,65.7919
189.7344,65.8711
189.5623,65.9860
189.4160,66.1323
189.3011,66.3044
189.2219,66.4956
189.2219,66.4956
189.1815,66.6985
189.1815,66.9055
189.2219,67.1084
189.2219,67.1084
189.2831,67.2563
189.3011,67.2996
189.4160,67.4717
189.5623,67.6180
189.7344,67.7329
189.9256,67.8121
190.1285,67.8525
190.1285,67.8525
190.3355,67.8525
190.3355,67.8525
190.5384,67.8121
190.7296,67.7329
190.9017,67.6180
191.0480,67.4717
191.1629,67.2996
191.2274,67.1440
191.2336,67.1378
191.2424,67.1378
191.2486,67.1440
191.2495,67.1484
191.2495,68.9956
191.2461,69.0037
191.2380,69.0071
191.2299,69.0037
191.2274,69.0000
191.1969,68.9263
191.1629,68.8444
191.0480,68.6723
190.9017,68.5260
190.9017,68.5260
190.7296,68.4111
190.5384,68.3319
190.5384,68.3319
190.3756,68.2995
190.3355,68.2915
190.1285,68.2915
190.0950,68.2982
189.9256,68.3319
189.9256,68.3319
189.7344,68.4111
189.5623,68.5260
189.4160,68.6723
189.3011,68.8444
189.2219,69.0356
189.2219,69.0356
189.1815,69.2385
189.1815,69.4455
189.2219,69.6484
189.2219,69.6484
189.2831,69.7963
189.3011,69.8396
189.4160,70.0117
189.5623,70.1580
189.7344,70.2729
189.9256,70.3521
190.1285,70.3925
190.1285,70.3925
190.3355,70.3925
190.3355,70.3925
190.5384,70.3521
190.7296,70.2729
190.9017,70.1580
191.0480,70.0117
191.1629,69.8396
191.2274,69.6840
191.2336,69.6778
191.2424,69.6778
191.2486,69.6840
191.2495,69.6884
191.2495,71.5356
191.2461,71.5437
191.2380,71.5471
191.2299,71.5437
191.2274,71.5400
191.1969,71.4663
191.1629,71.3844
191.0480,71.2123
190.9017,71.0660
190.7444,70.9610
190.7296,70.9511
190.5384,70.8719
190.5384,70.8719
190.3756,70.8395
190.3355,70.8315
190.1285,70.8315
190.0950,70.8382
189.9256,70.8719
189.9256,70.8719
189.7344,70.9511
189.5623,71.0660
189.4160,71.2123
189.3011,71.3844
189.2219,71.5756
189.2219,71.5756
189.1815,71.7785
189.1815,71.9855
189.2219,72.1884
189.2219,72.1884
189.3011,72.3796
189.4160,72.5517
189.4160,72.5517
189.5623,72.6980
189.7344,72.8129
189.9256,72.8921
190.1285,72.9325
190.1285,72.9325
190.3355,72.9325
190.3355,72.9325
190.5384,72.8921
190.7296,72.8129
190.9017,72.6980
191.0480,72.5517
191.1629,72.3796
191.2274,72.2240
191.2336,72.2178
191.2424,72.2178
191.2486,72.2240
191.2495,72.2284
191.2495,74.0756
191.2461,74.0837
191.2380,74.0871
191.2299,74.0837
191.2274,74.0800
191.2256,74.0756
191.1629,73.9244
191.0480,73.7523
190.9017,73.6060
190.9017,73.6060
190.7296,73.4911
190.5384,73.4119
190.5384,73.4119
190.3756,73.3795
190.3355,73.3715
190.1285,73.3715
190.0950,73.3782
189.9256,73.4119
189.9256,73.4119
189.7344,73.4911
189.5623,73.6060
189.4160,73.7523
189.3011,73.9244
189.2219,74.1156
189.2219,74.1156
189.1815,74.3185
189.1815,74.5255
189.2219,74.7284
189.2219,74.7284
189.2772,74.8621
189.3011,74.9196
189.4160,75.0917
189.5623,75.2380
189.7344,75.3529
189.9256,75.4321
190.1285,75.4725
190.1285,75.4725
190.3355,75.4725
190.3355,75.4725
190.5384,75.4321
190.7296,75.3529
190.9017,75.2380
191.0480,75.0917
191.1629,74.9196
191.2274,74.7640
191.2336,74.7578
191.2424,74.7578
191.2486,74.7640
191.2495,74.7684
191.2495,76.6156
191.2461,76.6237
191.2380,76.6271
191.2299,76.6237
191.2274,76.6200
191.2256,76.6156
191.1629,76.4644
191.0480,76.2923
190.9017,76.1460
190.9017,76.1460
190.7296,76.0311
190.5384,75.9519
190.5384,75.9519
190.3756,75.9195
190.3355,75.9115
190.1285,75.9115
190.0950,75.9182
189.9256,75.9519
189.9256,75.9519
189.7344,76.0311
189.5623,76.1460
189.4160,76.2923
189.3011,76.4644
189.2219,76.6556
189.2219,76.6556
189.1815,76.8585
189.1815,77.0655
189.2219,77.2684
189.2219,77.2684
189.2340,77.2978
189.3011,77.4596
189.4160,77.6317
189.5623,77.7780
189.7344,77.8929
189.9256,77.9721
190.1285,78.0125
190.1285,78.0125
190.3355,78.0125
190.3355,78.0125
190.5384,77.9721
190.7296,77.8929
190.9017,77.7780
191.0480,77.6317
191.1629,77.4596
191.2274,77.3040
191.2336,77.2978
191.2424,77.2978
191.2486,77.3040
191.2495,77.3084
191.2495,79.1556
191.2461,79.1637
191.2380,79.1671
191.2299,79.1637
191.2274,79.1600
191.1646,79.0085
191.1629,79.0044
191.0480,78.8323
190.9017,78.6860
190.9017,78.6860
190.7296,78.5711
190.5384,78.4919
190.5384,78.4919
190.3756,78.4595
190.3355,78.4515
190.1285,78.4515
190.0950,78.4582
189.9256,78.4919
189.9256,78.4919
189.7344,78.5711
189.5623,78.6860
189.4160,78.8323
189.3011,79.0044
189.2219,79.1956
189.2219,79.1956
189.1815,79.3985
189.1815,79.6055
189.2219,79.8084
189.2219,79.8084
189.3011,79.9996
189.3968,80.1429
189.4160,80.1717
189.5623,80.3180
189.7344,80.4329
189.9256,80.5121
190.1285,80.5525
190.1285,80.5525
190.3355,80.5525
190.3355,80.5525
190.5384,80.5121
190.7296,80.4329
190.9017,80.3180
191.0480,80.1717
191.1629,79.9996
191.2274,79.8440
191.2336,79.8378
191.2424,79.8378
191.2486,79.8440
191.2495,79.8484
191.2495,81.6956
191.2461,81.7037
191.2380,81.7071
191.2299,81.7037
191.2274,81.7000
191.1646,81.5485
191.1629,81.5444
191.0480,81.3723
190.9017,81.2260
190.9017,81.2260
190.7296,81.1111
190.5384,81.0319
190.5384,81.0319
190.3756,80.9995
190.3355,80.9915
190.1285,80.9915
190.0950,80.9982
189.9256,81.0319
189.9256,81.0319
189.7344,81.1111
189.5623,81.2260
189.4160,81.3723
189.3011,81.5444
189.2219,81.7356
189.2219,81.7356
189.1815,81.9385
189.1815,82.1455
189.2219,82.3484
189.2219,82.3484
189.3011,82.5396
189.3762,82.6520
189.4160,82.7117
189.5623,82.8580
189.7344,82.9729
189.9256,83.0521
190.1285,83.0925
190.1285,83.0925
190.3355,83.0925
190.3355,83.0925
190.5384,83.0521
190.7296,82.9729
190.9017,82.8580
191.0480,82.7117
191.1629,82.5396
191.2274,82.3840
191.2336,82.3778
191.2424,82.3778
191.2486,82.3840
191.2495,82.3884
191.2495,84.2356
191.2461,84.2437
191.2380,84.2471
191.2299,84.2437
191.2274,84.2400
191.1992,84.1719
191.1629,84.0844
191.0480,83.9123
190.9017,83.7660
190.7424,83.6596
190.7296,83.6511
190.5384,83.5719
190.5384,83.5719
190.3756,83.5395
190.3355,83.5315
190.1285,83.5315
190.0950,83.5382
189.9256,83.5719
189.9256,83.5719
189.7344,83.6511
189.5623,83.7660
189.4160,83.9123
189.3011,84.0844
189.2219,84.2756
189.2219,84.2756
189.1815,84.4785
189.1815,84.6855
189.2219,84.8884
189.2219,84.8884
189.2340,84.9178
189.3011,85.0796
189.4160,85.2517
189.5623,85.3980
189.7344,85.5129
189.9256,85.5921
190.1285,85.6325
190.1285,85.6325
190.3355,85.6325
190.3355,85.6325
190.5384,85.5921
190.7296,85.5129
190.9017,85.3980
191.0480,85.2517
191.1629,85.0796
191.2274,84.9240
191.2336,84.9178
191.2424,84.9178
191.2486,84.9240
191.2495,84.9284
191.2495,86.7756
191.2461,86.7837
191.2380,86.7871
191.2299,86.7837
191.2274,86.7800
191.2129,86.7451
191.1629,86.6244
191.0480,86.4523
190.9017,86.3060
190.9017,86.3060
190.7296,86.1911
190.5384,86.1119
190.5384,86.1119
190.3756,86.0795
190.3355,86.0715
190.1285,86.0715
190.0950,86.0782
189.9256,86.1119
189.9256,86.1119
189.7344,86.1911
189.5623,86.3060
189.4160,86.4523
189.3011,86.6244
189.2219,86.8156
189.2219,86.8156
189.1815,87.0185
189.1815,87.2255
189.2219,87.4284
189.2219,87.4284
189.2366,87.4640
189.3011,87.6196
189.4160,87.7917
189.5623,87.9380
189.7344,88.0529
189.9256,88.1321
190.1285,88.1725
190.1285,88.1725
190.3355,88.1725
190.3355,88.1725
190.5384,88.1321
190.7296,88.0529
190.9017,87.9380
191.0480,87.7917
191.1629,87.6196
191.2274,87.4640
191.2336,87.4578
191.2424,87.4578
191.2486,87.4640
191.2495,87.4684
191.2495,89.3156
191.2461,89.3237
191.2380,89.3271
191.2299,89.3237
191.2274,89.3200
191.2256,89.3156
191.1629,89.1644
191.0480,88.9923
190.9017,88.8460
190.8622,88.8197
190.7296,88.7311
190.5384,88.6519
190.5384,88.6519
190.3756,88.6195
190.3355,88.6115
190.1285,88.6115
190.0950,88.6182
189.9256,88.6519
189.9256,88.6519
189.7344,88.7311
189.5623,88.8460
189.4160,88.9923
189.3011,89.1644
189.2219,89.3556
189.2219,89.3556
189.1815,89.5585
189.1815,89.7655
189.1895,89.8056
189.2219,89.9684
189.2219,89.9684
189.3011,90.1596
189.4160,90.3317
189.4160,90.3317
189.5623,90.4780
189.7344,90.5929
189.9256,90.6721
190.1285,90.7125
190.1285,90.7125
190.3355,90.7125
190.3355,90.7125
190.5384,90.6721
190.7296,90.5929
190.9017,90.4780
191.0480,90.3317
191.1629,90.1596
191.2274,90.0040
191.2336,89.9978
191.2424,89.9978
191.2486,90.0040
191.2495,90.0084
191.2495,91.8556
191.2461,91.8637
191.2380,91.8671
191.2299,91.8637
191.2274,91.8600
191.2256,91.8556
191.1629,91.7044
191.0480,91.5323
190.9017,91.3860
190.9017,91.3860
190.7296,91.2711
190.5384,91.1919
190.5384,91.1919
190.3756,91.1595
190.3355,91.1515
190.1285,91.1515
190.0950,91.1582
189.9256,91.1919
189.9256,91.1919
189.7344,91.2711
189.5623,91.3860
189.4160,91.5323
189.3011,91.7044
189.2219,91.8956
189.2219,91.8956
189.1815,92.0985
189.1815,92.3055
189.2219,92.5084
189.2219,92.5084
189.3011,92.6996
189.4160,92.8717
189.4160,92.8717
189.5623,93.0180
189.7344,93.1329
189.9256,93.2121
190.1285,93.2525
190.1285,93.2525
190.3355,93.2525
190.3355,93.2525
190.5384,93.2121
190.7296,93.1329
190.9017,93.0180
191.0480,92.8717
191.1629,92.6996
191.2274,92.5440
191.2336,92.5378
191.2424,92.5378
191.2486,92.5440
191.2495,92.5484
191.2495,94.3956
191.2461,94.4037
191.2380,94.4071
191.2299,94.4037
191.2274,94.4000
191.1850,94.2976
191.1629,94.2444
191.0480,94.0723
190.9017,93.9260
190.9017,93.9260
190.7296,93.8111
190.5384,93.7319
190.5384,93.7319
190.3756,93.6995
190.3355,93.6915
190.1285,93.6915
190.0950,93.6982
189.9256,93.7319
189.9256,93.7319
189.7344,93.8111
189.5623,93.9260
189.4160,94.0723
189.3011,94.2444
189.2219,94.4356
189.2219,94.4356
189.1815,94.6385
189.1815,94.8455
189.2219,95.0484
189.2219,95.0484
189.2340,95.0778
189.3011,95.2396
189.4160,95.4117
189.5623,95.5580
189.7344,95.6729
189.9256,95.7521
190.1285,95.7925
190.1285,95.7925
190.3355,95.7925
190.3355,95.7925
190.5384,95.7521
190.7296,95.6729
190.9017,95.5580
191.0480,95.4117
191.1629,95.2396
191.2274,95.0840
191.2336,95.0778
191.2424,95.0778
191.2486,95.0840
191.2495,95.0884
191.2495,96.9356
191.2461,96.9437
191.2380,96.9471
191.2299,96.9437
191.2274,96.9400
191.2256,96.9356
191.1629,96.7844
191.0480,96.6123
190.9017,96.4660
190.9017,96.4660
190.7296,96.3511
190.5384,96.2719
190.5384,96.2719
190.3756,96.2395
190.3355,96.2315
190.1285,96.2315
190.0950,96.2382
189.9256,96.2719
189.9256,96.2719
189.7344,96.3511
189.5623,96.4660
189.4160,96.6123
189.3011,96.7844
189.2219,96.9756
189.2219,96.9756
189.1815,97.1785
189.1815,97.3855
189.2219,97.5884
189.2219,97.5884
189.2340,97.6178
189.3011,97.7796
189.4160,97.9517
189.5623,98.0980
189.7344,98.2129
189.9256,98.2921
190.1285,98.3325
190.1285,98.3325
190.3355,98.3325
190.3355,98.3325
190.5384,98.2921
190.7296,98.2129
190.9017,98.0980
191.0480,97.9517
191.1629,97.7796
191.2274,97.6240
191.2336,97.6178
191.2424,97.6178
191.2486,97.6240
191.2495,97.6284
191.2495,99.4756
191.2461,99.4837
191.2380,99.4871
191.2299,99.4837
191.2274,99.4800
191.2256,99.4756
191.1629,99.3244
191.0480,99.1523
190.9017,99.0060
190.8820,98.9929
190.7296,98.8911
190.5384,98.8119
190.5384,98.8119
190.3756,98.7795
190.3355,98.7715
190.1285,98.7715
190.0950,98.7782
189.9256,98.8119
189.9256,98.8119
189.7344,98.8911
189.5623,99.0060
189.4160,99.1523
189.3011,99.3244
189.2219,99.5156
189.2219,99.5156
189.1815,99.7185
189.1815,99.9255
189.2219,100.1284
189.2219,100.1284
189.2340,100.1578
189.3011,100.3196
189.4160,100.4917
189.5623,100.6380
189.7344,100.7529
189.9256,100.8321
190.1285,100.8725
190.1285,100.8725
190.3355,100.8725
190.3355,100.8725
190.5384,100.8321
190.7296,100.7529
190.9017,100.6380
191.0480,100.4917
191.1629,100.3196
191.2274,100.1640
191.2336,100.1578
191.2424,100.1578
191.2486,100.1640
191.2495,100.1684
191.2495,102.0156
191.2461,102.0237
191.2380,102.0271
191.2299,102.0237
191.2274,102.0200
191.2256,102.0156
191.1629,101.8644
191.0480,101.6923
190.9017,101.5460
190.9017,101.5460
190.7296,101.4311
190.5384,101.3519
190.5384,101.3519
190.3756,101.3195
190.3355,101.3115
190.1285,101.3115
190.0950,101.3182
189.9256,101.3519
189.9256,101.3519
189.7344,101.4311
189.5623,101.5460
189.4160,101.6923
189.3011,101.8644
189.2219,102.0556
189.2219,102.0556
189.1815,102.2585
189.1815,102.4655
189.2219,102.6684
189.2219,102.6684
189.2340,102.6978
189.3011,102.8596
189.4160,103.0317
189.5623,103.1780
189.7344,103.2929
189.9256,103.3721
190.1285,103.4125
190.1285,103.4125
190.3355,103.4125
190.3355,103.4125
190.5384,103.3721
190.7296,103.2929
190.9017,103.1780
191.0480,103.0317
191.1629,102.8596
191.2274,102.7040
191.2336,102.6978
191.2424,102.6978
191.2486,102.7040
191.2495,102.7084
191.2495,104.5556
191.2461,104.5637
191.2380,104.5671
191.2299,104.5637
191.2274,104.5600
191.2256,104.5556
191.1629,104.4044
191.0480,104.2323
190.9017,104.0860
190.9017,104.0860
190.7296,103.9711
190.5384,103.8919
190.5384,103.8919
190.3756,103.8595
190.3355,103.8515
190.1285,103.8515
190.0950,103.8582
189.9256,103.8919
189.9256,103.8919
189.7344,103.9711
189.5623,104.0860
189.4160,104.2323
189.3011,104.4044
189.2219,104.5956
189.2219,104.5956
189.1815,104.7985
189.1815,105.0055
189.2219,105.2084
189.2219,105.2084
189.2340,105.2378
189.3011,105.3996
189.4160,105.5717
189.5623,105.7180
189.7344,105.8329
189.9256,105.9121
190.1285,105.9525
190.1285,105.9525
190.3355,105.9525
190.3355,105.9525
190.5384,105.9121
190.7296,105.8329
190.9017,105.7180
191.0480,105.5717
191.1629,105.3996
191.2274,105.2440
191.2336,105.2378
191.2424,105.2378
191.2486,105.2440
191.2495,105.2484
191.2495,107.0956
191.2461,107.1037
191.2380,107.1071
191.2299,107.1037
191.2274,107.1000
191.2256,107.0956
191.1629,106.9444
191.0480,106.7723
190.9017,106.6260
190.9017,106.6260
190.7296,106.5111
190.5384,106.4319
190.5384,106.4319
190.3756,106.3995
190.3355,106.3915
190.1285,106.3915
190.0950,106.3982
189.9256,106.4319
189.9256,106.4319
189.7344,106.5111
189.5623,106.6260
189.4160,106.7723
189.3011,106.9444
189.2219,107.1356
189.2219,107.1356
189.1815,107.3385
189.1815,107.5455
189.2219,107.7484
189.2219,107.7484
189.2340,107.7778
189.3011,107.9396
189.4160,108.1117
189.5623,108.2580
189.7344,108.3729
189.9256,108.4521
190.1285,108.4925
190.1285,108.4925
190.3355,108.4925
190.3355,108.4925
190.5384,108.4521
190.7296,108.3729
190.9017,108.2580
191.0480,108.1117
191.1629,107.9396
191.2274,107.7840
191.2336,107.7778
191.2424,107.7778
191.2486,107.7840
191.2495,107.7884
191.2495,109.6356
191.2461,109.6437
191.2380,109.6471
191.2299,109.6437
191.2274,109.6400
191.2256,109.6356
191.1629,109.4844
191.0480,109.3123
190.9017,109.1660
190.7371,109.0561
190.7296,109.0511
190.5384,108.9719
190.5384,108.9719
190.3756,108.9395
190.3355,108.9315
190.1285,108.9315
190.1034,108.9365
189.9256,108.9719
189.9256,108.9719
189.7344,109.0511
189.5623,109.1660
189.4160,109.3123
189.3011,109.4844
189.2219,109.6756
189.2219,109.6756
189.1815,109.8785
189.1815,110.0855
189.1825,110.0905
189.2219,110.2884
189.2219,110.2884
189.2239,110.2934
189.3011,110.4796
189.4160,110.6517
189.5623,110.7980
189.7344,110.9129
189.9256,110.9921
190.1285,111.0325
190.1285,111.0325
190.3355,111.0325
190.3355,111.0325
190.5384,110.9921
190.7296,110.9129
190.9017,110.7980
191.0480,110.6517
191.1629,110.4796
191.2274,110.3240
191.2336,110.3178
191.2424,110.3178
191.2486,110.3240
191.2495,110.3284
191.2495,112.1756
191.2461,112.1837
191.2380,112.1871
191.2299,112.1837
191.2274,112.1800
191.2256,112.1756
191.1629,112.0244
191.0480,111.8523
190.9017,111.7060
190.9017,111.7060
190.7296,111.5911
190.5384,111.5119
190.5384,111.5119
190.3756,111.4795
190.3355,111.4715
190.1285,111.4715
190.1034,111.4765
189.9256,111.5119
189.9256,111.5119
189.7344,111.5911
189.5623,111.7060
189.4160,111.8523
189.3011,112.0244
189.2219,112.2156
189.2219,112.2156
189.1815,112.4185
189.1815,112.6255
189.2219,112.8284
189.2219,112.8284
189.2340,112.8578
189.3011,113.0196
189.4160,113.1917
189.5623,113.3380
189.7344,113.4529
189.9256,113.5321
190.1285,113.5725
190.1285,113.5725
190.3355,113.5725
190.3355,113.5725
190.5384,113.5321
190.7296,113.4529
190.9017,113.3380
191.0480,113.1917
191.1629,113.0196
191.2274,112.8640
191.2336,112.8578
191.2424,112.8578
191.2486,112.8640
191.2495,112.8684
191.2495,114.6829
191.2461,114.6910
191.2380,114.6944
177.5207,114.6944
177.5125,114.6910
177.5092,114.6829
177.5092,114.6829
177.5188,111.6573
180.3055,111.6573
180.3055,113.3967
180.3171,113.4552
180.3171,113.4552
180.3614,113.5215
180.3614,113.5216
180.4278,113.5659
180.4863,113.5775
180.4863,113.5775
182.2257,113.5775
182.2257,113.5775
182.2842,113.5659
182.3506,113.5216
182.3949,113.4552
182.4065,113.3967
182.4065,112.4185
186.6415,112.4185
186.6415,112.6255
186.6819,112.8284
186.6819,112.8284
186.6940,112.8578
186.7611,113.0196
186.8760,113.1917
187.0223,113.3380
187.1944,113.4529
187.3856,113.5321
187.5885,113.5725
187.5885,113.5725
187.7955,113.5725
187.7955,113.5725
187.9984,113.5321
188.1896,113.4529
188.3617,113.3380
188.5080,113.1917
188.6229,113.0196
188.7021,112.8284
188.7425,112.6255
188.7425,112.4185
188.7021,112.2156
188.6229,112.0244
188.5080,111.8523
188.3617,111.7060
188.3617,111.7060
188.1896,111.5911
187.9984,111.5119
187.9984,111.5119
187.8356,111.4795
187.7955,111.4715
187.5885,111.4715
187.5634,111.4765
187.3856,111.5119
187.3856,111.5119
187.1944,111.5911
187.0223,111.7060
186.8760,111.8523
186.7611,112.0244
186.6819,112.2156
186.6819,112.2156
186.6415,112.4185
182.4065,112.4185
182.4065,111.6573
182.3949,111.5988
182.3506,111.5324
182.3505,111.5324
182.2842,111.4881
182.2842,111.4881
182.2842,111.4881
182.2842,111.4881
182.2842,111.4881
182.2548,111.4823
182.2257,111.4765
180.4863,111.4765
180.4630,111.4811
180.4278,111.4881
180.4278,111.4881
180.3614,111.5324
180.3614,111.5324
180.3171,111.5988
180.3171,111.5988
180.3084,111.6427
180.3055,111.6573
177.5188,111.6573
177.5188,111.6566
177.5244,109.8835
180.3055,109.8835
180.3055,110.0905
180.3459,110.2934
180.3459,110.2934
180.3560,110.3178
180.4251,110.4846
180.5400,110.6567
180.6863,110.8030
180.8584,110.9179
181.0496,110.9971
181.2525,111.0375
181.2525,111.0375
181.4595,111.0375
181.4595,111.0375
181.6624,110.9971
181.8536,110.9179
182.0257,110.8030
182.1720,110.6567
182.2869,110.4846
182.3661,110.2934
182.4065,110.0905
182.4065,109.8835
182.4055,109.8785
186.6415,109.8785
186.6415,110.0855
186.6425,110.0905
186.6819,110.2884
186.6819,110.2884
186.6839,110.2934
186.7611,110.4796
186.8760,110.6517
187.0223,110.7980
187.1944,110.9129
187.3856,110.9921
187.5885,111.0325
187.5885,111.0325
187.7955,111.0325
187.7955,111.0325
187.9984,110.9921
188.1896,110.9129
188.3617,110.7980
188.5080,110.6517
188.6229,110.4796
188.7021,110.2884
188.7425,110.0855
188.7425,109.8785
188.7021,109.6756
188.6229,109.4844
188.5080,109.3123
188.3617,109.1660
188.1971,109.0561
188.1896,109.0511
187.9984,108.9719
187.9984,108.9719
187.8356,108.9395
187.7955,108.9315
187.5885,108.9315
187.5634,108.9365
187.3856,108.9719
187.3856,108.9719
187.1944,109.0511
187.0223,109.1660
186.8760,109.3123
186.7611,109.4844
186.6819,109.6756
186.6819,109.6756
186.6415,109.8785
182.4055,109.8785
182.3661,109.6806
182.2869,109.4894
182.1720,109.3173
182.0257,109.1710
182.0182,109.1660
181.8536,109.0561
181.6624,108.9769
181.6624,108.9769
181.4996,108.9445
181.4595,108.9365
181.2525,108.9365
181.2190,108.9432
181.0496,108.9769
181.0496,108.9769
180.8584,109.0561
180.6863,109.1710
180.5400,109.3173
180.4251,109.4894
180.3459,109.6806
180.3459,109.6806
180.3055,109.8835
177.5244,109.8835
177.5244,109.8829
177.5300,108.1380
165.8007,108.1380
165.8216,114.6829
165.8182,114.6910
165.8101,114.6944
152.6530,114.6944
152.6448,114.6910
152.6415,114.6829
152.6415,114.6829
152.6625,108.0802
141.5360,108.0802
141.5279,108.0769
141.5245,108.0687
141.5245,107.3385
186.6415,107.3385
186.6415,107.5455
186.6819,107.7484
186.6819,107.7484
186.6940,107.7778
186.7611,107.9396
186.8760,108.1117
187.0223,108.2580
187.1944,108.3729
187.3856,108.4521
187.5885,108.4925
187.5885,108.4925
187.7955,108.4925
187.7955,108.4925
187.9984,108.4521
188.1896,108.3729
188.3617,108.2580
188.5080,108.1117
188.6229,107.9396
188.7021,107.7484
188.7425,107.5455
188.7425,107.3385
188.7021,107.1356
188.6229,106.9444
188.5080,106.7723
188.3617,106.6260
188.3617,106.6260
188.1896,106.5111
187.9984,106.4319
187.9984,106.4319
187.8356,106.3995
187.7955,106.3915
187.5885,106.3915
187.5550,106.3982
187.3856,106.4319
187.3856,106.4319
187.1944,106.5111
187.0223,106.6260
186.8760,106.7723
186.7611,106.9444
186.6819,107.1356
186.6819,107.1356
186.6415,107.3385
141.5245,107.3385
141.5245,104.7985
186.6415,104.7985
186.6415,105.0055
186.6819,105.2084
186.6819,105.2084
186.6940,105.2378
186.7611,105.3996
186.8760,105.5717
187.0223,105.7180
187.1944,105.8329
187.3856,105.9121
187.5885,105.9525
187.5885,105.9525
187.7955,105.9525
187.7955,105.9525
187.9984,105.9121
188.1896,105.8329
188.3617,105.7180
188.5080,105.5717
188.6229,105.3996
188.7021,105.2084
188.7425,105.0055
188.7425,104.7985
188.7021,104.5956
188.6229,104.4044
188.5080,104.2323
188.3617,104.0860
188.3617,104.0860
188.1896,103.9711
187.9984,103.8919
187.9984,103.8919
187.8356,103.8595
187.7955,103.8515
187.5885,103.8515
187.5550,103.8582
187.3856,103.8919
187.3856,103.8919
187.1944,103.9711
187.0223,104.0860
186.8760,104.2323
186.7611,104.4044
186.6819,104.5956
186.6819,104.5956
186.6415,104.7985
141.5245,104.7985
141.5245,102.2585
186.6415,102.2585
186.6415,102.4655
186.6819,102.6684
186.6819,102.6684
186.6940,102.6978
186.7611,102.8596
186.8760,103.0317
187.0223,103.1780
187.1944,103.2929
187.3856,103.3721
187.5885,103.4125
187.5885,103.4125
187.7955,103.4125
187.7955,103.4125
187.9984,103.3721
188.1896,103.2929
188.3617,103.1780
188.5080,103.0317
188.6229,102.8596
188.7021,102.6684
188.7425,102.4655
188.7425,102.2585
188.7021,102.0556
188.6229,101.8644
188.5080,101.6923
188.3617,101.5460
188.3617,101.5460
188.1896,101.4311
187.9984,101.3519
187.9984,101.3519
187.8356,101.3195
187.7955,101.3115
187.5885,101.3115
187.5550,101.3182
187.3856,101.3519
187.3856,101.3519
187.1944,101.4311
187.0223,101.5460
186.8760,101.6923
186.7611,101.8644
186.6819,102.0556
186.6819,102.0556
186.6415,102.2585
141.5245,102.2585
141.5245,99.7185
186.6415,99.7185
186.6415,99.9255
186.6819,100.1284
186.6819,100.1284
186.6940,100.1578
186.7611,100.3196
186.8760,100.4917
187.0223,100.6380
187.1944,100.7529
187.3856,100.8321
187.5885,100.8725
187.5885,100.8725
187.7955,100.8725
187.7955,100.8725
187.9984,100.8321
188.1896,100.7529
188.3617,100.6380
188.5080,100.4917
188.6229,100.3196
188.7021,100.1284
188.7425,99.9255
188.7425,99.7185
188.7021,99.5156
188.6229,99.3244
188.5080,99.1523
188.3617,99.0060
188.3420,98.9929
188.1896,98.8911
187.9984,98.8119
187.9984,98.8119
187.8356,98.7795
187.7955,98.7715
187.5885,98.7715
187.5550,98.7782
187.3856,98.8119
187.3856,98.8119
187.1944,98.8911
187.0223,99.0060
186.8760,99.1523
186.7611,99.3244
186.6819,99.5156
186.6819,99.5156
186.6415,99.7185
141.5245,99.7185
141.5245,93.9925
141.5279,93.9844
141.5360,93.9810
147.4965,94.0000
147.5047,94.0033
147.5080,94.0115
147.5080,98.9929
174.3174,98.9929
174.3174,98.9929
174.3174,97.1785
186.6415,97.1785
186.6415,97.3855
186.6819,97.5884
186.6819,97.5884
186.6940,97.6178
186.7611,97.7796
186.8760,97.9517
187.0223,98.0980
187.1944,98.2129
187.3856,98.2921
187.5885,98.3325
187.5885,98.3325
187.7955,98.3325
187.7955,98.3325
187.9984,98.2921
188.1896,98.2129
188.3617,98.0980
188.5080,97.9517
188.6229,97.7796
188.7021,97.5884
188.7425,97.3855
188.7425,97.1785
188.7021,96.9756
188.6229,96.7844
188.5080,96.6123
188.3617,96.4660
188.3617,96.4660
188.1896,96.3511
187.9984,96.2719
187.9984,96.2719
187.8356,96.2395
187.7955,96.2315
187.5885,96.2315
187.5550,96.2382
187.3856,96.2719
187.3856,96.2719
187.1944,96.3511
187.0223,96.4660
186.8760,96.6123
186.7611,96.7844
186.6819,96.9756
186.6819,96.9756
186.6415,97.1785
174.3174,97.1785
174.3174,94.6385
186.6415,94.6385
186.6415,94.8455
186.6819,95.0484
186.6819,95.0484
186.6940,95.0778
186.7611,95.2396
186.8760,95.4117
187.0223,95.5580
187.1944,95.6729
187.3856,95.7521
187.5885,95.7925
187.5885,95.7925
187.7955,95.7925
187.7955,95.7925
187.9984,95.7521
188.1896,95.6729
188.3617,95.5580
188.5080,95.4117
188.6229,95.2396
188.7021,95.0484
188.7425,94.8455
188.7425,94.6385
188.7021,94.4356
188.6229,94.2444
188.5080,94.0723
188.3617,93.9260
188.3617,93.9260
188.1896,93.8111
187.9984,93.7319
187.9984,93.7319
187.8356,93.6995
187.7955,93.6915
187.5885,93.6915
187.5550,93.6982
187.3856,93.7319
187.3856,93.7319
187.1944,93.8111
187.0223,93.9260
186.8760,94.0723
186.7611,94.2444
186.6819,94.4356
186.6819,94.4356
186.6415,94.6385
174.3174,94.6385
174.3174,92.0985
186.6415,92.0985
186.6415,92.3055
186.6819,92.5084
186.6819,92.5084
186.7611,92.6996
186.8760,92.8717
186.8760,92.8717
187.0223,93.0180
187.1944,93.1329
187.3856,93.2121
187.5885,93.2525
187.5885,93.2525
187.7955,93.2525
187.7955,93.2525
187.9984,93.2121
188.1896,93.1329
188.3617,93.0180
188.5080,92.8717
188.6229,92.6996
188.7021,92.5084
188.7425,92.3055
188.7425,92.0985
188.7021,91.8956
188.6229,91.7044
188.5080,91.5323
188.3617,91.3860
188.3617,91.3860
188.1896,91.2711
187.9984,91.1919
187.9984,91.1919
187.8356,91.1595
187.7955,91.1515
187.5885,91.1515
187.5550,91.1582
187.3856,91.1919
187.3856,91.1919
187.1944,91.2711
187.0223,91.3860
186.8760,91.5323
186.7611,91.7044
186.6819,91.8956
186.6819,91.8956
186.6415,92.0985
174.3174,92.0985
174.3174,89.5585
186.6415,89.5585
186.6415,89.7655
186.6495,89.8056
186.6819,89.9684
186.6819,89.9684
186.7611,90.1596
186.8760,90.3317
186.8760,90.3317
187.0223,90.4780
187.1944,90.5929
187.3856,90.6721
187.5885,90.7125
187.5885,90.7125
187.7955,90.7125
187.7955,90.7125
187.9984,90.6721
188.1896,90.5929
188.3617,90.4780
188.5080,90.3317
188.6229,90.1596
188.7021,89.9684
188.7425,89.7655
188.7425,89.5585
188.7021,89.3556
188.6229,89.1644
188.5080,88.9923
188.3617,88.8460
188.3222,88.8197
188.1896,88.7311
187.9984,88.6519
187.9984,88.6519
187.8356,88.6195
187.7955,88.6115
187.5885,88.6115
187.5550,88.6182
187.3856,88.6519
187.3856,88.6519
187.1944,88.7311
187.0223,88.8460
186.8760,88.9923
186.7611,89.1644
186.6819,89.3556
186.6819,89.3556
186.6415,89.5585
174.3174,89.5585
174.3174,87.0185
186.6415,87.0185
186.6415,87.2255
186.6819,87.4284
186.6819,87.4284
186.6966,87.4640
186.7611,87.6196
186.8760,87.7917
187.0223,87.9380
187.1944,88.0529
187.3856,88.1321
187.5885,88.1725
187.5885,88.1725
187.7955,88.1725
187.7955,88.1725
187.9984,88.1321
188.1896,88.0529
188.3617,87.9380
188.5080,87.7917
188.6229,87.6196
188.7021,87.4284
188.7425,87.2255
188.7425,87.0185
188.7021,86.8156
188.6229,86.6244
188.5080,86.4523
188.3617,86.3060
188.3617,86.3060
188.1896,86.1911
187.9984,86.1119
187.9984,86.1119
187.8356,86.0795
187.7955,86.0715
187.5885,86.0715
187.5550,86.0782
187.3856,86.1119
187.3856,86.1119
187.1944,86.1911
187.0223,86.3060
186.8760,86.4523
186.7611,86.6244
186.6819,86.8156
186.6819,86.8156
186.6415,87.0185
174.3174,87.0185
174.3174,84.4785
186.6415,84.4785
186.6415,84.6855
186.6819,84.8884
186.6819,84.8884
186.6940,84.9178
186.7611,85.0796
186.8760,85.2517
187.0223,85.3980
187.1944,85.5129
187.3856,85.5921
187.5885,85.6325
187.5885,85.6325
187.7955,85.6325
187.7955,85.6325
187.9984,85.5921
188.1896,85.5129
188.3617,85.3980
188.5080,85.2517
188.6229,85.0796
188.7021,84.8884
188.7425,84.6855
188.7425,84.4785
188.7021,84.2756
188.6229,84.0844
188.5080,83.9123
188.3617,83.7660
188.2024,83.6596
188.1896,83.6511
187.9984,83.5719
187.9984,83.5719
187.8356,83.5395
187.7955,83.5315
187.5885,83.5315
187.5550,83.5382
187.3856,83.5719
187.3856,83.5719
187.1944,83.6511
187.0223,83.7660
186.8760,83.9123
186.7611,84.0844
186.6819,84.2756
186.6819,84.2756
186.6415,84.4785
174.3174,84.4785
174.3174,81.9385
186.6415,81.9385
186.6415,82.1455
186.6819,82.3484
186.6819,82.3484
186.7611,82.5396
186.8362,82.6520
186.8760,82.7117
187.0223,82.8580
187.1944,82.9729
187.3856,83.0521
187.5885,83.0925
187.5885,83.0925
187.7955,83.0925
187.7955,83.0925
187.9984,83.0521
188.1896,82.9729
188.3617,82.8580
188.5080,82.7117
188.6229,82.5396
188.7021,82.3484
188.7425,82.1455
188.7425,81.9385
188.7021,81.7356
188.6229,81.5444
188.5080,81.3723
188.3617,81.2260
188.3617,81.2260
188.1896,81.1111
187.9984,81.0319
187.9984,81.0319
187.8356,80.9995
187.7955,80.9915
187.5885,80.9915
187.5550,80.9982
187.3856,81.0319
187.3856,81.0319
187.1944,81.1111
187.0223,81.2260
186.8760,81.3723
186.7611,81.5444
186.6819,81.7356
186.6819,81.7356
186.6415,81.9385
174.3174,81.9385
174.3174,79.3985
186.6415,79.3985
186.6415,79.6055
186.6819,79.8084
186.6819,79.8084
186.7611,79.9996
186.8568,80.1429
186.8760,80.1717
187.0223,80.3180
187.1944,80.4329
187.3856,80.5121
187.5885,80.5525
187.5885,80.5525
187.7955,80.5525
187.7955,80.5525
187.9984,80.5121
188.1896,80.4329
188.3617,80.3180
188.5080,80.1717
188.6229,79.9996
188.7021,79.8084
188.7425,79.6055
188.7425,79.3985
188.7021,79.1956
188.6229,79.0044
188.5080,78.8323
188.3617,78.6860
188.3617,78.6860
188.1896,78.5711
187.9984,78.4919
187.9984,78.4919
187.8356,78.4595
187.7955,78.4515
187.5885,78.4515
187.5550,78.4582
187.3856,78.4919
187.3856,78.4919
187.1944,78.5711
187.0223,78.6860
186.8760,78.8323
186.7611,79.0044
186.6819,79.1956
186.6819,79.1956
186.6415,79.3985
174.3174,79.3985
174.3174,76.8585
186.6415,76.8585
186.6415,77.0655
186.6819,77.2684
186.6819,77.2684
186.6940,77.2978
186.7611,77.4596
186.8760,77.6317
187.0223,77.7780
187.1944,77.8929
187.3856,77.9721
187.5885,78.0125
187.5885,78.0125
187.7955,78.0125
187.7955,78.0125
187.9984,77.9721
188.1896,77.8929
188.3617,77.7780
188.5080,77.6317
188.6229,77.4596
188.7021,77.2684
188.7425,77.0655
188.7425,76.8585
188.7021,76.6556
188.6229,76.4644
188.5080,76.2923
188.3617,76.1460
188.3617,76.1460
188.1896,76.0311
187.9984,75.9519
187.9984,75.9519
187.8356,75.9195
187.7955,75.9115
187.5885,75.9115
187.5550,75.9182
187.3856,75.9519
187.3856,75.9519
187.1944,76.0311
187.0223,76.1460
186.8760,76.2923
186.7611,76.4644
186.6819,76.6556
186.6819,76.6556
186.6415,76.8585
174.3174,76.8585
174.3174,74.3185
186.6415,74.3185
186.6415,74.5255
186.6819,74.7284
186.6819,74.7284
186.7372,74.8621
186.7611,74.9196
186.8760,75.0917
187.0223,75.2380
187.1944,75.3529
187.3856,75.4321
187.5885,75.4725
187.5885,75.4725
187.7955,75.4725
187.7955,75.4725
187.9984,75.4321
188.1896,75.3529
188.3617,75.2380
188.5080,75.0917
188.6229,74.9196
188.7021,74.7284
188.7425,74.5255
188.7425,74.3185
188.7021,74.1156
188.6229,73.9244
188.5080,73.7523
188.3617,73.6060
188.3617,73.6060
188.1896,73.4911
187.9984,73.4119
187.9984,73.4119
187.8356,73.3795
187.7955,73.3715
187.5885,73.3715
187.5550,73.3782
187.3856,73.4119
187.3856,73.4119
187.1944,73.4911
187.0223,73.6060
186.8760,73.7523
186.7611,73.9244
186.6819,74.1156
186.6819,74.1156
186.6415,74.3185
174.3174,74.3185
174.3174,71.7785
186.6415,71.7785
186.6415,71.9855
186.6819,72.1884
186.6819,72.1884
186.7611,72.3796
186.8760,72.5517
186.8760,72.5517
187.0223,72.6980
187.1944,72.8129
187.3856,72.8921
187.5885,72.9325
187.5885,72.9325
187.7955,72.9325
187.7955,72.9325
187.9984,72.8921
188.1896,72.8129
188.3617,72.6980
188.5080,72.5517
188.6229,72.3796
188.7021,72.1884
188.7425,71.9855
188.7425,71.7785
188.7021,71.5756
188.6229,71.3844
188.5080,71.2123
188.3617,71.0660
188.2044,70.9610
188.1896,70.9511
187.9984,70.8719
187.9984,70.8719
187.8356,70.8395
187.7955,70.8315
187.5885,70.8315
187.5550,70.8382
187.3856,70.8719
187.3856,70.8719
187.1944,70.9511
187.0223,71.0660
186.8760,71.2123
186.7611,71.3844
186.6819,71.5756
186.6819,71.5756
186.6415,71.7785
174.3174,71.7785
174.3174,69.2385
186.6415,69.2385
186.6415,69.4455
186.6819,69.6484
186.6819,69.6484
186.7431,69.7963
186.7611,69.8396
186.8760,70.0117
187.0223,70.1580
187.1944,70.2729
187.3856,70.3521
187.5885,70.3925
187.5885,70.3925
187.7955,70.3925
187.7955,70.3925
187.9984,70.3521
188.1896,70.2729
188.3617,70.1580
188.5080,70.0117
188.6229,69.8396
188.7021,69.6484
188.7425,69.4455
188.7425,69.2385
188.7021,69.0356
188.6229,68.8444
188.5080,68.6723
188.3617,68.5260
188.3617,68.5260
188.1896,68.4111
187.9984,68.3319
187.9984,68.3319
187.8356,68.2995
187.7955,68.2915
187.5885,68.2915
187.5550,68.2982
187.3856,68.3319
187.3856,68.3319
187.1944,68.4111
187.0223,68.5260
186.8760,68.6723
186.7611,68.8444
186.6819,69.0356
186.6819,69.0356
186.6415,69.2385
174.3174,69.2385
174.3174,66.6985
186.6415,66.6985
186.6415,66.9055
186.6819,67.1084
186.6819,67.1084
186.7431,67.2563
186.7611,67.2996
186.8760,67.4717
187.0223,67.6180
187.1944,67.7329
187.3856,67.8121
187.5885,67.8525
187.5885,67.8525
187.7955,67.8525
187.7955,67.8525
187.9984,67.8121
188.1896,67.7329
188.3617,67.6180
188.5080,67.4717
188.6229,67.2996
188.7021,67.1084
188.7425,66.9055
188.7425,66.6985
188.7021,66.4956
188.6229,66.3044
188.5080,66.1323
188.3617,65.9860
188.3617,65.9860
188.1896,65.8711
187.9984,65.7919
187.9984,65.7919
187.8356,65.7595
187.7955,65.7515
187.5885,65.7515
187.5550,65.7582
187.3856,65.7919
187.3856,65.7919
187.1944,65.8711
187.0223,65.9860
186.8760,66.1323
186.7611,66.3044
186.6819,66.4956
186.6819,66.4956
186.6415,66.6985
174.3174,66.6985
174.3174,63.3923
186.6415,63.3923
186.6415,65.1317
186.6531,65.1902
186.6549,65.1929
186.6974,65.2565
186.6974,65.2566
186.7638,65.3009
186.8223,65.3125
186.8223,65.3125
188.5617,65.3125
188.5617,65.3125
188.6202,65.3009
188.6866,65.2566
188.7309,65.1902
188.7425,65.1317
188.7425,63.3923
188.7309,63.3338
188.6866,63.2674
188.6865,63.2674
188.6202,63.2231
188.6202,63.2231
188.6202,63.2231
188.6202,63.2231
188.6202,63.2231
188.5908,63.2173
188.5617,63.2115
186.8223,63.2115
186.7990,63.2161
186.7638,63.2231
186.7638,63.2231
186.6974,63.2674
186.6974,63.2674
186.6531,63.3338
186.6531,63.3338
186.6454,63.3728
186.6415,63.3923
174.3174,63.3923
174.3174,62.0340
174.3207,62.0259
174.3289,62.0225
191.2380,62.0225
Z" /> 
</g>
<g style="fill:#FFFFFF; fill-opacity:1.0000; stroke:none;">
<circle cx="167.4573" cy="71.6993" r="0.3000" /> 
</g>
<g style="fill:#FFFFFF; fill-opacity:1.0000; stroke:none;">
<circle cx="167.8266" cy="77.2834" r="0.3000" /> 
</g>
<g style="fill:#FFFFFF; fill-opacity:1.0000; stroke:none;">
<circle cx="155.9375" cy="94.2040" r="0.3000" /> 
</g>
<g style="fill:#FFFFFF; fill-opacity:1.0000; stroke:none;">
<circle cx="167.6400" cy="89.6620" r="0.3000" /> 
</g>
<g style="fill:#FFFFFF; fill-opacity:1.0000; stroke:none;">
<circle cx="154.9215" cy="88.1080" r="0.3000" /> 
</g>
<g style="fill:#FFFFFF; fill-opacity:1.0000; stroke:none;">
<circle cx="166.6240" cy="83.5660" r="0.3000" /> 
</g>
<g style="fill:#FFFFFF; fill-opacity:1.0000; stroke:none;">
<circle cx="162.3060" cy="63.3130" r="0.5000" /> 
</g>
<g style="fill:#FFFFFF; fill-opacity:1.0000; stroke:none;">
<circle cx="164.8460" cy="63.3130" r="0.5000" /> 
</g>
<g style="fill:#FFFFFF; fill-opacity:1.0000; stroke:none;">
<circle cx="167.3860" cy="63.3130" r="0.5000" /> 
</g>
<g style="fill:#FFFFFF; fill-opacity:1.0000; stroke:none;">
<circle cx="145.0340" cy="65.5320" r="1.6000" /> 
</g>
<g style="fill:#FFFFFF; fill-opacity:1.0000; stroke:none;">
<circle cx="181.3560" cy="112.5270" r="0.5000" /> 
</g>
<g style="fill:#FFFFFF; fill-opacity:1.0000; stroke:none;">
<circle cx="181.3560" cy="109.9870" r="0.5000" /> 
</g>
<g style="fill:#FFFFFF; fill-opacity:1.0000; stroke:none;">
<circle cx="187.6920" cy="64.2620" r="0.5000" /> 
</g>
<g style="fill:#FFFFFF; fill-opacity:1.0000; stroke:none;">
<circle cx="190.2320" cy="64.2620" r="0.5000" /> 
</g>
<g style="fill:#FFFFFF; fill-opacity:1.0000; stroke:none;">
<circle cx="187.6920" cy="66.8020" r="0.5000" /> 
</g>
<g style="fill:#FFFFFF; fill-opacity:1.0000; stroke:none;">
<circle cx="190.2320" cy="66.8020" r="0.5000" /> 
</g>
<g style="fill:#FFFFFF; fill-opacity:1.0000; stroke:none;">
<circle cx="187.6920" cy="69.3420" r="0.5000" /> 
</g>
<g style="fill:#FFFFFF; fill-opacity:1.0000; stroke:none;">
<circle cx="190.2320" cy="69.3420" r="0.5000" /> 
</g>
<g style="fill:#FFFFFF; fill-opacity:1.0000; stroke:none;">
<circle cx="187.6920" cy="71.8820" r="0.5000" /> 
</g>
<g style="fill:#FFFFFF; fill-opacity:1.0000; stroke:none;">
<circle cx="190.2320" cy="71.8820" r="0.5000" /> 
</g>
<g style="fill:#FFFFFF; fill-opacity:1.0000; stroke:none;">
<circle cx="187.6920" cy="74.4220" r="0.5000" /> 
</g>
<g style="fill:#FFFFFF; fill-opacity:1.0000; stroke:none;">
<circle cx="190.2320" cy="74.4220" r="0.5000" /> 
</g>
<g style="fill:#FFFFFF; fill-opacity:1.0000; stroke:none;">
<circle cx="187.6920" cy="76.9620" r="0.5000" /> 
</g>
<g style="fill:#FFFFFF; fill-opacity:1.0000; stroke:none;">
<circle cx="190.2320" cy="76.9620" r="0.5000" /> 
</g>
<g style="fill:#FFFFFF; fill-opacity:1.0000; stroke:none;">
<circle cx="187.6920" cy="79.5020" r="0.5000" /> 
</g>
<g style="fill:#FFFFFF; fill-opacity:1.0000; stroke:none;">
<circle cx="190.2320" cy="79.5020" r="0.5000" /> 
</g>
<g style="fill:#FFFFFF; fill-opacity:1.0000; stroke:none;">
<circle cx="187.6920" cy="82.0420" r="0.5000" /> 
</g>
<g style="fill:#FFFFFF; fill-opacity:1.0000; stroke:none;">
<circle cx="190.2320" cy="82.0420" r="0.5000" /> 
</g>
<g style="fill:#FFFFFF; fill-opacity:1.0000; stroke:none;">
<circle cx="187.6920" cy="84.5820" r="0.5000" /> 
</g>
<g style="fill:#FFFFFF; fill-opacity:1.0000; stroke:none;">
<circle cx="190.2320" cy="84.5820" r="0.5000" /> 
</g>
<g style="fill:#FFFFFF; fill-opacity:1.0000; stroke:none;">
<circle cx="187.6920" cy="87.1220" r="0.5000" /> 
</g>
<g style="fill:#FFFFFF; fill-opacity:1.0000; stroke:none;">
<circle cx="190.2320" cy="87.1220" r="0.5000" /> 
</g>
<g style="fill:#FFFFFF; fill-opacity:1.0000; stroke:none;">
<circle cx="187.6920" cy="89.6620" r="0.5000" /> 
</g>
<g style="fill:#FFFFFF; fill-opacity:1.0000; stroke:none;">
<circle cx="190.2320" cy="89.6620" r="0.5000" /> 
</g>
<g style="fill:#FFFFFF; fill-opacity:1.0000; stroke:none;">
<circle cx="187.6920" cy="92.2020" r="0.5000" /> 
</g>
<g style="fill:#FFFFFF; fill-opacity:1.0000; stroke:none;">
<circle cx="190.2320" cy="92.2020" r="0.5000" /> 
</g>
<g style="fill:#FFFFFF; fill-opacity:1.0000; stroke:none;">
<circle cx="187.6920" cy="94.7420" r="0.5000" /> 
</g>
<g style="fill:#FFFFFF; fill-opacity:1.0000; stroke:none;">
<circle cx="190.2320" cy="94.7420" r="0.5000" /> 
</g>
<g style="fill:#FFFFFF; fill-opacity:1.0000; stroke:none;">
<circle cx="187.6920" cy="97.2820" r="0.5000" /> 
</g>
<g style="fill:#FFFFFF; fill-opacity:1.0000; stroke:none;">
<circle cx="190.2320" cy="97.2820" r="0.5000" /> 
</g>
<g style="fill:#FFFFFF; fill-opacity:1.0000; stroke:none;">
<circle cx="187.6920" cy="99.8220" r="0.5000" /> 
</g>
<g style="fill:#FFFFFF; fill-opacity:1.0000; stroke:none;">
<circle cx="190.2320" cy="99.8220" r="0.5000" /> 
</g>
<g style="fill:#FFFFFF; fill-opacity:1.0000; stroke:none;">
<circle cx="187.6920" cy="102.3620" r="0.5000" /> 
</g>
<g style="fill:#FFFFFF; fill-opacity:1.0000; stroke:none;">
<circle cx="190.2320" cy="102.3620" r="0.5000" /> 
</g>
<g style="fill:#FFFFFF; fill-opacity:1.0000; stroke:none;">
<circle cx="187.6920" cy="104.9020" r="0.5000" /> 
</g>
<g style="fill:#FFFFFF; fill-opacity:1.0000; stroke:none;">
<circle cx="190.2320" cy="104.9020" r="0.5000" /> 
</g>
<g style="fill:#FFFFFF; fill-opacity:1.0000; stroke:none;">
<circle cx="187.6920" cy="107.4420" r="0.5000" /> 
</g>
<g style="fill:#FFFFFF; fill-opacity:1.0000; stroke:none;">
<circle cx="190.2320" cy="107.4420" r="0.5000" /> 
</g>
<g style="fill:#FFFFFF; fill-opacity:1.0000; stroke:none;">
<circle cx="187.6920" cy="109.9820" r="0.5000" /> 
</g>
<g style="fill:#FFFFFF; fill-opacity:1.0000; stroke:none;">
<circle cx="190.2320" cy="109.9820" r="0.5000" /> 
</g>
<g style="fill:#FFFFFF; fill-opacity:1.0000; stroke:none;">
<circle cx="187.6920" cy="112.5220" r="0.5000" /> 
</g>
<g style="fill:#FFFFFF; fill-opacity:1.0000; stroke:none;">
<circle cx="190.2320" cy="112.5220" r="0.5000" /> 
</g>
<g style="fill:#FFFFFF; fill-opacity:1.0000; stroke:none;">
<circle cx="173.3495" cy="89.0735" r="0.3750" /> 
</g>
<g style="fill:#FFFFFF; fill-opacity:1.0000; stroke:none;">
<circle cx="173.3495" cy="87.8035" r="0.3750" /> 
</g>
<g style="fill:#FFFFFF; fill-opacity:1.0000; stroke:none;">
<circle cx="173.3495" cy="86.5335" r="0.3750" /> 
</g>
<g style="fill:#FFFFFF; fill-opacity:1.0000; stroke:none;">
<circle cx="154.6860" cy="78.7400" r="0.4000" /> 
</g>
<g style="fill:#FFFFFF; fill-opacity:1.0000; stroke:none;">
<circle cx="157.2260" cy="81.2800" r="0.4000" /> 
</g>
<g style="fill:#FFFFFF; fill-opacity:1.0000; stroke:none;">
<circle cx="159.7660" cy="78.7400" r="0.4000" /> 
</g>
<g style="fill:#FFFFFF; fill-opacity:1.0000; stroke:none;">
<circle cx="159.9460" cy="74.6760" r="0.5000" /> 
</g>
<g style="fill:#FFFFFF; fill-opacity:1.0000; stroke:none;">
<circle cx="159.9460" cy="72.1360" r="0.5000" /> 
</g>
<g style="fill:#FFFFFF; fill-opacity:1.0000; stroke:none;">
<circle cx="159.9460" cy="69.5960" r="0.5000" /> 
</g> 
</svg>
