M48
; DRILL file {KiCad 9.0.2-9.0.2-0~ubuntu24.04.1} date 2025-05-23T13:47:26-0700
; FORMAT={-:-/ absolute / metric / decimal}
; #@! TF.CreationDate,2025-05-23T13:47:26-07:00
; #@! TF.GenerationSoftware,Kicad,Pcbnew,9.0.2-9.0.2-0~ubuntu24.04.1
; #@! TF.FileFunction,Plated,1,2,PTH
FMAT,2
METRIC
; #@! TA.AperFunction,Plated,PTH,ViaDrill
T1C0.600
; #@! TA.AperFunction,Plated,PTH,ComponentDrill
T2C0.750
; #@! TA.AperFunction,Plated,PTH,ComponentDrill
T3C0.800
; #@! TA.AperFunction,Plated,PTH,ComponentDrill
T4C1.000
%
G90
G05
T1
X154.921Y-88.108
X155.938Y-94.204
X166.624Y-83.566
X167.457Y-71.699
X167.64Y-89.662
X167.827Y-77.283
T2
X173.35Y-86.533
X173.35Y-87.803
X173.35Y-89.073
T3
X154.686Y-78.74
X157.226Y-81.28
X159.766Y-78.74
T4
X159.946Y-69.596
X159.946Y-72.136
X159.946Y-74.676
X162.306Y-63.313
X164.846Y-63.313
X167.386Y-63.313
X181.356Y-109.987
X181.356Y-112.527
X187.692Y-64.262
X187.692Y-66.802
X187.692Y-69.342
X187.692Y-71.882
X187.692Y-74.422
X187.692Y-76.962
X187.692Y-79.502
X187.692Y-82.042
X187.692Y-84.582
X187.692Y-87.122
X187.692Y-89.662
X187.692Y-92.202
X187.692Y-94.742
X187.692Y-97.282
X187.692Y-99.822
X187.692Y-102.362
X187.692Y-104.902
X187.692Y-107.442
X187.692Y-109.982
X187.692Y-112.522
X190.232Y-64.262
X190.232Y-66.802
X190.232Y-69.342
X190.232Y-71.882
X190.232Y-74.422
X190.232Y-76.962
X190.232Y-79.502
X190.232Y-82.042
X190.232Y-84.582
X190.232Y-87.122
X190.232Y-89.662
X190.232Y-92.202
X190.232Y-94.742
X190.232Y-97.282
X190.232Y-99.822
X190.232Y-102.362
X190.232Y-104.902
X190.232Y-107.442
X190.232Y-109.982
X190.232Y-112.522
M30
