%TF.GenerationSoftware,KiCad,Pcbnew,9.0.2-9.0.2-0~ubuntu24.04.1*%
%TF.CreationDate,2025-05-23T13:45:45-07:00*%
%TF.ProjectId,PMT_FPGA_PCB,504d545f-4650-4474-915f-5043422e6b69,rev?*%
%TF.SameCoordinates,Original*%
%TF.FileFunction,Copper,L2,Bot*%
%TF.FilePolarity,Positive*%
%FSLAX46Y46*%
G04 Gerber Fmt 4.6, Leading zero omitted, Abs format (unit mm)*
G04 Created by KiCad (PCBNEW 9.0.2-9.0.2-0~ubuntu24.04.1) date 2025-05-23 13:45:45*
%MOMM*%
%LPD*%
G01*
G04 APERTURE LIST*
G04 Aperture macros list*
%AMRoundRect*
0 Rectangle with rounded corners*
0 $1 Rounding radius*
0 $2 $3 $4 $5 $6 $7 $8 $9 X,Y pos of 4 corners*
0 Add a 4 corners polygon primitive as box body*
4,1,4,$2,$3,$4,$5,$6,$7,$8,$9,$2,$3,0*
0 Add four circle primitives for the rounded corners*
1,1,$1+$1,$2,$3*
1,1,$1+$1,$4,$5*
1,1,$1+$1,$6,$7*
1,1,$1+$1,$8,$9*
0 Add four rect primitives between the rounded corners*
20,1,$1+$1,$2,$3,$4,$5,0*
20,1,$1+$1,$4,$5,$6,$7,0*
20,1,$1+$1,$6,$7,$8,$9,0*
20,1,$1+$1,$8,$9,$2,$3,0*%
G04 Aperture macros list end*
%TA.AperFunction,NonConductor*%
%ADD10C,0.200000*%
%TD*%
%TA.AperFunction,ComponentPad*%
%ADD11R,1.700000X1.700000*%
%TD*%
%TA.AperFunction,ComponentPad*%
%ADD12C,1.700000*%
%TD*%
%TA.AperFunction,SMDPad,CuDef*%
%ADD13RoundRect,0.237500X0.300000X0.237500X-0.300000X0.237500X-0.300000X-0.237500X0.300000X-0.237500X0*%
%TD*%
%TA.AperFunction,ComponentPad*%
%ADD14O,1.500000X1.050000*%
%TD*%
%TA.AperFunction,ComponentPad*%
%ADD15R,1.500000X1.050000*%
%TD*%
%TA.AperFunction,ComponentPad*%
%ADD16C,1.440000*%
%TD*%
%TA.AperFunction,SMDPad,CuDef*%
%ADD17RoundRect,0.250000X0.412500X0.650000X-0.412500X0.650000X-0.412500X-0.650000X0.412500X-0.650000X0*%
%TD*%
%TA.AperFunction,ViaPad*%
%ADD18C,1.500000*%
%TD*%
%TA.AperFunction,Conductor*%
%ADD19C,0.450000*%
%TD*%
%TA.AperFunction,Conductor*%
%ADD20C,1.000000*%
%TD*%
G04 APERTURE END LIST*
D10*
X141224000Y-61722000D02*
X191550000Y-61722000D01*
X191550000Y-114994900D01*
X141224000Y-114994900D01*
X141224000Y-61722000D01*
D11*
%TO.P,J11,1,Pin_1*%
%TO.N,-5V*%
X162306000Y-63313000D03*
D12*
%TO.P,J11,2,Pin_2*%
%TO.N,AVSS*%
X164846000Y-63313000D03*
%TO.P,J11,3,Pin_3*%
%TO.N,+5V*%
X167386000Y-63313000D03*
%TD*%
D11*
%TO.P,J13,1,Pin_1*%
%TO.N,GPIO_34*%
X181356000Y-112527000D03*
D12*
%TO.P,J13,2,Pin_2*%
%TO.N,GPIO_32*%
X181356000Y-109987000D03*
%TD*%
D13*
%TO.P,C15,1*%
%TO.N,+5V*%
X167486500Y-87884000D03*
%TO.P,C15,2*%
%TO.N,AVSS*%
X165761500Y-87884000D03*
%TD*%
%TO.P,C19,1*%
%TO.N,+5V*%
X167994000Y-80772000D03*
%TO.P,C19,2*%
%TO.N,AVSS*%
X166269000Y-80772000D03*
%TD*%
D11*
%TO.P,J1,1,Pin_1*%
%TO.N,CLOCK*%
X187692000Y-64262000D03*
D12*
%TO.P,J1,2,Pin_2*%
%TO.N,GPIO_1*%
X190232000Y-64262000D03*
%TO.P,J1,3,Pin_3*%
%TO.N,GPIO_2*%
X187692000Y-66802000D03*
%TO.P,J1,4,Pin_4*%
%TO.N,GPIO_3*%
X190232000Y-66802000D03*
%TO.P,J1,5,Pin_5*%
%TO.N,D9*%
X187692000Y-69342000D03*
%TO.P,J1,6,Pin_6*%
%TO.N,GPIO_5*%
X190232000Y-69342000D03*
%TO.P,J1,7,Pin_7*%
%TO.N,D8*%
X187692000Y-71882000D03*
%TO.P,J1,8,Pin_8*%
%TO.N,GPIO_7*%
X190232000Y-71882000D03*
%TO.P,J1,9,Pin_9*%
%TO.N,D7*%
X187692000Y-74422000D03*
%TO.P,J1,10,Pin_10*%
%TO.N,GPIO_9*%
X190232000Y-74422000D03*
%TO.P,J1,11,Pin_11*%
%TO.N,5V*%
X187692000Y-76962000D03*
%TO.P,J1,12,Pin_12*%
%TO.N,AVSS*%
X190232000Y-76962000D03*
%TO.P,J1,13,Pin_13*%
%TO.N,D6*%
X187692000Y-79502000D03*
%TO.P,J1,14,Pin_14*%
%TO.N,GPIO_11*%
X190232000Y-79502000D03*
%TO.P,J1,15,Pin_15*%
%TO.N,D5*%
X187692000Y-82042000D03*
%TO.P,J1,16,Pin_16*%
%TO.N,GPIO_13*%
X190232000Y-82042000D03*
%TO.P,J1,17,Pin_17*%
%TO.N,D4*%
X187692000Y-84582000D03*
%TO.P,J1,18,Pin_18*%
%TO.N,GPIO_15*%
X190232000Y-84582000D03*
%TO.P,J1,19,Pin_19*%
%TO.N,D3*%
X187692000Y-87122000D03*
%TO.P,J1,20,Pin_20*%
%TO.N,GPIO_17*%
X190232000Y-87122000D03*
%TO.P,J1,21,Pin_21*%
%TO.N,D2*%
X187692000Y-89662000D03*
%TO.P,J1,22,Pin_22*%
%TO.N,GPIO_19*%
X190232000Y-89662000D03*
%TO.P,J1,23,Pin_23*%
%TO.N,D1*%
X187692000Y-92202000D03*
%TO.P,J1,24,Pin_24*%
%TO.N,GPIO_21*%
X190232000Y-92202000D03*
%TO.P,J1,25,Pin_25*%
%TO.N,D0*%
X187692000Y-94742000D03*
%TO.P,J1,26,Pin_26*%
%TO.N,GPIO_23*%
X190232000Y-94742000D03*
%TO.P,J1,27,Pin_27*%
%TO.N,GPIO_24*%
X187692000Y-97282000D03*
%TO.P,J1,28,Pin_28*%
%TO.N,GPIO_25*%
X190232000Y-97282000D03*
%TO.P,J1,29,Pin_29*%
%TO.N,3.3V*%
X187692000Y-99822000D03*
%TO.P,J1,30,Pin_30*%
%TO.N,AVSS*%
X190232000Y-99822000D03*
%TO.P,J1,31,Pin_31*%
%TO.N,GPIO_26*%
X187692000Y-102362000D03*
%TO.P,J1,32,Pin_32*%
%TO.N,GPIO_27*%
X190232000Y-102362000D03*
%TO.P,J1,33,Pin_33*%
%TO.N,GPIO_28*%
X187692000Y-104902000D03*
%TO.P,J1,34,Pin_34*%
%TO.N,GPIO_29*%
X190232000Y-104902000D03*
%TO.P,J1,35,Pin_35*%
%TO.N,GPIO_30*%
X187692000Y-107442000D03*
%TO.P,J1,36,Pin_36*%
%TO.N,GPIO_31*%
X190232000Y-107442000D03*
%TO.P,J1,37,Pin_37*%
%TO.N,GPIO_32*%
X187692000Y-109982000D03*
%TO.P,J1,38,Pin_38*%
%TO.N,GPIO_33*%
X190232000Y-109982000D03*
%TO.P,J1,39,Pin_39*%
%TO.N,GPIO_34*%
X187692000Y-112522000D03*
%TO.P,J1,40,Pin_40*%
%TO.N,GPIO_35*%
X190232000Y-112522000D03*
%TD*%
D14*
%TO.P,Q1,3,D*%
%TO.N,INA-Q*%
X173349500Y-86533500D03*
D15*
%TO.P,Q1,1,S*%
%TO.N,Net-(IC2-V_IN-)*%
X173349500Y-89073500D03*
D14*
%TO.P,Q1,2,G*%
%TO.N,GPIO_26*%
X173349500Y-87803500D03*
%TD*%
D13*
%TO.P,C16,1*%
%TO.N,-5V*%
X155683500Y-89886000D03*
%TO.P,C16,2*%
%TO.N,AVSS*%
X153958500Y-89886000D03*
%TD*%
D16*
%TO.P,RV1,1,1*%
%TO.N,INB-Q*%
X154686000Y-78740000D03*
%TO.P,RV1,2,2*%
X157226000Y-81280000D03*
%TO.P,RV1,3,3*%
%TO.N,AVSS*%
X159766000Y-78740000D03*
%TD*%
D13*
%TO.P,C17,1*%
%TO.N,+5V*%
X155683500Y-92426000D03*
%TO.P,C17,2*%
%TO.N,AVSS*%
X153958500Y-92426000D03*
%TD*%
%TO.P,C14,1*%
%TO.N,-5V*%
X167486500Y-85344000D03*
%TO.P,C14,2*%
%TO.N,AVSS*%
X165761500Y-85344000D03*
%TD*%
D11*
%TO.P,J4,1,Pin_1*%
%TO.N,VREF*%
X159946000Y-74676000D03*
D12*
%TO.P,J4,2,Pin_2*%
%TO.N,REFSENSE*%
X159946000Y-72136000D03*
%TO.P,J4,3,Pin_3*%
%TO.N,AVSS*%
X159946000Y-69596000D03*
%TD*%
D17*
%TO.P,C1,1*%
%TO.N,+5V*%
X167970500Y-78740000D03*
%TO.P,C1,2*%
%TO.N,AVSS*%
X164845500Y-78740000D03*
%TD*%
D18*
%TO.N,AVSS*%
X167457259Y-71699259D03*
%TO.N,+5V*%
X167826555Y-77283445D03*
X155937500Y-94204000D03*
X167640000Y-89662000D03*
%TO.N,-5V*%
X154921500Y-88108000D03*
X166624000Y-83566000D03*
%TD*%
D19*
%TO.N,+5V*%
X167970500Y-78740000D02*
X168471000Y-78740000D01*
X168471000Y-78740000D02*
X168725000Y-78994000D01*
D20*
%TO.N,AVSS*%
X164846000Y-69088000D02*
X164846000Y-63313000D01*
X167457259Y-71699259D02*
X164846000Y-69088000D01*
%TO.N,+5V*%
X163098000Y-94204000D02*
X167640000Y-89662000D01*
X167826555Y-75497212D02*
X168908259Y-74415508D01*
X168725000Y-88577000D02*
X167640000Y-89662000D01*
X167826555Y-77283445D02*
X167826555Y-75497212D01*
X168908259Y-74415508D02*
X168908259Y-64835259D01*
X168725000Y-78994000D02*
X168725000Y-80772000D01*
X168725000Y-78181890D02*
X168725000Y-78994000D01*
X155937500Y-94204000D02*
X163098000Y-94204000D01*
X167826555Y-77283445D02*
X168725000Y-78181890D01*
X167994000Y-80772000D02*
X168725000Y-80772000D01*
X168725000Y-80772000D02*
X168725000Y-88577000D01*
X168908259Y-64835259D02*
X167386000Y-63313000D01*
%TO.N,-5V*%
X162306000Y-77470000D02*
X162306000Y-80723500D01*
X162306000Y-77470000D02*
X162306000Y-63313000D01*
X162306000Y-80723500D02*
X154921500Y-88108000D01*
X162306000Y-76708000D02*
X162306000Y-79248000D01*
X162306000Y-76708000D02*
X162306000Y-77470000D01*
X162306000Y-79248000D02*
X166624000Y-83566000D01*
%TD*%
%TA.AperFunction,Conductor*%
%TO.N,AVSS*%
G36*
X171160012Y-62025868D02*
G01*
X171163380Y-62034000D01*
X171163380Y-96695400D01*
X171160012Y-96703532D01*
X171151880Y-96706900D01*
X151075500Y-96706900D01*
X151067368Y-96703532D01*
X151064000Y-96695400D01*
X151064000Y-94110384D01*
X154987000Y-94110384D01*
X154987000Y-94297615D01*
X155023525Y-94481245D01*
X155023526Y-94481250D01*
X155095179Y-94654233D01*
X155157910Y-94748116D01*
X155199198Y-94809908D01*
X155331592Y-94942302D01*
X155487269Y-95046322D01*
X155660249Y-95117973D01*
X155843884Y-95154500D01*
X155843885Y-95154500D01*
X156031115Y-95154500D01*
X156031116Y-95154500D01*
X156214751Y-95117973D01*
X156387731Y-95046322D01*
X156543408Y-94942302D01*
X156577842Y-94907868D01*
X156585974Y-94904500D01*
X163166992Y-94904500D01*
X163166994Y-94904500D01*
X163302328Y-94877580D01*
X163429811Y-94824775D01*
X163544543Y-94748114D01*
X167676789Y-90615868D01*
X167684921Y-90612500D01*
X167733615Y-90612500D01*
X167733616Y-90612500D01*
X167917251Y-90575973D01*
X168090231Y-90504322D01*
X168245908Y-90400302D01*
X168378302Y-90267908D01*
X168482322Y-90112231D01*
X168553973Y-89939251D01*
X168590500Y-89755616D01*
X168590500Y-89706920D01*
X168593867Y-89698789D01*
X169269114Y-89023543D01*
X169345775Y-88908811D01*
X169398580Y-88781328D01*
X169425500Y-88645994D01*
X169425500Y-88508006D01*
X169425500Y-80703007D01*
X169425500Y-78925007D01*
X169425500Y-78112897D01*
X169398580Y-77977562D01*
X169345775Y-77850079D01*
X169325343Y-77819500D01*
X169269114Y-77735347D01*
X168780423Y-77246656D01*
X168777055Y-77238524D01*
X168777055Y-77189829D01*
X168740529Y-77006199D01*
X168740528Y-77006194D01*
X168668877Y-76833214D01*
X168564857Y-76677537D01*
X168530423Y-76643103D01*
X168527055Y-76634971D01*
X168527055Y-75792131D01*
X168530422Y-75784000D01*
X169452372Y-74862051D01*
X169496031Y-74796712D01*
X169529034Y-74747319D01*
X169581839Y-74619836D01*
X169608759Y-74484501D01*
X169608759Y-64766266D01*
X169581839Y-64630931D01*
X169529034Y-64503448D01*
X169452373Y-64388717D01*
X169354801Y-64291145D01*
X168439868Y-63376211D01*
X168436500Y-63368079D01*
X168436500Y-63209535D01*
X168396131Y-63006585D01*
X168396130Y-63006580D01*
X168395887Y-63005993D01*
X168316941Y-62815402D01*
X168201977Y-62643345D01*
X168055655Y-62497023D01*
X167975182Y-62443253D01*
X167883600Y-62382060D01*
X167692419Y-62302869D01*
X167692414Y-62302868D01*
X167529614Y-62270486D01*
X167489465Y-62262500D01*
X167282535Y-62262500D01*
X167249016Y-62269167D01*
X167079585Y-62302868D01*
X167079580Y-62302869D01*
X166888399Y-62382060D01*
X166716348Y-62497020D01*
X166570020Y-62643348D01*
X166455060Y-62815399D01*
X166375869Y-63006580D01*
X166375868Y-63006585D01*
X166335500Y-63209535D01*
X166335500Y-63416464D01*
X166375868Y-63619414D01*
X166375869Y-63619419D01*
X166376113Y-63620007D01*
X166455059Y-63810598D01*
X166570023Y-63982655D01*
X166716345Y-64128977D01*
X166888402Y-64243941D01*
X167079580Y-64323130D01*
X167282535Y-64363500D01*
X167441079Y-64363500D01*
X167449211Y-64366868D01*
X168204391Y-65122047D01*
X168207759Y-65130179D01*
X168207759Y-74120587D01*
X168204391Y-74128719D01*
X167282438Y-75050672D01*
X167238783Y-75116008D01*
X167205781Y-75165398D01*
X167152974Y-75292884D01*
X167152974Y-75292887D01*
X167126055Y-75428220D01*
X167126055Y-76634971D01*
X167122687Y-76643103D01*
X167088250Y-76677540D01*
X166984234Y-76833211D01*
X166912581Y-77006194D01*
X166912580Y-77006199D01*
X166876055Y-77189829D01*
X166876055Y-77377060D01*
X166912580Y-77560690D01*
X166912581Y-77560695D01*
X166984234Y-77733678D01*
X167065214Y-77854873D01*
X167088253Y-77889353D01*
X167123163Y-77924263D01*
X167129570Y-77930670D01*
X167132938Y-77938802D01*
X167132293Y-77942600D01*
X167110355Y-78005297D01*
X167110354Y-78005301D01*
X167108852Y-78021309D01*
X167107500Y-78035728D01*
X167107500Y-79444271D01*
X167110354Y-79474702D01*
X167155207Y-79602883D01*
X167155208Y-79602884D01*
X167171624Y-79625127D01*
X167235850Y-79712150D01*
X167283328Y-79747190D01*
X167345115Y-79792791D01*
X167345116Y-79792792D01*
X167345117Y-79792792D01*
X167345118Y-79792793D01*
X167400095Y-79812030D01*
X167473297Y-79837645D01*
X167473298Y-79837645D01*
X167473301Y-79837646D01*
X167503734Y-79840500D01*
X168013000Y-79840500D01*
X168021132Y-79843868D01*
X168024500Y-79852000D01*
X168024500Y-80060000D01*
X168021132Y-80068132D01*
X168013000Y-80071500D01*
X167925007Y-80071500D01*
X167802740Y-80095820D01*
X167800435Y-80096279D01*
X167798191Y-80096500D01*
X167641238Y-80096500D01*
X167627218Y-80097815D01*
X167611651Y-80099275D01*
X167611648Y-80099275D01*
X167611647Y-80099276D01*
X167487025Y-80142884D01*
X167380790Y-80221288D01*
X167380788Y-80221290D01*
X167302384Y-80327525D01*
X167264178Y-80436711D01*
X167258775Y-80452151D01*
X167257639Y-80464263D01*
X167256000Y-80481738D01*
X167256000Y-80481744D01*
X167256000Y-81062256D01*
X167258775Y-81091849D01*
X167302384Y-81216475D01*
X167380789Y-81322711D01*
X167487025Y-81401116D01*
X167611651Y-81444725D01*
X167641244Y-81447500D01*
X167798191Y-81447500D01*
X167800435Y-81447721D01*
X167925007Y-81472500D01*
X168013000Y-81472500D01*
X168021132Y-81475868D01*
X168024500Y-81484000D01*
X168024500Y-84715000D01*
X168021132Y-84723132D01*
X168013000Y-84726500D01*
X168006172Y-84724253D01*
X167993476Y-84714884D01*
X167993477Y-84714884D01*
X167868852Y-84671276D01*
X167868851Y-84671275D01*
X167868849Y-84671275D01*
X167850943Y-84669596D01*
X167839261Y-84668500D01*
X167839256Y-84668500D01*
X167133744Y-84668500D01*
X167133738Y-84668500D01*
X167119718Y-84669815D01*
X167104151Y-84671275D01*
X167104148Y-84671275D01*
X167104147Y-84671276D01*
X166979525Y-84714884D01*
X166873290Y-84793288D01*
X166873288Y-84793290D01*
X166794884Y-84899525D01*
X166761826Y-84993999D01*
X166751275Y-85024151D01*
X166749815Y-85039718D01*
X166748500Y-85053738D01*
X166748500Y-85053744D01*
X166748500Y-85634256D01*
X166751275Y-85663849D01*
X166794884Y-85788475D01*
X166873289Y-85894711D01*
X166979525Y-85973116D01*
X167104151Y-86016725D01*
X167133744Y-86019500D01*
X167133752Y-86019500D01*
X167839248Y-86019500D01*
X167839256Y-86019500D01*
X167868849Y-86016725D01*
X167993475Y-85973116D01*
X168006171Y-85963746D01*
X168014714Y-85961627D01*
X168022253Y-85966170D01*
X168024500Y-85972999D01*
X168024500Y-87255000D01*
X168021132Y-87263132D01*
X168013000Y-87266500D01*
X168006172Y-87264253D01*
X167993476Y-87254884D01*
X167993477Y-87254884D01*
X167868852Y-87211276D01*
X167868851Y-87211275D01*
X167868849Y-87211275D01*
X167850943Y-87209596D01*
X167839261Y-87208500D01*
X167839256Y-87208500D01*
X167133744Y-87208500D01*
X167133738Y-87208500D01*
X167119718Y-87209815D01*
X167104151Y-87211275D01*
X167104148Y-87211275D01*
X167104147Y-87211276D01*
X166979525Y-87254884D01*
X166873290Y-87333288D01*
X166873288Y-87333290D01*
X166794884Y-87439525D01*
X166761826Y-87533999D01*
X166751275Y-87564151D01*
X166749815Y-87579718D01*
X166748500Y-87593738D01*
X166748500Y-87593744D01*
X166748500Y-88174256D01*
X166751275Y-88203849D01*
X166794884Y-88328475D01*
X166873289Y-88434711D01*
X166979525Y-88513116D01*
X167104151Y-88556725D01*
X167133744Y-88559500D01*
X167724079Y-88559500D01*
X167732211Y-88562868D01*
X167735579Y-88571000D01*
X167732211Y-88579132D01*
X167603211Y-88708132D01*
X167595079Y-88711500D01*
X167546384Y-88711500D01*
X167516056Y-88717532D01*
X167362754Y-88748025D01*
X167362749Y-88748026D01*
X167189766Y-88819679D01*
X167034095Y-88923695D01*
X166901695Y-89056095D01*
X166797679Y-89211766D01*
X166726026Y-89384749D01*
X166726025Y-89384754D01*
X166689500Y-89568384D01*
X166689500Y-89617079D01*
X166686132Y-89625211D01*
X162811211Y-93500132D01*
X162803079Y-93503500D01*
X156585974Y-93503500D01*
X156577842Y-93500132D01*
X156543408Y-93465698D01*
X156543404Y-93465695D01*
X156387733Y-93361679D01*
X156214750Y-93290026D01*
X156214745Y-93290025D01*
X156067443Y-93260725D01*
X156031116Y-93253500D01*
X155843884Y-93253500D01*
X155813556Y-93259532D01*
X155660254Y-93290025D01*
X155660249Y-93290026D01*
X155487266Y-93361679D01*
X155331595Y-93465695D01*
X155199195Y-93598095D01*
X155095179Y-93753766D01*
X155023526Y-93926749D01*
X155023525Y-93926754D01*
X154987000Y-94110384D01*
X151064000Y-94110384D01*
X151064000Y-92776000D01*
X153180155Y-92776000D01*
X153226232Y-92899535D01*
X153226234Y-92899538D01*
X153310239Y-93011756D01*
X153310243Y-93011760D01*
X153422464Y-93095767D01*
X153422463Y-93095767D01*
X153553809Y-93144757D01*
X153553810Y-93144758D01*
X153608500Y-93150636D01*
X153608500Y-92776001D01*
X154308500Y-92776001D01*
X154308500Y-93150636D01*
X154363189Y-93144758D01*
X154363190Y-93144757D01*
X154494536Y-93095767D01*
X154606756Y-93011760D01*
X154606760Y-93011756D01*
X154690765Y-92899538D01*
X154690767Y-92899535D01*
X154736845Y-92776000D01*
X154308501Y-92776000D01*
X154308500Y-92776001D01*
X153608500Y-92776001D01*
X153608499Y-92776000D01*
X153180155Y-92776000D01*
X151064000Y-92776000D01*
X151064000Y-92135738D01*
X154945500Y-92135738D01*
X154945500Y-92135744D01*
X154945500Y-92716256D01*
X154948275Y-92745849D01*
X154991884Y-92870475D01*
X155070289Y-92976711D01*
X155176525Y-93055116D01*
X155301151Y-93098725D01*
X155330744Y-93101500D01*
X155330752Y-93101500D01*
X156036248Y-93101500D01*
X156036256Y-93101500D01*
X156065849Y-93098725D01*
X156190475Y-93055116D01*
X156296711Y-92976711D01*
X156375116Y-92870475D01*
X156418725Y-92745849D01*
X156421500Y-92716256D01*
X156421500Y-92135744D01*
X156418725Y-92106151D01*
X156375116Y-91981525D01*
X156296711Y-91875289D01*
X156190475Y-91796884D01*
X156065849Y-91753275D01*
X156047943Y-91751596D01*
X156036261Y-91750500D01*
X156036256Y-91750500D01*
X155330744Y-91750500D01*
X155330738Y-91750500D01*
X155316718Y-91751815D01*
X155301151Y-91753275D01*
X155301148Y-91753275D01*
X155301147Y-91753276D01*
X155176525Y-91796884D01*
X155070290Y-91875288D01*
X155070288Y-91875290D01*
X154991884Y-91981525D01*
X154958826Y-92075999D01*
X154948275Y-92106151D01*
X154946815Y-92121718D01*
X154945500Y-92135738D01*
X151064000Y-92135738D01*
X151064000Y-92076000D01*
X153180155Y-92076000D01*
X153608499Y-92076000D01*
X153608500Y-92075999D01*
X154308500Y-92075999D01*
X154308501Y-92076000D01*
X154736844Y-92076000D01*
X154690767Y-91952464D01*
X154690765Y-91952461D01*
X154606760Y-91840243D01*
X154606756Y-91840239D01*
X154494535Y-91756232D01*
X154494536Y-91756232D01*
X154363189Y-91707241D01*
X154308500Y-91701362D01*
X154308500Y-92075999D01*
X153608500Y-92075999D01*
X153608500Y-91701362D01*
X153553810Y-91707241D01*
X153422463Y-91756232D01*
X153310243Y-91840239D01*
X153310239Y-91840243D01*
X153226234Y-91952461D01*
X153226232Y-91952464D01*
X153180155Y-92076000D01*
X151064000Y-92076000D01*
X151064000Y-90236000D01*
X153180155Y-90236000D01*
X153226232Y-90359535D01*
X153226234Y-90359538D01*
X153310239Y-90471756D01*
X153310243Y-90471760D01*
X153422464Y-90555767D01*
X153422463Y-90555767D01*
X153553809Y-90604757D01*
X153553810Y-90604758D01*
X153608500Y-90610636D01*
X153608500Y-90236001D01*
X154308500Y-90236001D01*
X154308500Y-90610636D01*
X154363189Y-90604758D01*
X154363190Y-90604757D01*
X154494536Y-90555767D01*
X154606756Y-90471760D01*
X154606760Y-90471756D01*
X154690765Y-90359538D01*
X154690767Y-90359535D01*
X154736845Y-90236000D01*
X154308501Y-90236000D01*
X154308500Y-90236001D01*
X153608500Y-90236001D01*
X153608499Y-90236000D01*
X153180155Y-90236000D01*
X151064000Y-90236000D01*
X151064000Y-89595738D01*
X154945500Y-89595738D01*
X154945500Y-89595744D01*
X154945500Y-90176256D01*
X154948275Y-90205849D01*
X154991884Y-90330475D01*
X155070289Y-90436711D01*
X155176525Y-90515116D01*
X155301151Y-90558725D01*
X155330744Y-90561500D01*
X155330752Y-90561500D01*
X156036248Y-90561500D01*
X156036256Y-90561500D01*
X156065849Y-90558725D01*
X156190475Y-90515116D01*
X156296711Y-90436711D01*
X156375116Y-90330475D01*
X156418725Y-90205849D01*
X156421500Y-90176256D01*
X156421500Y-89595744D01*
X156418725Y-89566151D01*
X156375116Y-89441525D01*
X156296711Y-89335289D01*
X156190475Y-89256884D01*
X156065849Y-89213275D01*
X156047943Y-89211596D01*
X156036261Y-89210500D01*
X156036256Y-89210500D01*
X155330744Y-89210500D01*
X155330738Y-89210500D01*
X155317243Y-89211766D01*
X155301151Y-89213275D01*
X155301148Y-89213275D01*
X155301147Y-89213276D01*
X155176525Y-89256884D01*
X155070290Y-89335288D01*
X155070288Y-89335290D01*
X154991884Y-89441525D01*
X154958826Y-89535999D01*
X154948275Y-89566151D01*
X154948066Y-89568384D01*
X154945500Y-89595738D01*
X151064000Y-89595738D01*
X151064000Y-89536000D01*
X153180155Y-89536000D01*
X153608499Y-89536000D01*
X153608500Y-89535999D01*
X154308500Y-89535999D01*
X154308501Y-89536000D01*
X154736844Y-89536000D01*
X154690767Y-89412464D01*
X154690765Y-89412461D01*
X154606760Y-89300243D01*
X154606756Y-89300239D01*
X154494535Y-89216232D01*
X154494536Y-89216232D01*
X154363189Y-89167241D01*
X154308500Y-89161362D01*
X154308500Y-89535999D01*
X153608500Y-89535999D01*
X153608500Y-89161362D01*
X153553810Y-89167241D01*
X153422463Y-89216232D01*
X153310243Y-89300239D01*
X153310239Y-89300243D01*
X153226234Y-89412461D01*
X153226232Y-89412464D01*
X153180155Y-89536000D01*
X151064000Y-89536000D01*
X151064000Y-88014384D01*
X153971000Y-88014384D01*
X153971000Y-88201615D01*
X154007525Y-88385245D01*
X154007526Y-88385250D01*
X154028013Y-88434709D01*
X154078553Y-88556723D01*
X154079179Y-88558233D01*
X154181589Y-88711500D01*
X154183198Y-88713908D01*
X154315592Y-88846302D01*
X154471269Y-88950322D01*
X154644249Y-89021973D01*
X154827884Y-89058500D01*
X154827885Y-89058500D01*
X155015115Y-89058500D01*
X155015116Y-89058500D01*
X155198751Y-89021973D01*
X155371731Y-88950322D01*
X155527408Y-88846302D01*
X155659802Y-88713908D01*
X155763822Y-88558231D01*
X155835473Y-88385251D01*
X155865558Y-88234000D01*
X164983155Y-88234000D01*
X165029232Y-88357535D01*
X165029234Y-88357538D01*
X165113239Y-88469756D01*
X165113243Y-88469760D01*
X165225464Y-88553767D01*
X165225463Y-88553767D01*
X165356809Y-88602757D01*
X165356810Y-88602758D01*
X165411500Y-88608636D01*
X165411500Y-88234001D01*
X166111500Y-88234001D01*
X166111500Y-88608636D01*
X166166189Y-88602758D01*
X166166190Y-88602757D01*
X166297536Y-88553767D01*
X166409756Y-88469760D01*
X166409760Y-88469756D01*
X166493765Y-88357538D01*
X166493767Y-88357535D01*
X166539845Y-88234000D01*
X166111501Y-88234000D01*
X166111500Y-88234001D01*
X165411500Y-88234001D01*
X165411499Y-88234000D01*
X164983155Y-88234000D01*
X155865558Y-88234000D01*
X155872000Y-88201616D01*
X155872000Y-88152920D01*
X155875367Y-88144789D01*
X156486156Y-87534000D01*
X164983155Y-87534000D01*
X165411499Y-87534000D01*
X165411500Y-87533999D01*
X166111500Y-87533999D01*
X166111501Y-87534000D01*
X166539844Y-87534000D01*
X166493767Y-87410464D01*
X166493765Y-87410461D01*
X166409760Y-87298243D01*
X166409756Y-87298239D01*
X166297535Y-87214232D01*
X166297536Y-87214232D01*
X166166189Y-87165241D01*
X166111500Y-87159362D01*
X166111500Y-87533999D01*
X165411500Y-87533999D01*
X165411500Y-87159362D01*
X165356810Y-87165241D01*
X165225463Y-87214232D01*
X165113243Y-87298239D01*
X165113239Y-87298243D01*
X165029234Y-87410461D01*
X165029232Y-87410464D01*
X164983155Y-87534000D01*
X156486156Y-87534000D01*
X158326156Y-85694000D01*
X164983155Y-85694000D01*
X165029232Y-85817535D01*
X165029234Y-85817538D01*
X165113239Y-85929756D01*
X165113243Y-85929760D01*
X165225464Y-86013767D01*
X165225463Y-86013767D01*
X165356809Y-86062757D01*
X165356810Y-86062758D01*
X165411500Y-86068636D01*
X165411500Y-85694001D01*
X166111500Y-85694001D01*
X166111500Y-86068636D01*
X166166189Y-86062758D01*
X166166190Y-86062757D01*
X166297536Y-86013767D01*
X166409756Y-85929760D01*
X166409760Y-85929756D01*
X166493765Y-85817538D01*
X166493767Y-85817535D01*
X166539845Y-85694000D01*
X166111501Y-85694000D01*
X166111500Y-85694001D01*
X165411500Y-85694001D01*
X165411499Y-85694000D01*
X164983155Y-85694000D01*
X158326156Y-85694000D01*
X159026156Y-84994000D01*
X164983155Y-84994000D01*
X165411499Y-84994000D01*
X165411500Y-84993999D01*
X166111500Y-84993999D01*
X166111501Y-84994000D01*
X166539844Y-84994000D01*
X166493767Y-84870464D01*
X166493765Y-84870461D01*
X166409760Y-84758243D01*
X166409756Y-84758239D01*
X166297535Y-84674232D01*
X166297536Y-84674232D01*
X166166189Y-84625241D01*
X166111500Y-84619362D01*
X166111500Y-84993999D01*
X165411500Y-84993999D01*
X165411500Y-84619362D01*
X165356810Y-84625241D01*
X165225463Y-84674232D01*
X165113243Y-84758239D01*
X165113239Y-84758243D01*
X165029234Y-84870461D01*
X165029232Y-84870464D01*
X164983155Y-84994000D01*
X159026156Y-84994000D01*
X162850114Y-81170043D01*
X162926775Y-81055311D01*
X162977561Y-80932701D01*
X162983783Y-80926480D01*
X162992585Y-80926480D01*
X162996316Y-80928973D01*
X165670132Y-83602789D01*
X165673500Y-83610921D01*
X165673500Y-83659615D01*
X165710025Y-83843245D01*
X165710026Y-83843250D01*
X165765446Y-83977045D01*
X165781678Y-84016231D01*
X165885698Y-84171908D01*
X166018092Y-84304302D01*
X166173769Y-84408322D01*
X166346749Y-84479973D01*
X166530384Y-84516500D01*
X166530385Y-84516500D01*
X166717615Y-84516500D01*
X166717616Y-84516500D01*
X166901251Y-84479973D01*
X167074231Y-84408322D01*
X167229908Y-84304302D01*
X167362302Y-84171908D01*
X167466322Y-84016231D01*
X167537973Y-83843251D01*
X167574500Y-83659616D01*
X167574500Y-83472384D01*
X167537973Y-83288749D01*
X167466322Y-83115769D01*
X167362302Y-82960092D01*
X167229908Y-82827698D01*
X167229904Y-82827695D01*
X167074233Y-82723679D01*
X166901250Y-82652026D01*
X166901245Y-82652025D01*
X166753943Y-82622725D01*
X166717616Y-82615500D01*
X166717615Y-82615500D01*
X166668921Y-82615500D01*
X166660789Y-82612132D01*
X165170657Y-81122000D01*
X165490655Y-81122000D01*
X165536732Y-81245535D01*
X165536734Y-81245538D01*
X165620739Y-81357756D01*
X165620743Y-81357760D01*
X165732964Y-81441767D01*
X165732963Y-81441767D01*
X165864309Y-81490757D01*
X165864310Y-81490758D01*
X165919000Y-81496636D01*
X165919000Y-81122001D01*
X166619000Y-81122001D01*
X166619000Y-81496636D01*
X166673689Y-81490758D01*
X166673690Y-81490757D01*
X166805036Y-81441767D01*
X166917256Y-81357760D01*
X166917260Y-81357756D01*
X167001265Y-81245538D01*
X167001267Y-81245535D01*
X167047345Y-81122000D01*
X166619001Y-81122000D01*
X166619000Y-81122001D01*
X165919000Y-81122001D01*
X165918999Y-81122000D01*
X165490655Y-81122000D01*
X165170657Y-81122000D01*
X164470657Y-80422000D01*
X165490655Y-80422000D01*
X165918999Y-80422000D01*
X165919000Y-80421999D01*
X166619000Y-80421999D01*
X166619001Y-80422000D01*
X167047344Y-80422000D01*
X167001267Y-80298464D01*
X167001265Y-80298461D01*
X166917260Y-80186243D01*
X166917256Y-80186239D01*
X166805035Y-80102232D01*
X166805036Y-80102232D01*
X166673689Y-80053241D01*
X166619000Y-80047362D01*
X166619000Y-80421999D01*
X165919000Y-80421999D01*
X165919000Y-80047362D01*
X165864310Y-80053241D01*
X165732963Y-80102232D01*
X165620743Y-80186239D01*
X165620739Y-80186243D01*
X165536734Y-80298461D01*
X165536732Y-80298464D01*
X165490655Y-80422000D01*
X164470657Y-80422000D01*
X163138658Y-79090001D01*
X163933000Y-79090001D01*
X163933000Y-79437828D01*
X163939401Y-79497374D01*
X163989647Y-79632088D01*
X163989649Y-79632091D01*
X164075809Y-79747186D01*
X164075813Y-79747190D01*
X164190908Y-79833350D01*
X164190911Y-79833352D01*
X164325625Y-79883598D01*
X164385171Y-79890000D01*
X164495499Y-79890000D01*
X164495500Y-79889999D01*
X164495500Y-79090001D01*
X165195500Y-79090001D01*
X165195500Y-79889999D01*
X165195501Y-79890000D01*
X165305829Y-79890000D01*
X165365374Y-79883598D01*
X165500088Y-79833352D01*
X165500091Y-79833350D01*
X165615186Y-79747190D01*
X165615190Y-79747186D01*
X165701350Y-79632091D01*
X165701352Y-79632088D01*
X165751598Y-79497374D01*
X165758000Y-79437828D01*
X165758000Y-79090001D01*
X165757999Y-79090000D01*
X165195501Y-79090000D01*
X165195500Y-79090001D01*
X164495500Y-79090001D01*
X164495499Y-79090000D01*
X163933001Y-79090000D01*
X163933000Y-79090001D01*
X163138658Y-79090001D01*
X163009868Y-78961211D01*
X163006500Y-78953079D01*
X163006500Y-78042171D01*
X163933000Y-78042171D01*
X163933000Y-78389999D01*
X163933001Y-78390000D01*
X164495499Y-78390000D01*
X164495500Y-78389999D01*
X164495500Y-77590001D01*
X165195500Y-77590001D01*
X165195500Y-78389999D01*
X165195501Y-78390000D01*
X165757999Y-78390000D01*
X165758000Y-78389999D01*
X165758000Y-78042171D01*
X165751598Y-77982625D01*
X165701352Y-77847911D01*
X165701350Y-77847908D01*
X165615190Y-77732813D01*
X165615186Y-77732809D01*
X165500091Y-77646649D01*
X165500088Y-77646647D01*
X165365374Y-77596401D01*
X165305829Y-77590000D01*
X165195501Y-77590000D01*
X165195500Y-77590001D01*
X164495500Y-77590001D01*
X164495499Y-77590000D01*
X164385171Y-77590000D01*
X164325625Y-77596401D01*
X164190911Y-77646647D01*
X164190908Y-77646649D01*
X164075813Y-77732809D01*
X164075809Y-77732813D01*
X163989649Y-77847908D01*
X163989647Y-77847911D01*
X163939401Y-77982625D01*
X163933000Y-78042171D01*
X163006500Y-78042171D01*
X163006500Y-64375000D01*
X163009868Y-64366868D01*
X163018000Y-64363500D01*
X163175746Y-64363500D01*
X163175748Y-64363500D01*
X163234231Y-64351867D01*
X163300552Y-64307552D01*
X163311515Y-64291145D01*
X163313923Y-64287542D01*
X163322693Y-64274415D01*
X163344867Y-64241231D01*
X163356500Y-64182748D01*
X163356500Y-63226425D01*
X163746000Y-63226425D01*
X163746000Y-63399574D01*
X163773085Y-63570581D01*
X163826588Y-63735249D01*
X163861080Y-63802942D01*
X164346000Y-63318023D01*
X164346000Y-63378826D01*
X164380075Y-63505993D01*
X164445901Y-63620007D01*
X164538993Y-63713099D01*
X164653007Y-63778925D01*
X164780174Y-63813000D01*
X164840974Y-63813000D01*
X164356056Y-64297918D01*
X164423750Y-64332411D01*
X164588418Y-64385914D01*
X164759426Y-64413000D01*
X164932574Y-64413000D01*
X165103581Y-64385914D01*
X165268249Y-64332411D01*
X165335942Y-64297918D01*
X164851024Y-63813000D01*
X164911826Y-63813000D01*
X165038993Y-63778925D01*
X165153007Y-63713099D01*
X165246099Y-63620007D01*
X165311925Y-63505993D01*
X165346000Y-63378826D01*
X165346000Y-63318024D01*
X165830918Y-63802942D01*
X165865411Y-63735249D01*
X165918914Y-63570581D01*
X165946000Y-63399574D01*
X165946000Y-63226425D01*
X165918914Y-63055418D01*
X165865411Y-62890750D01*
X165830918Y-62823056D01*
X165346000Y-63307974D01*
X165346000Y-63247174D01*
X165311925Y-63120007D01*
X165246099Y-63005993D01*
X165153007Y-62912901D01*
X165038993Y-62847075D01*
X164911826Y-62813000D01*
X164851022Y-62813000D01*
X165335942Y-62328080D01*
X165268249Y-62293588D01*
X165103581Y-62240085D01*
X164932574Y-62213000D01*
X164759426Y-62213000D01*
X164588418Y-62240085D01*
X164423750Y-62293588D01*
X164356056Y-62328080D01*
X164840976Y-62813000D01*
X164780174Y-62813000D01*
X164653007Y-62847075D01*
X164538993Y-62912901D01*
X164445901Y-63005993D01*
X164380075Y-63120007D01*
X164346000Y-63247174D01*
X164346000Y-63307976D01*
X163861080Y-62823056D01*
X163826588Y-62890750D01*
X163773085Y-63055418D01*
X163746000Y-63226425D01*
X163356500Y-63226425D01*
X163356500Y-62443252D01*
X163344867Y-62384769D01*
X163300552Y-62318448D01*
X163300550Y-62318446D01*
X163234232Y-62274134D01*
X163234233Y-62274134D01*
X163234231Y-62274133D01*
X163234229Y-62274132D01*
X163234228Y-62274132D01*
X163204788Y-62268276D01*
X163175748Y-62262500D01*
X161436252Y-62262500D01*
X161412988Y-62267127D01*
X161377771Y-62274132D01*
X161377767Y-62274134D01*
X161311449Y-62318446D01*
X161311446Y-62318449D01*
X161267134Y-62384767D01*
X161267132Y-62384771D01*
X161258388Y-62428731D01*
X161255500Y-62443252D01*
X161255500Y-64182748D01*
X161267133Y-64241231D01*
X161268944Y-64243941D01*
X161311446Y-64307550D01*
X161311448Y-64307552D01*
X161377769Y-64351867D01*
X161436252Y-64363500D01*
X161594000Y-64363500D01*
X161602132Y-64366868D01*
X161605500Y-64375000D01*
X161605500Y-80428579D01*
X161602132Y-80436711D01*
X154884711Y-87154132D01*
X154876579Y-87157500D01*
X154827884Y-87157500D01*
X154797556Y-87163532D01*
X154644254Y-87194025D01*
X154644249Y-87194026D01*
X154471266Y-87265679D01*
X154315595Y-87369695D01*
X154183195Y-87502095D01*
X154079179Y-87657766D01*
X154007526Y-87830749D01*
X154007525Y-87830754D01*
X153971000Y-88014384D01*
X151064000Y-88014384D01*
X151064000Y-81189339D01*
X156305500Y-81189339D01*
X156305500Y-81370660D01*
X156340872Y-81548494D01*
X156340873Y-81548499D01*
X156394544Y-81678071D01*
X156410263Y-81716020D01*
X156511001Y-81866785D01*
X156639215Y-81994999D01*
X156789980Y-82095737D01*
X156957500Y-82165126D01*
X157135339Y-82200500D01*
X157135340Y-82200500D01*
X157316660Y-82200500D01*
X157316661Y-82200500D01*
X157494500Y-82165126D01*
X157662020Y-82095737D01*
X157812785Y-81994999D01*
X157940999Y-81866785D01*
X158041737Y-81716020D01*
X158111126Y-81548500D01*
X158146500Y-81370661D01*
X158146500Y-81189339D01*
X158111126Y-81011500D01*
X158041737Y-80843980D01*
X157940999Y-80693215D01*
X157812785Y-80565001D01*
X157812781Y-80564998D01*
X157662022Y-80464264D01*
X157494499Y-80394873D01*
X157494494Y-80394872D01*
X157351841Y-80366497D01*
X157316661Y-80359500D01*
X157135339Y-80359500D01*
X157105969Y-80365341D01*
X156957505Y-80394872D01*
X156957500Y-80394873D01*
X156789977Y-80464264D01*
X156639218Y-80564998D01*
X156510998Y-80693218D01*
X156410264Y-80843977D01*
X156340873Y-81011500D01*
X156340872Y-81011505D01*
X156305500Y-81189339D01*
X151064000Y-81189339D01*
X151064000Y-78649339D01*
X153765500Y-78649339D01*
X153765500Y-78830661D01*
X153772497Y-78865841D01*
X153800872Y-79008494D01*
X153800873Y-79008499D01*
X153870264Y-79176022D01*
X153970998Y-79326781D01*
X153971001Y-79326785D01*
X154099215Y-79454999D01*
X154249980Y-79555737D01*
X154417500Y-79625126D01*
X154595339Y-79660500D01*
X154595340Y-79660500D01*
X154776660Y-79660500D01*
X154776661Y-79660500D01*
X154943178Y-79627378D01*
X159373595Y-79627378D01*
X159483063Y-79672723D01*
X159670465Y-79710000D01*
X159861535Y-79710000D01*
X160048934Y-79672723D01*
X160048937Y-79672723D01*
X160158403Y-79627378D01*
X159765999Y-79234974D01*
X159373595Y-79627378D01*
X154943178Y-79627378D01*
X154954500Y-79625126D01*
X155122020Y-79555737D01*
X155272785Y-79454999D01*
X155400999Y-79326785D01*
X155501737Y-79176020D01*
X155571126Y-79008500D01*
X155606500Y-78830661D01*
X155606500Y-78649339D01*
X155605530Y-78644464D01*
X158796000Y-78644464D01*
X158796000Y-78835535D01*
X158833276Y-79022934D01*
X158833276Y-79022937D01*
X158878620Y-79132403D01*
X159271025Y-78740000D01*
X159218364Y-78687339D01*
X159366000Y-78687339D01*
X159366000Y-78792661D01*
X159393259Y-78894394D01*
X159445920Y-78985606D01*
X159520394Y-79060080D01*
X159611606Y-79112741D01*
X159713339Y-79140000D01*
X159818661Y-79140000D01*
X159920394Y-79112741D01*
X160011606Y-79060080D01*
X160086080Y-78985606D01*
X160138741Y-78894394D01*
X160166000Y-78792661D01*
X160166000Y-78739999D01*
X160260974Y-78739999D01*
X160653378Y-79132403D01*
X160698723Y-79022937D01*
X160698723Y-79022934D01*
X160736000Y-78835535D01*
X160736000Y-78644464D01*
X160698723Y-78457065D01*
X160698723Y-78457062D01*
X160653378Y-78347595D01*
X160260974Y-78739999D01*
X160166000Y-78739999D01*
X160166000Y-78687339D01*
X160138741Y-78585606D01*
X160086080Y-78494394D01*
X160011606Y-78419920D01*
X159920394Y-78367259D01*
X159818661Y-78340000D01*
X159713339Y-78340000D01*
X159611606Y-78367259D01*
X159520394Y-78419920D01*
X159445920Y-78494394D01*
X159393259Y-78585606D01*
X159366000Y-78687339D01*
X159218364Y-78687339D01*
X158878620Y-78347595D01*
X158833276Y-78457062D01*
X158833276Y-78457065D01*
X158796000Y-78644464D01*
X155605530Y-78644464D01*
X155571126Y-78471500D01*
X155501737Y-78303980D01*
X155400999Y-78153215D01*
X155272785Y-78025001D01*
X155209365Y-77982625D01*
X155122022Y-77924264D01*
X155122020Y-77924263D01*
X154970352Y-77861440D01*
X154954499Y-77854873D01*
X154954494Y-77854872D01*
X154943172Y-77852620D01*
X159373595Y-77852620D01*
X159765999Y-78245024D01*
X160158403Y-77852620D01*
X160048936Y-77807276D01*
X159861535Y-77770000D01*
X159670465Y-77770000D01*
X159483065Y-77807276D01*
X159483062Y-77807276D01*
X159373595Y-77852620D01*
X154943172Y-77852620D01*
X154811841Y-77826497D01*
X154776661Y-77819500D01*
X154595339Y-77819500D01*
X154565969Y-77825341D01*
X154417505Y-77854872D01*
X154417500Y-77854873D01*
X154249977Y-77924264D01*
X154099218Y-78024998D01*
X153970998Y-78153218D01*
X153870264Y-78303977D01*
X153800873Y-78471500D01*
X153800872Y-78471505D01*
X153778177Y-78585606D01*
X153765500Y-78649339D01*
X151064000Y-78649339D01*
X151064000Y-73806252D01*
X158895500Y-73806252D01*
X158895500Y-75545748D01*
X158907133Y-75604231D01*
X158907134Y-75604232D01*
X158951446Y-75670550D01*
X158951448Y-75670552D01*
X159017769Y-75714867D01*
X159076252Y-75726500D01*
X159076254Y-75726500D01*
X160815746Y-75726500D01*
X160815748Y-75726500D01*
X160874231Y-75714867D01*
X160940552Y-75670552D01*
X160984867Y-75604231D01*
X160996500Y-75545748D01*
X160996500Y-73806252D01*
X160984867Y-73747769D01*
X160940552Y-73681448D01*
X160940550Y-73681446D01*
X160874232Y-73637134D01*
X160874233Y-73637134D01*
X160874231Y-73637133D01*
X160874229Y-73637132D01*
X160874228Y-73637132D01*
X160844788Y-73631276D01*
X160815748Y-73625500D01*
X159076252Y-73625500D01*
X159052988Y-73630127D01*
X159017771Y-73637132D01*
X159017767Y-73637134D01*
X158951449Y-73681446D01*
X158951446Y-73681449D01*
X158907134Y-73747767D01*
X158907132Y-73747771D01*
X158898388Y-73791731D01*
X158895500Y-73806252D01*
X151064000Y-73806252D01*
X151064000Y-72032535D01*
X158895500Y-72032535D01*
X158895500Y-72239464D01*
X158935868Y-72442414D01*
X158935869Y-72442419D01*
X158997120Y-72590290D01*
X159015059Y-72633598D01*
X159130023Y-72805655D01*
X159276345Y-72951977D01*
X159448402Y-73066941D01*
X159639580Y-73146130D01*
X159842535Y-73186500D01*
X159842536Y-73186500D01*
X160049464Y-73186500D01*
X160049465Y-73186500D01*
X160252420Y-73146130D01*
X160443598Y-73066941D01*
X160615655Y-72951977D01*
X160761977Y-72805655D01*
X160876941Y-72633598D01*
X160956130Y-72442420D01*
X160996500Y-72239465D01*
X160996500Y-72032535D01*
X160956130Y-71829580D01*
X160876941Y-71638402D01*
X160761977Y-71466345D01*
X160615655Y-71320023D01*
X160615651Y-71320020D01*
X160443600Y-71205060D01*
X160252419Y-71125869D01*
X160252414Y-71125868D01*
X160089614Y-71093486D01*
X160049465Y-71085500D01*
X159842535Y-71085500D01*
X159809016Y-71092167D01*
X159639585Y-71125868D01*
X159639580Y-71125869D01*
X159448399Y-71205060D01*
X159276348Y-71320020D01*
X159130020Y-71466348D01*
X159015060Y-71638399D01*
X158935869Y-71829580D01*
X158935868Y-71829585D01*
X158895500Y-72032535D01*
X151064000Y-72032535D01*
X151064000Y-69509425D01*
X158846000Y-69509425D01*
X158846000Y-69682574D01*
X158873085Y-69853581D01*
X158926588Y-70018249D01*
X158961080Y-70085942D01*
X159446000Y-69601022D01*
X159446000Y-69661826D01*
X159480075Y-69788993D01*
X159545901Y-69903007D01*
X159638993Y-69996099D01*
X159753007Y-70061925D01*
X159880174Y-70096000D01*
X159940974Y-70096000D01*
X159456056Y-70580918D01*
X159523750Y-70615411D01*
X159688418Y-70668914D01*
X159859426Y-70696000D01*
X160032574Y-70696000D01*
X160203581Y-70668914D01*
X160368249Y-70615411D01*
X160435942Y-70580918D01*
X159951024Y-70096000D01*
X160011826Y-70096000D01*
X160138993Y-70061925D01*
X160253007Y-69996099D01*
X160346099Y-69903007D01*
X160411925Y-69788993D01*
X160446000Y-69661826D01*
X160446000Y-69601024D01*
X160930918Y-70085942D01*
X160965411Y-70018249D01*
X161018914Y-69853581D01*
X161046000Y-69682574D01*
X161046000Y-69509425D01*
X161018914Y-69338418D01*
X160965411Y-69173750D01*
X160930918Y-69106056D01*
X160446000Y-69590974D01*
X160446000Y-69530174D01*
X160411925Y-69403007D01*
X160346099Y-69288993D01*
X160253007Y-69195901D01*
X160138993Y-69130075D01*
X160011826Y-69096000D01*
X159951022Y-69096000D01*
X160435942Y-68611080D01*
X160368249Y-68576588D01*
X160203581Y-68523085D01*
X160032574Y-68496000D01*
X159859426Y-68496000D01*
X159688418Y-68523085D01*
X159523750Y-68576588D01*
X159456056Y-68611080D01*
X159940976Y-69096000D01*
X159880174Y-69096000D01*
X159753007Y-69130075D01*
X159638993Y-69195901D01*
X159545901Y-69288993D01*
X159480075Y-69403007D01*
X159446000Y-69530174D01*
X159446000Y-69590976D01*
X158961080Y-69106056D01*
X158926588Y-69173750D01*
X158873085Y-69338418D01*
X158846000Y-69509425D01*
X151064000Y-69509425D01*
X151064000Y-62034000D01*
X151067368Y-62025868D01*
X151075500Y-62022500D01*
X171151880Y-62022500D01*
X171160012Y-62025868D01*
G37*
%TD.AperFunction*%
%TD*%
%TA.AperFunction,NonConductor*%
G36*
X147504632Y-62025868D02*
G01*
X147508000Y-62034000D01*
X147508000Y-82772545D01*
X147504632Y-82780677D01*
X147496537Y-82784045D01*
X141536037Y-82803007D01*
X141527894Y-82799665D01*
X141524500Y-82791544D01*
X141524500Y-65410712D01*
X143183500Y-65410712D01*
X143183500Y-65653288D01*
X143215162Y-65893789D01*
X143215163Y-65893793D01*
X143215164Y-65893800D01*
X143215164Y-65893801D01*
X143277944Y-66128094D01*
X143277944Y-66128095D01*
X143370777Y-66352215D01*
X143492061Y-66562285D01*
X143492063Y-66562288D01*
X143492064Y-66562289D01*
X143639735Y-66754738D01*
X143811262Y-66926265D01*
X144003711Y-67073936D01*
X144003714Y-67073938D01*
X144213784Y-67195222D01*
X144213785Y-67195222D01*
X144213788Y-67195224D01*
X144437900Y-67288054D01*
X144437904Y-67288055D01*
X144672199Y-67350835D01*
X144672200Y-67350835D01*
X144672211Y-67350838D01*
X144912712Y-67382500D01*
X144912716Y-67382500D01*
X145155284Y-67382500D01*
X145155288Y-67382500D01*
X145395789Y-67350838D01*
X145395800Y-67350835D01*
X145395801Y-67350835D01*
X145457117Y-67334405D01*
X145630100Y-67288054D01*
X145854212Y-67195224D01*
X146064289Y-67073936D01*
X146256738Y-66926265D01*
X146428265Y-66754738D01*
X146575936Y-66562289D01*
X146697224Y-66352212D01*
X146790054Y-66128100D01*
X146852838Y-65893789D01*
X146884500Y-65653288D01*
X146884500Y-65410712D01*
X146852838Y-65170211D01*
X146842531Y-65131746D01*
X146790055Y-64935905D01*
X146790055Y-64935904D01*
X146790054Y-64935900D01*
X146697224Y-64711788D01*
X146631422Y-64597816D01*
X146575938Y-64501714D01*
X146575936Y-64501711D01*
X146428265Y-64309262D01*
X146256738Y-64137735D01*
X146064289Y-63990064D01*
X146064288Y-63990063D01*
X146064285Y-63990061D01*
X145854215Y-63868777D01*
X145630095Y-63775944D01*
X145395800Y-63713164D01*
X145395793Y-63713163D01*
X145395789Y-63713162D01*
X145201614Y-63687598D01*
X145155289Y-63681500D01*
X145155288Y-63681500D01*
X144912712Y-63681500D01*
X144912710Y-63681500D01*
X144820059Y-63693697D01*
X144672211Y-63713162D01*
X144672207Y-63713162D01*
X144672199Y-63713164D01*
X144672198Y-63713164D01*
X144437905Y-63775944D01*
X144437904Y-63775944D01*
X144213784Y-63868777D01*
X144003714Y-63990061D01*
X143931542Y-64045440D01*
X143811262Y-64137735D01*
X143811257Y-64137740D01*
X143811255Y-64137741D01*
X143639741Y-64309255D01*
X143639740Y-64309257D01*
X143639735Y-64309262D01*
X143547440Y-64429542D01*
X143492061Y-64501714D01*
X143370777Y-64711784D01*
X143277944Y-64935904D01*
X143277944Y-64935905D01*
X143215164Y-65170198D01*
X143215164Y-65170199D01*
X143215162Y-65170207D01*
X143215162Y-65170211D01*
X143183500Y-65410712D01*
X141524500Y-65410712D01*
X141524500Y-62034000D01*
X141527868Y-62025868D01*
X141536000Y-62022500D01*
X147496500Y-62022500D01*
X147504632Y-62025868D01*
G37*
%TD.AperFunction*%
%TA.AperFunction,NonConductor*%
G36*
X191246132Y-62025868D02*
G01*
X191249500Y-62034000D01*
X191249500Y-63915558D01*
X191246132Y-63923690D01*
X191238000Y-63927058D01*
X191229868Y-63923690D01*
X191227375Y-63919959D01*
X191225552Y-63915558D01*
X191162941Y-63764402D01*
X191047977Y-63592345D01*
X190901655Y-63446023D01*
X190901651Y-63446020D01*
X190729600Y-63331060D01*
X190538419Y-63251869D01*
X190538414Y-63251868D01*
X190375614Y-63219486D01*
X190335465Y-63211500D01*
X190128535Y-63211500D01*
X190095016Y-63218167D01*
X189925585Y-63251868D01*
X189925580Y-63251869D01*
X189734399Y-63331060D01*
X189562348Y-63446020D01*
X189416020Y-63592348D01*
X189301060Y-63764399D01*
X189221869Y-63955580D01*
X189221868Y-63955585D01*
X189181500Y-64158535D01*
X189181500Y-64365464D01*
X189221868Y-64568414D01*
X189221869Y-64568419D01*
X189234046Y-64597816D01*
X189301059Y-64759598D01*
X189416023Y-64931655D01*
X189562345Y-65077977D01*
X189734402Y-65192941D01*
X189925580Y-65272130D01*
X190128535Y-65312500D01*
X190128536Y-65312500D01*
X190335464Y-65312500D01*
X190335465Y-65312500D01*
X190538420Y-65272130D01*
X190729598Y-65192941D01*
X190901655Y-65077977D01*
X191047977Y-64931655D01*
X191162941Y-64759598D01*
X191227376Y-64604038D01*
X191233599Y-64597816D01*
X191242401Y-64597816D01*
X191248625Y-64604040D01*
X191249500Y-64608441D01*
X191249500Y-66455558D01*
X191246132Y-66463690D01*
X191238000Y-66467058D01*
X191229868Y-66463690D01*
X191227375Y-66459959D01*
X191225552Y-66455558D01*
X191162941Y-66304402D01*
X191047977Y-66132345D01*
X190901655Y-65986023D01*
X190901651Y-65986020D01*
X190729600Y-65871060D01*
X190538419Y-65791869D01*
X190538414Y-65791868D01*
X190375614Y-65759486D01*
X190335465Y-65751500D01*
X190128535Y-65751500D01*
X190095016Y-65758167D01*
X189925585Y-65791868D01*
X189925580Y-65791869D01*
X189734399Y-65871060D01*
X189562348Y-65986020D01*
X189416020Y-66132348D01*
X189301060Y-66304399D01*
X189221869Y-66495580D01*
X189221868Y-66495585D01*
X189181500Y-66698535D01*
X189181500Y-66905464D01*
X189221868Y-67108414D01*
X189221869Y-67108419D01*
X189283120Y-67256290D01*
X189301059Y-67299598D01*
X189416023Y-67471655D01*
X189562345Y-67617977D01*
X189734402Y-67732941D01*
X189925580Y-67812130D01*
X190128535Y-67852500D01*
X190128536Y-67852500D01*
X190335464Y-67852500D01*
X190335465Y-67852500D01*
X190538420Y-67812130D01*
X190729598Y-67732941D01*
X190901655Y-67617977D01*
X191047977Y-67471655D01*
X191162941Y-67299598D01*
X191227376Y-67144038D01*
X191233599Y-67137816D01*
X191242401Y-67137816D01*
X191248625Y-67144040D01*
X191249500Y-67148441D01*
X191249500Y-68995558D01*
X191246132Y-69003690D01*
X191238000Y-69007058D01*
X191229868Y-69003690D01*
X191227375Y-68999959D01*
X191196883Y-68926345D01*
X191162941Y-68844402D01*
X191047977Y-68672345D01*
X190901655Y-68526023D01*
X190901651Y-68526020D01*
X190729600Y-68411060D01*
X190538419Y-68331869D01*
X190538414Y-68331868D01*
X190375614Y-68299486D01*
X190335465Y-68291500D01*
X190128535Y-68291500D01*
X190095016Y-68298167D01*
X189925585Y-68331868D01*
X189925580Y-68331869D01*
X189734399Y-68411060D01*
X189562348Y-68526020D01*
X189416020Y-68672348D01*
X189301060Y-68844399D01*
X189221869Y-69035580D01*
X189221868Y-69035585D01*
X189181500Y-69238535D01*
X189181500Y-69445464D01*
X189221868Y-69648414D01*
X189221869Y-69648419D01*
X189283120Y-69796290D01*
X189301059Y-69839598D01*
X189416023Y-70011655D01*
X189562345Y-70157977D01*
X189734402Y-70272941D01*
X189925580Y-70352130D01*
X190128535Y-70392500D01*
X190128536Y-70392500D01*
X190335464Y-70392500D01*
X190335465Y-70392500D01*
X190538420Y-70352130D01*
X190729598Y-70272941D01*
X190901655Y-70157977D01*
X191047977Y-70011655D01*
X191162941Y-69839598D01*
X191227376Y-69684038D01*
X191233599Y-69677816D01*
X191242401Y-69677816D01*
X191248625Y-69684040D01*
X191249500Y-69688441D01*
X191249500Y-71535558D01*
X191246132Y-71543690D01*
X191238000Y-71547058D01*
X191229868Y-71543690D01*
X191227375Y-71539959D01*
X191196883Y-71466345D01*
X191162941Y-71384402D01*
X191047977Y-71212345D01*
X190901655Y-71066023D01*
X190744412Y-70960957D01*
X190729600Y-70951060D01*
X190538419Y-70871869D01*
X190538414Y-70871868D01*
X190375614Y-70839486D01*
X190335465Y-70831500D01*
X190128535Y-70831500D01*
X190095016Y-70838167D01*
X189925585Y-70871868D01*
X189925580Y-70871869D01*
X189734399Y-70951060D01*
X189562348Y-71066020D01*
X189416020Y-71212348D01*
X189301060Y-71384399D01*
X189221869Y-71575580D01*
X189221868Y-71575585D01*
X189181500Y-71778535D01*
X189181500Y-71985464D01*
X189221868Y-72188414D01*
X189221869Y-72188419D01*
X189301060Y-72379600D01*
X189416020Y-72551651D01*
X189416023Y-72551655D01*
X189562345Y-72697977D01*
X189734402Y-72812941D01*
X189925580Y-72892130D01*
X190128535Y-72932500D01*
X190128536Y-72932500D01*
X190335464Y-72932500D01*
X190335465Y-72932500D01*
X190538420Y-72892130D01*
X190729598Y-72812941D01*
X190901655Y-72697977D01*
X191047977Y-72551655D01*
X191162941Y-72379598D01*
X191227376Y-72224038D01*
X191233599Y-72217816D01*
X191242401Y-72217816D01*
X191248625Y-72224040D01*
X191249500Y-72228441D01*
X191249500Y-74075558D01*
X191246132Y-74083690D01*
X191238000Y-74087058D01*
X191229868Y-74083690D01*
X191227375Y-74079959D01*
X191225552Y-74075558D01*
X191162941Y-73924402D01*
X191047977Y-73752345D01*
X190901655Y-73606023D01*
X190901651Y-73606020D01*
X190729600Y-73491060D01*
X190538419Y-73411869D01*
X190538414Y-73411868D01*
X190375614Y-73379486D01*
X190335465Y-73371500D01*
X190128535Y-73371500D01*
X190095016Y-73378167D01*
X189925585Y-73411868D01*
X189925580Y-73411869D01*
X189734399Y-73491060D01*
X189562348Y-73606020D01*
X189416020Y-73752348D01*
X189301060Y-73924399D01*
X189221869Y-74115580D01*
X189221868Y-74115585D01*
X189181500Y-74318535D01*
X189181500Y-74525464D01*
X189221868Y-74728414D01*
X189221869Y-74728419D01*
X189277222Y-74862051D01*
X189301059Y-74919598D01*
X189416023Y-75091655D01*
X189562345Y-75237977D01*
X189734402Y-75352941D01*
X189925580Y-75432130D01*
X190128535Y-75472500D01*
X190128536Y-75472500D01*
X190335464Y-75472500D01*
X190335465Y-75472500D01*
X190538420Y-75432130D01*
X190729598Y-75352941D01*
X190901655Y-75237977D01*
X191047977Y-75091655D01*
X191162941Y-74919598D01*
X191227376Y-74764038D01*
X191233599Y-74757816D01*
X191242401Y-74757816D01*
X191248625Y-74764040D01*
X191249500Y-74768441D01*
X191249500Y-76615558D01*
X191246132Y-76623690D01*
X191238000Y-76627058D01*
X191229868Y-76623690D01*
X191227375Y-76619959D01*
X191225552Y-76615558D01*
X191162941Y-76464402D01*
X191047977Y-76292345D01*
X190901655Y-76146023D01*
X190901651Y-76146020D01*
X190729600Y-76031060D01*
X190538419Y-75951869D01*
X190538414Y-75951868D01*
X190375614Y-75919486D01*
X190335465Y-75911500D01*
X190128535Y-75911500D01*
X190095016Y-75918167D01*
X189925585Y-75951868D01*
X189925580Y-75951869D01*
X189734399Y-76031060D01*
X189562348Y-76146020D01*
X189416020Y-76292348D01*
X189301060Y-76464399D01*
X189221869Y-76655580D01*
X189221868Y-76655585D01*
X189181500Y-76858535D01*
X189181500Y-77065464D01*
X189221868Y-77268414D01*
X189221869Y-77268419D01*
X189234046Y-77297816D01*
X189301059Y-77459598D01*
X189416023Y-77631655D01*
X189562345Y-77777977D01*
X189734402Y-77892941D01*
X189925580Y-77972130D01*
X190128535Y-78012500D01*
X190128536Y-78012500D01*
X190335464Y-78012500D01*
X190335465Y-78012500D01*
X190538420Y-77972130D01*
X190729598Y-77892941D01*
X190901655Y-77777977D01*
X191047977Y-77631655D01*
X191162941Y-77459598D01*
X191227376Y-77304038D01*
X191233599Y-77297816D01*
X191242401Y-77297816D01*
X191248625Y-77304040D01*
X191249500Y-77308441D01*
X191249500Y-79155558D01*
X191246132Y-79163690D01*
X191238000Y-79167058D01*
X191229868Y-79163690D01*
X191227375Y-79159959D01*
X191164638Y-79008500D01*
X191162941Y-79004402D01*
X191047977Y-78832345D01*
X190901655Y-78686023D01*
X190901651Y-78686020D01*
X190729600Y-78571060D01*
X190538419Y-78491869D01*
X190538414Y-78491868D01*
X190375614Y-78459486D01*
X190335465Y-78451500D01*
X190128535Y-78451500D01*
X190095016Y-78458167D01*
X189925585Y-78491868D01*
X189925580Y-78491869D01*
X189734399Y-78571060D01*
X189562348Y-78686020D01*
X189416020Y-78832348D01*
X189301060Y-79004399D01*
X189221869Y-79195580D01*
X189221868Y-79195585D01*
X189181500Y-79398535D01*
X189181500Y-79605464D01*
X189221868Y-79808414D01*
X189221869Y-79808419D01*
X189301060Y-79999600D01*
X189396799Y-80142884D01*
X189416023Y-80171655D01*
X189562345Y-80317977D01*
X189734402Y-80432941D01*
X189925580Y-80512130D01*
X190128535Y-80552500D01*
X190128536Y-80552500D01*
X190335464Y-80552500D01*
X190335465Y-80552500D01*
X190538420Y-80512130D01*
X190729598Y-80432941D01*
X190901655Y-80317977D01*
X191047977Y-80171655D01*
X191162941Y-79999598D01*
X191227376Y-79844038D01*
X191233599Y-79837816D01*
X191242401Y-79837816D01*
X191248625Y-79844040D01*
X191249500Y-79848441D01*
X191249500Y-81695558D01*
X191246132Y-81703690D01*
X191238000Y-81707058D01*
X191229868Y-81703690D01*
X191227375Y-81699959D01*
X191164638Y-81548500D01*
X191162941Y-81544402D01*
X191047977Y-81372345D01*
X190901655Y-81226023D01*
X190901651Y-81226020D01*
X190729600Y-81111060D01*
X190538419Y-81031869D01*
X190538414Y-81031868D01*
X190375614Y-80999486D01*
X190335465Y-80991500D01*
X190128535Y-80991500D01*
X190095016Y-80998167D01*
X189925585Y-81031868D01*
X189925580Y-81031869D01*
X189734399Y-81111060D01*
X189562348Y-81226020D01*
X189416020Y-81372348D01*
X189301060Y-81544399D01*
X189221869Y-81735580D01*
X189221868Y-81735585D01*
X189181500Y-81938535D01*
X189181500Y-82145464D01*
X189221868Y-82348414D01*
X189221869Y-82348419D01*
X189301060Y-82539600D01*
X189376181Y-82652027D01*
X189416023Y-82711655D01*
X189562345Y-82857977D01*
X189734402Y-82972941D01*
X189925580Y-83052130D01*
X190128535Y-83092500D01*
X190128536Y-83092500D01*
X190335464Y-83092500D01*
X190335465Y-83092500D01*
X190538420Y-83052130D01*
X190729598Y-82972941D01*
X190901655Y-82857977D01*
X191047977Y-82711655D01*
X191162941Y-82539598D01*
X191227376Y-82384038D01*
X191233599Y-82377816D01*
X191242401Y-82377816D01*
X191248625Y-82384040D01*
X191249500Y-82388441D01*
X191249500Y-84235558D01*
X191246132Y-84243690D01*
X191238000Y-84247058D01*
X191229868Y-84243690D01*
X191227375Y-84239959D01*
X191199187Y-84171908D01*
X191162941Y-84084402D01*
X191047977Y-83912345D01*
X190901655Y-83766023D01*
X190742405Y-83659616D01*
X190729600Y-83651060D01*
X190538419Y-83571869D01*
X190538414Y-83571868D01*
X190375614Y-83539486D01*
X190335465Y-83531500D01*
X190128535Y-83531500D01*
X190095016Y-83538167D01*
X189925585Y-83571868D01*
X189925580Y-83571869D01*
X189734399Y-83651060D01*
X189562348Y-83766020D01*
X189416020Y-83912348D01*
X189301060Y-84084399D01*
X189221869Y-84275580D01*
X189221868Y-84275585D01*
X189181500Y-84478535D01*
X189181500Y-84685464D01*
X189221868Y-84888414D01*
X189221869Y-84888419D01*
X189234046Y-84917816D01*
X189301059Y-85079598D01*
X189416023Y-85251655D01*
X189562345Y-85397977D01*
X189734402Y-85512941D01*
X189925580Y-85592130D01*
X190128535Y-85632500D01*
X190128536Y-85632500D01*
X190335464Y-85632500D01*
X190335465Y-85632500D01*
X190538420Y-85592130D01*
X190729598Y-85512941D01*
X190901655Y-85397977D01*
X191047977Y-85251655D01*
X191162941Y-85079598D01*
X191227376Y-84924038D01*
X191233599Y-84917816D01*
X191242401Y-84917816D01*
X191248625Y-84924040D01*
X191249500Y-84928441D01*
X191249500Y-86775558D01*
X191246132Y-86783690D01*
X191238000Y-86787058D01*
X191229868Y-86783690D01*
X191227375Y-86779959D01*
X191212944Y-86745120D01*
X191162941Y-86624402D01*
X191047977Y-86452345D01*
X190901655Y-86306023D01*
X190901651Y-86306020D01*
X190729600Y-86191060D01*
X190538419Y-86111869D01*
X190538414Y-86111868D01*
X190375614Y-86079486D01*
X190335465Y-86071500D01*
X190128535Y-86071500D01*
X190095016Y-86078167D01*
X189925585Y-86111868D01*
X189925580Y-86111869D01*
X189734399Y-86191060D01*
X189562348Y-86306020D01*
X189416020Y-86452348D01*
X189301060Y-86624399D01*
X189221869Y-86815580D01*
X189221868Y-86815585D01*
X189181500Y-87018535D01*
X189181500Y-87225464D01*
X189221868Y-87428414D01*
X189221869Y-87428419D01*
X189236624Y-87464040D01*
X189301059Y-87619598D01*
X189416023Y-87791655D01*
X189562345Y-87937977D01*
X189734402Y-88052941D01*
X189925580Y-88132130D01*
X190128535Y-88172500D01*
X190128536Y-88172500D01*
X190335464Y-88172500D01*
X190335465Y-88172500D01*
X190538420Y-88132130D01*
X190729598Y-88052941D01*
X190901655Y-87937977D01*
X191047977Y-87791655D01*
X191162941Y-87619598D01*
X191227376Y-87464038D01*
X191233599Y-87457816D01*
X191242401Y-87457816D01*
X191248625Y-87464040D01*
X191249500Y-87468441D01*
X191249500Y-89315558D01*
X191246132Y-89323690D01*
X191238000Y-89327058D01*
X191229868Y-89323690D01*
X191227375Y-89319959D01*
X191225552Y-89315558D01*
X191162941Y-89164402D01*
X191047977Y-88992345D01*
X190901655Y-88846023D01*
X190862227Y-88819678D01*
X190729600Y-88731060D01*
X190538419Y-88651869D01*
X190538414Y-88651868D01*
X190375614Y-88619486D01*
X190335465Y-88611500D01*
X190128535Y-88611500D01*
X190095016Y-88618167D01*
X189925585Y-88651868D01*
X189925580Y-88651869D01*
X189734399Y-88731060D01*
X189562348Y-88846020D01*
X189416020Y-88992348D01*
X189301060Y-89164399D01*
X189221869Y-89355580D01*
X189221868Y-89355585D01*
X189181500Y-89558535D01*
X189181500Y-89765465D01*
X189189486Y-89805614D01*
X189221868Y-89968414D01*
X189221869Y-89968419D01*
X189301060Y-90159600D01*
X189416020Y-90331651D01*
X189416023Y-90331655D01*
X189562345Y-90477977D01*
X189734402Y-90592941D01*
X189925580Y-90672130D01*
X190128535Y-90712500D01*
X190128536Y-90712500D01*
X190335464Y-90712500D01*
X190335465Y-90712500D01*
X190538420Y-90672130D01*
X190729598Y-90592941D01*
X190901655Y-90477977D01*
X191047977Y-90331655D01*
X191162941Y-90159598D01*
X191227376Y-90004038D01*
X191233599Y-89997816D01*
X191242401Y-89997816D01*
X191248625Y-90004040D01*
X191249500Y-90008441D01*
X191249500Y-91855558D01*
X191246132Y-91863690D01*
X191238000Y-91867058D01*
X191229868Y-91863690D01*
X191227375Y-91859959D01*
X191225552Y-91855558D01*
X191162941Y-91704402D01*
X191047977Y-91532345D01*
X190901655Y-91386023D01*
X190901651Y-91386020D01*
X190729600Y-91271060D01*
X190538419Y-91191869D01*
X190538414Y-91191868D01*
X190375614Y-91159486D01*
X190335465Y-91151500D01*
X190128535Y-91151500D01*
X190095016Y-91158167D01*
X189925585Y-91191868D01*
X189925580Y-91191869D01*
X189734399Y-91271060D01*
X189562348Y-91386020D01*
X189416020Y-91532348D01*
X189301060Y-91704399D01*
X189221869Y-91895580D01*
X189221868Y-91895585D01*
X189181500Y-92098535D01*
X189181500Y-92305464D01*
X189221868Y-92508414D01*
X189221869Y-92508419D01*
X189301060Y-92699600D01*
X189416020Y-92871651D01*
X189416023Y-92871655D01*
X189562345Y-93017977D01*
X189734402Y-93132941D01*
X189925580Y-93212130D01*
X190128535Y-93252500D01*
X190128536Y-93252500D01*
X190335464Y-93252500D01*
X190335465Y-93252500D01*
X190538420Y-93212130D01*
X190729598Y-93132941D01*
X190901655Y-93017977D01*
X191047977Y-92871655D01*
X191162941Y-92699598D01*
X191227376Y-92544038D01*
X191233599Y-92537816D01*
X191242401Y-92537816D01*
X191248625Y-92544040D01*
X191249500Y-92548441D01*
X191249500Y-94395558D01*
X191246132Y-94403690D01*
X191238000Y-94407058D01*
X191229868Y-94403690D01*
X191227375Y-94399959D01*
X191184983Y-94297616D01*
X191162941Y-94244402D01*
X191047977Y-94072345D01*
X190901655Y-93926023D01*
X190901651Y-93926020D01*
X190729600Y-93811060D01*
X190538419Y-93731869D01*
X190538414Y-93731868D01*
X190375614Y-93699486D01*
X190335465Y-93691500D01*
X190128535Y-93691500D01*
X190095016Y-93698167D01*
X189925585Y-93731868D01*
X189925580Y-93731869D01*
X189734399Y-93811060D01*
X189562348Y-93926020D01*
X189416020Y-94072348D01*
X189301060Y-94244399D01*
X189221869Y-94435580D01*
X189221868Y-94435585D01*
X189181500Y-94638535D01*
X189181500Y-94845464D01*
X189221868Y-95048414D01*
X189221869Y-95048419D01*
X189234046Y-95077816D01*
X189301059Y-95239598D01*
X189416023Y-95411655D01*
X189562345Y-95557977D01*
X189734402Y-95672941D01*
X189925580Y-95752130D01*
X190128535Y-95792500D01*
X190128536Y-95792500D01*
X190335464Y-95792500D01*
X190335465Y-95792500D01*
X190538420Y-95752130D01*
X190729598Y-95672941D01*
X190901655Y-95557977D01*
X191047977Y-95411655D01*
X191162941Y-95239598D01*
X191227376Y-95084038D01*
X191233599Y-95077816D01*
X191242401Y-95077816D01*
X191248625Y-95084040D01*
X191249500Y-95088441D01*
X191249500Y-96935558D01*
X191246132Y-96943690D01*
X191238000Y-96947058D01*
X191229868Y-96943690D01*
X191227375Y-96939959D01*
X191225552Y-96935558D01*
X191162941Y-96784402D01*
X191047977Y-96612345D01*
X190901655Y-96466023D01*
X190901651Y-96466020D01*
X190729600Y-96351060D01*
X190538419Y-96271869D01*
X190538414Y-96271868D01*
X190375614Y-96239486D01*
X190335465Y-96231500D01*
X190128535Y-96231500D01*
X190095016Y-96238167D01*
X189925585Y-96271868D01*
X189925580Y-96271869D01*
X189734399Y-96351060D01*
X189562348Y-96466020D01*
X189416020Y-96612348D01*
X189301060Y-96784399D01*
X189221869Y-96975580D01*
X189221868Y-96975585D01*
X189181500Y-97178535D01*
X189181500Y-97385464D01*
X189221868Y-97588414D01*
X189221869Y-97588419D01*
X189234046Y-97617816D01*
X189301059Y-97779598D01*
X189416023Y-97951655D01*
X189562345Y-98097977D01*
X189734402Y-98212941D01*
X189925580Y-98292130D01*
X190128535Y-98332500D01*
X190128536Y-98332500D01*
X190335464Y-98332500D01*
X190335465Y-98332500D01*
X190538420Y-98292130D01*
X190729598Y-98212941D01*
X190901655Y-98097977D01*
X191047977Y-97951655D01*
X191162941Y-97779598D01*
X191227376Y-97624038D01*
X191233599Y-97617816D01*
X191242401Y-97617816D01*
X191248625Y-97624040D01*
X191249500Y-97628441D01*
X191249500Y-99475558D01*
X191246132Y-99483690D01*
X191238000Y-99487058D01*
X191229868Y-99483690D01*
X191227375Y-99479959D01*
X191225552Y-99475558D01*
X191162941Y-99324402D01*
X191047977Y-99152345D01*
X190901655Y-99006023D01*
X190882015Y-98992900D01*
X190729600Y-98891060D01*
X190538419Y-98811869D01*
X190538414Y-98811868D01*
X190375614Y-98779486D01*
X190335465Y-98771500D01*
X190128535Y-98771500D01*
X190095016Y-98778167D01*
X189925585Y-98811868D01*
X189925580Y-98811869D01*
X189734399Y-98891060D01*
X189562348Y-99006020D01*
X189416020Y-99152348D01*
X189301060Y-99324399D01*
X189221869Y-99515580D01*
X189221868Y-99515585D01*
X189181500Y-99718535D01*
X189181500Y-99925464D01*
X189221868Y-100128414D01*
X189221869Y-100128419D01*
X189234046Y-100157816D01*
X189301059Y-100319598D01*
X189416023Y-100491655D01*
X189562345Y-100637977D01*
X189734402Y-100752941D01*
X189925580Y-100832130D01*
X190128535Y-100872500D01*
X190128536Y-100872500D01*
X190335464Y-100872500D01*
X190335465Y-100872500D01*
X190538420Y-100832130D01*
X190729598Y-100752941D01*
X190901655Y-100637977D01*
X191047977Y-100491655D01*
X191162941Y-100319598D01*
X191227376Y-100164038D01*
X191233599Y-100157816D01*
X191242401Y-100157816D01*
X191248625Y-100164040D01*
X191249500Y-100168441D01*
X191249500Y-102015558D01*
X191246132Y-102023690D01*
X191238000Y-102027058D01*
X191229868Y-102023690D01*
X191227375Y-102019959D01*
X191225552Y-102015558D01*
X191162941Y-101864402D01*
X191047977Y-101692345D01*
X190901655Y-101546023D01*
X190901651Y-101546020D01*
X190729600Y-101431060D01*
X190538419Y-101351869D01*
X190538414Y-101351868D01*
X190375614Y-101319486D01*
X190335465Y-101311500D01*
X190128535Y-101311500D01*
X190095016Y-101318167D01*
X189925585Y-101351868D01*
X189925580Y-101351869D01*
X189734399Y-101431060D01*
X189562348Y-101546020D01*
X189416020Y-101692348D01*
X189301060Y-101864399D01*
X189221869Y-102055580D01*
X189221868Y-102055585D01*
X189181500Y-102258535D01*
X189181500Y-102465464D01*
X189221868Y-102668414D01*
X189221869Y-102668419D01*
X189234046Y-102697816D01*
X189301059Y-102859598D01*
X189416023Y-103031655D01*
X189562345Y-103177977D01*
X189734402Y-103292941D01*
X189925580Y-103372130D01*
X190128535Y-103412500D01*
X190128536Y-103412500D01*
X190335464Y-103412500D01*
X190335465Y-103412500D01*
X190538420Y-103372130D01*
X190729598Y-103292941D01*
X190901655Y-103177977D01*
X191047977Y-103031655D01*
X191162941Y-102859598D01*
X191227376Y-102704038D01*
X191233599Y-102697816D01*
X191242401Y-102697816D01*
X191248625Y-102704040D01*
X191249500Y-102708441D01*
X191249500Y-104555558D01*
X191246132Y-104563690D01*
X191238000Y-104567058D01*
X191229868Y-104563690D01*
X191227375Y-104559959D01*
X191225552Y-104555558D01*
X191162941Y-104404402D01*
X191047977Y-104232345D01*
X190901655Y-104086023D01*
X190901651Y-104086020D01*
X190729600Y-103971060D01*
X190538419Y-103891869D01*
X190538414Y-103891868D01*
X190375614Y-103859486D01*
X190335465Y-103851500D01*
X190128535Y-103851500D01*
X190095016Y-103858167D01*
X189925585Y-103891868D01*
X189925580Y-103891869D01*
X189734399Y-103971060D01*
X189562348Y-104086020D01*
X189416020Y-104232348D01*
X189301060Y-104404399D01*
X189221869Y-104595580D01*
X189221868Y-104595585D01*
X189181500Y-104798535D01*
X189181500Y-105005464D01*
X189221868Y-105208414D01*
X189221869Y-105208419D01*
X189234046Y-105237816D01*
X189301059Y-105399598D01*
X189416023Y-105571655D01*
X189562345Y-105717977D01*
X189734402Y-105832941D01*
X189925580Y-105912130D01*
X190128535Y-105952500D01*
X190128536Y-105952500D01*
X190335464Y-105952500D01*
X190335465Y-105952500D01*
X190538420Y-105912130D01*
X190729598Y-105832941D01*
X190901655Y-105717977D01*
X191047977Y-105571655D01*
X191162941Y-105399598D01*
X191227376Y-105244038D01*
X191233599Y-105237816D01*
X191242401Y-105237816D01*
X191248625Y-105244040D01*
X191249500Y-105248441D01*
X191249500Y-107095558D01*
X191246132Y-107103690D01*
X191238000Y-107107058D01*
X191229868Y-107103690D01*
X191227375Y-107099959D01*
X191225552Y-107095558D01*
X191162941Y-106944402D01*
X191047977Y-106772345D01*
X190901655Y-106626023D01*
X190901651Y-106626020D01*
X190729600Y-106511060D01*
X190538419Y-106431869D01*
X190538414Y-106431868D01*
X190375614Y-106399486D01*
X190335465Y-106391500D01*
X190128535Y-106391500D01*
X190095016Y-106398167D01*
X189925585Y-106431868D01*
X189925580Y-106431869D01*
X189734399Y-106511060D01*
X189562348Y-106626020D01*
X189416020Y-106772348D01*
X189301060Y-106944399D01*
X189221869Y-107135580D01*
X189221868Y-107135585D01*
X189181500Y-107338535D01*
X189181500Y-107545464D01*
X189221868Y-107748414D01*
X189221869Y-107748419D01*
X189234046Y-107777816D01*
X189301059Y-107939598D01*
X189416023Y-108111655D01*
X189562345Y-108257977D01*
X189734402Y-108372941D01*
X189925580Y-108452130D01*
X190128535Y-108492500D01*
X190128536Y-108492500D01*
X190335464Y-108492500D01*
X190335465Y-108492500D01*
X190538420Y-108452130D01*
X190729598Y-108372941D01*
X190901655Y-108257977D01*
X191047977Y-108111655D01*
X191162941Y-107939598D01*
X191227376Y-107784038D01*
X191233599Y-107777816D01*
X191242401Y-107777816D01*
X191248625Y-107784040D01*
X191249500Y-107788441D01*
X191249500Y-109635558D01*
X191246132Y-109643690D01*
X191238000Y-109647058D01*
X191229868Y-109643690D01*
X191227375Y-109639959D01*
X191225552Y-109635558D01*
X191162941Y-109484402D01*
X191047977Y-109312345D01*
X190901655Y-109166023D01*
X190737083Y-109056060D01*
X190729600Y-109051060D01*
X190538419Y-108971869D01*
X190538414Y-108971868D01*
X190375614Y-108939486D01*
X190335465Y-108931500D01*
X190128535Y-108931500D01*
X190103398Y-108936500D01*
X189925585Y-108971868D01*
X189925580Y-108971869D01*
X189734399Y-109051060D01*
X189562348Y-109166020D01*
X189416020Y-109312348D01*
X189301060Y-109484399D01*
X189221869Y-109675580D01*
X189221868Y-109675585D01*
X189181500Y-109878535D01*
X189181500Y-110085465D01*
X189182495Y-110090465D01*
X189221868Y-110288414D01*
X189221869Y-110288419D01*
X189223941Y-110293420D01*
X189301059Y-110479598D01*
X189416023Y-110651655D01*
X189562345Y-110797977D01*
X189734402Y-110912941D01*
X189925580Y-110992130D01*
X190128535Y-111032500D01*
X190128536Y-111032500D01*
X190335464Y-111032500D01*
X190335465Y-111032500D01*
X190538420Y-110992130D01*
X190729598Y-110912941D01*
X190901655Y-110797977D01*
X191047977Y-110651655D01*
X191162941Y-110479598D01*
X191227376Y-110324038D01*
X191233599Y-110317816D01*
X191242401Y-110317816D01*
X191248625Y-110324040D01*
X191249500Y-110328441D01*
X191249500Y-112175558D01*
X191246132Y-112183690D01*
X191238000Y-112187058D01*
X191229868Y-112183690D01*
X191227375Y-112179959D01*
X191225552Y-112175558D01*
X191162941Y-112024402D01*
X191047977Y-111852345D01*
X190901655Y-111706023D01*
X190901651Y-111706020D01*
X190729600Y-111591060D01*
X190538419Y-111511869D01*
X190538414Y-111511868D01*
X190375614Y-111479486D01*
X190335465Y-111471500D01*
X190128535Y-111471500D01*
X190103398Y-111476500D01*
X189925585Y-111511868D01*
X189925580Y-111511869D01*
X189734399Y-111591060D01*
X189562348Y-111706020D01*
X189416020Y-111852348D01*
X189301060Y-112024399D01*
X189221869Y-112215580D01*
X189221868Y-112215585D01*
X189181500Y-112418535D01*
X189181500Y-112625464D01*
X189221868Y-112828414D01*
X189221869Y-112828419D01*
X189234046Y-112857816D01*
X189301059Y-113019598D01*
X189416023Y-113191655D01*
X189562345Y-113337977D01*
X189734402Y-113452941D01*
X189925580Y-113532130D01*
X190128535Y-113572500D01*
X190128536Y-113572500D01*
X190335464Y-113572500D01*
X190335465Y-113572500D01*
X190538420Y-113532130D01*
X190729598Y-113452941D01*
X190901655Y-113337977D01*
X191047977Y-113191655D01*
X191162941Y-113019598D01*
X191227376Y-112864038D01*
X191233599Y-112857816D01*
X191242401Y-112857816D01*
X191248625Y-112864040D01*
X191249500Y-112868441D01*
X191249500Y-114682900D01*
X191246132Y-114691032D01*
X191238000Y-114694400D01*
X177520679Y-114694400D01*
X177512547Y-114691032D01*
X177509179Y-114682900D01*
X177509179Y-114682863D01*
X177518804Y-111657252D01*
X180305500Y-111657252D01*
X180305500Y-113396748D01*
X180317133Y-113455231D01*
X180317134Y-113455232D01*
X180361446Y-113521550D01*
X180361448Y-113521552D01*
X180427769Y-113565867D01*
X180486252Y-113577500D01*
X180486254Y-113577500D01*
X182225746Y-113577500D01*
X182225748Y-113577500D01*
X182284231Y-113565867D01*
X182350552Y-113521552D01*
X182394867Y-113455231D01*
X182406500Y-113396748D01*
X182406500Y-112418535D01*
X186641500Y-112418535D01*
X186641500Y-112625464D01*
X186681868Y-112828414D01*
X186681869Y-112828419D01*
X186694046Y-112857816D01*
X186761059Y-113019598D01*
X186876023Y-113191655D01*
X187022345Y-113337977D01*
X187194402Y-113452941D01*
X187385580Y-113532130D01*
X187588535Y-113572500D01*
X187588536Y-113572500D01*
X187795464Y-113572500D01*
X187795465Y-113572500D01*
X187998420Y-113532130D01*
X188189598Y-113452941D01*
X188361655Y-113337977D01*
X188507977Y-113191655D01*
X188622941Y-113019598D01*
X188702130Y-112828420D01*
X188742500Y-112625465D01*
X188742500Y-112418535D01*
X188702130Y-112215580D01*
X188622941Y-112024402D01*
X188507977Y-111852345D01*
X188361655Y-111706023D01*
X188361651Y-111706020D01*
X188189600Y-111591060D01*
X187998419Y-111511869D01*
X187998414Y-111511868D01*
X187835614Y-111479486D01*
X187795465Y-111471500D01*
X187588535Y-111471500D01*
X187563398Y-111476500D01*
X187385585Y-111511868D01*
X187385580Y-111511869D01*
X187194399Y-111591060D01*
X187022348Y-111706020D01*
X186876020Y-111852348D01*
X186761060Y-112024399D01*
X186681869Y-112215580D01*
X186681868Y-112215585D01*
X186641500Y-112418535D01*
X182406500Y-112418535D01*
X182406500Y-111657252D01*
X182394867Y-111598769D01*
X182350552Y-111532448D01*
X182350550Y-111532446D01*
X182284232Y-111488134D01*
X182284233Y-111488134D01*
X182284231Y-111488133D01*
X182284229Y-111488132D01*
X182284228Y-111488132D01*
X182254788Y-111482276D01*
X182225748Y-111476500D01*
X180486252Y-111476500D01*
X180462988Y-111481127D01*
X180427771Y-111488132D01*
X180427767Y-111488134D01*
X180361449Y-111532446D01*
X180361446Y-111532449D01*
X180317134Y-111598767D01*
X180317132Y-111598771D01*
X180308388Y-111642731D01*
X180305500Y-111657252D01*
X177518804Y-111657252D01*
X177518806Y-111656650D01*
X177524447Y-109883535D01*
X180305500Y-109883535D01*
X180305500Y-110090464D01*
X180345868Y-110293414D01*
X180345869Y-110293419D01*
X180355975Y-110317816D01*
X180425059Y-110484598D01*
X180540023Y-110656655D01*
X180686345Y-110802977D01*
X180858402Y-110917941D01*
X181049580Y-110997130D01*
X181252535Y-111037500D01*
X181252536Y-111037500D01*
X181459464Y-111037500D01*
X181459465Y-111037500D01*
X181662420Y-110997130D01*
X181853598Y-110917941D01*
X182025655Y-110802977D01*
X182171977Y-110656655D01*
X182286941Y-110484598D01*
X182366130Y-110293420D01*
X182406500Y-110090465D01*
X182406500Y-109883535D01*
X182405505Y-109878535D01*
X186641500Y-109878535D01*
X186641500Y-110085465D01*
X186642495Y-110090465D01*
X186681868Y-110288414D01*
X186681869Y-110288419D01*
X186683941Y-110293420D01*
X186761059Y-110479598D01*
X186876023Y-110651655D01*
X187022345Y-110797977D01*
X187194402Y-110912941D01*
X187385580Y-110992130D01*
X187588535Y-111032500D01*
X187588536Y-111032500D01*
X187795464Y-111032500D01*
X187795465Y-111032500D01*
X187998420Y-110992130D01*
X188189598Y-110912941D01*
X188361655Y-110797977D01*
X188507977Y-110651655D01*
X188622941Y-110479598D01*
X188702130Y-110288420D01*
X188742500Y-110085465D01*
X188742500Y-109878535D01*
X188702130Y-109675580D01*
X188622941Y-109484402D01*
X188507977Y-109312345D01*
X188361655Y-109166023D01*
X188197083Y-109056060D01*
X188189600Y-109051060D01*
X187998419Y-108971869D01*
X187998414Y-108971868D01*
X187835614Y-108939486D01*
X187795465Y-108931500D01*
X187588535Y-108931500D01*
X187563398Y-108936500D01*
X187385585Y-108971868D01*
X187385580Y-108971869D01*
X187194399Y-109051060D01*
X187022348Y-109166020D01*
X186876020Y-109312348D01*
X186761060Y-109484399D01*
X186681869Y-109675580D01*
X186681868Y-109675585D01*
X186641500Y-109878535D01*
X182405505Y-109878535D01*
X182366130Y-109680580D01*
X182286941Y-109489402D01*
X182171977Y-109317345D01*
X182025655Y-109171023D01*
X182018172Y-109166023D01*
X181853600Y-109056060D01*
X181662419Y-108976869D01*
X181662414Y-108976868D01*
X181499614Y-108944486D01*
X181459465Y-108936500D01*
X181252535Y-108936500D01*
X181219016Y-108943167D01*
X181049585Y-108976868D01*
X181049580Y-108976869D01*
X180858399Y-109056060D01*
X180686348Y-109171020D01*
X180540020Y-109317348D01*
X180425060Y-109489399D01*
X180345869Y-109680580D01*
X180345868Y-109680585D01*
X180305500Y-109883535D01*
X177524447Y-109883535D01*
X177524449Y-109882933D01*
X177530000Y-108138000D01*
X165800750Y-108138000D01*
X165821571Y-114682863D01*
X165818229Y-114691006D01*
X165810108Y-114694400D01*
X152652970Y-114694400D01*
X152644838Y-114691032D01*
X152641470Y-114682900D01*
X152641470Y-114682863D01*
X152662474Y-108080219D01*
X141536000Y-108080219D01*
X141527868Y-108076851D01*
X141524500Y-108068719D01*
X141524500Y-107338535D01*
X186641500Y-107338535D01*
X186641500Y-107545464D01*
X186681868Y-107748414D01*
X186681869Y-107748419D01*
X186694046Y-107777816D01*
X186761059Y-107939598D01*
X186876023Y-108111655D01*
X187022345Y-108257977D01*
X187194402Y-108372941D01*
X187385580Y-108452130D01*
X187588535Y-108492500D01*
X187588536Y-108492500D01*
X187795464Y-108492500D01*
X187795465Y-108492500D01*
X187998420Y-108452130D01*
X188189598Y-108372941D01*
X188361655Y-108257977D01*
X188507977Y-108111655D01*
X188622941Y-107939598D01*
X188702130Y-107748420D01*
X188742500Y-107545465D01*
X188742500Y-107338535D01*
X188702130Y-107135580D01*
X188622941Y-106944402D01*
X188507977Y-106772345D01*
X188361655Y-106626023D01*
X188361651Y-106626020D01*
X188189600Y-106511060D01*
X187998419Y-106431869D01*
X187998414Y-106431868D01*
X187835614Y-106399486D01*
X187795465Y-106391500D01*
X187588535Y-106391500D01*
X187555016Y-106398167D01*
X187385585Y-106431868D01*
X187385580Y-106431869D01*
X187194399Y-106511060D01*
X187022348Y-106626020D01*
X186876020Y-106772348D01*
X186761060Y-106944399D01*
X186681869Y-107135580D01*
X186681868Y-107135585D01*
X186641500Y-107338535D01*
X141524500Y-107338535D01*
X141524500Y-104798535D01*
X186641500Y-104798535D01*
X186641500Y-105005464D01*
X186681868Y-105208414D01*
X186681869Y-105208419D01*
X186694046Y-105237816D01*
X186761059Y-105399598D01*
X186876023Y-105571655D01*
X187022345Y-105717977D01*
X187194402Y-105832941D01*
X187385580Y-105912130D01*
X187588535Y-105952500D01*
X187588536Y-105952500D01*
X187795464Y-105952500D01*
X187795465Y-105952500D01*
X187998420Y-105912130D01*
X188189598Y-105832941D01*
X188361655Y-105717977D01*
X188507977Y-105571655D01*
X188622941Y-105399598D01*
X188702130Y-105208420D01*
X188742500Y-105005465D01*
X188742500Y-104798535D01*
X188702130Y-104595580D01*
X188622941Y-104404402D01*
X188507977Y-104232345D01*
X188361655Y-104086023D01*
X188361651Y-104086020D01*
X188189600Y-103971060D01*
X187998419Y-103891869D01*
X187998414Y-103891868D01*
X187835614Y-103859486D01*
X187795465Y-103851500D01*
X187588535Y-103851500D01*
X187555016Y-103858167D01*
X187385585Y-103891868D01*
X187385580Y-103891869D01*
X187194399Y-103971060D01*
X187022348Y-104086020D01*
X186876020Y-104232348D01*
X186761060Y-104404399D01*
X186681869Y-104595580D01*
X186681868Y-104595585D01*
X186641500Y-104798535D01*
X141524500Y-104798535D01*
X141524500Y-102258535D01*
X186641500Y-102258535D01*
X186641500Y-102465464D01*
X186681868Y-102668414D01*
X186681869Y-102668419D01*
X186694046Y-102697816D01*
X186761059Y-102859598D01*
X186876023Y-103031655D01*
X187022345Y-103177977D01*
X187194402Y-103292941D01*
X187385580Y-103372130D01*
X187588535Y-103412500D01*
X187588536Y-103412500D01*
X187795464Y-103412500D01*
X187795465Y-103412500D01*
X187998420Y-103372130D01*
X188189598Y-103292941D01*
X188361655Y-103177977D01*
X188507977Y-103031655D01*
X188622941Y-102859598D01*
X188702130Y-102668420D01*
X188742500Y-102465465D01*
X188742500Y-102258535D01*
X188702130Y-102055580D01*
X188622941Y-101864402D01*
X188507977Y-101692345D01*
X188361655Y-101546023D01*
X188361651Y-101546020D01*
X188189600Y-101431060D01*
X187998419Y-101351869D01*
X187998414Y-101351868D01*
X187835614Y-101319486D01*
X187795465Y-101311500D01*
X187588535Y-101311500D01*
X187555016Y-101318167D01*
X187385585Y-101351868D01*
X187385580Y-101351869D01*
X187194399Y-101431060D01*
X187022348Y-101546020D01*
X186876020Y-101692348D01*
X186761060Y-101864399D01*
X186681869Y-102055580D01*
X186681868Y-102055585D01*
X186641500Y-102258535D01*
X141524500Y-102258535D01*
X141524500Y-99718535D01*
X186641500Y-99718535D01*
X186641500Y-99925464D01*
X186681868Y-100128414D01*
X186681869Y-100128419D01*
X186694046Y-100157816D01*
X186761059Y-100319598D01*
X186876023Y-100491655D01*
X187022345Y-100637977D01*
X187194402Y-100752941D01*
X187385580Y-100832130D01*
X187588535Y-100872500D01*
X187588536Y-100872500D01*
X187795464Y-100872500D01*
X187795465Y-100872500D01*
X187998420Y-100832130D01*
X188189598Y-100752941D01*
X188361655Y-100637977D01*
X188507977Y-100491655D01*
X188622941Y-100319598D01*
X188702130Y-100128420D01*
X188742500Y-99925465D01*
X188742500Y-99718535D01*
X188702130Y-99515580D01*
X188622941Y-99324402D01*
X188507977Y-99152345D01*
X188361655Y-99006023D01*
X188342015Y-98992900D01*
X188189600Y-98891060D01*
X187998419Y-98811869D01*
X187998414Y-98811868D01*
X187835614Y-98779486D01*
X187795465Y-98771500D01*
X187588535Y-98771500D01*
X187555016Y-98778167D01*
X187385585Y-98811868D01*
X187385580Y-98811869D01*
X187194399Y-98891060D01*
X187022348Y-99006020D01*
X186876020Y-99152348D01*
X186761060Y-99324399D01*
X186681869Y-99515580D01*
X186681868Y-99515585D01*
X186641500Y-99718535D01*
X141524500Y-99718535D01*
X141524500Y-93992491D01*
X141527868Y-93984359D01*
X141535998Y-93980991D01*
X147496540Y-93999954D01*
X147504658Y-94003347D01*
X147508000Y-94011453D01*
X147508000Y-98992900D01*
X174317379Y-98992900D01*
X174317380Y-98992900D01*
X174317380Y-97178535D01*
X186641500Y-97178535D01*
X186641500Y-97385464D01*
X186681868Y-97588414D01*
X186681869Y-97588419D01*
X186694046Y-97617816D01*
X186761059Y-97779598D01*
X186876023Y-97951655D01*
X187022345Y-98097977D01*
X187194402Y-98212941D01*
X187385580Y-98292130D01*
X187588535Y-98332500D01*
X187588536Y-98332500D01*
X187795464Y-98332500D01*
X187795465Y-98332500D01*
X187998420Y-98292130D01*
X188189598Y-98212941D01*
X188361655Y-98097977D01*
X188507977Y-97951655D01*
X188622941Y-97779598D01*
X188702130Y-97588420D01*
X188742500Y-97385465D01*
X188742500Y-97178535D01*
X188702130Y-96975580D01*
X188622941Y-96784402D01*
X188507977Y-96612345D01*
X188361655Y-96466023D01*
X188361651Y-96466020D01*
X188189600Y-96351060D01*
X187998419Y-96271869D01*
X187998414Y-96271868D01*
X187835614Y-96239486D01*
X187795465Y-96231500D01*
X187588535Y-96231500D01*
X187555016Y-96238167D01*
X187385585Y-96271868D01*
X187385580Y-96271869D01*
X187194399Y-96351060D01*
X187022348Y-96466020D01*
X186876020Y-96612348D01*
X186761060Y-96784399D01*
X186681869Y-96975580D01*
X186681868Y-96975585D01*
X186641500Y-97178535D01*
X174317380Y-97178535D01*
X174317380Y-94638535D01*
X186641500Y-94638535D01*
X186641500Y-94845464D01*
X186681868Y-95048414D01*
X186681869Y-95048419D01*
X186694046Y-95077816D01*
X186761059Y-95239598D01*
X186876023Y-95411655D01*
X187022345Y-95557977D01*
X187194402Y-95672941D01*
X187385580Y-95752130D01*
X187588535Y-95792500D01*
X187588536Y-95792500D01*
X187795464Y-95792500D01*
X187795465Y-95792500D01*
X187998420Y-95752130D01*
X188189598Y-95672941D01*
X188361655Y-95557977D01*
X188507977Y-95411655D01*
X188622941Y-95239598D01*
X188702130Y-95048420D01*
X188742500Y-94845465D01*
X188742500Y-94638535D01*
X188702130Y-94435580D01*
X188622941Y-94244402D01*
X188507977Y-94072345D01*
X188361655Y-93926023D01*
X188361651Y-93926020D01*
X188189600Y-93811060D01*
X187998419Y-93731869D01*
X187998414Y-93731868D01*
X187835614Y-93699486D01*
X187795465Y-93691500D01*
X187588535Y-93691500D01*
X187555016Y-93698167D01*
X187385585Y-93731868D01*
X187385580Y-93731869D01*
X187194399Y-93811060D01*
X187022348Y-93926020D01*
X186876020Y-94072348D01*
X186761060Y-94244399D01*
X186681869Y-94435580D01*
X186681868Y-94435585D01*
X186641500Y-94638535D01*
X174317380Y-94638535D01*
X174317380Y-92098535D01*
X186641500Y-92098535D01*
X186641500Y-92305464D01*
X186681868Y-92508414D01*
X186681869Y-92508419D01*
X186761060Y-92699600D01*
X186876020Y-92871651D01*
X186876023Y-92871655D01*
X187022345Y-93017977D01*
X187194402Y-93132941D01*
X187385580Y-93212130D01*
X187588535Y-93252500D01*
X187588536Y-93252500D01*
X187795464Y-93252500D01*
X187795465Y-93252500D01*
X187998420Y-93212130D01*
X188189598Y-93132941D01*
X188361655Y-93017977D01*
X188507977Y-92871655D01*
X188622941Y-92699598D01*
X188702130Y-92508420D01*
X188742500Y-92305465D01*
X188742500Y-92098535D01*
X188702130Y-91895580D01*
X188622941Y-91704402D01*
X188507977Y-91532345D01*
X188361655Y-91386023D01*
X188361651Y-91386020D01*
X188189600Y-91271060D01*
X187998419Y-91191869D01*
X187998414Y-91191868D01*
X187835614Y-91159486D01*
X187795465Y-91151500D01*
X187588535Y-91151500D01*
X187555016Y-91158167D01*
X187385585Y-91191868D01*
X187385580Y-91191869D01*
X187194399Y-91271060D01*
X187022348Y-91386020D01*
X186876020Y-91532348D01*
X186761060Y-91704399D01*
X186681869Y-91895580D01*
X186681868Y-91895585D01*
X186641500Y-92098535D01*
X174317380Y-92098535D01*
X174317380Y-89558535D01*
X186641500Y-89558535D01*
X186641500Y-89765465D01*
X186649486Y-89805614D01*
X186681868Y-89968414D01*
X186681869Y-89968419D01*
X186761060Y-90159600D01*
X186876020Y-90331651D01*
X186876023Y-90331655D01*
X187022345Y-90477977D01*
X187194402Y-90592941D01*
X187385580Y-90672130D01*
X187588535Y-90712500D01*
X187588536Y-90712500D01*
X187795464Y-90712500D01*
X187795465Y-90712500D01*
X187998420Y-90672130D01*
X188189598Y-90592941D01*
X188361655Y-90477977D01*
X188507977Y-90331655D01*
X188622941Y-90159598D01*
X188702130Y-89968420D01*
X188742500Y-89765465D01*
X188742500Y-89558535D01*
X188702130Y-89355580D01*
X188622941Y-89164402D01*
X188507977Y-88992345D01*
X188361655Y-88846023D01*
X188322227Y-88819678D01*
X188189600Y-88731060D01*
X187998419Y-88651869D01*
X187998414Y-88651868D01*
X187835614Y-88619486D01*
X187795465Y-88611500D01*
X187588535Y-88611500D01*
X187555016Y-88618167D01*
X187385585Y-88651868D01*
X187385580Y-88651869D01*
X187194399Y-88731060D01*
X187022348Y-88846020D01*
X186876020Y-88992348D01*
X186761060Y-89164399D01*
X186681869Y-89355580D01*
X186681868Y-89355585D01*
X186641500Y-89558535D01*
X174317380Y-89558535D01*
X174317380Y-87018535D01*
X186641500Y-87018535D01*
X186641500Y-87225464D01*
X186681868Y-87428414D01*
X186681869Y-87428419D01*
X186696624Y-87464040D01*
X186761059Y-87619598D01*
X186876023Y-87791655D01*
X187022345Y-87937977D01*
X187194402Y-88052941D01*
X187385580Y-88132130D01*
X187588535Y-88172500D01*
X187588536Y-88172500D01*
X187795464Y-88172500D01*
X187795465Y-88172500D01*
X187998420Y-88132130D01*
X188189598Y-88052941D01*
X188361655Y-87937977D01*
X188507977Y-87791655D01*
X188622941Y-87619598D01*
X188702130Y-87428420D01*
X188742500Y-87225465D01*
X188742500Y-87018535D01*
X188702130Y-86815580D01*
X188622941Y-86624402D01*
X188507977Y-86452345D01*
X188361655Y-86306023D01*
X188361651Y-86306020D01*
X188189600Y-86191060D01*
X187998419Y-86111869D01*
X187998414Y-86111868D01*
X187835614Y-86079486D01*
X187795465Y-86071500D01*
X187588535Y-86071500D01*
X187555016Y-86078167D01*
X187385585Y-86111868D01*
X187385580Y-86111869D01*
X187194399Y-86191060D01*
X187022348Y-86306020D01*
X186876020Y-86452348D01*
X186761060Y-86624399D01*
X186681869Y-86815580D01*
X186681868Y-86815585D01*
X186641500Y-87018535D01*
X174317380Y-87018535D01*
X174317380Y-84478535D01*
X186641500Y-84478535D01*
X186641500Y-84685464D01*
X186681868Y-84888414D01*
X186681869Y-84888419D01*
X186694046Y-84917816D01*
X186761059Y-85079598D01*
X186876023Y-85251655D01*
X187022345Y-85397977D01*
X187194402Y-85512941D01*
X187385580Y-85592130D01*
X187588535Y-85632500D01*
X187588536Y-85632500D01*
X187795464Y-85632500D01*
X187795465Y-85632500D01*
X187998420Y-85592130D01*
X188189598Y-85512941D01*
X188361655Y-85397977D01*
X188507977Y-85251655D01*
X188622941Y-85079598D01*
X188702130Y-84888420D01*
X188742500Y-84685465D01*
X188742500Y-84478535D01*
X188702130Y-84275580D01*
X188622941Y-84084402D01*
X188507977Y-83912345D01*
X188361655Y-83766023D01*
X188202405Y-83659616D01*
X188189600Y-83651060D01*
X187998419Y-83571869D01*
X187998414Y-83571868D01*
X187835614Y-83539486D01*
X187795465Y-83531500D01*
X187588535Y-83531500D01*
X187555016Y-83538167D01*
X187385585Y-83571868D01*
X187385580Y-83571869D01*
X187194399Y-83651060D01*
X187022348Y-83766020D01*
X186876020Y-83912348D01*
X186761060Y-84084399D01*
X186681869Y-84275580D01*
X186681868Y-84275585D01*
X186641500Y-84478535D01*
X174317380Y-84478535D01*
X174317380Y-81938535D01*
X186641500Y-81938535D01*
X186641500Y-82145464D01*
X186681868Y-82348414D01*
X186681869Y-82348419D01*
X186761060Y-82539600D01*
X186836181Y-82652027D01*
X186876023Y-82711655D01*
X187022345Y-82857977D01*
X187194402Y-82972941D01*
X187385580Y-83052130D01*
X187588535Y-83092500D01*
X187588536Y-83092500D01*
X187795464Y-83092500D01*
X187795465Y-83092500D01*
X187998420Y-83052130D01*
X188189598Y-82972941D01*
X188361655Y-82857977D01*
X188507977Y-82711655D01*
X188622941Y-82539598D01*
X188702130Y-82348420D01*
X188742500Y-82145465D01*
X188742500Y-81938535D01*
X188702130Y-81735580D01*
X188622941Y-81544402D01*
X188507977Y-81372345D01*
X188361655Y-81226023D01*
X188361651Y-81226020D01*
X188189600Y-81111060D01*
X187998419Y-81031869D01*
X187998414Y-81031868D01*
X187835614Y-80999486D01*
X187795465Y-80991500D01*
X187588535Y-80991500D01*
X187555016Y-80998167D01*
X187385585Y-81031868D01*
X187385580Y-81031869D01*
X187194399Y-81111060D01*
X187022348Y-81226020D01*
X186876020Y-81372348D01*
X186761060Y-81544399D01*
X186681869Y-81735580D01*
X186681868Y-81735585D01*
X186641500Y-81938535D01*
X174317380Y-81938535D01*
X174317380Y-79398535D01*
X186641500Y-79398535D01*
X186641500Y-79605464D01*
X186681868Y-79808414D01*
X186681869Y-79808419D01*
X186761060Y-79999600D01*
X186856799Y-80142884D01*
X186876023Y-80171655D01*
X187022345Y-80317977D01*
X187194402Y-80432941D01*
X187385580Y-80512130D01*
X187588535Y-80552500D01*
X187588536Y-80552500D01*
X187795464Y-80552500D01*
X187795465Y-80552500D01*
X187998420Y-80512130D01*
X188189598Y-80432941D01*
X188361655Y-80317977D01*
X188507977Y-80171655D01*
X188622941Y-79999598D01*
X188702130Y-79808420D01*
X188742500Y-79605465D01*
X188742500Y-79398535D01*
X188702130Y-79195580D01*
X188622941Y-79004402D01*
X188507977Y-78832345D01*
X188361655Y-78686023D01*
X188361651Y-78686020D01*
X188189600Y-78571060D01*
X187998419Y-78491869D01*
X187998414Y-78491868D01*
X187835614Y-78459486D01*
X187795465Y-78451500D01*
X187588535Y-78451500D01*
X187555016Y-78458167D01*
X187385585Y-78491868D01*
X187385580Y-78491869D01*
X187194399Y-78571060D01*
X187022348Y-78686020D01*
X186876020Y-78832348D01*
X186761060Y-79004399D01*
X186681869Y-79195580D01*
X186681868Y-79195585D01*
X186641500Y-79398535D01*
X174317380Y-79398535D01*
X174317380Y-76858535D01*
X186641500Y-76858535D01*
X186641500Y-77065464D01*
X186681868Y-77268414D01*
X186681869Y-77268419D01*
X186694046Y-77297816D01*
X186761059Y-77459598D01*
X186876023Y-77631655D01*
X187022345Y-77777977D01*
X187194402Y-77892941D01*
X187385580Y-77972130D01*
X187588535Y-78012500D01*
X187588536Y-78012500D01*
X187795464Y-78012500D01*
X187795465Y-78012500D01*
X187998420Y-77972130D01*
X188189598Y-77892941D01*
X188361655Y-77777977D01*
X188507977Y-77631655D01*
X188622941Y-77459598D01*
X188702130Y-77268420D01*
X188742500Y-77065465D01*
X188742500Y-76858535D01*
X188702130Y-76655580D01*
X188622941Y-76464402D01*
X188507977Y-76292345D01*
X188361655Y-76146023D01*
X188361651Y-76146020D01*
X188189600Y-76031060D01*
X187998419Y-75951869D01*
X187998414Y-75951868D01*
X187835614Y-75919486D01*
X187795465Y-75911500D01*
X187588535Y-75911500D01*
X187555016Y-75918167D01*
X187385585Y-75951868D01*
X187385580Y-75951869D01*
X187194399Y-76031060D01*
X187022348Y-76146020D01*
X186876020Y-76292348D01*
X186761060Y-76464399D01*
X186681869Y-76655580D01*
X186681868Y-76655585D01*
X186641500Y-76858535D01*
X174317380Y-76858535D01*
X174317380Y-74318535D01*
X186641500Y-74318535D01*
X186641500Y-74525464D01*
X186681868Y-74728414D01*
X186681869Y-74728419D01*
X186737222Y-74862051D01*
X186761059Y-74919598D01*
X186876023Y-75091655D01*
X187022345Y-75237977D01*
X187194402Y-75352941D01*
X187385580Y-75432130D01*
X187588535Y-75472500D01*
X187588536Y-75472500D01*
X187795464Y-75472500D01*
X187795465Y-75472500D01*
X187998420Y-75432130D01*
X188189598Y-75352941D01*
X188361655Y-75237977D01*
X188507977Y-75091655D01*
X188622941Y-74919598D01*
X188702130Y-74728420D01*
X188742500Y-74525465D01*
X188742500Y-74318535D01*
X188702130Y-74115580D01*
X188622941Y-73924402D01*
X188507977Y-73752345D01*
X188361655Y-73606023D01*
X188361651Y-73606020D01*
X188189600Y-73491060D01*
X187998419Y-73411869D01*
X187998414Y-73411868D01*
X187835614Y-73379486D01*
X187795465Y-73371500D01*
X187588535Y-73371500D01*
X187555016Y-73378167D01*
X187385585Y-73411868D01*
X187385580Y-73411869D01*
X187194399Y-73491060D01*
X187022348Y-73606020D01*
X186876020Y-73752348D01*
X186761060Y-73924399D01*
X186681869Y-74115580D01*
X186681868Y-74115585D01*
X186641500Y-74318535D01*
X174317380Y-74318535D01*
X174317380Y-71778535D01*
X186641500Y-71778535D01*
X186641500Y-71985464D01*
X186681868Y-72188414D01*
X186681869Y-72188419D01*
X186761060Y-72379600D01*
X186876020Y-72551651D01*
X186876023Y-72551655D01*
X187022345Y-72697977D01*
X187194402Y-72812941D01*
X187385580Y-72892130D01*
X187588535Y-72932500D01*
X187588536Y-72932500D01*
X187795464Y-72932500D01*
X187795465Y-72932500D01*
X187998420Y-72892130D01*
X188189598Y-72812941D01*
X188361655Y-72697977D01*
X188507977Y-72551655D01*
X188622941Y-72379598D01*
X188702130Y-72188420D01*
X188742500Y-71985465D01*
X188742500Y-71778535D01*
X188702130Y-71575580D01*
X188622941Y-71384402D01*
X188507977Y-71212345D01*
X188361655Y-71066023D01*
X188204412Y-70960957D01*
X188189600Y-70951060D01*
X187998419Y-70871869D01*
X187998414Y-70871868D01*
X187835614Y-70839486D01*
X187795465Y-70831500D01*
X187588535Y-70831500D01*
X187555016Y-70838167D01*
X187385585Y-70871868D01*
X187385580Y-70871869D01*
X187194399Y-70951060D01*
X187022348Y-71066020D01*
X186876020Y-71212348D01*
X186761060Y-71384399D01*
X186681869Y-71575580D01*
X186681868Y-71575585D01*
X186641500Y-71778535D01*
X174317380Y-71778535D01*
X174317380Y-69238535D01*
X186641500Y-69238535D01*
X186641500Y-69445464D01*
X186681868Y-69648414D01*
X186681869Y-69648419D01*
X186743120Y-69796290D01*
X186761059Y-69839598D01*
X186876023Y-70011655D01*
X187022345Y-70157977D01*
X187194402Y-70272941D01*
X187385580Y-70352130D01*
X187588535Y-70392500D01*
X187588536Y-70392500D01*
X187795464Y-70392500D01*
X187795465Y-70392500D01*
X187998420Y-70352130D01*
X188189598Y-70272941D01*
X188361655Y-70157977D01*
X188507977Y-70011655D01*
X188622941Y-69839598D01*
X188702130Y-69648420D01*
X188742500Y-69445465D01*
X188742500Y-69238535D01*
X188702130Y-69035580D01*
X188622941Y-68844402D01*
X188507977Y-68672345D01*
X188361655Y-68526023D01*
X188361651Y-68526020D01*
X188189600Y-68411060D01*
X187998419Y-68331869D01*
X187998414Y-68331868D01*
X187835614Y-68299486D01*
X187795465Y-68291500D01*
X187588535Y-68291500D01*
X187555016Y-68298167D01*
X187385585Y-68331868D01*
X187385580Y-68331869D01*
X187194399Y-68411060D01*
X187022348Y-68526020D01*
X186876020Y-68672348D01*
X186761060Y-68844399D01*
X186681869Y-69035580D01*
X186681868Y-69035585D01*
X186641500Y-69238535D01*
X174317380Y-69238535D01*
X174317380Y-66698535D01*
X186641500Y-66698535D01*
X186641500Y-66905464D01*
X186681868Y-67108414D01*
X186681869Y-67108419D01*
X186743120Y-67256290D01*
X186761059Y-67299598D01*
X186876023Y-67471655D01*
X187022345Y-67617977D01*
X187194402Y-67732941D01*
X187385580Y-67812130D01*
X187588535Y-67852500D01*
X187588536Y-67852500D01*
X187795464Y-67852500D01*
X187795465Y-67852500D01*
X187998420Y-67812130D01*
X188189598Y-67732941D01*
X188361655Y-67617977D01*
X188507977Y-67471655D01*
X188622941Y-67299598D01*
X188702130Y-67108420D01*
X188742500Y-66905465D01*
X188742500Y-66698535D01*
X188702130Y-66495580D01*
X188622941Y-66304402D01*
X188507977Y-66132345D01*
X188361655Y-65986023D01*
X188361651Y-65986020D01*
X188189600Y-65871060D01*
X187998419Y-65791869D01*
X187998414Y-65791868D01*
X187835614Y-65759486D01*
X187795465Y-65751500D01*
X187588535Y-65751500D01*
X187555016Y-65758167D01*
X187385585Y-65791868D01*
X187385580Y-65791869D01*
X187194399Y-65871060D01*
X187022348Y-65986020D01*
X186876020Y-66132348D01*
X186761060Y-66304399D01*
X186681869Y-66495580D01*
X186681868Y-66495585D01*
X186641500Y-66698535D01*
X174317380Y-66698535D01*
X174317380Y-63392252D01*
X186641500Y-63392252D01*
X186641500Y-65131748D01*
X186653133Y-65190231D01*
X186654944Y-65192941D01*
X186697446Y-65256550D01*
X186697448Y-65256552D01*
X186763769Y-65300867D01*
X186822252Y-65312500D01*
X186822254Y-65312500D01*
X188561746Y-65312500D01*
X188561748Y-65312500D01*
X188620231Y-65300867D01*
X188686552Y-65256552D01*
X188730867Y-65190231D01*
X188742500Y-65131748D01*
X188742500Y-63392252D01*
X188730867Y-63333769D01*
X188686552Y-63267448D01*
X188686550Y-63267446D01*
X188620232Y-63223134D01*
X188620233Y-63223134D01*
X188620231Y-63223133D01*
X188620229Y-63223132D01*
X188620228Y-63223132D01*
X188590788Y-63217276D01*
X188561748Y-63211500D01*
X186822252Y-63211500D01*
X186798988Y-63216127D01*
X186763771Y-63223132D01*
X186763767Y-63223134D01*
X186697449Y-63267446D01*
X186697446Y-63267449D01*
X186653134Y-63333767D01*
X186653132Y-63333771D01*
X186645361Y-63372843D01*
X186641500Y-63392252D01*
X174317380Y-63392252D01*
X174317380Y-62034000D01*
X174320748Y-62025868D01*
X174328880Y-62022500D01*
X191238000Y-62022500D01*
X191246132Y-62025868D01*
G37*
%TD.AperFunction*%
M02*
